<?xml version="1.0" encoding="UTF-8" standalone="no"?>
<svg width="266px" height="40px" viewBox="0 0 266 40" version="1.1" xmlns="http://www.w3.org/2000/svg" xmlns:xlink="http://www.w3.org/1999/xlink">
    <!-- Generator: Sketch 3.8.3 (29802) - http://www.bohemiancoding.com/sketch -->
    <title>AddLee-Logo</title>
    <desc>Created with Sketch.</desc>
    <defs>
        <polygon id="path-1" points="30.2556804 19.3670407 30.2556804 0.0538762887 0.158175258 0.0538762887 0.158175258 38.6802052 30.2556804 38.6802052 30.2556804 19.3670407"></polygon>
    </defs>
    <g id="Symbols" stroke="none" stroke-width="1" fill="none" fill-rule="evenodd">
        <g id="Header:-User" transform="translate(-31.000000, -20.000000)">
            <g id="Header">
                <g id="Logo" transform="translate(31.000000, 20.000000)">
                    <g id="AddLee-Logo">
                        <g id="Page-1">
                            <g id="Group-3" transform="translate(36.608247, 0.637053)">
                                <mask id="mask-2" fill="white">
                                    <use xlink:href="#path-1"></use>
                                </mask>
                                <g id="Clip-2"></g>
                                <path d="M30.2066392,27.6162258 C29.7072474,33.1026278 25.2700515,36.8380505 19.7435876,37.1965351 L15.392732,37.2317619 L11.0432577,37.2317619 L11.0432577,13.7921227 L11.0432577,7.26204021 L11.0598351,7.26204021 C11.1026598,4.0170299 13.0919381,1.2444732 15.9135361,0.0536690722 L0.158175258,0.0536690722 L0.158175258,38.6802052 L30.2556804,38.6802052 L30.2556804,27.6162258 L30.2066392,27.6162258 Z" id="Fill-1" fill="#FEDB00" mask="url(#mask-2)"></path>
                            </g>
                            <path d="M24.3520825,0.690928866 L0,39.3174649 L11.5371237,39.3174649 C8.88268041,38.0327227 7.04536082,35.6932485 7.04536082,32.5463206 C7.04536082,31.0053206 7.65734021,29.9934134 8.51176289,28.5449701 L22.9285052,5.6565268 L22.9285052,32.3688052 L22.9236701,32.3701866 C22.8463093,35.4300835 21.0400722,38.0603515 18.4429588,39.3174649 L34.1257938,39.3174649 L34.1257938,0.690928866 L24.3520825,0.690928866 Z" id="Fill-4" fill="#FEDB00"></path>
                        </g>
                        <g id="Page-1" transform="translate(83.173789, 12.250000)" fill="#000000">
                            <path d="M10.1093528,9.92436628 L4.54177023,9.92436628 L6.96421752,4.24990116 C7.08859929,3.94369186 7.21635285,3.6071686 7.32574886,3.31438953 C7.43514487,3.60793605 7.56327308,3.94561047 7.68915342,4.25565698 L10.1093528,9.92436628 Z M6.59819046,0.674389535 L-3.74643878e-05,15.8847035 L1.98632436,15.8847035 L3.79248248,11.6449709 L10.858266,11.6449709 L12.6647987,15.8847035 L14.6511605,15.8847035 L8.05255798,0.674389535 L6.59819046,0.674389535 Z" id="Fill-1"></path>
                            <path d="M32.8437547,8.36254535 C32.8437547,12.1161035 29.9949627,14.0811384 27.1802632,14.0811384 L22.5916251,14.0811384 L22.5916251,2.4785686 L27.0176678,2.4785686 C30.3935838,2.4785686 32.8437547,4.95395233 32.8437547,8.36254535 M27.0176678,0.674312791 L20.7892134,0.674312791 L20.7892134,15.8846267 L27.1802632,15.8846267 C31.4598202,15.8846267 34.6870026,12.6513942 34.6870026,8.36254535 C34.6870026,3.97968488 31.3901365,0.674312791 27.0176678,0.674312791" id="Fill-4"></path>
                            <path d="M53.4799635,8.36254535 C53.4799635,12.1161035 50.6307969,14.0811384 47.8160974,14.0811384 L43.2278339,14.0811384 L43.2278339,2.4785686 L47.6538766,2.4785686 C51.0297926,2.4785686 53.4799635,4.95395233 53.4799635,8.36254535 M47.6538766,0.674312791 L41.4250476,0.674312791 L41.4250476,15.8846267 L47.8160974,15.8846267 C52.0956544,15.8846267 55.3228368,12.6513942 55.3228368,8.36254535 C55.3228368,3.97968488 52.0259707,0.674312791 47.6538766,0.674312791" id="Fill-6"></path>
                            <polygon id="Fill-8" points="62.0608818 15.8846267 63.8632934 15.8846267 63.8632934 0.674312791 62.0608818 0.674312791"></polygon>
                            <path d="M76.6322432,7.06641279 L76.5400808,7.04070349 C74.7170637,6.53150581 72.8314811,6.00350581 72.8314811,4.51735465 C72.8314811,3.06458721 74.1225038,2.12523837 76.1212289,2.12523837 C78.0000679,2.12523837 79.3884981,3.23227326 79.6574925,4.94481977 L79.714813,5.30628488 L81.4850053,4.82011047 L81.4306819,4.52042442 C80.9818585,2.04619186 78.8639967,0.38352907 76.1616905,0.38352907 C73.1641648,0.38352907 70.9886078,2.13943605 70.9886078,4.55918023 C70.9886078,7.26940116 73.6856691,8.06255233 75.3592033,8.55525 C75.5839896,8.62278488 75.8170181,8.6891686 76.0545423,8.75631977 C77.8936691,9.27971512 79.7961107,9.81922674 79.7961107,11.709436 C79.7961107,13.326436 78.3844526,14.4142849 76.2830751,14.4142849 C73.8216648,14.4142849 72.5812189,12.821843 72.4444739,11.2435988 L72.4103813,10.8495174 L70.6503044,11.3414477 L70.6866449,11.6273198 C71.0388101,14.3912616 73.2196121,16.1763314 76.2426135,16.1763314 C79.4319568,16.1763314 81.6595893,14.3314012 81.6595893,11.6883314 C81.6595893,8.50191279 78.6350893,7.6385407 76.6322432,7.06641279" id="Fill-10"></path>
                            <path d="M101.020286,8.27954651 C101.020286,11.7978837 98.5528811,14.3515465 95.1537372,14.3515465 C91.7662073,14.3515465 89.3074195,11.7978837 89.3074195,8.27954651 C89.3074195,4.76197674 91.7662073,2.20831395 95.1537372,2.20831395 C98.5528811,2.20831395 101.020286,4.76197674 101.020286,8.27954651 M95.1537372,0.38372093 C90.7700292,0.38372093 87.4645463,3.77773256 87.4645463,8.27954651 C87.4645463,12.7813605 90.7700292,16.1761395 95.1537372,16.1761395 C99.5490591,16.1761395 102.863533,12.7813605 102.863533,8.27954651 C102.863533,3.77773256 99.5490591,0.38372093 95.1537372,0.38372093" id="Fill-11"></path>
                            <path d="M119.748358,9.83856628 C119.748358,10.8765314 119.771212,11.8561709 119.789944,12.5480198 C119.767465,12.5165547 119.744237,12.4843221 119.72026,12.4513221 C119.407058,12.0138802 118.992327,11.4363802 118.504166,10.7637174 L111.182501,0.674159302 L109.601504,0.674159302 L109.601504,15.884857 L111.403915,15.884857 L111.403915,6.70011279 C111.403915,5.61533372 111.387056,4.63108953 111.374318,3.93808953 C111.67778,4.37898488 112.101877,4.98871744 112.648108,5.75462442 L119.989629,15.884857 L121.571375,15.884857 L121.571375,0.674159302 L119.748358,0.674159302 L119.748358,9.83856628 Z" id="Fill-12"></path>
                            <polygon id="Fill-13" points="141.088935 0.674312791 139.286523 0.674312791 139.286523 15.8846267 148.9632 15.8846267 148.9632 14.0811384 141.088935 14.0811384"></polygon>
                            <polygon id="Fill-14" points="157.179327 8.65129535 163.69401 8.65129535 163.69401 6.88924884 157.179327 6.88924884 157.179327 2.47876047 165.256275 2.47876047 165.256275 0.67412093 155.376916 0.67412093 155.376916 15.8848186 165.378409 15.8848186 165.378409 14.0813302 157.179327 14.0813302"></polygon>
                            <polygon id="Fill-15" points="174.405977 14.0812151 174.405977 8.65118023 180.92066 8.65118023 180.92066 6.88913372 174.405977 6.88913372 174.405977 2.47864535 182.482925 2.47864535 182.482925 0.674389535 172.603566 0.674389535 172.603566 15.8847035 182.605059 15.8847035 182.605059 14.0812151"></polygon>
                        </g>
                    </g>
                </g>
            </g>
        </g>
    </g>
</svg>