<svg width="350" height="350" viewBox="0 0 350 350" fill="none" xmlns="http://www.w3.org/2000/svg">
<g clip-path="url(#clip0_6197_594)">
<path fill-rule="evenodd" clip-rule="evenodd" d="M335.944 190.212C333.547 216.876 312.264 235.025 285.75 236.767L264.877 236.94H244.013V91.3026H244.09C244.244 76.0794 253.398 62.3098 267.375 56.2744H191.793V243.977H336.18V190.212H335.944V190.212ZM130.486 56.2744L13.7163 243.977H69.0404C56.3103 237.735 47.4979 226.362 47.4979 211.071C47.4979 203.582 50.4338 198.668 54.5296 191.627L123.662 80.4014V210.21L123.638 210.219C123.32 224.571 115.023 237.609 102.153 243.977H177.354V56.2744H130.486Z" fill="#FEDB00"/>
<path fill-rule="evenodd" clip-rule="evenodd" d="M19.376 282.477H8.70568L13.3479 271.601C13.5856 271.015 13.831 270.369 14.0418 269.807C14.2507 270.371 14.496 271.018 14.7376 271.613L19.376 282.477V282.477ZM12.6464 264.747L0 293.9H3.80658L7.26815 285.775H20.8116L24.2751 293.902H28.0817L15.4333 264.749H12.6464V264.747V264.747ZM62.9523 279.485C62.9523 286.678 57.4897 290.444 52.0961 290.444H43.3003V268.209H51.7836C58.2544 268.209 62.9523 272.952 62.9523 279.486M51.7836 264.749H39.8464V293.902H52.0961C60.2996 293.902 66.4848 287.705 66.4848 279.486C66.4848 271.086 60.1654 264.749 51.7836 264.749M102.505 279.485C102.505 286.678 97.0428 290.444 91.6492 290.444H82.8554V268.209H91.3387C97.8095 268.209 102.505 272.952 102.505 279.486M91.3387 264.749H79.3976V293.902H91.6492C99.8527 293.902 106.038 287.705 106.038 279.486C106.038 271.086 99.7185 264.749 91.3368 264.749M118.953 293.902H122.407V264.749H118.953V293.902ZM146.881 276.999L146.705 276.951C143.211 275.973 139.596 274.963 139.596 272.113C139.596 269.33 142.07 267.528 145.902 267.528C149.503 267.528 152.163 269.65 152.679 272.933L152.79 273.625L156.183 272.694L156.077 272.119C155.219 267.377 151.159 264.191 145.978 264.191C140.234 264.191 136.063 267.555 136.063 272.193C136.063 277.388 141.232 278.91 144.441 279.853C144.872 279.983 145.319 280.109 145.773 280.238C149.3 281.242 152.945 282.275 152.945 285.898C152.945 288.997 150.239 291.083 146.212 291.083C141.493 291.083 139.116 288.031 138.854 285.007L138.789 284.251L135.415 285.193L135.484 285.741C136.161 291.038 140.339 294.462 146.133 294.462C152.248 294.462 156.516 290.923 156.516 285.858C156.516 279.751 150.72 278.095 146.881 276.999ZM193.626 279.325C193.626 286.068 188.897 290.964 182.382 290.964C175.888 290.964 171.175 286.068 171.175 279.325C171.175 272.582 175.888 267.687 182.382 267.687C188.897 267.687 193.626 272.582 193.626 279.325M182.382 264.191C173.979 264.191 167.643 270.696 167.643 279.325C167.643 287.953 173.979 294.46 182.382 294.46C190.806 294.46 197.16 287.953 197.16 279.325C197.16 270.696 190.806 264.191 182.382 264.191M229.522 282.314C229.522 284.303 229.566 286.18 229.602 287.506C228.784 286.364 227.961 285.223 227.137 284.087L213.103 264.747H210.075V293.9H213.529V276.297C213.529 274.217 213.496 272.331 213.471 271.003C214.054 271.848 214.867 273.016 215.913 274.486L229.984 293.902H233.016V264.749H229.522V282.314V282.314ZM270.426 264.747H266.97V293.9H285.518V290.444H270.426V264.747V264.747ZM301.266 280.037H313.753V276.661H301.266V268.209H316.747V264.749H297.81V293.902H316.981V290.446H301.266V280.037V280.037ZM334.285 290.444V280.037H346.77V276.661H334.285V268.209H349.766V264.749H330.829V293.902H350V290.446L334.285 290.444V290.444Z" fill="black"/>
</g>
<defs>
<clipPath id="clip0_6197_594">
<rect width="350" height="350" fill="white"/>
</clipPath>
</defs>
</svg>
