<?xml version="1.0" encoding="UTF-8" standalone="no"?>
<svg width="22px" height="22px" viewBox="0 0 22 22" version="1.1" xmlns="http://www.w3.org/2000/svg" xmlns:xlink="http://www.w3.org/1999/xlink">
    <!-- Generator: sketchtool 3.7.2 (28276) - http://www.bohemiancoding.com/sketch -->
    <title>C7D5340C-C5D1-4083-96A4-A806DD10C7A5</title>
    <desc>Created with sketchtool.</desc>
    <defs></defs>
    <g id="Symbols" stroke="none" stroke-width="1" fill="none" fill-rule="evenodd">
        <g id="Footer" transform="translate(-418.000000, -314.000000)">
            <g id="Group-2">
                <g transform="translate(417.000000, 313.000000)">
                    <g id="facebook" transform="translate(1.200000, 1.200000)">
                        <rect id="Rectangle" x="0" y="0" width="21.6" height="21.6"></rect>
                        <circle id="Oval" fill="#494A43" cx="10.8" cy="10.8" r="10.8"></circle>
                        <path d="M13.7446849,6 L7.85531515,6 C6.83254939,6 6,6.83198495 6,7.85531515 L6,13.7446849 C6,14.7680151 6.83254939,15.6 7.85531515,15.6 L13.7446849,15.6 C14.7674506,15.6 15.6,14.7680151 15.6,13.7446849 L15.6,7.85531515 C15.6,6.83198495 14.7674506,6 13.7446849,6 L13.7446849,6 Z M14.276952,7.10686736 L14.4891816,7.10573848 L14.4891816,8.73301976 L12.8669802,8.73809972 L12.8613358,7.11081844 L14.276952,7.10686736 L14.276952,7.10686736 Z M9.43010348,9.8144873 C9.73715898,9.38889934 10.2361242,9.11006585 10.8,9.11006585 C11.3638758,9.11006585 11.862841,9.38889934 12.1698965,9.8144873 C12.3702728,10.0921919 12.4899341,10.4319849 12.4899341,10.8 C12.4899341,11.7313264 11.7318909,12.4893697 10.8,12.4893697 C9.86867357,12.4893697 9.11063029,11.7313264 9.11063029,10.8 C9.11063029,10.4319849 9.23029163,10.0921919 9.43010348,9.8144873 L9.43010348,9.8144873 Z M14.6647225,13.7446849 C14.6647225,14.2521167 14.2521167,14.6647225 13.7446849,14.6647225 L7.85531515,14.6647225 C7.34788335,14.6647225 6.93527752,14.2521167 6.93527752,13.7446849 L6.93527752,9.8144873 L8.36895579,9.8144873 C8.24477893,10.119285 8.17535278,10.4517404 8.17535278,10.8 C8.17535278,12.2472248 9.35277516,13.4252117 10.8,13.4252117 C12.2477893,13.4252117 13.4252117,12.2472248 13.4252117,10.8 C13.4252117,10.4517404 13.3546566,10.119285 13.2316087,9.8144873 L14.6647225,9.8144873 L14.6647225,13.7446849 L14.6647225,13.7446849 Z" id="Shape" fill="#FCFCFC"></path>
                    </g>
                </g>
            </g>
        </g>
    </g>
</svg>