<?xml version="1.0" encoding="UTF-8" standalone="no"?>
<svg width="22px" height="22px" viewBox="0 0 22 22" version="1.1" xmlns="http://www.w3.org/2000/svg" xmlns:xlink="http://www.w3.org/1999/xlink">
    <!-- Generator: sketchtool 3.7.2 (28276) - http://www.bohemiancoding.com/sketch -->
    <title>85F5DD9B-A8F9-4A59-9259-50342AA9AEC9</title>
    <desc>Created with sketchtool.</desc>
    <defs></defs>
    <g id="Symbols" stroke="none" stroke-width="1" fill="none" fill-rule="evenodd">
        <g id="Footer" transform="translate(-382.000000, -314.000000)">
            <g id="Group-2">
                <g transform="translate(381.000000, 313.000000)">
                    <g id="facebook-copy-2" transform="translate(1.200000, 1.200000)">
                        <rect id="Rectangle" x="0" y="0" width="21.6" height="21.6"></rect>
                        <circle id="Oval" fill="#494A43" cx="10.8" cy="10.8" r="10.8"></circle>
                        <path d="M14.4690967,8.52800809 C14.8759289,8.26592518 15.1880965,7.85035389 15.3346012,7.35530839 C14.953689,7.59858443 14.5327699,7.77451972 14.0836767,7.86976744 C13.7253038,7.45722952 13.2131009,7.2 12.6462405,7.2 C11.5587251,7.2 10.6774432,8.14944388 10.6774432,9.32032356 C10.6774432,9.48655207 10.6937841,9.64853387 10.7275929,9.80323559 C9.09124846,9.71466127 7.64028878,8.87138524 6.66828667,7.58766431 C6.49867934,7.90192113 6.40176087,8.26592518 6.40176087,8.65419616 C6.40176087,9.38948433 6.74942772,10.0386249 7.27797147,10.4196158 C6.95509773,10.4086957 6.65138229,10.3122346 6.38541997,10.1544995 L6.38541997,10.1805865 C6.38541997,11.2082912 7.06384927,12.0655207 7.96597993,12.2596562 C7.80031696,12.3094034 7.62676528,12.334277 7.44645184,12.334277 C7.31966896,12.334277 7.19570347,12.3215369 7.07624582,12.2966633 C7.32643071,13.138726 8.05388273,13.7526795 8.91600634,13.7690597 C8.24152139,14.3381193 7.39235781,14.6766431 6.46994189,14.6766431 C6.31104068,14.6766431 6.1538299,14.667543 6,14.6475228 C6.87170276,15.2487361 7.90681458,15.6 9.01912309,15.6 C12.6422962,15.6 14.6223631,12.3688574 14.6223631,9.56663296 C14.6223631,9.4744186 14.6212361,9.38281092 14.6172918,9.29241658 C15.0021483,8.99332659 15.3368551,8.61961577 15.6,8.19433771 C15.2466984,8.36299292 14.8669132,8.47704752 14.4690967,8.52800809 Z" id="Shape" fill="#FCFCFC"></path>
                    </g>
                </g>
            </g>
        </g>
    </g>
</svg>