<?xml version="1.0" encoding="utf-8"?>
<!-- Generator: Adobe Illustrator 19.0.0, SVG Export Plug-In . SVG Version: 6.00 Build 0)  -->
<!DOCTYPE svg PUBLIC "-//W3C//DTD SVG 1.1//EN" "http://www.w3.org/Graphics/SVG/1.1/DTD/svg11.dtd">
<svg version="1.1"
	 id="svg2" xmlns:dc="http://purl.org/dc/elements/1.1/" xmlns:rdf="http://www.w3.org/1999/02/22-rdf-syntax-ns#" xmlns:cc="http://creativecommons.org/ns#"
	 xmlns="http://www.w3.org/2000/svg" xmlns:xlink="http://www.w3.org/1999/xlink" x="0px" y="0px" viewBox="-41 164.9 512 512"
	 style="enable-background:new -41 164.9 512 512;" xml:space="preserve">
<style type="text/css">
	.st0{fill:#FFFFFF;}
	.st1{fill:#00AB39;}
	.st2{fill:#D21034;}
</style>
<rect x="-39.7" y="251.1" class="st0" width="509.5" height="339.7"/>
<rect x="-39.7" y="420.9" class="st1" width="509.5" height="169.8"/>
<g id="dragon" transform="translate(-59.512 8.2826)">
	<path d="M380.4,285.4c-1.3-0.2-2.6,0.1-4.1,0.7c-2.9,1.3-6.4,4.3-12.5,8.9c-13.8,10.5-29.4,11.9-48,12.3
		c-38.6,0.9-56.5,10.3-65,22.4c-8.4,12.1-7.4,26.6-8.4,37.4c-0.7,7.4-2.1,13.7-7.4,20.6c1.5-3.6,1.9-6.2,1.6-8.2
		c-0.4-2.1-1.6-3.4-2.9-4.6c-1.4-1.1-2.9-2-4.1-3.3c-0.9-1-1.5-2.3-1.9-3.9c1.5-1,3.4-1,4.8-0.1c1.8,1.1,3.1,3.6,2.2,7.4
		c0,0.2,0.1,0.3,0.2,0.4c0,0.1,0,0.1,0,0.2c0.2,0.1,0.4,0.1,0.5,0l0.1-0.1c0,0,0,0,0,0c3.7-4,5.4-7.2,5.6-10
		c0.3-2.8-0.8-5.1-2.3-7.1c-1.5-2-3.4-3.7-4.7-5.4c-1.3-1.6-2.1-3.1-1.8-4.9c0.6-0.6,1.2-1,1.7-1.2c1.1-0.5,2-0.2,2.8,0.6
		c0.8,0.8,1.5,2,1.9,3.3c0.4,1.3,0.5,2.8,0.4,3.8c0,0,0,0,0,0.1c-0.1,0.2,0,0.4,0.2,0.5c0.2,0.1,0.4,0.1,0.5-0.1c0,0,0-0.1,0.1-0.1
		c0,0,0,0,0-0.1c2.5-3.8,3.5-7,3.5-9.8c0-2.8-0.9-5.2-2.3-7.3c-1.4-2-3.1-3.7-4.7-5.1c-1.5-1.4-2.8-2.5-3.5-3.6c0-0.3,0-0.7,0-1
		c1.2-0.8,2.7-1.3,4.2-1c1.6,0.3,3,1.5,3.6,4c0,0,0,0,0.1,0c0,0.2,0.2,0.4,0.4,0.4c0.2,0,0.4-0.2,0.4-0.4v0
		c0.2-5.2-0.8-9.3-2.7-12.4c-1.8-2.9-4.4-4.8-7.5-5.8c0.1-0.2,0.2-0.4,0.4-0.6c1.1-1.4,2.5-3,3.9-4.9c2.8-3.8,5.5-8.5,4.9-14.4
		c0-0.1-0.1-0.1-0.1-0.1c0-0.1,0-0.1-0.1-0.2c-0.1-0.1-0.2-0.1-0.3-0.1c-0.1,0-0.1,0.1-0.1,0.1c-0.1,0-0.1,0-0.2,0.1
		c-2.6,3.4-7.4,4.4-12.4,5.1c0.6-1,1.3-2.4,1.9-4.1c0.7-1.9,1.3-3.8,1-5.2v0c0,0,0-0.1,0-0.1c0-0.1-0.1-0.2-0.2-0.3
		c-0.1-0.1-0.2-0.1-0.3-0.1c0,0,0,0.1-0.1,0.1c-0.1,0-0.1,0.1-0.2,0.1c-3,3.3-8.8,5.3-13.8,6.7c-2.5,0.7-4.9,1.2-6.6,1.8
		c-0.9,0.3-1.6,0.5-2.2,0.8c-0.4,0.2-0.6,0.4-0.8,0.7c-3.5-0.8-6.8-1.3-9.7-1.4c-5.3-0.3-9.7,0.4-12.6,1.6c-1.5,0.6-2.6,1.4-3.3,2.2
		c-0.7,0.9-1,1.9-0.8,3c0.2,1,1,1.9,2.1,2.9c-7.6-3.1-14.2-4.4-19.5-4.4c-2.2,0-4.2,0.2-6,0.5c-3.6,0.6-6.5,1.8-8.6,3
		c-1.6,0.9-2.6,1.8-3.3,2.5c-0.1,0.1-0.2,0.1-0.3,0.2c0,0,0,0-0.1,0c0,0,0,0.1,0,0.1c0,0-0.1,0.1-0.2,0.2c0,0,0,0-0.1,0v0
		c0,0-0.1,0.1-0.1,0.1c-0.1,0.2-0.1,0.4,0,0.5c0.1,0.1,0.4,0.2,0.5,0.1c1-0.6,2.1-1.1,3.2-1.5c0.1,0,0.1,0,0.2,0
		c1,0,1.9,0.2,2.9,0.6c1,0.4,2,0.9,2.7,1.3c0.7,0.4,1.2,0.8,1.3,0.9c0,0,0,0,0.1,0.1c0.5,0.3,1.2,0.6,1.9,1c-1.5,3.1-2,6.9-2,12.6
		c-0.3,0.1-0.5,0.1-0.8,0.2c-1.6,0.2-3.6,0.4-5.8,0.2c-3.2-0.2-6.7-1-9.9-2.7c0.5,0.1,1.1,0.3,1.6,0.3c2.4,0.1,4.5-0.4,6-1.2
		c0.2-0.1,0.5-0.1,0.7-0.1c0.2-0.1,0.3-0.2,0.3-0.4c0-0.1-0.1-0.2-0.2-0.3c0,0,0-0.1-0.1-0.1c-2.3-0.9-14.6-6.5-25-19.7c0,0,0,0,0,0
		s0,0,0,0c-0.1-0.1-0.2-0.2-0.4-0.2c-0.2,0-0.4,0.2-0.3,0.5c0,0.1,0,0.1,0,0.2c0.5,6.2,2.4,21.5,15.1,33.8c0.1,0.1,0.3,0.2,0.5,0.1
		c0.2-0.1,0.2-0.3,0.2-0.4c-0.3-1.6-0.5-2.7-0.8-4.4c0,0,0,0-0.1-0.1c0-2.1-0.1-3.6-0.4-4.8c3.8,3.5,7.8,5,11.5,5.5
		c4.8,0.6,9.1-0.4,11.9-0.8c0.1,0,0.3-0.1,0.5-0.1c0,2.7-1,6.1-2.7,9c-1,1.6-2.1,3-3.3,4c-1.2,1-2.4,1.5-3.6,1.4h0
		c-0.2,0-0.3,0.2-0.3,0.4c-0.1,0.1-0.2,0.1-0.2,0.2c0,0.2,0.2,0.4,0.4,0.4c5.2,0,9.5,0.1,14.2-0.2h0c0.6-0.1,0.9,0,0.9,0
		c0,0,0,0.1-0.1,0.2c-0.3,0.5-1.3,1.5-2.4,2.6c-0.1,0.1-0.2,0.3-0.1,0.5c0.1,0.2,0.2,0.3,0.4,0.3c0,0,0.1,0,0.1,0
		c0.1,0.1,0.2,0.1,0.4,0.1c0.1,0,0.1,0,0.1-0.1c0.2,0,0.3-0.1,0.5-0.2c3-0.3,6.8-1,9.7-3c-0.1,0.3-0.2,0.7-0.3,1
		c-0.1,0.3-0.3,0.5-0.7,0.9c0,0-0.2,0.1-0.2,0.2c-0.5,0.4-0.8,0.7-1.5,1.1c0,0,0,0-0.1,0.1c-0.1,0.1-0.2,0.3-0.2,0.5
		c0,0.2,0.2,0.3,0.3,0.3c0,0,0.1,0,0.1,0h0.1c0,0,0.1,0,0.1,0c3.2-0.3,8.8-2.8,12.8-7c2.1,0.3,3.4,1.3,4.3,2.3
		c0.5,0.6,0.9,1.1,1.3,1.4c0.2,0.1,0.4,0.2,0.6,0.3c0,0.2-0.2,0.4-0.1,0.6c0.1,0.4,0.4,0.7,0.7,0.9c-1.5,2.8-2,4.7-1.7,5.9
		c0.1,0.7,0.5,1.2,0.8,1.5c-2,1.5-3.7,3-4.5,4.5c-0.4,0.8-0.7,1.5-0.5,2.2c0.1,0.2,0.2,0.3,0.3,0.5c-0.2,0-0.3,0-0.5,0h0
		c-2,1-3.9,2.9-5,4.8c-0.5,0.9-0.8,1.9-0.7,2.7c0,0.4,0.2,0.7,0.4,1c-2.5,1.3-4.9,4.2-6.2,6.7c-0.7,1.3-1,2.5-0.9,3.5
		c0.1,0.5,0.3,0.9,0.7,1.2c-0.1,0.1-0.1,0.2-0.2,0.2c0,0-0.1,0.1-0.1,0.1c-2.5,1.3-4.2,4.3-4.9,7c-0.4,1.4-0.5,2.6-0.3,3.6
		c0.1,0.3,0.3,0.6,0.5,0.9c-0.1,0.1-0.3,0.2-0.4,0.3c-0.8,0.7-1.3,1.4-1.5,1.7l0,0c-1.5,1.9-2.1,5-2,7.5c0.1,1.3,0.3,2.5,0.8,3.3
		c0.2,0.3,0.4,0.5,0.7,0.7c0,0-0.1,0.1-0.2,0.1l0,0c-1.5,1.9-2.1,5-2,7.5c0.1,1.3,0.3,2.5,0.8,3.3c0.2,0.4,0.6,0.8,1,1
		c0.2,0.1,0.5,0,0.7,0.1c-0.1,0.1-0.2,0.3-0.3,0.3c0,0,0,0,0,0.1c-0.2,0.2-0.4,0.5-0.5,0.9c-0.1,0.2-0.1,0.5-0.2,0.7
		c-0.9,1.8-1.7,0.8-2.2,0.1c-3.9-8.2-7.8-13-11.5-31.6c-0.7-3.2-7.9-8.3-9.9-21.5c-0.4-3,4.1-9.4-2.1-11.3c0,0,0,0-0.1,0
		c-4.2-8-12.9-5-14.2-2.3c-0.1,0.1-0.1,0.3,0,0.5c0.1,0.2,0.3,0.2,0.5,0.2c1.1-0.3,4.4,0.8,4.5,2.9c-1.9,4.4,0.5,8-0.8,7.6
		c-0.2-6.8-7.7-6.7-7.9-6.7c0,0,0,0,0,0l-3.3-0.4c-11.1,0.1-8,8.2-7.3,9.8c0.1,0.1,0.4,0.2,0.6,0.2c0.2,0,0.4-0.1,0.5-0.3
		c-0.5-3,1.9-3.2,4.5-2c1.6,6.2,5,6.4,5.5,6.4v0h0.1c4.6,0.9,6.1,4,6.1,5.9c-1.5-0.6-3.3-0.9-5.8-0.4c-1.7-1.7-4.9-2.3-6-2.5
		c-0.5-0.1-4,0.3-5.4,2.3l-0.5-0.1c-6.9,2.2-4.1,10-1.7,10.9c0.1,0.1,0.2,0.2,0.4,0.1c0.1-0.1,0.2-0.2,0.2-0.3
		c-1-2.4,0.4-3.7,2.2-2.9c2.6,2.9,5.9,4.1,12.5,0.3c0.1,0.1,2.3,1.1,4.7,1.9c-0.1,2.8,2.9,7.7,5,11.3c-0.7,2.8-1.8,5.6-2.4,6.7
		c0,0,0,0-0.1,0.1c-2.7,2.1-5,7-3.9,11.4c-0.8,2.2-3.9,3.3-3.9-0.8c-0.1-0.1-0.3-0.1-0.5-0.1c-0.2,0.1-0.2,0.3-0.2,0.5
		c-1,2.8,3.6,11.2,10.8,6.8l1.4-1.6c2.4,0,4.8-3.1,5.7-5.7c3.5,21.7,11.9,43.7,15.4,50.8c-2.6,8-10.1,7.7-12.6,5.1c0,0,0,0-0.1-0.1
		c-0.2-0.2-0.4-0.1-0.6,0.1c-0.1,0.2-0.1,0.4,0.1,0.6c4.6,4.6,7.1,6.1,11.7,6.1c10,0,13.5-6.2,14.2-8.9c8.4-1.8,14.9-7.3,17.3-7.7
		c0.4,0.3,0.9,0.9,1.2,1.2c2,1.6,3.7,2.5,5.1,2.6c0.7,0.1,1.4,0,1.9-0.3c0.6,1.2,1.4,2.1,2.5,2.9c-0.4,3-0.8,9-2.9,16.7
		c-2.2,7.9-6.3,17.4-14.3,26.3c-3.2,1.4-5.7-0.7-7.3-2.1c-1.4-1.1-5-4.9-5.6-6.9c-0.7-2.3-1.6-4-2.8-5.2c-1.2-1.2-3.3-1.6-4.9-1.8
		c0,0,0.6,0.1-0.1,0c-0.6,0.1-1,0-1.3,0.1c-4.9-3.9-9.7,2.6-9.1,6.7c0,0.2,0.1,0.3,0.3,0.4c0.2,0.1,0.4,0,0.5-0.2
		c0.7-1.5,2.6-1.1,3.6,0.2c-0.2,1.4-0.1,3.1,1.5,5c-1.5,0.1-3.5,0.6-5.5,2.9c-8.3,1-6.8,10.5-4.3,12c0.1,0.2,0.2,0.3,0.4,0.2
		c0.2,0,0.3-0.2,0.3-0.3c-2.7-3.5,1.1-5.1,3-3.4c0.5,1.5,2.7,3,4.6,3.9c-0.1,0.5-0.7,2.3-0.5,2.8c-9,4.9-0.7,13.5,1.4,12.9
		c0.2-0.1,0.3-0.1,0.5-0.2c0.1-0.1,0.2-0.3,0.2-0.5c-1.3-2-1.3-4.5,0.9-3.8c1.2,0.7,3.3,1,4.5,1.1c2.8,0,4.4-1.8,8-5.3
		c2.1-2.1,3.7-1.1,5.1-0.4c0.1,0.6,0.4,1.3,1.1,1.6c1,0.4,3.3,0.7,4.6,0.6c7.3-0.2,11.4-1.8,14.7-3c3.3-1.2,6.4-1.8,9.2-1.8
		c2.6-0.1,4.3,0.5,7.2,1.4c1.4,0.5,3.7,1.6,4.8,1.6c1.8-0.1,2.7-1,3.1-1.7c2.7-0.5,3.4,0.7,1.8,3.8c-0.1,0.2,0,0.4,0.2,0.5
		c0.2,0.1,0.3,0.1,0.5,0c2.8-1.2,11.3-9.3-0.1-13.9c-1.7-1.5-4-2.9-5.8-2.9c-1.8,0-3.5,0.7-5.3,1.1c-1.8,0.4-3.6,0.8-4.2,0.8
		c-2.3,0-2.5-1.4-2.7-4c-0.2-2.6,5.2-11.7,7.7-14.9c4.8-6.3,11.2-13.6,15.8-18.3c13.7-0.6,8.2,7.5,5.9,9.1c-0.2,0.1-0.2,0.3-0.2,0.5
		c0.1,0.2,0.3,0.3,0.5,0.2c0.1,0,0.1,0,0.1-0.1c5-1.3,9.7-4.7,11.3-7.9c0,0,3.6-6.2,0.5-11.5c-0.1-0.3-0.3-0.7-0.5-1.1
		c1.7-0.8,3.8-3.7,3.9-4.1c2.3,0.7,11.1,0.2,11.9-4.8c4.1,0.4,11.3-2.3,11.6-6.7c0.5,0.5,1.5,0.5,2.7,0.3c0.5,3.7,6.1,7.2,7.4,6.5
		c0.6,6.2,8.3,9.1,10.6,8c-0.4,1.5,5.3,4.3,7.7,4.2c-4.4,11.9-12.2,25.4-23.1,30.8c-2.9-0.3-7.1-2.2-8.9-3.5c-1.5-1-3.3-2.2-4.5-4.1
		s-1.1-1.8-2.3-3c-1.2-1.2-3.7-2.1-4.5-2.1c-0.6,0.1-1.5,0.5-2.4,1.1c-10.7-1.9-9.7,5.7-8.7,8.5c0,0.2,0.1,0.3,0.3,0.4
		c0.2,0.1,0.4,0,0.5-0.2c0-4,2.3-4,3.5-2.1c0,0.1,0,0.1,0,0.2c0.6,1.4,0.4,2.1,0.1,2.7c-1.2,0.1-2.4,0.4-3.8,1.5
		c-9.4-1-8.5,9.3-5.6,10.6c0.1,0.2,0.2,0.3,0.4,0.2c0.2,0,0.3-0.2,0.3-0.3c-1.7-2.5,2.6-6.2,3.5-1.7v0c-0.1,0.1-0.1,0.3-0.1,0.5
		c0.2,1.5,1.9,2.9,3.4,3.6c-0.3,0.5-0.8,0.8-1,1.6c-9.9,3.5-4.4,12-1.4,13.2c0.1,0.1,0.3,0.1,0.5,0c0.2-0.1,0.2-0.3,0.2-0.5
		c-0.9-1.3-0.6-4.2,3.5-3.7c0.3,1.2,2.1,1.7,3.5,1.7c2.8,0,8-3.8,10.7-5.3c2.6-1.4,6.8-0.9,7.8-0.8c0.5,0.5,1.4,0.9,3.3,0.9
		c9.9-0.1,11.7-5.5,21.7-5.3c4.5,0.1,15.2,5.4,18.6,0.5c1.5-0.6,2.4,0.8,0.5,2.6c-0.1,0.1,0,0.4,0.2,0.5c0.2,0.1,0.3-0.1,0.5,0
		c3,0.4,11.8-9.3,0.1-12.5c-0.1-0.1,0-0.2-0.2-0.3c-0.3-0.2-1.8-1.8-5.3-1.8c-3.6,0-6.1,1.7-7.4,2c-2.6,0.7-1.7-1.4-1.4-2.1
		c2.9-7.2,17.1-20.5,23.5-26c0.6-0.3,1.4-0.7,2.3-1.2c6.5-2.3,8.2,4,1.8,6.3c-0.3,0.3-0.3,0.7-0.1,1s0.6,0.5,0.9,0.4
		c14.9-4,12.7-12.1,12.7-12.2c0.6-8.5-9.5-12-11.1-12.8c-2.7-3-3.4-4.8-3.2-7c0.1-1.1,0.9-2.9,2.4-2.1c2.4,1.9,5.3,3,6.1,1.5
		c-1.7,2,10.2,9.1,11.4,6.1c1.1,5.1,9.7,4.8,11.4,3.4c2.5,4.8,11.2,3.5,11.2,2.7c-0.4,1.8,7.6,4.4,11.3,1.7l0.2,0.4
		c2.9,3.5,4.6,8.2,6.6,16.5c2,8.3,1.6,14.8-1,21.5c-0.1,0.2-0.8,0.3-1.7,0.2c-2.1-0.8-3.4-1.5-4.8-2.6c-1.4-1.1-3-2.7-4.2-4.4
		c-1.1-2-1.9-3.6-3.1-4.8c-1.2-1.2-3.3-1.7-4.9-1.9H368c-0.7,0.1-1.3,0.3-1.8,0.7c-8-2.5-11.8,6-10.9,8.8c0,0.2,0.2,0.3,0.3,0.4
		c0.2,0.1,0.4,0,0.5-0.2c0.8-2.1,4.5-3.1,5.8-1.2c0.2,0.8,0.1,1.5-0.1,1.9c-1.7,0.2-3.6,0.7-5.5,3c-9.3,0.6-6.1,9.8-4.3,12.1
		c0.1,0.2,0.2,0.3,0.4,0.2c0.2,0,0.3-0.2,0.4-0.3c-0.2-2.7,2.5-5.8,4.4-3.4c0.8,1.3,2.7,2.3,4,2.6c-10.7,4.9-3,12-0.1,13.2
		c0.1,0.1,0.3,0.1,0.5,0c0.1-0.1,0.2-0.3,0.2-0.5c-1.3-2.1-0.6-5.2,1.9-4.4c-0.1,1.7,3.5,2.9,5.1,2.9c2.8,0,5.8-2.3,8.6-3.8
		c2.6-1.4,8.7-1.5,9.9-1.5c4.1,3.9,11.9,2.9,16.3,1.5c4.7-1.5,8.2-4.1,11.9-4.2c5,0,8.8,6,13.2,0.9c2.9-1.4,3.7,2.1,2.3,4.3
		c-0.1,0.2,0,0.3,0.2,0.4c0.1,0.1,0.3,0.1,0.5,0c2.9-1.2,10.4-8.1,0.1-13c0.5-1.3-4-5.2-7.7-5.2c-4.6,0-11.5,7-14.2-6.9
		c-0.7-3.4-2.5-27.6-2.7-30c0.9-0.6,2.1-1.3,3-1.2c1-0.1,2.1-0.1,3.1,1.5c1,1.6,1.8,4-0.8,7.4c0,0.1,0,0.1,0,0.2
		c0,0.1-0.1,0.1-0.1,0.2c0,0.1,0.1,0.1,0.1,0.1c0,0,0,0.1,0,0.1c0,0,0.1,0,0.1,0c0,0,0,0.1,0.1,0.1c0.2,0,0.3,0,0.4-0.1
		c6.3-6.3,7.9-13,6.2-17.6c-1.7-4.6-6.3-8-10.1-8.1c-4.5-0.1-9.5-2.8-13.8-6.8s-6.9-8.5-8.7-12.7c-0.3-0.8-0.7-1.5-1.1-2.3
		c27.7-9.6,35.6-31.6,35.6-45.2c0-9.4-3.9-17.4-9.4-23.2c-0.1-2.3,0.5-5.1,1.4-7.6c0.5-1.4,1.1-2.7,1.6-3.6c0.2-0.4,0.4-0.7,0.5-0.9
		c0.1,0.5,0.2,1.1,0.6,1.9c0.5,1.2,1.1,2.5,1.8,3.9c1.4,2.8,3.1,5.6,4.5,6.8c0.1,0.1,0.3,0.1,0.4,0.1c0.1-0.1,0.2-0.2,0.3-0.3
		c1.1-13.6,5.8-33.6,21-52c0,0,0,0,0,0c0,0,0,0,0,0c0.1,0,0.1-0.1,0.2-0.1c0.2-0.1,0.3-0.3,0.2-0.5c-0.1-0.2-0.3-0.3-0.5-0.3
		c0,0-0.1,0-0.1,0c0,0,0,0,0,0c-3.5,1.6-6.6,3.2-9.4,4.8c-24.7,13.2-29.1,22.1-42.8,32.6c-0.2,0.1-0.2,0.3-0.2,0.5
		c0.1,0.2,0.3,0.3,0.5,0.3c6.8-0.3,12.6-1.8,17.9-4.5c-1.4,2.2-2.9,4.9-4.4,7.3c-0.9,1.4-1.7,2.6-2.4,3.4c-0.3,0.4-0.7,0.7-0.9,0.9
		c-0.1,0.1-0.1,0-0.2,0.1c-3.7-1.7-7.5-2.7-11.1-2.7c-13.6,0-23.1,9.1-23.1,20c-0.1,11.7,9,20.5,18.1,20c3.1-0.2,7.3-1,11-3.4
		c2.7-1.8,5.1-4.5,6.5-8.4c0,0.3,0.1,0.6,0.1,0.9c0,6.3-2.4,10.6-6.3,13.5c-3.9,2.9-9.5,4.4-15.7,4.6c-6.1,0.1-12.3-3.2-21.2-6.8
		c-8.8-3.6-20.2-7.3-36.5-7.5c-4.9-0.1-9.5,0.4-13.4,2.4c-0.2,0.1-0.5,0.3-0.7,0.5c2.1-2.5,4.6-4.7,7.6-6.4
		c7.1-3.9,16.1-4.9,24.1-1.6c0.9,0.4,1.9,0.9,2.6,1.2c0.6,0.3,1,0.3,1.5,0.4c0.1,1,0.1,1.7,0,2.1c-0.1,0.2-0.2,0.3-0.3,0.3
		c-0.1,0-0.2,0.1-0.3,0.1c-0.2,0-0.4,0.1-0.6,0c-0.1,0-0.3,0-0.4,0.1c-0.1,0.1-0.1,0.3-0.1,0.4c0,0.2,0.1,0.4,0.2,0.5
		c0.1,0.1,0.2,0,0.3,0.1c0.6,0.6,1.4,1,2,0.8c0.8-0.2,1.5-0.9,2.1-1.6c0.6-0.8,1-1.7,1.2-2.6c0-0.1,0-0.2,0-0.3
		c0.7-0.8,1.2-1.9,0.9-3.2c-0.2-1.3-1.3-2.7-3.4-3.9c0,0,0-0.1-0.1-0.1c-0.1-0.1-0.5-0.5-0.9-1.2c-0.4-0.7-0.7-1.8-1-3
		c-0.5-2.4-0.7-5.4,0-8.4c1.3-6,5.8-12.1,18-13.3c0.1,0,0.1-0.1,0.1-0.1c2.4,0.5,4.5,0.8,6.1,0.8c0.3,0,0.5-0.1,0.7-0.1
		c0.1,0.1,0.2,0.2,0.3,0.4c0.2,0.3,0.3,0.7,0.2,1.1c-0.1,0.3-0.3,0.8-0.7,1.2c0,0,0,0-0.1,0c-0.1,0-0.2,0.1-0.3,0.3
		c-0.1,0.1,0,0.3,0.1,0.4v0v0h0v0c0,0.2,0.2,0.3,0.3,0.3c0.2,0,0.3,0,0.5-0.1c0.7,0.2,1.5,0.2,2.1-0.2c0.8-0.6,1.6-1.6,2-2.7
		c0.4-1.1,0.6-2.3,0.2-3.3c-0.2-0.7-0.9-1.2-1.6-1.5c-9.6-10.1-9.2-22.2-5.4-32.5c1.9-5.2,4.7-9.8,7.4-13.3c2.8-3.5,5.8-6,7.3-6.5
		c0.1,0-0.1,0.1,0,0c0.6,0,1.2,0.1,1.8-0.1c0.8-0.2,1.6-0.7,2.3-1.2c0,0,0,0.1,0.1,0.1c0.2,0.1,0.4,0,0.5-0.2l0,0
		c0.1,0,0.2-0.1,0.4-0.2c0.3-0.1,0.7-0.2,1-0.1c0.1,0,0.2,0.1,0.3,0.1c0.1,0,0.1,0.1,0.1,0.2c0,0.2-0.1,0.7-0.6,1.6c0,0,0,0,0,0v0v0
		c-0.1,0.1-0.1,0.2,0,0.3c0,0,0,0,0,0v0c0,0,0,0,0,0c0,0,0,0,0,0.1c0,0,0,0,0,0c0,0,0,0,0,0c0,0,0.1,0,0.1,0.1c0,0,0,0,0.1,0
		c0,0,0,0,0.1,0c0,0,0,0,0.1,0c0,0,0,0,0.1,0c0,0,0.1,0,0.1,0c0,0,0.1,0,0.1-0.1c0,0,0,0,0,0c0.8-0.1,1.5-0.6,2.2-1.3
		c0.7-0.8,1.3-1.8,1.6-2.8c0.3-1,0.2-2.1-0.5-2.9c-0.6-0.6-1.7-0.9-3.2-0.9c-0.3-0.6-0.7-1.1-1.4-1.4c-0.6-0.3-1.4-0.3-2.3-0.3
		l-0.6-0.2C383.1,286.1,381.7,285.5,380.4,285.4L380.4,285.4z M168.9,328.9c2.9,0,5.7,0.5,8.3,1.7c-0.6,0.5-1.3,0.8-2.1,1
		c-1.6,0.4-3.7,0.3-5.7-0.1c-2-0.4-3.8-1-5.1-1.7c-0.4-0.2-0.6-0.4-0.8-0.6C165.3,329,167.1,328.9,168.9,328.9L168.9,328.9z
		 M390.5,371.4c1,0,2.2,0.2,3.3,0.7c0.9,0.3,1.7,0.8,2.5,1.4c-0.1,0.1-0.2,0.3-0.3,0.5c-1.5,5.4-4.3,7-6.6,6.9c-2.3,0-4.2-1.7-4.2-4
		c0-2.8,1-4.2,2.5-4.9C388.5,371.5,389.5,371.3,390.5,371.4L390.5,371.4z M231.6,385.7c0.6-0.1,1.1,0,1.5,0.3
		c0.4,0.3,0.8,0.9,0.9,1.9c0,0.1,0.1,0.1,0.1,0.1c0,0.1,0,0.3,0.2,0.4c0.1,0,0.1,0,0.1,0c-0.7,0.9-1.5,1.8-2.4,2.8
		c-1.4-0.5-2.6-1.4-3.6-3C229.3,386.9,230.5,385.9,231.6,385.7L231.6,385.7z"/>
	<path class="st2" d="M380.6,286.8c-5.2,5.2-10.3,8.8-17.5,13.2c-12.7,7.8-27.6,9.8-46.2,10.7c-37.6,2-54.2,9.3-62,19.9
		c-7.7,10.6-6.4,24.1-8.4,38.3c-0.6,4.4-2,9.8-4.4,14.3c-2,3.8-4.9,6.9-8.6,8.7c10.4-9.5,10.5-18.7,11.4-24.1
		c1.6-9.7-0.2-23.5,7.4-35.3c7.5-11.8,24.4-21.7,63.7-23.2c16.2-0.6,26-2.2,32.9-4.2c6.8-2,10.7-4.5,14.6-7
		c4.1-2.5,7.4-6.3,10.7-8.8c1.6-1.3,3.2-2.2,4.9-2.5C379.5,286.7,380.1,286.8,380.6,286.8z M385.1,289c0.7,0,1.3,0,1.6,0.2
		c0.4,0.2,0.5,0.4,0.6,0.6c0.2,0.5-0.1,1.6-0.8,2.5c-0.7,1-1.8,1.9-3,2.2c-1.2,0.3-3.2-0.6-3.5-0.8c-0.1-0.2-0.4-0.1-0.6-0.1
		c-0.2-0.2-0.4-0.5-0.6-0.7c-0.1-0.1-0.2-0.2-0.4-0.2c-0.1,0-0.2,0-0.2,0.1c-18.5,17-34.4,20.2-60.4,22c-8.9,0.6-22.8,2.3-34.8,5.3
		c-6,1.5-11.6,3.3-15.8,5.5c-4.2,2.2-7.1,4.8-7.8,7.9c0,0.1,0,0.3,0.1,0.4c0.1,0.1,0.2,0.2,0.4,0.1c0.1,0,0.1,0,0.2,0
		c0.2,0.2,0.4,0.4,0.8,0.4c2.2-0.2,8.6-0.2,17.2,0.1c8.6,0.3,19.5,1,31,2.1c22.1,2.1,46.4,5.9,60.7,12.1c0.3,0.3,0.5,0.7,0.8,1
		c0,0,0,0,0,0c-0.4,0.2-1.3,0.3-2.6,0.2c-2.6-0.2-6.7-1.2-11.7-2.5c-9.9-2.5-23.3-6.3-35.6-7.6c-21-2.2-33.5-5.1-62.2-5.1
		c0,0-0.1,0-0.1,0c0,0-0.1,0-0.1,0c-0.1,0.1-0.2,0.1-0.3,0.2c-0.1,0.1-0.2,0.2-0.4,0.3c-0.3,0.3-0.6,0.7-0.9,1.2
		c-0.6,1-1.1,2.4-0.9,4.2c0,0.1,0.1,0.3,0.2,0.3c0.1,0,0.2,0,0.2,0.1c0.1,0.1,0.1,0.3,0.2,0.3c2.5,0.4,8.1,2.2,15.3,4.8
		s16.1,6,25.3,9.8c18,7.4,37.1,16.3,47.9,23.3c0.7,0.6,1.8,1.4,2.4,2.1c0.1,0.2,0.2,0.4,0.3,0.5c0,0.1,0,0.2,0,0.3
		c-0.1,0.1-0.5,0.3-1,0.4c-4.3-0.9-11-4.6-18.8-9.1c-8.5-4.9-18.2-10.7-27.3-14.5c-16-6.6-35.3-15.2-44.5-17.2c0,0-0.1,0-0.1,0
		c-0.1,0-0.2,0.2-0.2,0.3c-0.1,0-0.1,0-0.2,0c-0.1,0-0.1,0.1-0.1,0.1c-0.6,0.4-1.1,0.9-1.3,1.5c-0.2,0.6-0.1,1.2,0.1,1.8
		c0.5,1.2,1.9,2.6,3.8,4.6c3.9,4,10.5,10.2,18.9,21.1c14.5,18.8,21.3,27.9,24.2,32.4c1.5,2.3,1.9,3.4,1.9,3.8c0,0.2,0,0.3-0.1,0.3
		c-0.1,0.1-0.2,0.2-0.4,0.3c-1.2,0-1.9-0.3-2.5-0.9c-0.7-0.7-1.4-1.8-2.5-3.8c-2.2-3.8-6-10.5-14.6-21.9
		c-5.3-6.9-11.7-14.3-17.1-20.5c-5.3-6.1-9.7-10.9-11-12.8c0-0.1-0.1-0.2-0.1-0.3c0-0.1-0.1-0.2-0.2-0.2c-0.2-0.1-0.6-0.1-0.8,0.1
		c-0.2,0.1-0.3,0.3-0.5,0.6c-0.3,0.5-0.5,1.1-0.7,1.9c-0.4,1.6-0.8,3.7-1.1,6c-0.3,2.2-0.5,4.6-0.7,6.5c-0.1,1.9-0.2,3.2-0.2,3.9v0
		v0v0.1c0,0.1,0,0.1,0.1,0.2c0.4,3.3,1.8,6,3.6,9.8c1.9,4,4.2,9.1,6.3,17.2c1.8,6.9,3.5,14,4.4,19.4c0.4,2.7,0.6,5,0.5,6.6
		c-0.1,0.8-0.2,1.4-0.4,1.8c-0.2,0.4-0.4,0.6-0.8,0.6h0c-0.5,0.1-0.7,0.1-0.9-0.1c-0.2-0.2-0.4-0.7-0.5-1.5
		c-0.3-1.6-0.4-4.3-0.8-8.2c-0.9-7.9-3.1-20.9-10.6-40.6c0-0.1,0-0.1-0.1-0.2c0,0-0.1,0-0.1-0.1c-0.1-0.1-0.1-0.2-0.1-0.2
		c-0.1,0-0.1,0-0.1,0c0,0,0-0.1-0.1-0.1c0,0,0,0.1-0.1,0.1c-0.1,0-0.1,0-0.2,0c-0.1,0.1-0.2,0.2-0.2,0.2c-0.1,0.2-0.3,0.4-0.4,0.7
		c-0.3,0.6-0.6,1.5-1,2.5c-0.8,2.2-1.7,5.3-2.6,8.9c-1.2,4.8-2.3,10.6-2.9,16.4c-0.1-0.9-0.1-1.4-0.1-2.3c-0.1-2.1-0.1-4.1,0.1-5.8
		c0.1-0.8,0.2-1.6,0.4-2.2c0.1-0.3,0.2-0.5,0.3-0.7c0.1-0.3,0.2-0.7,0.4-0.9c0,0,0,0,0-0.1c0,0,0,0,0-0.1c0.1-0.1,0.1-0.3,0-0.5
		c0,0-0.1,0-0.1,0c-0.1-0.1-0.2-0.2-0.3-0.2c-0.1,0-0.2,0-0.2,0.1c-3.3,3.2-5.5,5.5-7.2,9.1c-0.8,1.7-1.5,3.8-2.1,6.4
		c0.1-1.7,0.2-3.3,0.3-4.6s0.3-2.3,0.4-2.6c0.1-0.2,0-0.3-0.1-0.5c-0.1-0.1-0.3-0.2-0.4-0.1c-0.1,0-0.1,0.1-0.1,0.1c0,0-0.1,0-0.1,0
		c0,0-0.1,0-0.1,0c-2.1,1-5.2,3.1-7.8,5.9c-1.2,1.3-2.3,2.7-3.2,4.2c0.7-2.7,1.3-3.8,1.8-4.9c0.2-0.2,0.3-0.4,0.5-0.7
		c0.1-0.1,0.1-0.3,0-0.4c0-0.1-0.1-0.1-0.2-0.1c0,0,0,0,0,0c-0.1,0-0.1-0.1-0.1-0.1c0,0-0.1,0-0.1,0c-0.1,0-0.1-0.1-0.2-0.1
		c-0.1,0-0.1,0.1-0.1,0.1c-11.6,1.1-18.7,5.4-22.8,10.3c-2.7,3.3-4.1,6.7-4.8,9.7c0.5-7.5,5-14.5,11.4-17.1
		c3.7-1.5,8.6-2.1,13.1-2.9c4.3-0.8,8.2-1.7,10-3.8c5.3-1.8,9.1-6.8,11.8-12.1c2.7-5.3,4.2-10.9,4.8-13.9c2.3-12.7,0-26.1,7-36.6
		c3.5-5.3,9.3-9.8,19.3-13.3c10-3.5,24.1-5.8,44.1-6.5c16.2-0.6,26-2.6,32.8-5.1c6.8-2.5,10.5-5.5,14.4-7.8c2.2-1.3,6-4.6,10.1-7.3
		c2-1.4,4.1-2.6,6-3.4C383.6,289.3,384.4,289.1,385.1,289L385.1,289z M228.9,291c-0.6,1.5-1.5,3.1-2.4,4.3c-0.7,1-1.4,1.8-1.9,2.4
		c-0.3,0.3-0.5,0.5-0.6,0.6c0,0,0,0.1-0.1,0.1c0,0,0,0,0,0c0,0,0,0-0.1,0c0,0,0,0,0,0c0,0-0.1,0.1-0.1,0.1c-2.9,0.4-5.7,0.8-8,1.7
		c-0.3,0.1-0.5,0.4-0.8,0.5c-1.7-0.6-3.3-0.9-4.9-1.4c0,0,0,0,0,0c0.1-0.2,0.3-0.4,0.7-0.7c0.5-0.3,1.1-0.5,1.9-0.7
		c1.6-0.5,3.8-1,6.1-1.6C222.6,295.4,226.5,293.8,228.9,291L228.9,291z M389.9,291c0.4,0.1,0.7,0.2,0.9,0.3c0.4,0.3,0.5,0.7,0.5,1.3
		c-0.1,0.5-0.4,1.1-0.8,1.7c0.1-0.4,0.2-0.8,0-1.2c-0.4-0.7-1.1-1-1.9-1.2c0.1-0.3,0.3-0.6,0.4-1C389.3,291.1,389.7,291,389.9,291
		L389.9,291z M239.5,294.8c-1.4,7.5-5.5,12.3-9.5,15.3c-2.1,1.6-4.2,2.8-5.8,3.7c-0.8,0.4-1.4,0.8-1.9,1.1c-0.2,0.2-0.4,0.3-0.6,0.5
		c-0.2,0.2-0.3,0.4-0.3,0.7c0,0.2,0.2,0.4,0.4,0.4c0.7,0,2.4,0,4-0.1c0.6,0,0.9,0,1.4,0c1.9,4.1,2.7,9.8,2.5,16.4
		c-0.2,7.1-1.3,15-2.8,22.6c-1.6,7.6-3.4,16.1-3.4,23.4c0,3.7,0.5,7,1.8,9.9c1,2.3,2.6,4.3,4.8,5.7c-0.4,0.6-1.1,1.2-2.2,1.6
		c-1.3,0.5-3.1,0.9-4.9,1.2c-3.8,0.6-8.2,1-11.5,2c-2.2,0.6-7,3.1-10.6,7.5c-3.1,3.7-5.1,8.8-4.2,15.2c-0.1,0.1-0.1,0.3-0.1,0.4
		c0.1,0.2,0.2,0.4,0.2,0.6c0.2,1,0.2,1.9,0.6,2.9v0c0.1,0.2,0.3,0.4,0.5,0.3c0.2-0.1,0.3-0.3,0.3-0.5c0,0,0,0,0-0.1
		c0-0.1,0-0.1,0-0.2c-0.1-0.3-0.1-0.6-0.1-1c0.8,0.4,1.8,0.6,3,0.6c-1.5,3.5-2.6,7.5-3.3,11.8c-0.8-1.2-1.9-2.3-3.5-3.3
		c0.1-0.5,0.2-0.9,0.2-1.5c0-2.4-1.6-5.2-5.2-8.6c0.3-0.4,0.5-0.8,0.7-1.3c0.7-2.2,0.2-4.9-1.9-8.6c1.3-2.2,1.4-5.5-0.6-10.5
		c0,0-0.1,0-0.1-0.1c0.2-0.2,0.4-0.3,0.6-0.5c1.6-2,2-5,0.7-9.7c0,0,0,0,0,0c0.3-0.3,0.7-0.5,0.9-0.8c1.5-1.8,2.2-4.7,1.5-9.2
		c0.6-0.3,1.1-0.6,1.6-1.1c1.4-1.6,2-4.3,1.7-8.7c1-0.3,2-0.9,2.7-1.6c1.4-1.5,2-3.9,1.6-7.4c0.7-0.3,1.4-0.7,1.9-1.4
		c1.3-1.5,1.9-3.8,1.7-7.3c0.5-0.2,1-0.4,1.3-0.7c0.9-0.9,1.1-2.3,1-4.2c0-1.6-0.2-4.1-0.4-6.8c0.6-1,1.1-2.1,1.3-3.4
		c0.3-2.1,0-4.8-0.8-8.1c1.1-2.6,1.7-5.6,1.5-9.2c0.8,0.3,1.6,0.4,2.7,0.2c1.3-0.2,2.8-1,4.7-2.3c0,0,0.1,0,0.1-0.1
		c0,0,0.1,0,0.1-0.1c0.2-0.1,0.2-0.4,0.1-0.6c-0.1-0.2-0.4-0.3-0.6-0.2c0,0,0,0-0.1,0.1c-0.5,0.2-0.9,0.5-1.2,0.7
		c-0.4,0.2-0.6,0.3-0.8,0.2c-1.9-0.7-2.3,0.1-7.6-4.3c-0.1-0.1-0.2-0.1-0.3-0.1c-0.1,0-0.3,0.1-0.3,0.2c-0.1,0.1-0.1,0.3,0,0.4
		c0,0.1,0.1,0.1,0.1,0.2c0,0,0,0,0,0c0.5,1.1,1.4,2.1,2.4,2.9c0.4,0.3,0.6,0.4,1,0.7c-1.2-0.3-2.2-0.7-3-1.1c-0.2-0.1-0.3,0-0.5,0.1
		c-0.1,0.1-0.1,0.3-0.1,0.5c2.3,5.3,0.6,11.8-3.3,16c-3.9,4.2-10,6.2-16.7,3c-0.1-0.2-0.3-0.3-0.5-0.2c-0.1,0-0.2,0.1-0.2,0.2
		c0,0,0,0-0.1,0c-0.9,1.6-1.7,3-3.3,4.5c-1,0.9-2.6,2-4.5,3.1c0.8-0.8,1.4-1.5,1.8-2.3c0.8-1.5,0.8-3,0.7-4.9c0-0.2-0.1-0.4-0.3-0.4
		c-0.2,0-0.4,0-0.5,0.2c-1.2,2.2-4.9,5.5-10.9,7.7c2.5-2.1,4.2-4.4,4.3-6.6c0-0.2-0.1-0.3-0.2-0.4c-0.2-0.1-0.3,0-0.5,0.1
		c-3.3,2.9-9.1,3.9-14.8,4.2c1.2-0.6,2.5-1.5,3.5-2.6c2.1-2.3,3.9-5.9,5-10.6c3.9,2.3,7.5,3.1,10.6,2.9c3.5-0.2,6.2-1.6,8.2-2.7
		c-0.1,0.9-0.1,1.6-0.1,2.7c0,0.2,0.1,0.4,0.3,0.4c0.2,0,0.4-0.1,0.5-0.3c1.9-4.4,2.8-7.2,2.5-9.5c-0.2-2.3-1.7-4-4.3-6.3
		c-0.1-0.1-0.2-0.1-0.3-0.1c-0.2,0-0.3,0.2-0.3,0.4c-0.1,0.5-0.1,1.1-0.2,1.6c-5.2-0.3-10.7-5.2-21.9,3.3c-0.3-4.9,0-8.1,1.3-10.8
		c0.5,0.1,1.1,0.1,1.6,0c1.1-0.2,2.1-0.8,2.8-1.9c0.7-1,1.1-2.6,1.2-4.7c6.7,0.3,14.4,1.6,22.7,3.9c0,0,0.1,0,0.1,0
		c0.2,0,0.4-0.1,0.5-0.3c0,0,0-0.1,0-0.1c0,0,0,0,0.1,0c0.1-0.2,0-0.4-0.2-0.5c0,0,0,0-0.1,0c0,0,0,0-0.1,0
		c-1.4-0.6-2.4-1.1-3.3-1.7c-0.6-0.5-1.1-1.1-1.3-1.6c-0.4-1.3,0.2-2.7,2.1-3.9c3.7-2.3,12.6-3.2,27,1.7c-0.5,0.7-1,1.5-1.3,2.4
		c-0.1,0.2,0,0.4,0.2,0.5c0.2,0.1,0.4,0.1,0.5-0.1c4.1-4.1,9.9-4.7,15.4-5.5C231.5,299.9,236.3,298.8,239.5,294.8L239.5,294.8z
		 M235.3,301.3c-0.1,0-0.2,0-0.2,0.1c-3.6,2.9-6.8,3.8-10.2,4.4c-2.9,0.4-4.2,1.5-5,2c-0.2,0.1-0.3,0.2-0.5,0.2c-0.1,0-0.2,0-0.3,0
		c-0.2-0.1-0.7-0.4-1.3-1.1c-0.1-0.1-0.3-0.2-0.5-0.1c-0.2,0.1-0.3,0.2-0.2,0.4c0,0.1,0.1,0.2,0.1,0.2c0,0,0,0,0,0
		c0.2,0.7,0.6,1.6,1.1,2.6c0.3,0.5,0.6,1,0.9,1.5c0.3,0.4,0.5,0.7,0.8,0.9c0.1,0.1,0.2,0.1,0.3,0.1c0.1,0,0.2-0.1,0.3-0.2
		c1.1-2.4,2.1-3.8,2.9-4.6c0.8-0.8,1.4-0.9,1.9-0.8c0.5,0.1,1,0.5,1.4,0.8c0.2,0.2,0.4,0.4,0.7,0.5c0.2,0.1,0.5,0.3,0.8,0.2
		c0.1,0,0.2-0.1,0.3-0.2c1.3-1.8,3.8-3.8,6.9-6.2c0.2-0.1,0.2-0.3,0.2-0.5C235.7,301.4,235.5,301.3,235.3,301.3L235.3,301.3z
		 M121.6,302.5c4.9,6.9,11.4,13.4,20.7,18.4c-3.8,0.4-6.7-0.4-9.1-2c-3.1-2-5.4-5.3-7.7-8.8c0,0,0,0,0-0.1c-0.1-0.2-0.3-0.2-0.4-0.2
		c-0.1,0-0.2,0.1-0.3,0.2c-0.1,0.1-0.1,0.3,0,0.4c0,0,0,0,0,0c3.1,6.6,5.6,9.6,7.1,11.8c1.4,2,2,3.3,1.7,6.2
		c-3.7-2.8-6.6-7.6-8.6-12.7C123,310.7,122.1,305.7,121.6,302.5L121.6,302.5z M371.7,303c-2.5,3.4-4.8,7.4-6.5,12.1
		c-3.5,9.5-4.2,20.9,2.5,30.8c-14.9-5.6-37.6-9.1-58.4-11.1c-11.5-1.1-22.5-1.7-31.1-2.1c-7.8-0.3-12.7-0.3-15.6-0.1
		c1.3-2.3,4.5-4.6,9.1-6.4c5-2.1,11.5-3.8,18-5.2c13-2.8,26.3-4.1,29-4.2c20.7-0.7,35.1-4.9,45-9.4
		C366.9,305.9,369.4,304.4,371.7,303L371.7,303z M187.1,304.5c-0.7,0-1.5,0-2.4,0.2c-0.2,0.1-0.3,0.2-0.3,0.4
		c0.1,0.7,0.4,1.1,0.8,1.5s0.9,0.6,1.4,0.9c1,0.6,2.2,1.5,3,3.8c0.1,0.2,0.2,0.3,0.4,0.3c0.2,0,0.3-0.1,0.4-0.2
		c0.2-0.4,0.2-0.7,0.3-0.8c0,0,0.1,0,0.1-0.1c0.1,0.2,0.3,0.3,0.5,0.5c0.2,0.2,0.4,0.4,0.7,0.5c0.3,0.1,0.6,0.1,1-0.1
		c3.4-1,5.6-1.6,7.2-1.7c1.6-0.1,2.4,0.2,3.1,0.7c0.2,0.1,0.4,0.1,0.5,0c0.1-0.1,0.2-0.4,0.1-0.5c0,0-0.1,0-0.1-0.1
		c-1.6-2.4-3.3-3.3-5.1-3.5c-1.7-0.2-3.5,0.1-5.4-0.2c-2-0.3-3.1-0.9-4.3-1.3C188.3,304.7,187.8,304.6,187.1,304.5L187.1,304.5z
		 M187.6,305.8c0.9,0.1,3,0.9,3.8,0.9c-0.5,1.8,0.5,2.5,1.4,3C190,310,187.7,306.1,187.6,305.8L187.6,305.8z M161.4,305.8
		c0.1,0.8,0.1,2.1-0.3,3.2c-0.2,0.7-0.6,1.1-1.1,1.3c-0.6,0.2-1.4,0.2-2.6-0.4c0,0,0,0,0,0c-0.8-0.4-3.3-1.6-6-2.4
		c-0.6-0.2-1.2-0.2-1.9-0.2C152.9,306.3,156.9,305.8,161.4,305.8L161.4,305.8z M196.9,307c1.3-0.1,2.4,0.6,1.2,1.3
		c-1.2,0.7-3.4,1.7-4.7,1.3c1.3-0.1,1.7-1.5,1.1-2.5C194,307.1,195.6,307.2,196.9,307z M202.9,311.4c-2.3-0.1-3.7,0-4.8,0.3
		c-1.1,0.3-1.8,0.8-2.6,1.4c-0.1,0.1-0.2,0.3-0.2,0.4c0,0.2,0.2,0.3,0.3,0.3c0.8,0.2,1.3,0.3,1.4,0.3c0.1,0,0.1,0.1,0.2,0.2
		c0.1,0.1,0.1,0.2,0.2,0.4c0.1,0.2,0.2,0.3,0.4,0.3c0.2,0,0.3-0.1,0.4-0.2c0.6-1.2,1.1-1.8,1.8-2.1c0.6-0.3,1.5-0.4,2.7-0.4
		c0.1,0,0.1,0,0.2,0v0c0,0,0,0,0,0c0.2-0.1,0.3-0.2,0.3-0.4C203.3,311.6,203.1,311.5,202.9,311.4
		C202.9,311.4,202.9,311.4,202.9,311.4C202.9,311.4,202.9,311.4,202.9,311.4L202.9,311.4z M442.2,314.6
		c-16,18.4-19.8,38.3-20.9,44.4c-2.1-3.7-4.7-7.7-3.1-12.8v0c3.9-9.3,5.2-10.8,15.3-24c0,0,0,0,0,0c0.1-0.2,0.1-0.4-0.1-0.6
		c-0.2-0.1-0.4-0.1-0.6,0c0,0,0,0,0,0c0,0,0,0,0,0c0,0-0.1,0.1-0.1,0.1c0,0,0,0,0,0c-11,9.2-15.9,15.4-20.2,19.6
		c-4,3.9-7.6,5.9-14.9,7C411,337.1,417.2,326.8,442.2,314.6L442.2,314.6z M231.4,316.2c0.1,0,0.1,0,0.2,0.1c1.1,0.4,2.4,1.1,3.7,2.1
		c2.1,1.8,4.2,4.7,5,9.4c-0.8-1.2-1.8-2-2.9-2.5c-1.8-0.7-3.7-0.7-4.9-0.7c-0.1-1-0.2-2.1-0.3-3c1.4-0.1,2.9-0.1,4.4,1.5
		c0.2,0.2,0.4,0.2,0.6,0c0.2-0.1,0.2-0.4,0.1-0.6c0,0,0,0,0,0c-1.9-2.5-3.7-3.7-5.4-3.8C231.7,317.9,231.6,317,231.4,316.2
		L231.4,316.2z M132.9,320.4c0.3,0.2,0.6,0.2,1,0.4c4.8,3.5,8.8,5.5,12.8,6.2c4.1,0.7,8.1,0,12.5-1.6h0c0.9-0.4,2.8-0.9,4.9-1.2
		c2.2-0.3,4.8-0.6,7.3-0.6c2.5,0,5,0.2,7,0.7c1.4,0.3,2.4,0.9,3.1,1.5c-3.9-0.8-7.7-1.1-12.3-0.9c-0.1,0-0.2,0.1-0.3,0.1
		c-0.1,0.1-0.3,0.2-0.3,0.6c0,0.2,0.2,0.3,0.3,0.4c0.1,0.1,0.2,0.1,0.3,0.1c0.3,0,0.7,0,1.3-0.1c1.1-0.1,2.6-0.3,4.2-0.2
		c1.6,0.1,2.3,0.2,5.9,1.3c0.3,0.3,0.4,0.6,0.5,1c-0.1,0-0.3-0.1-0.5-0.2c-0.4-0.1-1-0.2-1.7-0.4c-1.4-0.3-3.4-0.6-5.5-0.9
		c-4.4-0.5-9.8-0.6-14,0.7h0c-3.7,1.5-8.6,2.3-13.4,1.5c-4.5-0.8-8.9-3-12.3-7.1C133.4,321.3,133.2,320.9,132.9,320.4L132.9,320.4z
		 M427.5,328c-8.6,10.4-13.1,19.2-15.5,25.3c-1.4,3.7-2.1,6.5-2.7,8c-0.2,0.7-0.5,1-0.6,1.2c-1.1-0.9-2.2-1.7-3.4-2.5
		c0-0.4,0-0.8,0.3-1.5c0.3-0.9,0.8-2.1,1.5-3.4c1.4-2.6,3.4-6,5.9-9.7C416.8,340,421.8,333.8,427.5,328L427.5,328z M232.9,333.5
		c2.7,1.8,5.4,4,6.8,7.1c1.2,2.5,1.6,5.7,0.7,9.9c-0.2-2-1.1-3.7-2.4-4.8c-1.1-0.9-2.4-1.4-3.8-1.4c-0.9,0-1.8,0.3-2.7,0.7
		c0.3-1.6,0.5-3.2,0.7-4.6c0.4-0.1,0.9-0.1,1.5,0.1c0.8,0.3,1.6,0.7,2.4,1.3c0.8,0.6,1.5,1.3,2.1,1.9c0.5,0.7,0.8,1.3,0.9,1.8
		c0,0.2,0.2,0.4,0.4,0.4c0.2,0,0.4-0.2,0.4-0.4c0-0.6-0.3-1.2-0.7-1.8c-0.1-0.2-0.1-0.5-0.3-0.7c-0.6-0.9-1.4-1.8-2.2-2.6
		c-0.8-0.8-1.7-1.6-2.5-2.1c-0.6-0.4-1.1-0.7-1.7-0.8C232.7,336.1,232.8,334.7,232.9,333.5L232.9,333.5z M202.9,335.1
		c0.9,2.2,1.1,4,0.8,5.3c-0.4,1.5-1.3,2.6-2.6,3.5c-2.3,1.6-5.7,2.3-8.8,2.8c-0.3-0.1-0.9-0.2-1-0.3c-0.2-0.1-0.2-0.2-0.2-0.3
		c0-0.1,0-0.1,0-0.2c0,0,0.1-0.1,0.1-0.1c0.1-0.2,0.2-0.3,0.4-0.5c0.5-0.4,1.2-0.9,2-1.4c1.6-1.1,3.6-2.4,5.6-4.2
		C200.5,338.4,201.8,336.8,202.9,335.1L202.9,335.1z M259,336.8c31.8,1.2,40.3,3.4,61.3,5.9c14.5,1.7,27.8,5.6,37.5,8
		c0.1,0,0.1,0,0.2,0.1c-9.4,2.3-13.7,8.2-15,14c-0.8,3.4-0.6,6.7,0,9.4c0.2,0.9,0.5,1.6,0.8,2.3c-11.3-6.9-28.9-15.1-45.8-22
		c-9.2-3.8-18.1-7.3-25.4-9.8c-6.2-2.2-10.8-3.7-13.9-4.4C258.4,339,258.4,337.7,259,336.8z M256.5,344.4c0.4,0.1,0.8,0.2,1.6,0.4
		c1,0.3,2.3,0.8,3.8,1.3c3,1.1,7,2.6,11.3,4.4c8.6,3.5,18.9,7.8,26.8,11.1c8.7,3.6,20.9,10.8,31,16.4c0.5,0.3,0.9,0.5,1.4,0.8
		c-0.5,0-0.9-0.1-1.4-0.1c-3.4,0.1-7.3,0.8-11.3,2.2c-7.6,2.8-15,8.7-17.6,19.4c-0.3-0.4-0.5-0.7-0.8-1.2
		c-4.4-6.1-12.3-15.5-22.9-29.2c-6.6-8.4-13.1-14.6-17.4-19c-2.1-2.2-3.6-4-4.3-5.2C256.5,345.3,256.5,344.8,256.5,344.4
		L256.5,344.4z M202.3,345.3c0.5,2.6,0.5,4.6,0.2,5.8c-0.4,1.4-1.1,2.2-2.2,2.7c-1.7,0.7-4.3,0.8-7.3,1c-1.1-0.2-1.8-0.6-2.2-1.1
		c-0.4-0.5-0.5-1.2-0.4-2c0.2-1.5,1.2-3.3,2.2-4.1h0.1c0.3,0,0.4,0,0.9,0c0.1,0,0.1-0.1,0.2-0.1
		C197.1,347.3,200.2,346.8,202.3,345.3L202.3,345.3z M373,351.1c0.1,0.1,0.1,0.1,0.2,0.2c0.3,0.5,0.2,1.1,0,1.8
		c-0.3,0.7-0.8,1.4-1.4,1.8c0,0-0.1,0-0.1,0c0.3-0.4,0.6-0.9,0.6-1.3c0.1-0.6,0-1.1-0.2-1.7c0.1-0.1,0.2-0.1,0.3-0.2
		C372.7,351.6,372.8,351.3,373,351.1z M255.3,351.8c0.2,0.1,0.3,0.1,0.6,0.3c1.3,1.1,3.2,3.2,5.4,5.9c4.4,5.4,10.2,13.3,15.9,20.3
		c5.9,7.3,10.5,15.8,14.7,22c0.7,1,1.3,1.8,1.9,2.7c-2-0.6-4.2-1-6.6-1.1c-1.3,0-2.7,0.1-4.1,0.3c-5.3,0.9-10.8,3.9-15,10.4
		c-0.9-5.3-2.8-11.9-5-19.5c-3.3-11.1-5.3-15.2-6.7-17.9c-1.4-2.6-2.1-3.8-3.1-8.8c0,0,0,0,0-0.1c-0.2-2.2,0.2-6.3,0.8-9.7
		c0.3-1.7,0.6-3.3,1-4.3C255.1,352.2,255.2,352,255.3,351.8L255.3,351.8z M230.2,353.3c0.5,0.8,1.3,1.6,2.2,2.4c1.4,1.2,3,2.4,4.2,4
		c1.2,1.6,2.1,3.4,2,5.9c-0.1,1.9-1,4.3-2.4,7c0.2-1.3,0.1-2.5-0.3-3.4c-0.7-1.6-2.1-2.8-3.5-3.6c-1.4-0.8-2.9-1.4-3.9-1.8
		c-0.2-0.1-0.3-0.1-0.5-0.2c0.3-1.1,0.7-1.9,1.2-2.2c0.7-0.5,1.5-0.4,2.4-0.1c0.9,0.3,1.9,0.9,2.6,1.6c0.8,0.7,1.3,1.4,1.5,1.8
		c0.1,0.2,0.3,0.3,0.5,0.2c0.2-0.1,0.3-0.3,0.3-0.5c0,0,0,0,0,0c0,0,0,0,0-0.1c-1.2-3.2-3.5-4.1-5-5.2c-0.7-0.5-1.3-1-1.5-2
		C229.7,356.2,229.8,354.9,230.2,353.3L230.2,353.3z M129.3,354.2c3.1-0.1,5.4,1.1,6.6,3.3c-0.4,0.3-0.7,0.3-1.3,0.4
		c-0.3-1.2-2.3-2.5-4-2.8c-0.1-0.1-0.3-0.1-0.5,0c-0.1,0.1-0.2,0.2-0.2,0.4c0,0.2,0.1,0.3,0.3,0.4c1.2,0.6,2.6,1.1,2.1,2.2
		c-0.6,0-1,0-1.5,0c0-1.2-2.5-2.3-4.9-3.2C127.1,354.4,128.2,354.2,129.3,354.2L129.3,354.2z M200,355.7c0.2,3.1-0.4,5-1.5,6
		c-1.1,1-2.7,1.3-4.6,1.3c-1.8,0-3.7-0.4-5.4-0.6c-0.1-0.1-0.1-0.2-0.2-0.2h-0.1c-0.5,0-0.9-0.2-1.1-0.3c-0.2-0.2-0.3-0.4-0.3-0.7
		c0-0.6,0.4-1.5,1-2.3c0.6-0.9,1.4-1.7,2.2-2.3c0.7-0.5,1.3-0.7,1.7-0.7c2.8,0,5.5,0.1,7.2-0.1C199.5,355.8,199.7,355.7,200,355.7
		L200,355.7z M390.7,358c12.4,0,28.1,12.7,28.1,30.9c0,12.6-7.3,33.7-34.2,42.8c-7.5-14.9-21.9-28.1-40.4-34.4c-0.1,0-0.2-0.1-0.3,0
		c-0.2,0-0.3,0.2-0.3,0.4c0,0.2,0.1,0.4,0.3,0.4c20.2,6.9,33.6,22.6,40.3,39.1c1.8,4.4,6.1,10.4,10.5,14.5c4.4,4.1,9.4,6.7,14.2,6.8
		c3.3,0.1,7,2,8.6,6.3c1.2,3.4,1.1,7.7-2,12.4c0.5-2.1,0.1-3.8-0.6-5c-1.2-1.9-3.7-2.7-5.4-2.6c-2.9,0.1-4.6,1.4-8.5,3.5
		c-0.2,0.1-0.3,0.4-0.2,0.6c0.1,0.1,1.5,0.3,2.9,0.3c0.2,2.3,3.7,26.4,4.2,29.8c2.6,16.8,14.2,8.6,16.2,8.9c3.8,0.6,4.6,1.6,5.8,2.9
		c-1.3,0.1-2.3,4-1.7,6.6c-4.7,3.4-9.4-1.8-12.9-1.8c-4,0.1-8.3,2.9-12.9,4.3c-4.2,1.3-6.3,2.4-11.5-0.1c0.8-0.2,1.8-0.5,1.9-0.5
		c0.1,0,0.2,0,0.3,0c0.1,0,0.1,0,0.2,0c0.2,0,0.3-0.1,0.4-0.3c0.1-0.2,0-0.3-0.1-0.5c-0.1-0.1-0.3-0.2-0.5-0.1c0.1,0,0,0-0.1,0H393
		c-0.2,0-0.5,0-0.9,0c-0.7,0-1.6,0-2.6,0c-2,0-4.1,0-4.9,0c-2.2,0-5.5,0.7-8.2,2.1c-2.7,1.5-4.7,3.3-7.3,3.3c-1.4,0-2.9-0.3-4.1-1.2
		c0.6-2.3,0.5-5.3-1.2-7.8l-0.4,0c2.9-0.4,3.9-1.9,5.9-1.9c2.3-0.1,2.3,4.5,14-3c0.1-0.1,0.2-0.2,0.2-0.4c0-0.2-0.1-0.3-0.2-0.4
		c-0.1-0.1-0.3,0-0.5,0.1c-10.4,4.7-7.2,1.2-12.5,1.4c-5.1,0.2-5.2,1.9-8.3,1.9c-1.6,0-3.4-0.8-3.8-1.5c1.2-0.3,1.6-4.2,1-6.2
		c0-0.1,0.1-0.2,0.1-0.2c0.1-0.2,0-0.4-0.2-0.5c0.7-0.8,2.5-1.1,4.1-1.1c1.5,0,3.5,1.4,5.8,2.4c2.3,1,4.3-0.8,7.2,1.1
		c0.2,0.1,0.5,0,0.6-0.2c0.1-0.2,0-0.5-0.2-0.6c-1-0.6-3.1-2.8-5.4-3.8c-1.5-0.6-3.2-1-4.8-1.3c-1.1-1-3-2.8-2.8-3
		c0.6-0.3,1.1-0.8,1.6-1.4c0.5-0.6,0.9-1.3,1-2c0.1-0.5,0-0.7-0.2-1c0-0.2,0.1-0.2,0.2-0.5c0.6-0.7,1-1,1.9-1.1
		c1.4,0.1,2.2,0.6,3.3,1.7c1.1,1.1,2.3,2.8,3.4,4.7c1.6,2.9,3.8,4.6,6.1,6.1c-0.7,0.6-1.6,1.3-1.6,1.3c-0.1,0-0.2-0.1-0.4,0.1
		c-0.2,0.1-0.3,0.3-0.2,0.6c0.1,0.2,0.3,0.3,0.6,0.2c0.1,0,0.1,0,0.3,0c0.2,0,0.6,0.1,1,0.2c0.8,0.2,1.9,0.4,2.9,0.6
		c1.1,0.2,2.2,0.2,3.3,0c1-0.2,2-0.6,2.5-1.6c3.5-6.3,3.2-15.7,1.2-24.1c-2-8.3-8-19.7-8.2-19.8c-0.2-2.8-7.1-11.2-8.6-9.3
		c0-0.3,0.1-0.6,0-1c-0.2-0.5-0.5-1.1-0.8-1.7c-0.8-1.2-1.9-2.5-3.1-3.5c-1.2-1-2.5-1.8-3.6-2c-0.6-0.1-1.2,0-1.7,0.3
		c-0.1,0.1-0.2,0.3-0.3,0.4c-0.2-0.6-0.5-1.2-1-1.9c-0.8-1.2-2-2.4-3.3-3.3c-1.3-1-2.6-1.7-3.8-1.9c-0.6-0.1-1.2-0.1-1.6,0.2
		c0,0,0,0.1-0.1,0.1c-0.2-0.5-0.4-0.9-0.7-1.4c-0.8-1.1-2.1-2.4-3.5-3.4c-1.4-1-3-1.6-4.4-1.6c-0.8,0-1.5,0.4-2.2,1
		c0-0.9-0.3-1.9-0.8-2.7c-0.9-1.6-2.3-3.1-3.9-4.1c-1.6-1.1-3.3-1.7-4.7-1.6c-0.7,0-1.4,0.3-1.9,0.8l0,0c-0.2-1-0.5-1.9-1.1-2.6
		c-1.1-1.3-2.8-2.3-4.5-2.9c-1.7-0.6-3.5-0.8-4.8-0.5c-0.7,0.1-1.3,0.4-1.7,0.8c-0.1,0.1-0.2,0.3-0.3,0.4c-0.1-0.1,0-0.2-0.1-0.3
		c-0.4-0.5-1-1-1.6-1.4c-1.3-0.8-3.1-1.4-4.9-1.7c-0.9-0.1-1.8-0.2-2.6-0.1c-0.8,0.1-1.6,0.2-2.3,0.6c-0.8,0.4-1.4,1.2-1.6,2.2
		c-0.5-0.7-1.1-1.4-1.9-1.7c-1.5-0.5-3.3-0.5-5-0.2c-1.7,0.3-3.4,1-4.5,1.8c-0.3,0.3-0.5,0.6-0.7,0.9c-0.2-0.2-0.4-0.5-0.7-0.6
		c-1.2-0.6-3-0.7-4.8-0.6c-1.8,0.1-3.5,0.6-4.7,1.5c-0.6,0.5-1.1,1-1.2,1.7c0,0.1,0,0.1,0,0.2c-0.4-0.2-0.8-0.5-1.3-0.6
		c-1.6-0.3-3.7-0.1-5.6,0.4c-1.9,0.5-3.7,1.4-4.6,2.6c-0.4,0.6-0.6,1.2-0.6,1.9c-0.3-0.1-0.6-0.3-0.9-0.3c-1.6-0.2-3.6,0.2-5.4,0.8
		c-1.8,0.6-3.4,1.6-4.2,2.8c-0.3,0.4-0.4,0.9-0.5,1.4c-0.5-0.2-1-0.4-1.7-0.5c-1.7-0.1-3.6,0.4-5.2,1.2c-1.7,0.8-3.1,1.9-3.7,3.2
		c-0.2,0.3-0.2,0.6-0.3,1c-0.6-0.1-1.2-0.1-1.9-0.1c-0.5,0.1,0.5-1.8,1.5-3.7c0.7-0.9,1.2-1.7,2-2.7c0.2-0.1,0.4-0.3,0.3-0.5
		c-0.1-0.2-0.3-0.4-0.5-0.3c-0.1,0-0.1,0-0.2,0.1c-4.1,1.9-7.5,6.9-9.9,12.6c-2.4,5.7-3.8,12.2-3.8,17.2v0.1
		c0.6,4.9,2.4,7.3,3.5,9.5c1.1,2.3,1.5,4.4-0.4,9.2c0,0,0,0,0,0c-1.2,2.5-1.4,3.1-4.8,4.8c3.8-7.8-8.1-12.4-21.2-5.1
		c-0.2,0.1-0.2,0.2-0.3,0.4c0,0.2,0.1,0.3,0.2,0.4c0.1,0.1,0.3,0.1,0.5,0c0.9-0.2,1.5-0.2,2.4-0.4c1.7,3.2-5.3,9.9-9.7,16.2
		c-2.3,3.3-8.5,11.8-8.5,15.9c0,4,1,5.9,4.1,5.9c0.8,0,2.3,0.1,4.2-0.3c1.8-0.4,4.5-1.4,6.1-1.4c1.6,0,2.6,0.1,4.2,1.4
		c-0.5,0.2-3.8,6-1.7,8.3c-0.2,0.4-1.7,0.6-2.2,0.6c-0.9,0-3.4-1-4.8-1.5c-2.8-0.9-4.1-1.7-7-1.6c-3,0.1-7.6,1.3-10.9,2.4
		c-3.3,1.1-6.2,2-13.4,2.2c-0.9,0-1.9-0.2-2.8-0.4c1.2-1.9,1.9-2.4,2-2.4c0.1,0,0.1,0,0.2,0c0.2,0,0.3-0.1,0.4-0.3
		c0.1-0.2,0-0.3-0.1-0.5c-0.1-0.1-0.3-0.2-0.5-0.1c0.1,0,0,0-0.1,0c-0.1,0-0.2,0-0.3,0c-0.2,0-0.5,0-0.9,0c-0.7,0-7.5,1.2-10.3,2.7
		c-2.7,1.5-4.2,4.9-6.7,4.9c-1.4,0-2,0-3.2-0.9c1.2-5.6-2.9-7.3-1.1-8.8c1.9,0.3,9,1.2,15.6-3c0.1-0.1,0.2-0.2,0.2-0.4
		c0-0.2-0.1-0.3-0.2-0.4c-0.1-0.1-0.3,0-0.4,0.1c-3.7,2.4-6.4-2-9.4-1.7c-5.1,0.4-3.9,1.3-7,1.3c-1.6,0-3.4-0.8-3.8-1.5
		c1-2.2,2.8-5.3,1.8-7c0.6-0.8,1.6-1,3.2-1c1.5,0,2.2,1.4,4.5,2.4c8.2,4.2,5.8,0.9,12,3.2c0.2,0.1,0.5,0,0.6-0.2s0.2-1.1-0.6-1.2
		c-7-1-9-3.9-10.6-5.5c-0.5-0.5-1.7-0.8-2.9-1.1c-3.4-3.1-3.4-5.9-3.1-6.1c0.6-0.3,2.4-2.8,2-3.4c0.7-0.9,1.3-0.6,2.3-0.7
		c3.5,0.1,7.1,5.3,6.1,7.3c-0.1,0.1,3,2.9,4.9,5.2c1.5,1.8,4.5,5.5,8.6,4.7c0.1,0.1,0.1,0.2,0.2,0.2c0.1,0,0.3,0,0.4-0.1
		c7.6-6.9,13.2-18.1,16.8-28c1.8-5,3.2-9.6,4.1-13.3c0.9-3.7,1.3-6.2,1.3-7.3c0-5.6-1.3-14.4-1.2-23c0.1-7.9,1.5-15.4,5.9-20.1
		c1.1-0.2,2.2-0.5,3.3-0.9c2.8-1,5.6-2.8,7.8-5.3c0.1,0.7,0.2,1.4,0.4,2.1c0.5,1.7,1.3,3.5,2.4,5.2c2.2,3.5,5.6,6.6,10,7.3h0
		c0,0,0.1,0,0.1,0c0.2,0.1,0.5-0.1,0.5-0.3c0,0-0.1-0.1-0.1-0.1c0,0,0,0,0,0c0-0.2,0-0.3-0.2-0.4c0,0-0.1,0-0.1-0.1
		c-0.6-0.1-0.9-0.3-1.2-0.7c-0.2-0.4-0.4-0.9-0.4-1.6c0-1.3,0.4-3.1,1.1-4.9c0.5-1.4,1.2-2.8,1.8-4.1c1.3,2.8,3.2,5.8,6.3,7.7
		c3.6,2.2,8.5,2.9,14.9,0.1c0,0,0,0,0.1,0c0.1,0,0.1,0,0.1-0.1c0.1-0.1,0.1-0.2,0.1-0.2c0.1-0.1,0.1,0,0.2-0.1
		c0-0.1-0.1-0.1-0.1-0.2c0,0,0,0,0,0c0-0.1,0-0.3-0.1-0.3c-4.7-2.3-6.1-5.1-6.2-7.8c-0.1-1.5,0.2-2.9,0.6-4.2
		c2.5,2.9,5.6,5.1,8.3,6.2c1.5,0.6,2.9,0.8,4,0.6c0.6-0.1,1-0.4,1.4-0.8c0.2,0.6,0.4,1.1,0.7,1.5c0.3,0.4,0.7,0.6,1.2,0.8
		c0.1,0.9-0.1,1.6-0.5,2c-0.5,0.5-1.2,0.7-1.9,0.6h0h0h0h-0.1l-0.1,0h0c0,0,0,0-0.1,0c0,0-0.1,0.1-0.1,0.1c0,0,0,0-0.1,0.1l0,0.1
		c0,0.1-0.1,0.2,0,0.3v0c0,0,0,0,0,0.1v0l0,0.1c0.1,0.1,0.2,0.1,0.2,0.2c0,0,0,0,0,0.1c0.3,0.3,0.7,0.6,1.1,0.8
		c0.1,0.1,0.3,0.1,0.4,0.1c0.2,0,0.3,0.1,0.5,0.1c0.1,0,0.2-0.1,0.4-0.1c0.2,0,0.5,0.1,0.7,0.1c1.3-0.2,2.6-0.9,3.7-1.8
		c1.1-0.9,2.1-2.1,2.6-3.3c0.5-1.2,0.5-2.6-0.3-3.7c0-0.1-0.1,0-0.2-0.1c0.1-1,0.2-2,0.1-3.3c0.4-1.3,1.4-2.9,3-4.5
		c1.7-1.8,4.1-3.6,6.8-4.9c5.2-2.5,11.9-3.2,19,0.5c0.1,0.1,0.2,0.3,0.3,0.4c0.6,0.5,1.2,0.8,1.8,1.1c0.2,1.1-0.1,1.7-0.5,2.1
		c-0.5,0.4-1.3,0.5-2,0.4c0,0-0.1,0-0.1,0c0,0-0.1,0-0.1,0c-0.1,0-0.2,0-0.2,0.1c0,0-0.1,0.1-0.1,0.2v0c0,0.1,0,0.2,0,0.3v0l0,0v0h0
		c0.1,0.1,0.1,0.1,0.2,0.2c0.3,0.4,0.7,0.7,1.1,0.9c0.2,0.1,0.3,0.1,0.5,0.2c0.2,0.1,0.4,0.1,0.7,0.2c0.2,0,0.5,0.2,0.7,0.2
		c1.2,0.1,2.4-0.3,3.5-1c1.1-0.6,1.9-1.5,2.4-2.5c0.3-0.6,0.2-1.4,0.1-2.1c0.2-0.5,0.2-1.2,0.1-1.9c-0.2-0.6-0.6-1.3-0.9-2
		c0-0.9,0.1-1.8,0.2-2.6c1.4-4.4,3.7-7,6.7-8.5c3.3-1.7,7.5-2.2,12.2-2.1c15.9,0.3,26.9,3.8,35.6,7.4s15.2,7.1,22.2,6.9
		c6.6-0.1,12.7-1.7,17.2-5.1c4.5-3.4,7.4-8.6,7.4-15.6c0-2.6-0.8-4.8-2-6.9c-2.1-3.9-5.5-6.8-9.1-8.1c-1.4-0.5-2.8-0.8-4.2-0.8
		c-1.4,0-2.7,0.2-3.8,0.8c-2.3,1.1-3.9,3.7-3.9,7.2c0,3.7,3.1,6.5,6.7,6.5c3.5,0.1,7.2-2.6,8.9-8.4c1.3,1.1,2.5,2.5,3.3,4.1
		c-0.8,5.6-3.3,8.9-6.4,11c-3.2,2.1-7,2.9-9.7,3c-7.3,0.4-15.5-7.1-15.4-17.5C370.2,366,378.2,358,390.7,358L390.7,358z
		 M137.7,358.8c3.9,3.5,0.1,6.2,0.7,10.2c2.7,16.6,9.7,18.6,10.9,25.8c3.9,24,14.5,35.4,15.3,36.2c0.4,0.6,0.8,1.1,1.4,1.3
		c-0.2,1.9,0.2,4.8,1.2,7.6c1,2.6,2.4,5,4.4,6v0c0.1,2.2,0.9,4.8,2.2,7.1c1.3,2.2,3,4.1,5.1,4.6c0.8,0.8,1.3,1.2,2,1.9
		c1.7,3.9-10,8.2-15.1,9.7c-1.8,5.2-7.8,9.3-12.4,9.3c-3.4-0.1-3.6-0.7-5.7-1.7c7.3-1.3,10.1-1.1,9.7-18.1c0-0.4,0-0.7,0-0.9
		c0-0.1,0-0.2,0-0.3c0,0,0-0.1,0-0.1c0,0,0,0-0.1-0.1c-0.1-0.2-0.2-0.3-0.4-0.3c-0.1,0-0.2,0.1-0.3,0.2c-0.1,0.1-0.1,0.2-0.1,0.4v0
		v0c-3.5,10.5-13.2-29.9-15.3-44.6c-0.5-3.5,3.2-10.9,2.8-15c0.1-0.1-0.8-0.2-0.9-0.2c-0.3,1.8-1,3.8-1.9,5.7c0,0,0,0,0,0
		c-0.2,0.2-0.5,0.3-0.8,0.6c-0.6,0.5-1.4,1.3-2,2.4c-1.4,2.1-3,3.4-1.1,8.4c0.7,1.9-2.6,5.3-3.9,6c0.1-3-4.8-3.9-5.7-3.5
		c-0.5-3.3,1-7.5,3.3-9.4c2.6-2.6,4.6-10.9,3-14.7c-0.1-0.4-0.5-0.7-1-0.6c-0.2,0-0.5,0.2-0.6,0.4c-0.1,0.2-0.1,0.5-0.1,0.7
		c0.3,0.5,0.4,1.2,0.5,2c0,0,0,0,0,0c-1.2,1-3.9-4.4-1.6-6.1c0.4,0.1,1,0.2,1.3,0.2c0.5-0.1,0.8-0.5,0.7-1c-0.1-0.5-0.5-0.7-1-0.7
		c-1.5,0.3-6.2-1.3-9.1-3.1c-8.4,2.8-9.9,2.4-12.3-0.4c1.4-1.8,0.2-4.9,0.2-5.1c1.6-1.4,3.1-1.5,4.8-1.2c0.9,0.2,3.4,0.9,4.9,2.3
		c3-1.1,7.8,1.3,8.5,3.4c0.1,0.3,0.3,0.5,0.6,0.6c0,0,0.1,0.2,0.1,0.2c0.3,0.1,0.7,0,0.9-0.3c0.2-0.2,0.3-0.6,0.1-0.9
		c-0.6-2-3-12-10.3-12.1h0c0,0-3.8-0.8-3.9-4.9c1.3-0.5,4.5-2.8,4.2-5.4c0.1,0,0.1,0,0.1,0c3.6,1,5.3,4.8,5.4,6.6
		c1.4,1,6.5,2.4,7.9,15.7c0,0.3,0.2,0.6,0.4,0.8c0.3,0.2,0.7,0.1,0.9-0.1c0.3-0.2,0.4-0.6,0.3-0.9c-0.3-3.3-0.9-5.9-1.6-8
		c0.1-3.7-0.7-6.3-3.3-9.6c0-0.1,0-0.1-0.1-0.2c-1.3-2.3-1.5-4.6,0.1-6.3C133.8,360.2,137.5,358.9,137.7,358.8L137.7,358.8z
		 M115.9,361.2c1,0,2,0.1,3,0.3c0.1,0.3,0.1,1.3,0,1.9c-0.1,0.1-0.3,0.3-0.4,0.4c-1.8-0.3-5.2-1.9-6.5-0.2c-0.2,0.1-0.3,0.2-0.3,0.3
		c0,0.1,0.2,0.2,0.4,0.3c0.2,0,0.5,0,0.6-0.1c1.4-0.4,3.7,0.1,4.2,1c-0.2,0.1-0.5,0.3-0.7,0.4c-1.5-0.4-3.9-0.7-6.3,0.7
		C109.9,362.5,112.8,361.3,115.9,361.2L115.9,361.2z M185.5,363.8c1,0,2.2,0.1,3.8,0.3c1.9,0.3,4,0.6,6,0.5c0.4,0,0.7-0.2,1.1-0.2
		c0.6,3.2,0.2,5.1-1,6.1c-1.2,1.1-3.2,1.4-5.4,1.3c-2.2-0.1-4.7-0.5-6.8-0.8c-0.4,0-0.6,0-0.9-0.1c-0.3-0.1-0.7-0.1-0.8-0.2
		c-0.3-0.2-0.4-0.4-0.5-0.6c-0.1-0.5,0-1.3,0.5-2.2C182.4,366.4,184.1,364.7,185.5,363.8L185.5,363.8z M180.2,372.5
		c1,0,2.1,0.1,3.7,0.3c2.2,0.3,4.7,0.7,7.1,0.6c0.4,0,0.7-0.1,1.1-0.2c0.6,4-0.1,6-1.4,7.1c-1.3,1.1-3.3,1.2-5.7,1.1
		c-2.4-0.2-4.9-0.6-7.3-0.7c-0.6,0-1,0.1-1.5,0.2c-0.1,0-0.1,0-0.2-0.1c-0.1,0-0.3,0-0.4,0c-0.2-0.1-0.3-0.3-0.4-0.5
		c-0.2-0.6,0-1.6,0.6-2.8C176.7,375.6,178.6,373.6,180.2,372.5L180.2,372.5z M226.5,374.4c2.9,0.6,5.4,2,7,4.2
		c1.5,2.1,2,4.7,1.1,7.9c-0.2-0.8-0.6-1.6-1.1-2c-0.8-0.7-1.8-0.9-2.7-0.8c-1.5,0.1-2.9,0.7-3.7,1.1c-0.1-0.4-0.2-0.7-0.3-1.1
		c-0.1-0.8-0.2-1.7-0.2-2.6c0.4-0.2,1.1-0.2,2-0.2c1.7,0.1,3.9,0.8,4.9,1.6c0.2,0.1,0.4,0.1,0.6-0.1c0.1-0.2,0.1-0.4,0-0.6
		c-2.4-2.1-4.3-2.6-5.6-2.9c-0.7-0.2-1.2-0.3-1.6-0.6c-0.2-0.1-0.3-0.5-0.5-0.6C226.3,376.6,226.4,375.5,226.5,374.4L226.5,374.4z
		 M250.5,377.9c0.2,0,0.5,0.2,0.8,0.6c0.4,0.4,0.7,1.1,1.1,1.9c0.8,1.6,1.6,3.9,2.3,6.3c1.5,4.8,2.7,10.3,3.1,13.1
		c1.5,9.4,1.5,15.5,1.9,19.3c0,0.4,0.1,0.6,0.2,1c-0.6,0.4-1.4,0.6-2.3,0.4c-1.2-0.2-2.5-0.8-3.9-1.6c-2.6-1.6-5.1-4.2-6.2-6.3
		c0-0.1,0-0.2-0.1-0.2c-0.1-0.1-0.2-0.2-0.4-0.2h0c0,0,0,0-0.1,0c-0.2,0-0.4,0.1-0.4,0.3c0,0.1,0,0.1-0.1,0.2c-2,2.3-3,4.4-3.2,6.3
		c-0.2,2,0.4,3.7,1.4,5.1s2.4,2.5,3.7,3.2c0.7,0.4,1.3,0.5,1.9,0.7c-2.6,0.3-5.7,0.8-8.8-0.1c-3.6-1.1-7-3.9-8.5-11.3c0,0,0,0-0.1,0
		c0-0.1,0.1-0.2,0.1-0.3c-0.1-0.2-0.3-0.2-0.4-0.2c-0.1,0-0.2,0.1-0.2,0.1c0,0,0,0-0.1,0.1c-3.2,2.5-5.2,6.4-5.9,9.8
		c-0.3,1.7-0.3,3.3,0.1,4.6c0,0.1,0.1,0.1,0.2,0.2c-3.2-1.9-5.2-4.2-6.4-6.9c-1.4-3.2-1.4-6.9-0.9-10.6c0.1-0.1,0.2-0.2,0.2-0.3
		c0,0,0.1-0.1,0.1-0.1c0-0.1,0.1-0.1,0.1-0.1c0,0,0,0,0,0c0,0,0.1,0,0.1-0.1c0,0,0,0,0.1-0.1c0,0,0-0.1,0-0.1v-0.1l-0.1-0.2
		l-0.2-0.1l-0.2-0.1l-0.1,0c0,0-0.1,0-0.1,0.1c-0.1,0.1-0.1,0-0.1,0.1c0,0,0,0-0.1,0c-0.1,0-0.3,0.1-0.3,0.2
		c-1.3,2.2-4.5,5.6-8.6,7.9c-3.6,2.1-7.8,3.1-11.8,1.9c2.5-8.1,6.9-13.1,11.6-16c4.6-2.7,9.3-3.4,12.8-3c0,0,0,0,0,0.1
		c-0.5,2-0.8,4.6-0.9,7.7v0v0.1c0,0.2,0.2,0.4,0.4,0.5c0.2,0,0.4-0.2,0.5-0.4v-0.1c0,0,0.1,0,0.1-0.1c0.5-2.4,2.3-5.6,4.6-7.8
		c1.1-1.1,2.3-2,3.5-2.5c0.9-0.4,1.7-0.4,2.4-0.3c-0.1,0.8-0.2,1.4-0.2,2.3c-0.2,3.5-0.1,7.7-0.1,10.7v0.1c0,0.2,0.1,0.4,0.3,0.4h0
		c0,0,0,0,0,0c0.1,0,0.1-0.1,0.2-0.2c0.1-0.1,0.2-0.1,0.2-0.1c0,0,0,0,0-0.1c0,0,0,0,0,0c0,0,0-0.1,0-0.1c1.4-6.2,2.9-11.5,4.4-14.8
		c0.7-1.7,1.5-2.9,2.1-3.4c0.3-0.3,0.6-0.4,0.8-0.4c0.2,0,0.4,0.1,0.6,0.3c0,0,0,0.1,0,0.1c0.1,0.3,0.2,0.7,0.3,1.2
		c0.2,1,0.4,2.4,0.5,4c0.3,3.2,0.5,7,0.7,9.6c0,0,0,0,0,0.1c0,0.2,0.2,0.4,0.4,0.4s0.4-0.2,0.4-0.4c0,0,0,0,0-0.1
		c0.3-8.2,2-16.9,3.7-23.3c0.8-3.2,1.7-6,2.3-7.8C250.3,378.4,250.4,378.2,250.5,377.9L250.5,377.9z M109.9,380.3
		c0.2,0.4,0.2,0.6,0.3,1.3c-1,0.1-2.3,0.3-3.2,1.5c-0.1,0.1-0.1,0.2-0.1,0.4c0,0.1,0.1,0.2,0.3,0.3c0.1,0,0.3,0,0.4-0.2
		c0.7-0.8,1.8-0.8,2.7-0.6c0,0.7-0.2,1.3-0.5,2c-1-0.2-2.4-0.3-3.6,1.4C105.3,382.1,108.1,380.6,109.9,380.3L109.9,380.3z
		 M175.8,382.6c1.1-0.1,2.3-0.1,3.5,0.1c2.5,0.2,5,0.7,7.4,0.8c0.8,0,1.5-0.1,2.2-0.2c0.5,4.2-0.3,6.5-1.7,7.8
		c-1.5,1.3-3.8,1.7-6.4,1.7c-2.6,0-5.4-0.3-7.9-0.2c-1.2,0-2.2,0.2-3.2,0.5c-0.3-0.1-0.5-0.3-0.6-0.7c-0.2-0.8,0.3-2.5,1.2-4.2
		c0.9-1.7,2.1-3.4,3.4-4.6c0.3-0.3,0.6-0.5,1-0.7C175,382.8,175.4,382.6,175.8,382.6L175.8,382.6z M346.6,385.4
		c0.3,0.1,0.6,0.2,0.9,0.2c-0.1,0.4-0.3,1-0.7,1.4c-0.1,0.1-0.2,0.1-0.2,0.2c0.1-0.4,0.2-0.7,0.2-1.1
		C346.7,385.8,346.6,385.6,346.6,385.4z M186.6,393.8c1.1,3.9,0.7,6.2-0.7,7.6c-1.4,1.5-4,2.1-6.8,2.5c-2.9,0.4-6,0.5-8.7,1.1
		c-1.1,0.3-2.1,0.7-3,1.2c-0.2-0.1-0.3-0.2-0.5-0.5c-0.4-0.9-0.5-2.4-0.3-4.1c0.2-1.6,0.7-3.4,1.3-4.8c0.3-0.7,0.6-1.3,0.9-1.7
		c0.1-0.2,0.2-0.2,0.3-0.3c1.6-0.4,3.4-0.6,5.4-0.6c2.8,0.1,5.7,0.3,8.4,0.1C184.3,394.4,185.5,394.2,186.6,393.8L186.6,393.8z
		 M184.8,404.6c1.1,1.9,1.7,3.4,1.8,4.6c0.2,1.3,0,2.2-0.6,2.9c-1,1.4-3.4,2.2-6.3,2.7c-2.9,0.5-6.2,0.8-9.1,1.5
		c-1.5,0.4-2.9,1-4,1.8c-0.2-0.1-0.4-0.2-0.6-0.5c-0.4-0.8-0.5-2.2-0.3-3.7c0.2-1.5,0.7-3.1,1.2-4.4c0.3-0.6,0.6-1.2,0.9-1.5
		c0.2-0.2,0.3-0.2,0.5-0.3c1-0.4,2.1-0.7,3.3-0.9c2.8-0.5,6.1-0.6,9-1.1C182.2,405.4,183.6,405.1,184.8,404.6L184.8,404.6z
		 M302.8,409.7c0,1.4-0.9,2.4-2.1,2.8c-0.6,0.2-1.2,0.3-1.9,0.2c-0.1,0-0.2-0.1-0.3-0.1c-0.2-0.1-0.3-0.2-0.4-0.3
		c1.2,0,2.3-0.3,2.9-1c0.4-0.4,0.7-1,0.9-1.4c0,0,0-0.1,0-0.1C302.3,409.8,302.6,409.7,302.8,409.7L302.8,409.7z M185.7,415.6
		c1,1.2,1.7,2.4,1.9,3.3c0.3,1,0.2,1.8-0.2,2.6c-0.8,1.5-2.8,2.8-5.3,4s-5.6,2.1-8.4,3.1c-1.5,0.6-3,1.2-4.2,1.8
		c-1.5-0.3-2.4-1.1-3-2.2c-0.7-1.2-0.9-2.7-0.8-4.2c0.1-1.5,0.4-2.9,1-3.9c0.1-0.1,0.1-0.2,0.2-0.3c1.3-0.8,3.1-1.3,5.1-1.6
		c2.9-0.5,6.2-0.6,9.2-1.1C182.8,416.8,184.4,416.4,185.7,415.6z M128.4,419.7c0.5,0.2,0.9,0.4,1.4,0.6c-0.6,0.9-1.4,2.2-2.7,2.2
		c-0.2,0-0.3,0.1-0.4,0.2c-0.1,0.1-0.1,0.3,0,0.5s0.3,0.2,0.4,0.2c1.6,0,3.1-1.4,4-2.3c0.6,0.3,1.1,0.7,1.4,1
		c-1.5,1.4-5.1,3.8-8.6,0.4C126.3,422.6,127.7,420.8,128.4,419.7L128.4,419.7z M265.8,423.6c0,1.5-0.9,2.8-2.1,3.4
		c-0.6,0.3-1.6,0.4-1.5,0.3c0.7-0.3,1.2-0.8,1.6-1.3s0.6-1.1,0.7-1.6c0.1-0.2,0-0.3,0.1-0.5C265.1,424,265.4,423.8,265.8,423.6
		L265.8,423.6z M312.7,423.9c2.9-0.1,5.6,1.3,6.3,3.2c0,0.1,0,0.2,0,0.4c0,0.5-0.1,1.2-0.1,2c-0.1,1.6-0.3,3.8-0.4,5.9
		c-0.3,3.8-0.5,6.9-0.5,7.6c-3.7,2.8-6.8,0.1-7.9-2.1c-0.1-0.7-0.7-3.6-1.4-7.2c-0.4-2-0.7-4.1-1-5.6c-0.1-0.6-0.2-1.1-0.3-1.5
		C308.8,424.8,310.8,424,312.7,423.9L312.7,423.9z M301.2,424.8c1.5,0,3,0.7,4.1,2.1c0.1,0.5,0.2,1,0.3,1.7c0.3,1.5,0.7,3.6,1.1,5.6
		c0.7,3.7,1.3,6.8,1.4,7.4c-1.1,1.8-6.6,3.2-8.7,0.4c0-0.1,0-0.1,0-0.2l-3.7-14.9C296.5,425.9,298.8,424.7,301.2,424.8L301.2,424.8z
		 M186.9,425.5c2,1.3,3.4,2.4,4.3,3.5c0.9,1.1,1.2,2,1.1,2.9c-0.1,1.8-1.7,3.5-4.2,5c-2.4,1.6-5.6,3-8.5,4.4c-1.4,0.7-2.8,1.3-4,2
		c-1.4,0.3-2.7-0.1-3.8-0.9c-1.1-0.9-2.1-2.3-2.7-3.8s-0.9-3.1-0.9-4.5c0-0.9,0.3-1.6,0.6-2.1c5.1-2.2,11.4-3.3,15.9-5.3
		C185.6,426.4,186.2,426,186.9,425.5L186.9,425.5z M289.2,426.2c1.4-0.1,3,0.3,4.4,1.4l3.6,14.4c-1,2.7-5.5,3.6-7.3,2.5l-5.4-14.9
		C284.3,428.1,286.5,426.4,289.2,426.2z M323.4,426.4c3,0.1,7.4,3.2,7.4,5.9l-3.7,14.6c-0.7,1.8-6.1,1.1-7.2-2.8c0,0,0,0,0,0
		c0,0,0.3-4.2,0.6-8.5c0.1-2.1,0.3-4.3,0.4-5.9c0.1-0.8,0.1-1.5,0.1-2c0-0.1,0-0.2,0-0.3C321.6,426.7,322.4,426.4,323.4,426.4
		L323.4,426.4z M280.4,429.2c0.8,0,1.4,0.2,1.9,0.6l5.6,15.4c-0.6,1.9-7.2,5.5-9,3.5l-5.6-15.5C273.7,431.3,277.5,429.2,280.4,429.2
		z M335.2,432.3c3,0,6.6,2.7,6.6,6.9l-5.8,14.5c-2.1,0.8-7-1.2-7.1-5.1l3.9-15.5C333.5,432.6,334.3,432.3,335.2,432.3L335.2,432.3z
		 M268.9,433.3c0.9,0,1.8,0.3,2.6,0.8l5.4,15.1c-0.7,2.9-6.2,6.2-8.5,3.7l-6.4-14.6c0-0.1,0.1-0.3,0.1-0.2
		C262.3,436.9,265.6,433.4,268.9,433.3z M193.1,435.8c3.1,1.9,4.2,3.9,4.1,5.9c-0.1,2.1-1.5,4.3-3.6,6.3c-3.2,3.2-7.7,5.7-11.4,7.4
		c-0.9,0-1.8-0.3-2.8-1c-1.1-0.8-2.3-2-3.1-3.3c-0.9-1.3-1.5-2.6-1.7-3.8c-0.1-0.6-0.1-1,0-1.4c0.1-0.3,0.3-0.5,0.5-0.6
		c5.2-2.3,11.6-4.4,15.7-7.3C191.6,437.4,192.4,436.6,193.1,435.8L193.1,435.8z M258.2,438.4c0.8-0.1,1.6,0,2.2,0.3l6.6,15.1
		c0.1,4-7.7,7.6-9.5,6l-5.9-16.5C251.5,441.6,255.1,438.9,258.2,438.4z M345.9,439.8c2.9,0.1,6.9,1.9,6.7,4.6l-5.7,15.3
		c-2.9,2.2-9-2.9-9.2-5l5.8-14.3C344.1,440,344.9,439.7,345.9,439.8L345.9,439.8z M246.8,442.8c0.9-0.3,2,0,3.2,1.1l6,16.6
		c-0.2,1.7-6.7,6.4-10.2,4.3c-0.8-1.9-3.7-8.6-4.4-13.1c0.4-1.5,0.8-2.9,1.3-4.1c0.5-1.2,1.1-2,1.6-3
		C244.9,444,245.7,443.1,246.8,442.8L246.8,442.8z M309.2,445c0,0,0,0.1,0.1,0.1c0.2,1.2,7.5,2.6,8.4,2.5c-0.5,1.6,4.2,4.6,6.7,5.6
		c0.7,0.9,0.7,2.8,0.6,3.9c-0.2,2.6,0.6,6,4.4,8.4c2.5,1.6,10.8,4.5,10.8,11.2c0,4.8-3.8,6.8-5.5,7.9c1.5-2.9-0.1-5.8-3.3-6.4
		c-2.2-0.3-7.9-0.7-12.7-0.2c-0.5,0-0.8,0.5-0.8,0.9c0,0.5,0.5,0.8,0.9,0.8c2.1,0.4,3.2,0.3,2.9,2.2c0,0.1,0.1,0.1,0.1,0.1
		c-7.7,6.1-24.3,21.7-24.7,27.6c-0.1,1.7,1.6,3.5,3.9,3.3c0.1,0,8.1-3.9,11.5-0.9c-1.8,1.8-0.5,6.1-0.5,6.3
		c-4.3,3.1-9.2-1.3-17.5-1.4c-8.2-0.1-15,5.3-20.3,5.4c-0.7,0-1-0.1-1.4-0.2c0.5-0.6,0.9-1.3,0.9-1.3c0.1,0,0.5-0.3,0.6-0.3
		c0.2,0,0.3-0.1,0.4-0.3c0.1-0.2,0-0.3-0.1-0.5c-0.1-0.1-0.3-0.2-0.5-0.1c0.1,0,0,0-0.1,0c-0.1,0-0.2,0-0.3,0
		c-0.2,0-3.7,0.9-4.7,0.9c-2,0-6.3,1.5-9,2.9c-1.8,0.7-5.4,4.8-10.8,3.5c0.6-2.3-0.2-5.2-2-7.8c0.3,0,0.8-0.8,1.1-1.4
		c8-1.3,7.2,2.8,9-0.2c1.2-1.9,1.8,3.2,11.8-5c0.1-0.1,0.2-0.2,0.2-0.4c0-0.2-0.1-0.3-0.2-0.4c-0.1-0.1-0.3-0.1-0.4,0
		c-11.9,4.9-8.4,1.5-13.7,1.7c-5.1,0.2-3.7,1.4-6.8,1.4c-1.6,0-3.3-1.4-3.7-2.2c1.3-0.3,1.3-4.3,0.4-6.1c0.6-0.8,2.5-1.2,4.2-1.2
		c4.5,0,6.3,4.1,11.1,4.6c3.4,0,6.6-2.8,9.4-1c0.2,0.1,0.5,0.1,0.6-0.2c0.1-0.2,0-0.3-0.1-0.5c20.7,0.7,36-44.6,32.8-49.5
		c0-0.1-0.1-0.3-0.2-0.3c0,0-0.1,0-0.1,0c-0.4-1.4-1.2-3.2-3.4-3.9c0,0,0-0.2,0-0.2c-0.6-0.6-1.6-4.7-5.8-5.2c0.2-1,0.4-1.8,0.4-2.3
		c2.1-0.5,4.5-1.3,5-2C299.8,446.7,309.5,446.5,309.2,445L309.2,445z M355.9,445.7c2.7,0,6.5,2.3,6.8,4.6l-4.7,12.2
		c-2.1,2.5-7.4,0.7-8.2,0c-0.5-0.5-0.7-1.4-0.8-2.4l4.9-13.7C354.5,446,355.1,445.7,355.9,445.7z M196.7,447.1
		c0,0.6-0.1,1.3-0.2,1.9c-0.2,3.7-0.2,7-0.3,10.2c0,0,0,0,0,0v0c-0.6,2.3-1.5,3.6-2.6,4.3c-1.1,0.7-2.3,0.8-3.6,0.4
		c-2.5-0.8-5.2-3.6-7.1-7.2c5.1-1.7,10.2-4.9,13.3-8.8C196.4,447.6,196.5,447.3,196.7,447.1z M290.7,447.9
		c-0.4,5.6-9.4,12.2-12.8,12.1c0,0,0,0,0,0c-0.6-0.5-1.4-0.9-1.9-1.5C274.7,456.2,287.9,448.7,290.7,447.9L290.7,447.9z
		 M326.8,451.4c0,0.1,0.1,0.1,0.1,0.2c-0.1,0-0.1,0.1-0.2,0.1C326.8,451.5,326.8,451.5,326.8,451.4z M293.5,451.7
		c3.5,0.3,4.7,4.5,3.6,5.1c0.2,0.2-3.2,7.9-7,9.9c-1.3,0.7-3,0.3-4.1,0.2c-1.9-0.8-4.1-2.8-4.8-4.8c1-1.8,6.1-3.5,10.5-10.2
		C292.4,451.7,293,451.7,293.5,451.7L293.5,451.7z M364.5,451.9c2.5-0.6,7.3,2.1,7.6,5.8l-2.8,7.7c-1.7,1.2-9.4,1.4-9.5-1.6
		l4.4-11.7C364.3,452,364.4,451.9,364.5,451.9z M240.5,457.9c1.5-0.8,3.1,5.4,3.7,7.3l0,0c0,0.3-2.7,7.7-4.5-2.8
		c0.1-0.6,0.3-2.5,0.5-4.2C240.3,458.2,240.4,457.9,240.5,457.9z M299.3,458.5c0.4,0.6,1.6,0.6,2,2.5c-0.4,3-1.3,6.5-2.5,10.4
		c-1.8,0.7-4.9-0.4-6.8-1.5c-0.3-0.5-0.6-1-0.3-1.7c4.1-2.8,6.1-7.7,6.8-9.4C298.8,458.5,299.1,458.3,299.3,458.5z M373.3,459.8
		c1.6-0.2,6,3,6.5,7.2l0.1,0.3c-0.7,2.5-7,1.9-8.8-1.2L373.3,459.8z M196,462.9c0,1.7-0.1,3-0.2,4.2c-0.5-0.4-0.8-1-1.1-1.6
		c0,0,0.1-0.1,0.1-0.1C195.3,464.7,195.7,463.8,196,462.9L196,462.9z M254.5,494.8c1.2,0,1.6,0.3,2.7,1.4c1.1,1.1,1.9,3,4,5.1
		c1.9,1.9,7,4.6,10.1,5.4c-1.1,0.3-2.2,0.6-3.3,0.8c-2.9-0.9-6.3,1.2-11-2.8c-0.7-0.6-2.4-1-4.2-1.2c-1-0.8-3.7-2.8-3.4-3
		c1.3-2.1,2.7-4.1,2.3-4.7C252.4,495,253.3,494.7,254.5,494.8L254.5,494.8z M247,495.3c1.2-0.3,2.6,0.1,3.6,0.6
		c-0.1,0.3-0.3,0.5-0.4,0.8c-0.8-0.5-1.8-0.9-3.7-0.5c-0.2,0-0.3,0.1-0.4,0.3s0,0.3,0.1,0.4c0.1,0.1,0.3,0.1,0.5,0.1
		c1.5-0.3,2.2,0.2,2.9,0.8c-0.1,0.3-0.3,0.6-0.4,0.8c-0.9-0.7-4.2-2.8-5.1,0.6C244.2,496.8,245.5,495.6,247,495.3z M362.4,497
		c1.4,0.1,2.3,0.7,2.9,1.1c0.1,0.2,0.2,0.5,0.2,0.7c0,0.1-0.1,0.2-0.1,0.2c-1.1-0.7-2.9-1.4-5-0.9c-0.2,0-0.3,0.1-0.4,0.3
		c-0.1,0.1,0,0.3,0.1,0.4c0.1,0.1,0.3,0.1,0.5,0.1c1.8-0.4,2.9,1,3.8,1.7c-0.4,0.4-0.8,0.7-1.1,1c-0.6-0.6-4-3.4-6.7,0.4
		C358.2,497.7,360.5,496.8,362.4,497L362.4,497z M152.1,497.4c1.3-0.3,2.3,0.8,2.8,1.5c0,0.1-0.1,0.3-0.1,0.3c0.1,0.1,0,0.3-0.1,0.5
		c-0.8-0.4-1.8-0.6-3.7-0.2c-0.2,0-0.3,0.1-0.4,0.3s0,0.3,0.1,0.4c0.1,0.1,0.3,0.1,0.5,0.1c1.5-0.4,2.1,0.2,2.7,0.8
		c-0.3,0.5-0.6,0.7-0.9,1c-1-0.7-3.6-2.1-4.8,0C149.7,498.8,151,497.6,152.1,497.4L152.1,497.4z M248,500C248,500,248.1,500,248,500
		C248,500,248,500.1,248,500C248,500,248,500,248,500z M242.2,506.5c0.1,0,0.1,0,0.2,0c0.2,0.1,0.6,0.3,0.7,0.4
		c0.2,0.2,0.2,0.5,0.4,0.7c-1.2-0.1-2.6,0-3.9,1c-0.1,0.1-0.2,0.2-0.2,0.4c0,0.2,0.1,0.3,0.3,0.4c0.2,0.1,0.3,0,0.4-0.1
		c1.3-1,2.7-0.2,3.8,0.2c0,0.5-0.1,0.8-0.2,1.3c-1-0.8-3.5-2.2-5.6,0.2C237.8,506.9,240.6,506.4,242.2,506.5L242.2,506.5z
		 M357.4,510.1c0.3,0,0.4,0.1,0.6,0.1c0.1,0.5,0.1,1.1,0.1,1.6c-1.2-0.2-2.8-0.1-4.2,1c-0.1,0.1-0.2,0.3-0.2,0.4
		c0,0.2,0.1,0.3,0.3,0.3c0.2,0.1,0.3,0,0.5-0.1c1.1-0.9,2.2-0.4,3.2,0c-0.1,0.3-0.2,0.6-0.3,0.8c-1.2-0.5-4.4-1.3-5,3.2
		C349.9,510.8,354.7,510,357.4,510.1L357.4,510.1z M314,513c0,0,0,0.1,0,0.1c3,0.1,8.7,4,1.8,8.3c2.3-3-2-4-2.5-4.1
		c0-0.1,0-0.2,0-0.3c1,0,2-0.5,3.9,1.4c0.1,0.1,0.2,0.3,0.3,0.3c0.2,0,0.3-0.1,0.4-0.2c0.1-0.1,0.1-0.3,0-0.5
		c-0.9-1.9-3.3-2.8-4.6-3.1C313.5,514.3,313.7,513.7,314,513L314,513z M148.8,513.6c0.1,0.5,0.1,1-0.1,1.5c-1.2-0.2-2.9-0.2-4.3,1
		c-0.1,0.1-0.2,0.2-0.2,0.4c0,0.2,0.1,0.3,0.3,0.4c0.2,0.1,0.3,0,0.4-0.1c1.1-0.9,2.2-0.4,3.2,0c-0.3,0.6-0.5,1-0.7,1.5
		c-1.1-0.5-3.1-1.2-4.9,0.6C143.2,513.9,146.8,513.5,148.8,513.6L148.8,513.6z M430.3,516.9c1.4,0.4,8.9,3.3,2.6,9.1
		c1.6-4.6-2.8-5-3.6-5.1c0-0.2,0-0.4,0-0.6c1.1,0.1,2.6,0.1,3.3,1.6c0,0.2,0.2,0.3,0.3,0.3c0.2,0,0.3,0,0.4-0.2
		c0.1-0.1,0.1-0.3,0-0.5c-0.8-1.9-2.6-2.7-3.7-3C429.8,517.9,430,517.4,430.3,516.9L430.3,516.9z M362.9,521c0.2,0.4,0.5,1,0.6,1.6
		c-1.1,0.2-3.1,1.1-4,3.1c-0.1,0.1-0.1,0.3,0,0.5c0.1,0.1,0.3,0.2,0.4,0.2c0.2,0,0.3-0.1,0.3-0.3c0.7-1.6,2.4-1.4,3.5-1.6
		c0,0.2,0,0.4,0.1,0.7c-1,0.1-5.4,0.6-3.9,5.1C353.4,524.1,362.2,521.2,362.9,521L362.9,521z M246.6,521.3c0.2,0.3,0.4,0.6,0.5,1
		c-1.2,0.4-2.7,1.1-3.5,2.9c-0.1,0.1-0.1,0.3,0,0.5c0.1,0.1,0.3,0.2,0.4,0.2c0.2,0,0.3-0.1,0.3-0.3c0.6-1.5,2.1-1.5,3.3-1.6
		c0.1,0.7,0.2,1.3,0.2,1.9c-1.4-0.3-4.5,0.1-5.5,2.7C239.7,525.8,243.2,522.1,246.6,521.3z M217.6,522.4c3.1,0.6,8.8,3.3,2.5,9.1
		c2.2-3.2-2.3-4.1-3.4-4.3c-0.1-0.3-0.1-0.7-0.1-1.1c1.2,0.1,3.2,0.1,3.9,1.6c0.1,0.2,0.2,0.3,0.3,0.3c0.2,0,0.3-0.1,0.4-0.2
		c0.1-0.1,0.1-0.3,0-0.5c-0.8-1.9-3.1-2.9-4.4-3.3C217,523.4,217.3,522.8,217.6,522.4L217.6,522.4z M152.1,528.8L152.1,528.8
		c0.3,0.5,0.6,0.8,0.8,1.4c-1.1,0.4-2.4,1.2-3,2.7c-0.1,0.1-0.1,0.3,0,0.5c0.1,0.1,0.2,0.2,0.4,0.2c0.2,0,0.3-0.1,0.3-0.3
		c0.5-1.2,1.6-1.4,2.7-1.5c0.1,0.6,0.1,1.2,0.1,1.8c-1.4-0.1-4,0.2-2.7,3.9C146.8,532.5,149.9,529,152.1,528.8L152.1,528.8z"/>
</g>
</svg>
