<?xml version="1.0" standalone="no"?>
<!DOCTYPE svg PUBLIC "-//W3C//DTD SVG 1.1//EN" "http://www.w3.org/Graphics/SVG/1.1/DTD/svg11.dtd" >
<svg xmlns="http://www.w3.org/2000/svg">
<metadata></metadata>
<defs>
<font id="steagalbold" horiz-adv-x="714" >
<font-face units-per-em="1000" ascent="740" descent="-260" />
<missing-glyph horiz-adv-x="210" />
<glyph unicode="&#xfb01;" horiz-adv-x="729" d="M674 446v-429q0 -12 -3 -14.5t-13 -2.5h-119q-8 0 -11.5 0.5t-6 4t-2.5 11.5v308h-219q-6 0 -7.5 -2t-1.5 -9v-300q0 -13 -10 -13h-135q-6 0 -8 2.5t-2 12.5v300q0 6 -2 7.5t-9 1.5h-95q-10 0 -12.5 2.5t-2.5 12.5v111q0 9 2 12t11 3h97q8 0 9.5 2.5t1.5 10.5v49 q0 119 44.5 171t150.5 52q65 0 113 -19q11 -4 13 -8t2 -15v-111q0 -16 -15 -7q-27 17 -76 17q-48 0 -62.5 -18.5t-14.5 -68.5v-40q0 -10 2 -12.5t10 -2.5h356q15 0 15 -19zM596 736q42 0 71.5 -29t29.5 -72q0 -47 -29 -74.5t-72 -27.5q-44 0 -72 27.5t-28 74.5q0 43 28.5 72 t71.5 29z" />
<glyph unicode="&#xfb02;" horiz-adv-x="695" d="M645 725v-711q0 -8 -3 -11t-12 -3h-126q-9 0 -12 3t-3 13v308h-189q-6 0 -7.5 -2t-1.5 -9v-300q0 -13 -10 -13h-135q-6 0 -8 2.5t-2 12.5v300q0 6 -2 7.5t-9 1.5h-95q-10 0 -12.5 2.5t-2.5 12.5v111q0 9 2 12t11 3h97q8 0 9.5 2.5t1.5 10.5v49q0 119 44.5 171t150.5 52 q65 0 113 -19q11 -4 13 -8t2 -15v-111q0 -16 -15 -7q-27 17 -76 17q-48 0 -62.5 -18.5t-14.5 -68.5v-40q0 -10 2 -12.5t10 -2.5h186v261q0 14 13 14h127q10 0 13 -2.5t3 -12.5z" />
<glyph unicode="&#xfb04;" horiz-adv-x="1030" d="M708 607q-48 0 -62.5 -18.5t-14.5 -68.5v-40q0 -10 2 -12.5t10 -2.5h181v261q0 14 13 14h127q10 0 13 -2.5t3 -12.5v-711q0 -8 -3 -11t-12 -3h-126q-9 0 -12 3t-3 13v308h-184q-6 0 -7.5 -2t-1.5 -9v-300q0 -13 -10 -13h-135q-6 0 -8 2.5t-2 12.5v300q0 6 -2 7.5t-9 1.5 h-165q-6 0 -7.5 -2t-1.5 -9v-300q0 -13 -10 -13h-135q-6 0 -8 2.5t-2 12.5v300q0 6 -2 7.5t-9 1.5h-95q-10 0 -12.5 2.5t-2.5 12.5v111q0 9 2 12t11 3h97q8 0 9.5 2.5t1.5 10.5v49q0 119 44.5 171t150.5 52q65 0 113 -19q11 -4 13 -8t2 -15v-111q0 -16 -15 -7q-27 17 -76 17 q-48 0 -62.5 -18.5t-14.5 -68.5v-40q0 -10 2 -12.5t10 -2.5h162q8 0 9.5 2.5t1.5 10.5v49q0 119 44.5 171t150.5 52q65 0 113 -19q11 -4 13 -8t2 -15v-111q0 -16 -15 -7q-27 17 -76 17z" />
<glyph horiz-adv-x="0" />
<glyph horiz-adv-x="333" />
<glyph unicode=" "  horiz-adv-x="210" />
<glyph unicode="&#x09;" horiz-adv-x="210" />
<glyph unicode="&#xa0;" horiz-adv-x="210" />
<glyph unicode="!" horiz-adv-x="311" d="M235 708v-486q0 -14 -3.5 -17.5t-17.5 -3.5h-124q-16 0 -16 23v486q0 10 2 13t13 3h131q10 0 12.5 -3.5t2.5 -14.5zM155 159q37 0 63.5 -26.5t26.5 -63.5t-26.5 -62.5t-63.5 -25.5t-63 25.5t-26 62.5t26 63.5t63 26.5z" />
<glyph unicode="&#x22;" horiz-adv-x="423" d="M64 700h106q25 0 25 -21v-253q0 -17 -13 -17h-125q-12 0 -14.5 3t-2.5 15v251q0 16 4 19t20 3zM244 700h123q11 0 13.5 -3t2.5 -14v-259q0 -15 -11 -15h-130q-14 0 -14 18v254q0 11 3 15t13 4z" />
<glyph unicode="#" horiz-adv-x="640" d="M58 409v96q0 11 9 11h122q9 0 10 7l35 175q1 7 10 7h104q12 0 9 -9l-37 -175q-1 -5 4 -5h68q7 0 8 5l36 175q2 9 11 9h98q10 0 12 -2.5t0 -11.5l-34 -168q-1 -7 6 -7h80q7 0 8.5 -1.5t1.5 -8.5v-96q0 -6 -2 -7.5t-9 -1.5h-101q-7 0 -9 -7l-17 -75q-3 -9 6 -9h81q7 0 9 -2 t2 -10v-94q0 -10 -9 -10h-108q-6 0 -7 -6l-35 -180q-2 -8 -12 -8h-100q-12 0 -10 10l36 178q1 6 -5 6h-68q-6 0 -7 -5l-36 -180q-2 -9 -13 -9h-100q-6 0 -7.5 2t0.5 8l35 178q1 6 -5 6h-97q-7 0 -8.5 2t-1.5 9v93q0 12 11 12h119q6 0 7 7l16 77q1 7 -5 7h-103q-5 0 -6.5 1.5 t-1.5 6.5zM295 395l-16 -78q-1 -7 5 -7h67q7 0 8 7l17 78q1 6 -5 6h-69q-6 0 -7 -6z" />
<glyph unicode="$" horiz-adv-x="530" d="M490 208q0 -163 -149 -206v-92q0 -8 -2.5 -10t-10.5 -2h-126q-9 0 -11.5 2t-2.5 11v82q-83 8 -131 31q-11 5 -11 18v133q0 12 13 6q73 -48 146 -48q126 0 126 71q0 18 -8 32t-27 25.5t-33.5 18.5t-45.5 19t-45 18q-61 28 -96.5 73t-35.5 129q0 68 38 115t105 65v95 q0 14 10 14h131q8 0 10.5 -2t2.5 -10v-90q61 -7 101 -28q11 -6 11 -21v-128q0 -5 -4.5 -6.5t-8.5 1.5q-55 46 -132 46q-99 0 -99 -60q0 -14 5.5 -24.5t21 -21t24 -15.5t36.5 -16.5t36 -15.5q37 -18 59.5 -31.5t49.5 -38t40 -59t13 -80.5z" />
<glyph unicode="%" horiz-adv-x="1231" d="M448 -11h-149q-5 0 -7 4t0 8l469 699q8 12 22 12h143q7 0 11 -4.5t0 -10.5l-469 -699q-6 -9 -20 -9zM291 285q-122 0 -184 61.5t-62 151.5t61.5 151t184.5 61t184.5 -61t61.5 -151t-62 -151.5t-184 -61.5zM291 407q38 0 60.5 25t22.5 66t-22.5 66t-60.5 25t-60 -24.5 t-22 -66.5q0 -41 22.5 -66t59.5 -25zM940 -10q-123 0 -184.5 61.5t-61.5 151.5t61.5 150.5t184.5 60.5t184.5 -60.5t61.5 -150.5t-61.5 -151.5t-184.5 -61.5zM940 112q38 0 60.5 25t22.5 66t-23 65.5t-60 24.5q-38 0 -60 -24.5t-22 -65.5t22.5 -66t59.5 -25z" />
<glyph unicode="&#x26;" d="M513 313l152 -1q4 0 5 -4t-3 -9q-17 -21 -51.5 -64t-53.5 -65q-1 -2 -1 -7l116 -148q3 -5 1 -10t-6 -5h-140q-9 0 -17 8l-54 68q-1 1 -4 -1q-59 -45 -109 -65t-110 -20q-106 0 -154.5 47.5t-48.5 126.5q0 70 31 120.5t107 104.5q3 3 1 6q-37 45 -53 76.5t-16 68.5 q0 76 57.5 124t142.5 48q82 0 138.5 -43.5t56.5 -116.5q0 -55 -29 -94.5t-84 -82.5q-1 -1 -1 -4l75 -103q2 -2 4 0q4 5 26 34q8 11 22 11zM364 173l-94 121q-1 1 -3 0q-71 -50 -71 -110q0 -30 16 -50t52 -20q24 0 45.5 12.5t54.5 41.5q2 3 0 5zM295 472q3 -3 6 -1 q47 38 47 76q0 51 -44 51q-21 0 -34.5 -14t-13.5 -36q0 -30 39 -76z" />
<glyph unicode="'" horiz-adv-x="255" d="M67 700h120q7 0 12.5 -5.5t5.5 -14.5v-233q0 -19 -19 -19h-113q-23 0 -23 17v238q0 17 17 17z" />
<glyph unicode="(" horiz-adv-x="349" d="M297 -78l-46 -53q-17 -19 -36 0q-84 87 -130 201.5t-46 227.5q0 112 45.5 222.5t130.5 194.5q12 12 27 0l59 -58q10 -10 1 -25q-93 -158 -93 -341q0 -199 91 -335q1 -1 2.5 -5.5t1 -12.5t-6.5 -16z" />
<glyph unicode=")" horiz-adv-x="349" d="M103 -139l-55 65q-9 11 0 25q45 71 69 161.5t24 178.5q0 87 -25.5 178.5t-69.5 163.5q-7 11 0 19l57 70q4 6 10.5 6t9.5 -4q89 -81 138 -197.5t49 -228.5q0 -113 -49 -230.5t-135 -205.5q-13 -13 -23 -1z" />
<glyph unicode="*" horiz-adv-x="550" d="M351 692l-32 -121q0 -4 4 -2l100 60q9 6 13 -2l49 -107q5 -9 -7 -11l-133 -15q-2 0 -2.5 -1t1.5 -2l94 -69q3 -2 4.5 -7t-1.5 -8l-103 -77q-9 -6 -15 5l-49 105q-2 4 -4 1l-49 -105q-6 -11 -17 -3l-98 73q-8 7 -1 13l96 72q4 4 0 4l-133 14q-3 0 -4.5 3.5t-0.5 6.5 l44 110q2 9 12 3l106 -64q2 -1 3 0t0 3l-31 119q-1 3 1 6.5t6 3.5h138q4 0 7 -2t2 -6z" />
<glyph unicode="+" horiz-adv-x="583" d="M370 186v-152q0 -15 -13 -15h-129q-13 0 -13 16v149q0 8 -10 8h-164q-9 0 -11.5 2.5t-2.5 11.5v101q0 9 2.5 12t11.5 3h167q7 0 7 7v152q0 14 11 14h130q9 0 11.5 -3t2.5 -12v-152q0 -6 5 -6h166q11 0 13 -3t2 -13v-100q0 -9 -3.5 -11.5t-13.5 -2.5h-163q-6 0 -6 -6z" />
<glyph unicode="," horiz-adv-x="302" d="M153 -92h-106q-6 0 -9.5 6.5t-1.5 12.5l44 208q3 19 17 19h143q8 0 12.5 -5.5t2.5 -10.5l-84 -217q-5 -13 -18 -13z" />
<glyph unicode="-" horiz-adv-x="341" d="M310 200h-274q-11 0 -13.5 3.5t-2.5 14.5v96q0 8 3 11.5t13 3.5h270q15 0 15 -13v-105q0 -7 -1.5 -9t-9.5 -2z" />
<glyph unicode="." horiz-adv-x="267" d="M133 189q41 0 70 -28.5t29 -70.5q0 -45 -28.5 -72.5t-70.5 -27.5q-43 0 -70.5 27t-27.5 73q0 42 28 70.5t70 28.5z" />
<glyph unicode="/" horiz-adv-x="509" d="M496 697l-314 -726q-6 -14 -19 -14h-139q-6 0 -10 6t-1 13l315 729q6 11 17 11h138q9 0 12.5 -5.5t0.5 -13.5z" />
<glyph unicode="0" horiz-adv-x="652" d="M45 350q0 159 75 259.5t206 100.5t206 -100.5t75 -259.5q0 -160 -75 -260t-206 -100t-206 100t-75 260zM216 350q0 -94 30 -152t80 -58q51 0 80 57.5t29 152.5q0 94 -29 152t-80 58q-50 0 -80 -58.5t-30 -151.5z" />
<glyph unicode="1" horiz-adv-x="334" d="M10 432l3 141q0 19 18 32l108 90q6 5 16 5h98q21 0 21 -20v-663q0 -12 -3.5 -14.5t-14.5 -2.5h-127q-12 0 -15 3t-3 15v483q0 4 -3 1l-87 -71q-3 -2 -7 -2t-4 3z" />
<glyph unicode="2" horiz-adv-x="561" d="M343 487q0 72 -95 72q-99 0 -180 -59q-8 -4 -9 -2.5t-1 8.5l5 136q0 8 6 12q93 56 205 56q99 0 170.5 -46t71.5 -143q0 -82 -23 -136t-92 -116l-127 -113q-3 -3 0 -3h222q18 0 18 -17v-119q0 -17 -21 -17h-432q-16 0 -16 14v130q0 10 8 17l216 191q44 39 59 70t15 65z " />
<glyph unicode="3" horiz-adv-x="573" d="M260 -10q-122 0 -205 43q-9 5 -9 17v133q0 14 15 6q87 -51 199 -51q50 0 79.5 18.5t29.5 55.5q0 83 -109 83h-117q-9 0 -11.5 2t-2.5 11v112q0 10 13 10h101q96 0 96 74q0 26 -25 43t-74 17q-82 0 -155 -47q-13 -11 -13 6v126q0 15 8 19q78 42 197 42q99 0 159 -43 t60 -132q0 -123 -91 -149q-3 -3 0 -3q129 -34 129 -185q0 -59 -25 -101.5t-67 -64.5t-87 -32t-95 -10z" />
<glyph unicode="4" horiz-adv-x="563" d="M211 250h91q3 0 3 4v99q0 12 12 12h142q11 0 11 -11v-101q0 -3 3 -3h54q10 0 10 -11v-133q0 -7 -7 -7h-57q-3 0 -3 -3v-85q0 -11 -10 -11h-144q-11 0 -11 12v84q0 3 -4 3h-262q-8 0 -10.5 2.5t-2.5 10.5v131q0 6 5 14l281 436q5 7 16 7h166q5 0 7.5 -3t-0.5 -8l-292 -434 q-3 -5 2 -5z" />
<glyph unicode="5" horiz-adv-x="554" d="M278 539l-19 -78q-1 -7 4 -7q116 -2 181 -58.5t65 -166.5q0 -119 -73 -179.5t-184 -60.5q-116 0 -198 38q-9 4 -9 15v142q0 11 11 4q77 -48 166 -48q53 0 88.5 20t35.5 66q0 45 -34.5 65.5t-89.5 20.5h-140q-11 0 -8 13l74 365q2 10 12 10h317q8 0 10 -2t2 -9v-130 q0 -8 -2 -10t-9 -2h-191q-8 0 -9 -8z" />
<glyph unicode="6" horiz-adv-x="624" d="M465 686l-177 -247l-1 -4l2 1q29 25 84 25q81 0 143.5 -67t62.5 -160q0 -116 -77 -180t-189 -64q-114 0 -191 66.5t-77 180.5q0 38 9 74.5t30.5 75.5t31.5 54.5t37 55.5l136 196q5 8 15 8h155q17 0 6 -15zM204 228q0 -42 30.5 -67.5t77.5 -25.5q43 0 75.5 26t32.5 68 q0 39 -32.5 66.5t-76.5 27.5q-46 0 -76.5 -29.5t-30.5 -65.5z" />
<glyph unicode="7" horiz-adv-x="556" d="M329 547h-260q-16 0 -16 14v126q0 13 15 13h427q16 0 16 -13v-119q0 -9 -5 -19l-281 -539q-6 -10 -18 -10h-149q-6 0 -9 2.5t-3.5 5t0.5 4.5l288 529q4 6 -5 6z" />
<glyph unicode="8" horiz-adv-x="637" d="M45 218q0 96 83 163q-56 56 -56 127q0 86 72 147t174 61q101 0 173.5 -61t72.5 -147q0 -70 -56 -126q84 -68 84 -164t-79 -162t-193 -66q-116 0 -195.5 66t-79.5 162zM198 218q0 -34 36 -58.5t86 -24.5q49 0 84 24.5t35 58.5q0 35 -35 58.5t-84 23.5q-51 0 -86.5 -23.5 t-35.5 -58.5zM221 508q0 -25 28.5 -43.5t68.5 -18.5t68.5 18.5t28.5 43.5q0 28 -28.5 48t-68.5 20t-68.5 -20t-28.5 -48z" />
<glyph unicode="9" horiz-adv-x="613" d="M158 14l174 249q1 1 1.5 2.5t-2.5 -0.5q-30 -26 -83 -26q-80 0 -141.5 66.5t-61.5 160.5q0 117 75.5 181t185.5 64q111 0 186.5 -64t75.5 -173q0 -39 -9 -76.5t-30 -77.5t-31 -57t-36 -56l-134 -200q-5 -7 -15 -7h-149q-15 0 -6 14zM413 473q0 43 -30 70t-76 27 q-43 0 -75 -27.5t-32 -70.5q0 -42 31.5 -71t75.5 -29q46 0 76 31.5t30 69.5z" />
<glyph unicode=":" horiz-adv-x="256" d="M128 475q37 0 63 -26t26 -63t-26 -63t-63 -26q-38 0 -63.5 25.5t-25.5 63.5q0 37 26 63t63 26zM128 169q38 0 63.5 -26t25.5 -63q0 -38 -25 -63.5t-64 -25.5t-64 25.5t-25 63.5q0 37 25 63t64 26z" />
<glyph unicode=";" horiz-adv-x="269" d="M133 475q37 0 63 -26t26 -63t-26 -63t-63 -26t-63 25.5t-26 63.5q0 37 26 63t63 26zM115 -107h-95q-8 0 -13.5 7.5t-2.5 20.5l41 186q5 25 28 25h132q8 0 12.5 -6.5t-0.5 -19.5l-77 -194q-7 -19 -25 -19z" />
<glyph unicode="&#x3c;" horiz-adv-x="516" d="M489 490v-119q0 -12 -9 -15l-253 -98q-2 -1 -2 -3t3 -3l252 -98q9 -3 9 -14v-115q0 -14 -13 -9l-435 175q-14 6 -14 19v89q0 6 5 13t10 9l432 175q15 6 15 -6z" />
<glyph unicode="=" horiz-adv-x="482" d="M44 401h380q17 0 17 -16v-97q0 -16 -19 -16h-378q-16 0 -16 13v100q0 16 16 16zM441 185v-102q0 -15 -19 -15h-378q-17 0 -17 14v105q0 12 13 12h386q15 0 15 -14z" />
<glyph unicode="&#x3e;" horiz-adv-x="516" d="M27 24v116q0 11 8 14l252 98q7 3 0 6l-250 97q-10 4 -10 16v116q0 12 11 8l438 -175q13 -5 13 -18v-93q0 -13 -10 -17l-439 -176q-13 -4 -13 8z" />
<glyph unicode="?" horiz-adv-x="517" d="M212 160q38 0 65 -26t27 -63t-27 -63t-65 -26q-37 0 -63 26t-26 63t26 63t63 26zM280 184h-131q-12 0 -15 3.5t-3 15.5v5q0 55 17 96t42 63.5t49.5 41.5t41.5 41t17 50q0 70 -101 70q-78 0 -140 -46q-13 -8 -13 5v142q0 8 7 12q57 34 180 34q238 0 238 -198 q0 -51 -17 -87.5t-41.5 -58t-49.5 -42t-42 -52t-17 -75.5v-4q0 -16 -22 -16z" />
<glyph unicode="@" horiz-adv-x="813" d="M424 37l-2 -92q0 -7 -2 -9.5t-10 -2.5q-186 2 -301 99t-115 274q0 97 37 174.5t98 124t133.5 70.5t149.5 24q155 0 267 -88t112 -214q0 -41 -12.5 -86.5t-38 -90t-71.5 -73.5t-105 -29q-86 0 -114 45q-46 -41 -98 -41q-67 0 -113 44.5t-46 120.5q0 57 24 109t79 89.5 t130 37.5q83 0 123.5 -43t40.5 -105q0 -36 -14 -74.5t-14 -43.5q0 -18 21 -18q29 0 53.5 45.5t24.5 99.5q0 88 -73 143t-177 55q-54 0 -104 -16.5t-91.5 -48.5t-66.5 -87t-25 -124q0 -124 77 -187t208 -69q15 0 15 -13zM371 239q41 0 68.5 37t27.5 79q0 53 -50 53 q-43 0 -72 -35.5t-29 -75.5q0 -27 14.5 -42.5t40.5 -15.5z" />
<glyph unicode="A" d="M15 19l332 680q11 21 20 3l332 -684q9 -18 -9 -18h-141q-14 0 -20 12l-40 84h-264l-39 -83q-4 -9 -9 -11t-17 -2h-138q-16 0 -7 19zM353 367l-56 -119h121l-56 119q-5 8 -9 0z" />
<glyph unicode="B" horiz-adv-x="571" d="M60 23v656q0 13 4 17t17 4h165q136 0 203.5 -41t67.5 -129q0 -55 -26 -92t-66 -50q68 -14 97 -58t29 -119q0 -53 -15.5 -92t-40 -61.5t-63 -36t-76 -17.5t-86.5 -4h-189q-12 0 -16.5 5t-4.5 18zM214 276v-116q0 -6 1 -7.5t6 -1.5h55q67 0 90 15.5t23 47.5q0 34 -22.5 51 t-81.5 17h-63q-8 0 -8 -6zM214 546v-108q0 -5 1 -6t6 -1h41q29 0 48 3.5t34.5 18t15.5 41.5q0 36 -25 48t-73 12h-41q-7 0 -7 -8z" />
<glyph unicode="C" horiz-adv-x="646" d="M199 353q0 -88 62 -150t150 -62q70 0 108.5 8.5t78.5 27.5q18 9 18 -7v-119q0 -15 -15 -22q-86 -39 -190 -39q-154 0 -262.5 106t-108.5 257t108.5 257.5t262.5 106.5q105 0 189 -43q11 -6 13.5 -11t2.5 -16v-115q0 -21 -20 -9q-68 42 -185 42q-88 0 -150 -62t-62 -150z " />
<glyph unicode="D" horiz-adv-x="695" d="M257 0h-179q-18 0 -18 21v664q0 15 11 15h183q193 0 298 -98.5t105 -251.5t-104.5 -251.5t-295.5 -98.5zM223 541v-376q0 -8 3 -11t11 -3h50q100 0 153.5 57t53.5 136q0 85 -55 145t-165 60h-46q-5 0 -5 -8z" />
<glyph unicode="E" horiz-adv-x="510" d="M60 16v670q0 10 3.5 12t11.5 2h371q12 0 15.5 -3t3.5 -11v-123q0 -9 -3 -11.5t-14 -2.5h-223q-2 0 -2 -1v-114q0 -3 2 -3h226q14 0 14 -21v-101q0 -29 -14 -29h-224q-4 0 -4 -3v-124q0 -2 3 -2h226q9 0 11 -6t2 -23v-99q0 -23 -20 -23h-368q-7 0 -10 0.5t-5 4t-2 11.5z " />
<glyph unicode="F" horiz-adv-x="487" d="M60 20v655q0 17 4 21t16 4h363q15 0 19.5 -4t4.5 -19v-102q0 -10 -1 -14.5t-5.5 -7.5t-15.5 -3h-218q-4 0 -4 -3v-111q0 -3 2 -3h225q13 0 13 -14v-122q0 -15 -14 -15h-223q-3 0 -3 -5v-255q0 -11 -3 -15.5t-7 -5.5t-14 -1h-121q-11 0 -14.5 4.5t-3.5 15.5z" />
<glyph unicode="G" horiz-adv-x="747" d="M209 353q0 -88 61 -150t147 -62q60 0 112 13v119q0 18 -14 18h-155q-15 0 -15 20v113q0 19 14 19h314q12 0 15.5 -4t3.5 -16v-349q0 -20 -15 -27q-110 -54 -259 -57h-11q-158 0 -262.5 98.5t-104.5 264.5q0 167 113 265.5t284 98.5q126 0 232 -54q14 -6 14 -21v-123 q0 -8 -4.5 -10t-16.5 5q-81 51 -225 51q-111 0 -169.5 -59.5t-58.5 -152.5z" />
<glyph unicode="H" horiz-adv-x="685" d="M209 0h-131q-18 0 -18 15v667q0 18 16 18h134q14 0 14 -15v-251q0 -3 2 -3h230q5 0 5 5v249q0 15 18 15h125q21 0 21 -23v-661q0 -16 -16 -16h-126q-22 0 -22 20v250q0 10 -10 10h-224q-3 0 -3 -3v-261q0 -16 -15 -16z" />
<glyph unicode="I" horiz-adv-x="283" d="M207 0h-129q-12 0 -15 3.5t-3 15.5v664q0 11 3 14t14 3h130q16 0 16 -13v-670q0 -10 -3 -13.5t-13 -3.5z" />
<glyph unicode="J" horiz-adv-x="409" d="M349 684v-422q0 -74 -23.5 -127.5t-67.5 -84t-98.5 -45t-126.5 -16.5q-16 0 -16 15v119q0 11 3 15t13 4q153 0 153 154v389q0 15 14 15h135q14 0 14 -16z" />
<glyph unicode="K" horiz-adv-x="628" d="M210 0h-136q-9 0 -11.5 3t-2.5 12v672q0 13 10 13h140q8 0 10.5 -2.5t2.5 -10.5v-290l214 296q5 7 11 7h154q14 0 7 -10l-234 -338q-2 -2 1 -6l237 -328q13 -18 -9 -18h-144q-18 0 -29 17l-208 286v-287q0 -10 -2.5 -13t-10.5 -3z" />
<glyph unicode="L" horiz-adv-x="459" d="M428 0h-342q-18 0 -22 4t-4 22v661q0 13 11 13h128q15 0 20 -5.5t5 -18.5v-510q0 -5 1 -6t6 -1h198q11 0 14.5 -4t3.5 -16v-117q0 -13 -3.5 -17.5t-15.5 -4.5z" />
<glyph unicode="M" horiz-adv-x="828" d="M755 0h-127q-11 0 -14.5 3t-3.5 14v310q0 5 -4 5.5t-6 -2.5l-175 -167q-10 -9 -14.5 -8.5t-12.5 8.5l-171 161q-8 7 -11.5 4.5t-3.5 -9.5v-304q0 -15 -13 -15h-126q-13 0 -16 3t-3 15v670q0 7 3 9.5t6 1.5t5 -3l334 -316q7 -7 10.5 -7t10.5 7l327 313q5 6 11.5 3.5 t6.5 -12.5v-670q0 -9 -2 -11.5t-11 -2.5z" />
<glyph unicode="N" horiz-adv-x="679" d="M60 13v680q0 17 15 3l388 -360v354q0 10 7 10h138q8 0 9.5 -2t1.5 -9v-685q0 -7 -4 -7.5t-7 3.5l-392 356v-343q0 -8 -2 -10.5t-10 -2.5h-133q-8 0 -9.5 2.5t-1.5 10.5z" />
<glyph unicode="O" horiz-adv-x="822" d="M40 353q0 151 108.5 257.5t262.5 106.5t262.5 -106.5t108.5 -257.5t-108.5 -257t-262.5 -106t-262.5 106t-108.5 257zM199 353q0 -88 62 -150t150 -62t149 62t61 150t-61 150t-149 62t-150 -62t-62 -150z" />
<glyph unicode="P" horiz-adv-x="593" d="M74 700h161q77 0 134.5 -13.5t92 -35t55.5 -54.5t28.5 -66.5t7.5 -75.5q0 -51 -13 -91t-44 -75t-91.5 -54.5t-146.5 -19.5h-18q-10 0 -13.5 -3t-3.5 -13v-180q0 -12 -3.5 -15.5t-13.5 -3.5h-130q-16 0 -16 13v674q0 13 14 13zM223 536v-151q0 -12 3 -15.5t14 -3.5h27 q115 0 115 91q0 92 -116 92h-30q-8 0 -10.5 -2.5t-2.5 -10.5z" />
<glyph unicode="Q" horiz-adv-x="819" d="M40 353q0 151 108.5 257.5t262.5 106.5t262.5 -106.5t108.5 -257.5q0 -85 -37 -158.5t-101 -124.5l105 -166q19 -30 -18 -30h-114q-16 0 -23.5 4.5t-18.5 21.5l-65 103q-52 -13 -99 -13q-154 0 -262.5 106t-108.5 257zM199 353q0 -88 62 -150t150 -62h11l-56 89 q-11 16 -7 23t25 7h114q12 0 17 -1t11 -6.5t14 -18.5l20 -31q61 61 61 150q0 88 -61 150t-149 62t-150 -62t-62 -150z" />
<glyph unicode="R" horiz-adv-x="662" d="M78 700h185q88 0 147 -16.5t89 -47t42 -65.5t12 -83q0 -152 -104 -208l226 -259q3 -3 4 -8t-2 -9t-11 -4h-159q-15 0 -25 13l-203 233h-44q-12 0 -12 -15v-215q0 -9 -3 -12.5t-13 -3.5h-131q-16 0 -16 16v664q0 12 3.5 16t14.5 4zM223 538v-128q0 -9 2 -11.5t11 -2.5h38 q108 0 108 76q0 77 -108 77h-40q-8 0 -9.5 -1.5t-1.5 -9.5z" />
<glyph unicode="S" horiz-adv-x="530" d="M490 208q0 -61 -20.5 -104.5t-56.5 -67.5t-78.5 -35t-93.5 -11q-108 0 -184 34q-11 5 -11 18v133q0 12 13 6q73 -48 146 -48q126 0 126 71q0 18 -8 32t-27 25.5t-33.5 18.5t-45.5 19t-45 18q-61 28 -96.5 73t-35.5 129q0 89 62.5 140t166.5 51q111 0 169 -32 q11 -6 11 -21v-128q0 -5 -4.5 -6.5t-8.5 1.5q-55 46 -132 46q-99 0 -99 -60q0 -14 5.5 -24.5t21 -21t24 -15.5t36.5 -16.5t36 -15.5q37 -18 59.5 -31.5t49.5 -38t40 -59t13 -80.5z" />
<glyph unicode="T" horiz-adv-x="545" d="M345 0h-142q-11 0 -13.5 2t-2.5 13v522q0 5 -0.5 7t-2.5 3.5t-7 1.5h-194q-8 0 -10.5 2t-2.5 10v125q0 6 0.5 8.5t3 4t8.5 1.5h580q8 0 10.5 -1.5t2.5 -9.5v-129q0 -8 -1.5 -9.5t-9.5 -1.5h-197q-6 0 -7.5 -2t-1.5 -9v-521q0 -17 -13 -17z" />
<glyph unicode="U" horiz-adv-x="681" d="M456 284v399q0 17 12 17h142q17 0 17 -14v-405q0 -291 -282 -291q-285 0 -285 291v406q0 8 1.5 10.5t9.5 2.5h145q10 0 12.5 -2.5t2.5 -12.5v-401q0 -70 31.5 -101t82.5 -31q111 0 111 132z" />
<glyph unicode="V" horiz-adv-x="678" d="M334 -2l-319 686q-7 16 8 16h151q14 0 19 -12l140 -344q2 -4 4.5 -4.5t4.5 3.5l141 343q3 8 6.5 11t11.5 3h154q15 0 8 -14l-321 -688q-4 -8 -8 0z" />
<glyph unicode="W" horiz-adv-x="1030" d="M701 14l-186 338l-185 -340q-6 -11 -10 -14.5t-8 0t-9 14.5l-288 674q-6 14 10 14h151q10 0 14 -10l142 -339l168 319q10 19 15 19t15 -19l168 -320l141 334q5 12 8 14t11 2h147q16 0 11 -13l-289 -673q-8 -18 -12 -18t-14 18z" />
<glyph unicode="X" horiz-adv-x="608" d="M18 17l197 340q9 14 -1 31l-199 299q-9 13 8 13h142q19 0 26 -11l104 -157q11 -19 27 9l98 147q7 12 26 12h140q7 0 9 -4.5t-2 -9.5l-196 -295q-11 -19 -3 -31l198 -342q3 -4 3.5 -8.5t-1.5 -7t-6 -2.5h-137q-16 0 -22 2.5t-12 12.5l-102 198q-10 17 -20 1l-99 -193 q-12 -21 -36 -21h-134q-20 0 -8 17z" />
<glyph unicode="Y" horiz-adv-x="662" d="M406 0h-146q-13 0 -13 17v318q0 11 -6 23l-225 324q-13 18 10 18h141q17 0 22 -11l139 -198q5 -9 6 -9t5 10l131 191q16 16 20 17h146q20 0 11 -18l-223 -326q-5 -11 -5 -23v-320q0 -8 -2.5 -10.5t-10.5 -2.5z" />
<glyph unicode="Z" horiz-adv-x="569" d="M35 31l249 514q8 16 -7 16h-176q-7 0 -11.5 1t-8 6.5t-3.5 15.5v97q0 19 21 19h400q31 0 18 -28l-246 -516q-8 -16 9 -16h232q18 0 22.5 -4t4.5 -22v-96q0 -11 -4.5 -14.5t-16.5 -3.5h-470q-28 0 -13 31z" />
<glyph unicode="[" horiz-adv-x="300" d="M53 721h191q10 0 13.5 -3t3.5 -12v-87q0 -11 -13 -11h-42q-8 0 -8 -10v-634q0 -5 1.5 -6.5t6.5 -1.5h45q7 0 8.5 -1.5t1.5 -8.5v-91q0 -8 -2.5 -10t-10.5 -2h-194q-10 0 -12.5 2.5t-2.5 12.5v851q0 12 14 12z" />
<glyph unicode="\" horiz-adv-x="396" d="M243 -7l-305 708q-4 9 8 9h141q12 0 15 -8l304 -707q5 -12 -8 -12h-140q-10 0 -15 10z" />
<glyph unicode="]" horiz-adv-x="300" d="M53 721h188q13 0 16.5 -3t3.5 -15v-843q0 -11 -3 -14t-10 -3h-198q-7 0 -9 4t-2 16v78q0 11 2 13t14 2h34q13 0 13 12v627q0 8 -2.5 10.5t-10.5 2.5h-36q-9 0 -11.5 3.5t-2.5 12.5v83q0 14 14 14z" />
<glyph unicode="^" horiz-adv-x="633" d="M442 324l-106 115q-20 23 -45 -4l-100 -109q-18 -20 -29 -20q-9 0 -28 16l-62 54q-20 17 -20 27q0 9 19 28l219 213q25 24 54 -4l218 -211q28 -27 5 -47l-72 -62q-18 -15 -27 -15t-26 19z" />
<glyph unicode="_" horiz-adv-x="446" d="M425 -134h-406q-12 0 -15.5 3t-3.5 15v100q0 9 2.5 12.5t11.5 3.5h406h6h5t3.5 -0.5t3.5 -1.5t2 -3t1.5 -5t0.5 -7v-99q0 -12 -2.5 -15t-14.5 -3z" />
<glyph unicode="`" horiz-adv-x="325" d="M143 750l-105 100q-10 9 -10 17t14 8h130q30 0 43 -19l74 -103q7 -9 4.5 -16.5t-13.5 -7.5h-89q-27 0 -48 21z" />
<glyph unicode="a" horiz-adv-x="547" d="M381 20l-3 8q-71 -38 -156 -38q-177 0 -177 150q0 82 50 125.5t148 43.5q54 0 104 -16q0 16 -9 26t-28 14.5t-35.5 5.5t-43.5 1q-59 0 -119 -32q-8 -3 -12.5 -0.5t-4.5 8.5v112q0 8 0.5 11t4 6.5t10.5 6.5q65 23 153 23q108 0 171 -46.5t63 -144.5v-270q0 -14 -12 -14 h-79q-11 0 -15.5 3.5t-9.5 16.5zM190 146q0 -13 17 -22t43 -9q53 0 97 19v36q-46 13 -100 13q-25 0 -41 -10.5t-16 -26.5z" />
<glyph unicode="b" horiz-adv-x="608" d="M203 726v-289q56 38 123 38q98 0 167.5 -64.5t69.5 -178.5q0 -112 -69 -177t-168 -65q-79 0 -150 57l-21 -37q-7 -10 -14 -10h-80q-13 0 -13 14v712q0 14 18 14h122q15 0 15 -14zM414 232q0 48 -31.5 80t-78.5 32q-63 0 -101 -53v-118q38 -51 101 -51q46 0 78 31t32 79z " />
<glyph unicode="c" horiz-adv-x="473" d="M201 232q0 -48 33 -79.5t92 -31.5q55 0 96 17q10 4 10 -5v-108q0 -10 -10 -14q-56 -21 -117 -21q-110 0 -185 70.5t-75 171.5t75 172t185 71q57 0 109 -21q18 -7 18 -21v-108q0 -12 -14 -4q-36 22 -92 22q-59 0 -92 -31.5t-33 -79.5z" />
<glyph unicode="d" horiz-adv-x="605" d="M282 475q62 0 118 -36v286q0 15 15 15h122q18 0 18 -14v-712q0 -14 -13 -14h-80q-7 0 -14 10l-20 35q-65 -55 -146 -55q-98 0 -167.5 64.5t-69.5 178.5q0 112 69 177t168 65zM194 233q0 -48 31.5 -80t78.5 -32q59 0 96 46v131q-39 45 -96 45q-46 0 -78 -31t-32 -79z" />
<glyph unicode="e" horiz-adv-x="550" d="M509 233v-36q0 -14 -13 -14h-297q20 -62 113 -62q70 0 109 19q13 4 15 2.5t2 -8.5v-98q0 -16 -11 -22q-49 -24 -140 -24q-125 0 -186 69t-61 171q0 110 68 177.5t168 67.5t166.5 -67t66.5 -175zM276 354q-56 0 -75 -56h156q-21 56 -81 56z" />
<glyph unicode="f" horiz-adv-x="464" d="M368 607q-48 0 -62.5 -18.5t-14.5 -68.5v-40q0 -10 2 -12.5t10 -2.5h102q8 0 11 -0.5t4.5 -4t1.5 -11.5v-110q0 -11 -3 -13t-13 -2h-106q-6 0 -7.5 -2t-1.5 -9v-300q0 -13 -10 -13h-135q-6 0 -8 2.5t-2 12.5v300q0 6 -2 7.5t-9 1.5h-95q-10 0 -12.5 2.5t-2.5 12.5v111 q0 9 2 12t11 3h97q8 0 9.5 2.5t1.5 10.5v49q0 119 44.5 171t150.5 52q65 0 113 -19q11 -4 13 -8t2 -15v-111q0 -16 -15 -7q-27 17 -76 17z" />
<glyph unicode="g" horiz-adv-x="606" d="M268 -73q120 0 129 99q-54 -36 -120 -36q-98 0 -167.5 64.5t-69.5 178.5q0 112 69 177t168 65q63 0 121 -38q0 17 4.5 22.5t21.5 5.5h109q15 0 19 -4t4 -24v-394q0 -72 -25.5 -125t-66.5 -80t-82.5 -39.5t-83.5 -12.5q-98 0 -157 23q-14 5 -14 22v111q0 7 5 10t10 1 q57 -26 126 -26zM189 233q0 -48 31.5 -80t78.5 -32q61 0 99 50v123q-39 49 -99 49q-46 0 -78 -31t-32 -79z" />
<glyph unicode="h" horiz-adv-x="596" d="M210 725v-288q57 38 145 38q94 0 142.5 -56.5t48.5 -161.5v-242q0 -15 -17 -15h-125q-14 0 -14 15v217q0 102 -79 102q-52 0 -101 -37v-281q0 -16 -18 -16h-124q-13 0 -13 15v708q0 11 3 14t14 3h118q20 0 20 -15z" />
<glyph unicode="i" horiz-adv-x="265" d="M132 736q42 0 71.5 -29t29.5 -72q0 -47 -29 -74.5t-72 -27.5q-44 0 -72 27.5t-28 74.5q0 43 28.5 72t71.5 29zM210 446v-429q0 -12 -3 -14.5t-13 -2.5h-119q-8 0 -11.5 0.5t-6 4t-2.5 11.5v429q0 14 4.5 17t21.5 3h114q15 0 15 -19z" />
<glyph unicode="j" horiz-adv-x="279" d="M138 740q42 0 71.5 -29t29.5 -72q0 -47 -29 -74.5t-72 -27.5q-44 0 -72 27.5t-28 74.5q0 43 28.5 72t71.5 29zM58 -198q-41 0 -68 8q-13 4 -16.5 8.5t-3.5 18.5v96q0 21 20 15q24 -7 35 -7q20 0 27.5 10.5t7.5 42.5v455q0 16 14 16h125q6 0 11 -4t5 -10v-467 q0 -94 -39 -138t-118 -44z" />
<glyph unicode="k" horiz-adv-x="564" d="M371 7l-155 175q-5 -1 -5 -3v-157q0 -8 -1 -12t-4.5 -7t-10.5 -3h-122q-18 0 -18 20v694q0 17 2.5 21.5t12.5 4.5h127q9 0 11.5 -3t2.5 -18v-422q0 -9 5 -4l150 164q7 8 20 8h154q15 0 3 -14l-188 -208q-7 -7 -1 -12l195 -215q6 -8 4 -12t-9 -4h-157q-10 0 -16 7z" />
<glyph unicode="l" horiz-adv-x="261" d="M211 725v-711q0 -8 -3 -11t-12 -3h-126q-9 0 -12 3t-3 13v710q0 14 13 14h127q10 0 13 -2.5t3 -12.5z" />
<glyph unicode="m" horiz-adv-x="853" d="M207 451v-1q53 25 123 25q84 0 129 -57q56 57 171 57q85 0 129 -56.5t44 -161.5v-243q0 -14 -14 -14h-129q-8 0 -10.5 2.5t-2.5 10.5v229q0 92 -71 92q-40 0 -77 -25q4 -32 4 -52v-245q0 -12 -13 -12h-128q-9 0 -12 3t-3 13v226q0 92 -72 92q-37 0 -69 -20l-1 -300 q0 -14 -15 -14h-122q-18 0 -18 14v437q0 14 13 14h128q16 0 16 -14z" />
<glyph unicode="n" horiz-adv-x="580" d="M207 451v-6q54 30 132 30q94 0 142.5 -56.5t48.5 -161.5v-242q0 -15 -17 -15h-125q-14 0 -14 15v217q0 102 -79 102q-47 0 -89 -28l-1 -292q0 -14 -15 -14h-122q-18 0 -18 14v437q0 14 13 14h128q16 0 16 -14z" />
<glyph unicode="o" horiz-adv-x="579" d="M40 232q0 101 73 172t177 71q103 0 176 -71t73 -172t-73 -171.5t-176 -70.5q-104 0 -177 70.5t-73 171.5zM189 232q0 -42 29.5 -71.5t71.5 -29.5q41 0 70.5 29.5t29.5 71.5t-29.5 71.5t-70.5 29.5q-42 0 -71.5 -29.5t-29.5 -71.5z" />
<glyph unicode="p" horiz-adv-x="611" d="M210 455v-15q55 35 119 35q98 0 167.5 -64.5t69.5 -178.5q0 -112 -69 -177t-168 -65q-65 0 -119 35v-236q0 -14 -15 -14h-122q-18 0 -18 14v662q0 14 13 14h128q14 0 14 -10zM417 232q0 48 -31.5 80t-78.5 32q-61 0 -97 -48v-128q37 -46 97 -46q46 0 78 31t32 79z" />
<glyph unicode="q" horiz-adv-x="597" d="M392 -212l-2 230q-51 -28 -108 -28q-98 0 -167.5 64.5t-69.5 178.5q0 112 69 177t168 65q54 0 105 -28v3q0 15 13 15h133q9 0 11.5 -2t2.5 -11v-664q0 -9 -2.5 -11t-11.5 -2h-129q-8 0 -10 2.5t-2 10.5zM194 233q0 -48 31.5 -80t78.5 -32q51 0 85 33l-1 157 q-35 32 -84 32q-46 0 -78 -31t-32 -79z" />
<glyph unicode="r" horiz-adv-x="421" d="M68 465h108q16 0 18 -18l4 -29q50 57 133 57q32 0 62 -11q13 -5 13 -17v-102q0 -16 -15 -9q-19 8 -54 8q-70 0 -131 -60v-271q0 -8 -2.5 -10.5t-10.5 -2.5h-129q-9 0 -11.5 2t-2.5 11v429q0 15 3 19t15 4z" />
<glyph unicode="s" horiz-adv-x="472" d="M285 349q-42 0 -63.5 -5.5t-21.5 -21.5q0 -13 24 -20t58 -14t68 -20.5t58 -47.5t24 -86q0 -144 -212 -144q-112 0 -157 20q-12 5 -12 22v107q0 6 4.5 8.5t10.5 -1.5q50 -30 127 -30q86 0 86 23q0 12 -24 18.5t-58.5 13.5t-69 20.5t-58.5 48.5t-24 90q0 62 53.5 103.5 t155.5 41.5q94 0 141 -19q14 -6 18.5 -11.5t4.5 -18.5v-91q0 -23 -24 -11q-50 25 -109 25z" />
<glyph unicode="t" horiz-adv-x="432" d="M391 96v-92q0 -14 -16 -14q-131 2 -191.5 48t-60.5 155v131h-101q-8 0 -10 3t-2 11v110q0 17 14 17h100v164q0 16 13 16h126q11 0 13.5 -2.5t2.5 -13.5v-164h107q10 0 13 -2t3 -10v-115q0 -6 -0.5 -8.5t-3.5 -4t-9 -1.5h-110v-110q0 -57 25.5 -76.5t72.5 -22.5 q10 -1 12 -5t2 -14z" />
<glyph unicode="u" horiz-adv-x="553" d="M276 -10q-113 0 -172 56.5t-59 161.5v232q0 25 27 25h107q13 0 17.5 -5.5t4.5 -19.5v-227q0 -92 75 -92q76 0 76 92v227q0 14 5 19.5t18 5.5h115q18 0 18 -16v-241q0 -218 -232 -218z" />
<glyph unicode="v" horiz-adv-x="546" d="M265 4l-253 448q-3 2 -1.5 7.5t9.5 5.5h134q16 0 20 -9l99 -185l99 185q4 9 17 9h138q6 0 7.5 -4.5t-1.5 -9.5l-252 -446q-4 -7 -6 -8.5t-4.5 0t-5.5 7.5z" />
<glyph unicode="w" horiz-adv-x="855" d="M246 8l-234 443q-6 14 9 14h129q17 0 23 -10l102 -193l143 198q10 14 20 1l141 -199l104 195q4 8 14 8h137q15 0 9 -14l-233 -442q-10 -20 -24 -1l-160 215l-158 -215q-13 -17 -22 0z" />
<glyph unicode="x" horiz-adv-x="526" d="M349 465h150q6 0 8 -4t-1 -8l-157 -218l165 -222q3 -4 1 -8.5t-7 -4.5h-145q-7 0 -14 7l-86 116l-86 -117q-5 -6 -17 -6h-143q-5 0 -6.5 3.5t1.5 7.5l167 224l-159 218q-2 3 1 7.5t9 4.5h149q8 0 13 -6l72 -104l69 100q7 10 16 10z" />
<glyph unicode="y" horiz-adv-x="566" d="M554 450l-359 -667q-3 -8 -13 -8h-144q-4 0 -7 3.5t-1 6.5l172 318l-190 349q-3 2 -1.5 7.5t9.5 5.5h134q16 0 20 -9l109 -203l107 198q8 14 20 14h133q7 0 10.5 -5t0.5 -10z" />
<glyph unicode="z" horiz-adv-x="469" d="M33 15l174 332h-140q-9 0 -11.5 3t-2.5 12v90q0 8 2.5 10.5t9.5 2.5h345q19 0 12 -14l-176 -334h175q18 0 18 -15v-84q0 -18 -19 -18h-379q-15 0 -8 15z" />
<glyph unicode="{" horiz-adv-x="378" d="M39 310q0 12 12 16q35 11 45.5 34t10.5 56v111q0 37 6.5 65.5t22 54t46.5 39.5t76 14h65q10 0 13 -3.5t3 -11.5v-92q0 -13 -13 -14q-56 -6 -56 -56v-96q0 -57 -16.5 -91.5t-71.5 -62.5q55 -28 71.5 -62t16.5 -92v-96q0 -50 55 -56q9 -1 11.5 -4t2.5 -12v-90 q0 -15 -16 -15h-65q-45 0 -76 14t-46.5 39.5t-22 54t-6.5 65.5v111q0 21 -3 35.5t-16.5 30.5t-38.5 24q-10 2 -10 17v73z" />
<glyph unicode="|" horiz-adv-x="317" d="M234 715v-870q0 -8 -2.5 -10t-10.5 -2h-128q-7 0 -9.5 2.5t-2.5 9.5v871q0 14 15 14h126q12 0 12 -15z" />
<glyph unicode="}" horiz-adv-x="378" d="M339 234q-1 -12 -13 -15q-55 -19 -55 -89v-111q0 -37 -6.5 -65.5t-22 -54t-46.5 -39.5t-76 -14h-64q-17 0 -17 19v83q0 8 0.5 11t4 5.5t11.5 2.5q53 4 53 56v96q0 50 20.5 84t89.5 70q-69 35 -89.5 69.5t-20.5 84.5v96q0 56 -59 56q-7 0 -8.5 2.5t-1.5 10.5v96 q0 12 11 12h70q45 0 76 -14t46.5 -39.5t22 -54t6.5 -65.5v-111q0 -66 46 -86q11 -4 14 -6t5.5 -7t2.5 -14v-69z" />
<glyph unicode="~" horiz-adv-x="571" d="M372 141q-38 0 -86 26.5t-71 26.5q-35 0 -56 -32q-9 -13 -24 -7l-90 37q-11 5 -12.5 10.5t5.5 17.5q32 57 77.5 88.5t90.5 31.5q39 0 94.5 -26.5t77.5 -26.5q30 0 45 31q7 15 23 8l78 -35q23 -10 13 -31q-28 -60 -72 -89.5t-93 -29.5z" />
<glyph unicode="&#xa0;" horiz-adv-x="301" d="M290 200h-274q-11 0 -13.5 3.5t-2.5 14.5v96q0 8 3 11.5t13 3.5h270q15 0 15 -13v-105q0 -7 -1.5 -9t-9.5 -2z" />
<glyph unicode="&#xa1;" horiz-adv-x="339" d="M99 178h137q13 0 13 -15v-328q0 -10 -2.5 -12.5t-12.5 -2.5h-134q-12 0 -12 14v331q0 13 11 13zM169 197q-37 0 -62.5 26t-25.5 63t25.5 63t62.5 26q38 0 64 -26t26 -63t-26.5 -63t-63.5 -26z" />
<glyph unicode="&#xa2;" horiz-adv-x="477" d="M201 232q0 -48 33 -79.5t92 -31.5q55 0 96 17q10 4 10 -5v-108q0 -10 -10 -14q-35 -13 -68 -17v-54q0 -10 -11 -10h-131q-8 0 -10.5 2.5t-2.5 10.5v67q-70 29 -112 88.5t-42 133.5t42 134t112 88v72q0 15 13 15h131q11 0 11 -13v-57q27 -5 60 -17q18 -7 18 -21v-108 q0 -12 -14 -4q-36 22 -92 22q-59 0 -92 -31.5t-33 -79.5z" />
<glyph unicode="&#xa3;" horiz-adv-x="598" d="M445 274h-112q-5 0 -3 -6q8 -42 8 -54q0 -57 -69 -82q-1 -2 1 -2h287q8 0 8 -7v-116q0 -7 -8 -7h-507q-8 0 -8 7v111q0 7 6 9q65 23 91 45t26 56q0 18 -5 41q-1 5 -6 5h-99q-10 0 -10 11v113q0 10 10 10h83q5 0 3 7q-11 43 -11 78q0 224 246 224q65 0 141 -17 q14 -4 14 -16v-97q0 -8 -2.5 -9.5t-11.5 -1.5q-83 16 -117 16q-99 0 -99 -97q0 -18 4.5 -47t5.5 -34q0 -6 9 -6h122q15 0 15 -14v-107q0 -13 -12 -13z" />
<glyph unicode="&#xa4;" horiz-adv-x="620" d="M554 68l-54 -41q-13 -10 -28 5l-49 49q-55 -23 -131 -23q-70 0 -127 21l-48 -48q-14 -14 -29 -3l-55 42q-11 9 -1 20l44 50q-55 62 -55 156t57 157l-44 51q-11 14 0 22l58 44q7 6 10.5 6t10.5 -7l56 -56q52 20 123 20t128 -22l55 56q11 11 25 2l56 -42q5 -3 5.5 -10.5 t-3.5 -12.5l-48 -54q54 -63 54 -154q0 -90 -52 -152l43 -49q14 -15 -1 -27zM292 180q50 0 79.5 32t29.5 84t-29.5 83.5t-79.5 31.5t-79 -31.5t-29 -83.5t29.5 -84t78.5 -32z" />
<glyph unicode="&#xa5;" horiz-adv-x="527" d="M331 0h-135q-13 0 -13 13v62q0 4 -4 4h-175q-9 0 -9 10v111q0 9 11 9h174q3 0 3 4v22q0 3 -4 3h-175q-10 0 -10 10v111q0 9 13 9h133q3 0 1 4l-147 274q-4 11 -0.5 14.5t9.5 3.5h151q9 0 13 -8l94 -184q3 -5 6 0l92 183q4 9 13 9h157q5 0 8 -3t0 -9l-150 -280q-3 -4 2 -4 h123q21 0 21 -21v-91q0 -18 -18 -18h-165q-4 0 -4 -3v-22q0 -4 4 -4h165q18 0 18 -21v-90q0 -19 -18 -19h-166q-3 0 -3 -4v-58q0 -10 -3 -13.5t-12 -3.5z" />
<glyph unicode="&#xa6;" horiz-adv-x="318" d="M235 684v-365q0 -12 -14 -12h-129q-11 0 -11 17v364q0 11 14 11h125q9 0 12 -3t3 -12zM235 239v-368q0 -15 -13 -15h-127q-9 0 -11.5 2.5t-2.5 11.5v370q0 15 11 15h130q13 0 13 -16z" />
<glyph unicode="&#xa7;" horiz-adv-x="450" d="M284 619q-80 0 -80 -50q0 -25 23 -41t56 -27t66.5 -26.5t56.5 -50.5t23 -88q0 -88 -69 -130q50 -41 50 -117q0 -163 -215 -163q-101 0 -154 14q-7 2 -6 8l13 74q1 11 15 8q71 -13 127 -13q80 0 80 57q0 22 -17 37t-42 22.5t-54.5 19.5t-54.5 27t-42 48t-17 79 q0 90 67 129q-48 41 -48 118q0 156 199 156q75 0 146 -13q10 -1 8 -11l-10 -69q-2 -8 -10 -7q-63 9 -111 9zM288 322q0 34 -42 52q-61 -11 -61 -53q0 -34 44 -54q59 9 59 55z" />
<glyph unicode="&#xa8;" horiz-adv-x="428" d="M121 897q36 0 62.5 -26t26.5 -62t-26.5 -61.5t-62.5 -25.5q-38 0 -63 25.5t-25 61.5q0 37 25 62.5t63 25.5zM306 897q36 0 62.5 -26t26.5 -62t-26.5 -61.5t-62.5 -25.5q-37 0 -62.5 25.5t-25.5 61.5t25.5 62t62.5 26z" />
<glyph unicode="&#xa9;" horiz-adv-x="800" d="M399 -12q-151 0 -255 103t-104 238q0 142 106 241.5t255 99.5q154 0 256.5 -102.5t102.5 -246.5q0 -147 -110 -240t-251 -93zM399 49q110 0 197 76.5t87 196.5t-81 204.5t-201 84.5q-117 0 -200 -82.5t-83 -199.5q0 -110 81.5 -195t199.5 -85zM353 328q0 -26 17.5 -43.5 t49.5 -17.5q25 0 48 14q10 7 19 -2l72 -74q7 -10 -1 -18q-58 -54 -149 -54q-102 0 -158 58t-56 137t56 137.5t158 58.5q88 0 152 -56q9 -7 1 -15l-76 -76q-8 -8 -19 -1q-21 13 -47 13q-32 0 -49.5 -17.5t-17.5 -43.5z" />
<glyph unicode="&#xaa;" horiz-adv-x="510" d="M20 521q0 84 48.5 136.5t136.5 52.5q59 0 103 -42q2 -2 2.5 -1t0.5 5v17q0 11 10 11h137q12 0 12 -14v-340q0 -8 -11 -8h-138q-10 0 -10 9v17q0 6 -3 2q-40 -38 -99 -38q-91 0 -140 54.5t-49 138.5zM178 519q0 -29 18.5 -45t49.5 -16q30 0 47.5 16.5t17.5 44.5 t-17.5 44.5t-48.5 16.5q-30 0 -48.5 -16.5t-18.5 -44.5z" />
<glyph unicode="&#xab;" horiz-adv-x="635" d="M499 492l87 -74q2 -2 2.5 -7t-1.5 -8l-116 -142q-2 -3 0 -7l118 -138q7 -7 -2 -15l-90 -71q-9 -8 -19 3l-187 216q-7 9 0 18l190 223q9 9 18 2zM259 491l83 -73q9 -7 2 -16l-116 -140q-4 -4 0 -8l116 -135q9 -10 -1 -19l-83 -71q-10 -9 -17 -1l-196 221q-9 10 0 19 l194 220q10 11 18 3z" />
<glyph unicode="&#xac;" horiz-adv-x="586" d="M39 344h505q14 0 14 -12v-264q0 -13 -10 -13h-125q-15 0 -15 15v143q0 5 -5 5h-362q-8 0 -11 2.5t-3 11.5v98q0 14 12 14z" />
<glyph unicode="&#xad;" horiz-adv-x="301" d="M290 200h-274q-11 0 -13.5 3.5t-2.5 14.5v96q0 8 3 11.5t13 3.5h270q15 0 15 -13v-105q0 -7 -1.5 -9t-9.5 -2z" />
<glyph unicode="&#xae;" horiz-adv-x="800" d="M400 -12q-152 0 -250.5 94t-98.5 247q0 159 99.5 250t250.5 91q154 0 251.5 -93.5t97.5 -255.5q0 -147 -107 -240t-243 -93zM400 49q51 0 98 16t86.5 48t63 86t23.5 123q0 138 -75 213.5t-195 75.5q-118 0 -195 -73.5t-77 -208.5q0 -127 76 -203.5t195 -76.5zM375 538 q76 0 117.5 -38t41.5 -90q0 -30 -16.5 -60t-45.5 -49q-2 -1 0 -3l93 -151q2 -4 -0.5 -8t-7.5 -4h-80q-9 0 -14 8l-62 94q-11 19 -17 34q-1 3 -2 1q-1 -1 -1 -2v-120q0 -15 -11 -15h-73q-11 0 -11 15v369q0 7 7 8q46 11 82 11zM381 458v-100q0 -4 4 -4q25 0 39 16.5t14 37.5 q0 20 -14.5 36t-40.5 17q-2 0 -2 -3z" />
<glyph unicode="&#xaf;" horiz-adv-x="362" d="M40 741v101q0 14 12 14h257q8 0 10.5 -2t2.5 -10v-103q0 -7 -2 -9.5t-10 -2.5h-258q-8 0 -10 2.5t-2 9.5z" />
<glyph unicode="&#xb0;" horiz-adv-x="415" d="M207 676q70 0 121.5 -45t51.5 -106q0 -64 -51.5 -107.5t-121.5 -43.5t-121.5 44t-51.5 107t52 107t121 44zM171 526q0 -16 10.5 -27t26.5 -11q14 0 24.5 10.5t10.5 23.5q0 14 -10 26t-24 12q-17 0 -27.5 -10t-10.5 -24z" />
<glyph unicode="&#xb1;" horiz-adv-x="587" d="M370 188v-142q0 -17 -18 -17h-119q-18 0 -18 22v137q0 4 -4 4h-169q-9 0 -12 3.5t-3 13.5v97q0 10 3 13t12 3h170q3 0 3 4v154q0 15 12 15h133q10 0 10 -14v-154q0 -5 4 -5h167q10 0 12.5 -2.5t2.5 -12.5v-102q0 -13 -12 -13h-171q-3 0 -3 -4zM546 -130h-500q-10 0 -13 3 t-3 12v103q0 16 13 16h505q12 0 12 -13v-104q0 -17 -14 -17z" />
<glyph unicode="&#xb2;" horiz-adv-x="491" d="M296 630q0 52 -64 52q-55 0 -64 -34q-2 -10 -11 -10h-110q-13 0 -10 15q24 135 200 135q204 0 204 -149q0 -93 -77 -141l-133 -93q-4 -3 1 -3h206q10 0 10 -11v-81q0 -10 -11 -10h-392q-9 0 -9 10v84q0 8 7 13l189 137q64 41 64 86z" />
<glyph unicode="&#xb3;" horiz-adv-x="456" d="M232 293q-101 0 -152 27.5t-69 95.5q-4 14 12 16l107 16q15 3 22 -9q19 -34 78 -34q63 0 63 47q0 52 -69 52h-53q-10 0 -13.5 2.5t-5.5 12.5l-19 70q-3 12 12 12h47q77 0 77 41q0 18 -13 30t-40 12q-44 0 -53 -27q-3 -8 -6.5 -10t-12.5 0l-101 17q-7 1 -10.5 6t0.5 14 q49 104 190 104q83 0 134 -31.5t51 -97.5q0 -79 -75 -96q-2 -1 0 -2q48 -10 77 -36t29 -85q0 -147 -207 -147z" />
<glyph unicode="&#xb4;" horiz-adv-x="289" d="M129 729h-104q-4 0 -6.5 4.5t0.5 10.5l88 113q7 13 22 13h139q9 0 11.5 -6t-3.5 -11l-127 -116q-10 -8 -20 -8z" />
<glyph unicode="&#xb5;" horiz-adv-x="604" d="M388 198v252q0 15 11 15h132q7 0 9.5 -2.5t2.5 -9.5v-441q0 -12 -9 -12h-123q-8 0 -8 11v30l-1 5q-1 0 -2 -1q-53 -55 -145 -55q-25 0 -44 3v-169q0 -14 -13 -14h-132q-11 0 -11 14v630q0 11 14 11h129q1 0 2.5 -0.5t2.5 -0.5l2 -2q3 -1 5 -7q1 -1 1 -3v-262 q5 -77 87 -77q39 0 64.5 22t25.5 63z" />
<glyph unicode="&#xb6;" horiz-adv-x="546" d="M486 686v-798q0 -15 -14 -15h-79q-9 0 -11.5 2.5t-2.5 11.5v712q0 6 -5 6h-35q-4 0 -4 -5v-715q0 -8 -2.5 -10t-10.5 -2h-81q-8 0 -10 2.5t-2 10.5v406q0 4 -3 4q-84 3 -135 60t-51 139q0 90 66 147.5t170 57.5h197q13 0 13 -14z" />
<glyph unicode="&#xb7;" horiz-adv-x="287" d="M145 341q37 0 63.5 -26t26.5 -63t-26.5 -63t-63.5 -26t-63 26t-26 63t26 63t63 26z" />
<glyph unicode="&#xb8;" horiz-adv-x="262" d="M170 1l-13 -32q-2 -4 1 -4q85 -9 85 -82q0 -71 -91 -89q-20 -4 -48 -4q-40 0 -82 10q-9 3 -9 14l2 28q1 11 16 9q16 -2 40 -2q61 0 61 29q0 34 -61 34q-11 0 -6 9l32 80h73z" />
<glyph unicode="&#xb9;" horiz-adv-x="351" d="M82 612l-57 53q-17 15 8 32l104 74q15 10 28 10h102q29 0 29 -32v-411q0 -20 -6 -29t-23 -9h-90q-16 0 -21 6.5t-5 19.5v299q0 5 -2.5 7t-6.5 -1l-30 -21q-16 -11 -30 2z" />
<glyph unicode="&#xba;" horiz-adv-x="489" d="M20 521q0 80 67.5 134.5t159.5 54.5t159.5 -54.5t67.5 -134.5t-66.5 -136.5t-160.5 -56.5t-160.5 56.5t-66.5 136.5zM316 519q0 28 -19 44.5t-50 16.5t-50 -16.5t-19 -44.5q0 -29 18.5 -45t50.5 -16t50.5 16t18.5 45z" />
<glyph unicode="&#xbb;" horiz-adv-x="635" d="M49 417l86 75q10 8 19 -3l185 -217q12 -13 0 -28l-184 -213q-8 -8 -17 -2l-88 71q-10 9 -1 19l114 135q4 4 0 9l-116 140q-2 2 -2 6.5t4 7.5zM291 417l86 74q9 7 15 -1l195 -222q10 -10 0 -20l-195 -220q-7 -9 -15 -1l-87 75q-8 7 -1 15l118 137q3 3 1 7l-117 141 q-7 10 0 15z" />
<glyph unicode="&#xbc;" horiz-adv-x="1129" d="M435 -42h-130q-16 0 -9 17l315 731q6 15 19 15h134q5 0 8 -6t1 -11l-318 -734q-6 -12 -20 -12zM111 531l-57 53q-17 15 8 32l104 74q15 10 28 10h102q29 0 29 -32v-411q0 -20 -6 -29t-23 -9h-90q-16 0 -21 6.5t-5 19.5v299q0 5 -2.5 7t-6.5 -1l-30 -21q-16 -11 -30 2z M883 -7q-101 0 -152 27.5t-69 95.5q-4 14 12 16l107 16q15 3 22 -9q19 -34 78 -34q63 0 63 47q0 52 -69 52h-53q-10 0 -13.5 2.5t-5.5 12.5l-19 70q-3 12 12 12h47q77 0 77 41q0 18 -13 30t-40 12q-44 0 -53 -27q-3 -8 -6.5 -10t-12.5 0l-101 17q-7 1 -10.5 6t0.5 14 q49 104 190 104q83 0 134 -31.5t51 -97.5q0 -79 -75 -96q-2 -1 0 -2q48 -10 77 -36t29 -85q0 -147 -207 -147z" />
<glyph unicode="&#xbd;" horiz-adv-x="1138" d="M433 -42h-128q-16 0 -8 18l314 731q6 14 21 14h131q7 0 10 -5.5t1 -9.5l-318 -736q-5 -12 -23 -12zM111 531l-57 53q-17 15 8 32l104 74q15 10 28 10h102q29 0 29 -32v-411q0 -20 -6 -29t-23 -9h-90q-16 0 -21 6.5t-5 19.5v299q0 5 -2.5 7t-6.5 -1l-30 -21q-16 -11 -30 2 zM947 330q0 52 -64 52q-55 0 -64 -34q-3 -10 -11 -10h-110q-13 0 -10 15q24 135 200 135q204 0 204 -149q0 -93 -77 -141l-133 -93q-4 -3 1 -3h206q10 0 10 -11v-81q0 -10 -11 -10h-392q-9 0 -9 10v84q0 8 7 13l189 137q64 41 64 86z" />
<glyph unicode="&#xbe;" horiz-adv-x="1276" d="M547 -42h-138q-12 0 -7 12l316 735q3 7 4.5 9t5.5 4.5t11 2.5h133q6 0 9 -5t1 -10l-320 -739q-4 -9 -15 -9zM263 212q-101 0 -152 27.5t-69 95.5q-4 14 12 16l107 16q15 3 22 -9q19 -34 78 -34q63 0 63 47q0 52 -69 52h-53q-10 0 -13.5 2.5t-5.5 12.5l-19 70q-3 12 12 12 h47q77 0 77 41q0 18 -13 30t-40 12q-44 0 -53 -27q-3 -8 -6.5 -10t-12.5 0l-101 17q-7 1 -10.5 6t0.5 14q49 104 190 104q83 0 134 -31.5t51 -97.5q0 -79 -75 -96q-2 -1 0 -2q48 -10 77 -36t29 -85q0 -147 -207 -147zM915 196h104q3 0 3 4v271q0 10 9 10h119q10 0 10 -10 v-272q0 -3 3 -3h44q10 0 10 -9v-82q0 -11 -10 -11h-44q-3 0 -3 -3v-80q0 -11 -12 -11h-113q-8 0 -10.5 2.5t-2.5 10.5v76q0 5 -4 5h-231q-12 0 -12 11v83q0 8 3 16l77 222q3 9 11 9h112q11 0 7 -11l-73 -224q-1 -4 3 -4z" />
<glyph unicode="&#xbf;" horiz-adv-x="574" d="M372 256v-18q0 -31 -18 -60t-43.5 -52t-51 -45t-43.5 -47t-18 -50q0 -35 24 -50.5t61 -15.5q31 0 56.5 13t29.5 37q3 16 15 16h133q12 0 12 -15q0 -185 -245 -185q-53 0 -94 8t-79 28.5t-58.5 61t-20.5 100.5q0 39 18 73.5t43.5 58t51.5 43.5t44 39.5t18 37.5v25 q0 14 11 14h141q13 0 13 -17zM290 300q-38 0 -65 25.5t-27 62.5q0 36 27 61.5t65 25.5t64 -25.5t26 -61.5q0 -37 -26 -62.5t-64 -25.5z" />
<glyph unicode="&#xc0;" d="M15 19l332 680q11 21 20 3l332 -684q9 -18 -9 -18h-141q-14 0 -20 12l-40 84h-264l-39 -83q-4 -9 -9 -11t-17 -2h-138q-16 0 -7 19zM353 367l-56 -119h121l-56 119q-5 8 -9 0zM276 750l-105 100q-10 9 -10 17t14 8h130q30 0 43 -19l74 -103q7 -9 4.5 -16.5t-13.5 -7.5 h-89q-27 0 -48 21z" />
<glyph unicode="&#xc1;" d="M15 19l332 680q11 21 20 3l332 -684q9 -18 -9 -18h-141q-14 0 -20 12l-40 84h-264l-39 -83q-4 -9 -9 -11t-17 -2h-138q-16 0 -7 19zM353 367l-56 -119h121l-56 119q-5 8 -9 0zM407 729h-104q-4 0 -6.5 4.5t0.5 10.5l88 113q7 13 22 13h139q9 0 11.5 -6t-3.5 -11 l-127 -116q-10 -8 -20 -8z" />
<glyph unicode="&#xc2;" d="M15 19l332 680q11 21 20 3l332 -684q9 -18 -9 -18h-141q-14 0 -20 12l-40 84h-264l-39 -83q-4 -9 -9 -11t-17 -2h-138q-16 0 -7 19zM353 367l-56 -119h121l-56 119q-5 8 -9 0zM333 868h42q11 0 20 -9l131 -119q5 -4 4 -8.5t-7 -4.5h-66q-8 0 -16 3l-78 35q-3 1 -9 1 t-9 -1l-78 -35q-8 -3 -16 -3h-66q-6 0 -7 4.5t4 8.5l131 119q9 9 20 9z" />
<glyph unicode="&#xc3;" d="M15 19l332 680q11 21 20 3l332 -684q9 -18 -9 -18h-141q-14 0 -20 12l-30 64h-284l-29 -63q-4 -9 -9 -11t-17 -2h-138q-16 0 -7 19zM353 367l-66 -139h140l-65 139q-5 8 -9 0zM401 736q-22 0 -55.5 14t-42.5 14q-23 0 -36 -21q-5 -8 -11 -4l-39 42q-7 4 -4 11 q39 74 101 74q21 0 54.5 -13.5t43.5 -13.5q29 0 38 22q2 6 9 3l41 -43q5 -4 3 -9q-39 -76 -102 -76z" />
<glyph unicode="&#xc4;" d="M15 19l332 680q11 21 20 3l332 -684q9 -18 -9 -18h-141q-14 0 -20 12l-40 84h-264l-39 -83q-4 -9 -9 -11t-17 -2h-138q-16 0 -7 19zM353 367l-56 -119h121l-56 119q-5 8 -9 0zM264 897q36 0 62.5 -26t26.5 -62t-26.5 -61.5t-62.5 -25.5q-38 0 -63 25.5t-25 61.5 q0 37 25 62.5t63 25.5zM449 897q36 0 62.5 -26t26.5 -62t-26.5 -61.5t-62.5 -25.5q-37 0 -62.5 25.5t-25.5 61.5t25.5 62t62.5 26z" />
<glyph unicode="&#xc5;" d="M15 19l332 680q11 21 20 3l332 -684q9 -18 -9 -18h-141q-14 0 -20 12l-40 84h-264l-39 -83q-4 -9 -9 -11t-17 -2h-138q-16 0 -7 19zM353 367l-56 -119h121l-56 119q-5 8 -9 0zM493 812q0 -34 -36.5 -58.5t-99.5 -24.5t-99.5 24.5t-36.5 58.5q0 33 36.5 58t99.5 25 t99.5 -25t36.5 -58zM357 787q18 0 27.5 7.5t9.5 17.5q0 9 -10 16.5t-27 7.5t-26.5 -7.5t-9.5 -16.5q0 -10 9.5 -17.5t26.5 -7.5z" />
<glyph unicode="&#xc6;" horiz-adv-x="1024" d="M490 16v90h-236l-52 -90q-10 -16 -41 -16h-117q-27 0 -8 32l379 657q7 11 37 11h424q12 0 15.5 -3t3.5 -11v-123q0 -9 -3 -11.5t-14 -2.5h-223q-2 0 -2 -1v-114q0 -3 2 -3h226q14 0 14 -21v-101q0 -29 -14 -29h-224q-4 0 -4 -3v-124q0 -2 3 -2h226q9 0 11 -6t2 -23v-99 q0 -23 -20 -23h-368q-7 0 -10 0.5t-5 4t-2 11.5zM337 248h153v264z" />
<glyph unicode="&#xc7;" horiz-adv-x="646" d="M199 353q0 -88 62 -150t150 -62q70 0 108.5 8.5t78.5 27.5q18 9 18 -7v-119q0 -15 -15 -22q-78 -35 -163 -38l-4 -12q-2 -4 1 -4q85 -9 85 -82q0 -71 -91 -89q-20 -4 -48 -4q-40 0 -82 10q-9 3 -9 14l2 28q1 11 16 9q16 -2 40 -2q61 0 61 29q0 34 -61 34q-10 0 -6 9 l24 62q-139 16 -232.5 118.5t-93.5 241.5q0 151 108.5 257.5t262.5 106.5q105 0 189 -43q11 -6 13.5 -11t2.5 -16v-115q0 -21 -20 -9q-68 42 -185 42q-88 0 -150 -62t-62 -150z" />
<glyph unicode="&#xc8;" horiz-adv-x="510" d="M60 16v670q0 10 3.5 12t11.5 2h371q12 0 15.5 -3t3.5 -11v-123q0 -9 -3 -11.5t-14 -2.5h-223q-2 0 -2 -1v-114q0 -3 2 -3h226q14 0 14 -21v-101q0 -29 -14 -29h-224q-4 0 -4 -3v-124q0 -2 3 -2h226q9 0 11 -6t2 -23v-99q0 -23 -20 -23h-368q-7 0 -10 0.5t-5 4t-2 11.5z M190 750l-105 100q-10 9 -10 17t14 8h130q30 0 43 -19l74 -103q7 -9 4.5 -16.5t-13.5 -7.5h-89q-27 0 -48 21z" />
<glyph unicode="&#xc9;" horiz-adv-x="510" d="M60 16v670q0 10 3.5 12t11.5 2h371q12 0 15.5 -3t3.5 -11v-123q0 -9 -3 -11.5t-14 -2.5h-223q-2 0 -2 -1v-114q0 -3 2 -3h226q14 0 14 -21v-101q0 -29 -14 -29h-224q-4 0 -4 -3v-124q0 -2 3 -2h226q9 0 11 -6t2 -23v-99q0 -23 -20 -23h-368q-7 0 -10 0.5t-5 4t-2 11.5z M321 729h-104q-4 0 -6.5 4.5t0.5 10.5l88 113q7 13 22 13h139q9 0 11.5 -6t-3.5 -11l-127 -116q-10 -8 -20 -8z" />
<glyph unicode="&#xca;" horiz-adv-x="510" d="M60 16v670q0 10 3.5 12t11.5 2h371q12 0 15.5 -3t3.5 -11v-123q0 -9 -3 -11.5t-14 -2.5h-223q-2 0 -2 -1v-114q0 -3 2 -3h226q14 0 14 -21v-101q0 -29 -14 -29h-224q-4 0 -4 -3v-124q0 -2 3 -2h226q9 0 11 -6t2 -23v-99q0 -23 -20 -23h-368q-7 0 -10 0.5t-5 4t-2 11.5z M241 868h42q11 0 20 -9l131 -119q5 -4 4 -8.5t-7 -4.5h-66q-9 0 -16 3l-78 35q-3 1 -9 1t-9 -1l-78 -35q-7 -3 -16 -3h-66q-6 0 -7 4.5t4 8.5l131 119q9 9 20 9z" />
<glyph unicode="&#xcb;" horiz-adv-x="510" d="M60 16v670q0 10 3.5 12t11.5 2h371q12 0 15.5 -3t3.5 -11v-123q0 -9 -3 -11.5t-14 -2.5h-223q-2 0 -2 -1v-114q0 -3 2 -3h226q14 0 14 -21v-101q0 -29 -14 -29h-224q-4 0 -4 -3v-124q0 -2 3 -2h226q9 0 11 -6t2 -23v-99q0 -23 -20 -23h-368q-7 0 -10 0.5t-5 4t-2 11.5z M178 897q36 0 62.5 -26t26.5 -62t-26.5 -61.5t-62.5 -25.5q-38 0 -63 25.5t-25 61.5q0 37 25 62.5t63 25.5zM363 897q36 0 62.5 -26t26.5 -62t-26.5 -61.5t-62.5 -25.5q-37 0 -62.5 25.5t-25.5 61.5t25.5 62t62.5 26z" />
<glyph unicode="&#xcc;" horiz-adv-x="283" d="M207 0h-129q-12 0 -15 3.5t-3 15.5v664q0 11 3 14t14 3h130q16 0 16 -13v-670q0 -10 -3 -13.5t-13 -3.5zM64 750l-105 100q-10 9 -10 17t14 8h130q30 0 43 -19l74 -103q7 -9 4.5 -16.5t-13.5 -7.5h-89q-27 0 -48 21z" />
<glyph unicode="&#xcd;" horiz-adv-x="283" d="M207 0h-129q-12 0 -15 3.5t-3 15.5v664q0 11 3 14t14 3h130q16 0 16 -13v-670q0 -10 -3 -13.5t-13 -3.5zM195 729h-104q-4 0 -6.5 4.5t0.5 10.5l88 113q7 13 22 13h139q9 0 11.5 -6t-3.5 -11l-127 -116q-10 -8 -20 -8z" />
<glyph unicode="&#xce;" horiz-adv-x="283" d="M207 0h-129q-12 0 -15 3.5t-3 15.5v664q0 11 3 14t14 3h130q16 0 16 -13v-670q0 -10 -3 -13.5t-13 -3.5zM121 868h42q11 0 20 -9l131 -119q5 -4 4 -8.5t-7 -4.5h-66q-9 0 -16 3l-78 35q-3 1 -9 1t-9 -1l-78 -35q-7 -3 -16 -3h-66q-6 0 -7 4.5t4 8.5l131 119q9 9 20 9z " />
<glyph unicode="&#xcf;" horiz-adv-x="283" d="M207 0h-129q-12 0 -15 3.5t-3 15.5v664q0 11 3 14t14 3h130q16 0 16 -13v-670q0 -10 -3 -13.5t-13 -3.5zM48 897q36 0 62.5 -26t26.5 -62t-26.5 -61.5t-62.5 -25.5q-38 0 -63 25.5t-25 61.5q0 37 25 62.5t63 25.5zM233 897q36 0 62.5 -26t26.5 -62t-26.5 -61.5 t-62.5 -25.5q-37 0 -62.5 25.5t-25.5 61.5t25.5 62t62.5 26z" />
<glyph unicode="&#xd0;" horiz-adv-x="710" d="M272 0h-179q-18 0 -18 21v253h-51q-11 0 -13.5 3.5t-2.5 14.5v96q0 8 3 11.5t13 3.5h51v282q0 15 11 15h183q193 0 298 -98.5t105 -251.5t-104.5 -251.5t-295.5 -98.5zM238 541v-138h96q15 0 15 -13v-105q0 -7 -1.5 -9t-9.5 -2h-100v-109q0 -8 3 -11t11 -3h50 q100 0 153.5 57t53.5 136q0 85 -55 145t-165 60h-46q-5 0 -5 -8z" />
<glyph unicode="&#xd1;" horiz-adv-x="679" d="M60 13v680q0 17 15 3l388 -360v354q0 10 7 10h138q8 0 9.5 -2t1.5 -9v-685q0 -7 -4 -7.5t-7 3.5l-392 356v-343q0 -8 -2 -10.5t-10 -2.5h-133q-8 0 -9.5 2.5t-1.5 10.5zM376 748q-22 0 -55.5 14t-42.5 14q-23 0 -36 -21q-5 -8 -11 -4l-39 42q-7 4 -4 11q39 74 101 74 q21 0 54.5 -13.5t43.5 -13.5q29 0 38 22q3 6 9 3l41 -43q5 -4 3 -9q-39 -76 -102 -76z" />
<glyph unicode="&#xd2;" horiz-adv-x="822" d="M40 353q0 151 108.5 257.5t262.5 106.5t262.5 -106.5t108.5 -257.5t-108.5 -257t-262.5 -106t-262.5 106t-108.5 257zM199 353q0 -88 62 -150t150 -62t149 62t61 150t-61 150t-149 62t-150 -62t-62 -150zM330 762l-105 100q-10 9 -10 17t14 8h130q30 0 43 -19l74 -103 q7 -9 4.5 -16.5t-13.5 -7.5h-89q-27 0 -48 21z" />
<glyph unicode="&#xd3;" horiz-adv-x="822" d="M40 353q0 151 108.5 257.5t262.5 106.5t262.5 -106.5t108.5 -257.5t-108.5 -257t-262.5 -106t-262.5 106t-108.5 257zM199 353q0 -88 62 -150t150 -62t149 62t61 150t-61 150t-149 62t-150 -62t-62 -150zM461 741h-104q-4 0 -6.5 4.5t0.5 10.5l88 113q7 13 22 13h139 q9 0 11.5 -6t-3.5 -11l-127 -116q-10 -8 -20 -8z" />
<glyph unicode="&#xd4;" horiz-adv-x="822" d="M40 353q0 151 108.5 257.5t262.5 106.5t262.5 -106.5t108.5 -257.5t-108.5 -257t-262.5 -106t-262.5 106t-108.5 257zM199 353q0 -88 62 -150t150 -62t149 62t61 150t-61 150t-149 62t-150 -62t-62 -150zM381 880h42q11 0 20 -9l131 -119q5 -4 4 -8.5t-7 -4.5h-66 q-9 0 -16 3l-78 35q-3 1 -9 1t-9 -1l-78 -35q-7 -3 -16 -3h-66q-6 0 -7 4.5t4 8.5l131 119q9 9 20 9z" />
<glyph unicode="&#xd5;" horiz-adv-x="822" d="M40 353q0 151 108.5 257.5t262.5 106.5t262.5 -106.5t108.5 -257.5t-108.5 -257t-262.5 -106t-262.5 106t-108.5 257zM199 353q0 -88 62 -150t150 -62t149 62t61 150t-61 150t-149 62t-150 -62t-62 -150zM455 748q-22 0 -55.5 14t-42.5 14q-23 0 -36 -21q-5 -8 -11 -4 l-39 42q-7 4 -4 11q39 74 101 74q21 0 54.5 -13.5t43.5 -13.5q29 0 38 22q2 6 9 3l41 -43q5 -4 3 -9q-39 -76 -102 -76z" />
<glyph unicode="&#xd6;" horiz-adv-x="822" d="M40 353q0 151 108.5 257.5t262.5 106.5t262.5 -106.5t108.5 -257.5t-108.5 -257t-262.5 -106t-262.5 106t-108.5 257zM199 353q0 -88 62 -150t150 -62t149 62t61 150t-61 150t-149 62t-150 -62t-62 -150zM318 909q36 0 62.5 -26t26.5 -62t-26.5 -61.5t-62.5 -25.5 q-38 0 -63 25.5t-25 61.5q0 37 25 62.5t63 25.5zM503 909q36 0 62.5 -26t26.5 -62t-26.5 -61.5t-62.5 -25.5q-37 0 -62.5 25.5t-25.5 61.5t25.5 62t62.5 26z" />
<glyph unicode="&#xd7;" horiz-adv-x="597" d="M297 163l-170 -153l-100 96l167 150l-172 157l104 90l169 -153l172 154l103 -93l-171 -155l166 -149q-16 -16 -99 -98z" />
<glyph unicode="&#xd8;" horiz-adv-x="822" d="M652 717l-29 -66q73 -50 116 -128.5t43 -169.5q0 -151 -108.5 -257t-262.5 -106q-39 0 -71 7l-2 -6q-6 -14 -19 -14h-139q-6 0 -10 6t-1 13l26 61q-72 50 -113.5 127.5t-41.5 168.5q0 151 108.5 257.5t262.5 106.5q34 0 67 -6l6 14q6 11 17 11h138q9 0 12.5 -5.5 t0.5 -13.5zM621 353q0 88 -62 150l-156 -362h8q88 0 149 62t61 150zM199 353q0 -86 60 -148l156 360h-4q-88 0 -150 -62t-62 -150z" />
<glyph unicode="&#xd9;" horiz-adv-x="681" d="M456 284v399q0 17 12 17h142q17 0 17 -14v-405q0 -291 -282 -291q-285 0 -285 291v406q0 8 1.5 10.5t9.5 2.5h145q10 0 12.5 -2.5t2.5 -12.5v-401q0 -70 31.5 -101t82.5 -31q111 0 111 132zM263 762l-105 100q-10 9 -10 17t14 8h130q30 0 43 -19l74 -103q7 -9 4.5 -16.5 t-13.5 -7.5h-89q-27 0 -48 21z" />
<glyph unicode="&#xda;" horiz-adv-x="681" d="M456 284v399q0 17 12 17h142q17 0 17 -14v-405q0 -291 -282 -291q-285 0 -285 291v406q0 8 1.5 10.5t9.5 2.5h145q10 0 12.5 -2.5t2.5 -12.5v-401q0 -70 31.5 -101t82.5 -31q111 0 111 132zM394 741h-104q-4 0 -6.5 4.5t0.5 10.5l88 113q7 13 22 13h139q9 0 11.5 -6 t-3.5 -11l-127 -116q-10 -8 -20 -8z" />
<glyph unicode="&#xdb;" horiz-adv-x="681" d="M456 284v399q0 17 12 17h142q17 0 17 -14v-405q0 -291 -282 -291q-285 0 -285 291v406q0 8 1.5 10.5t9.5 2.5h145q10 0 12.5 -2.5t2.5 -12.5v-401q0 -70 31.5 -101t82.5 -31q111 0 111 132zM314 880h42q11 0 20 -9l131 -119q5 -4 4 -8.5t-7 -4.5h-66q-8 0 -16 3l-78 35 q-3 1 -9 1t-9 -1l-78 -35q-7 -3 -16 -3h-66q-6 0 -7 4.5t4 8.5l131 119q9 9 20 9z" />
<glyph unicode="&#xdc;" horiz-adv-x="681" d="M456 284v399q0 17 12 17h142q17 0 17 -14v-405q0 -291 -282 -291q-285 0 -285 291v406q0 8 1.5 10.5t9.5 2.5h145q10 0 12.5 -2.5t2.5 -12.5v-401q0 -70 31.5 -101t82.5 -31q111 0 111 132zM251 909q36 0 62.5 -26t26.5 -62t-26.5 -61.5t-62.5 -25.5q-38 0 -63 25.5 t-25 61.5q0 37 25 62.5t63 25.5zM436 909q36 0 62.5 -26t26.5 -62t-26.5 -61.5t-62.5 -25.5q-37 0 -62.5 25.5t-25.5 61.5t25.5 62t62.5 26z" />
<glyph unicode="&#xdd;" horiz-adv-x="662" d="M406 0h-146q-13 0 -13 17v318q0 11 -6 23l-225 324q-13 18 10 18h141q17 0 22 -11l139 -198q5 -9 6 -9t5 10l131 191q16 16 20 17h146q20 0 11 -18l-223 -326q-5 -11 -5 -23v-320q0 -8 -2.5 -10.5t-10.5 -2.5zM384 741h-104q-4 0 -6.5 4.5t0.5 10.5l88 113q7 13 22 13 h139q9 0 11.5 -6t-3.5 -11l-127 -116q-10 -8 -20 -8z" />
<glyph unicode="&#xde;" horiz-adv-x="593" d="M207 0h-135q-3 0 -7 2h-1q-4 3 -4 11v670q0 11 3 14t14 3h130q16 0 16 -13v-100h12q77 0 134.5 -13.5t92 -35t55.5 -54.5t28.5 -66.5t7.5 -75.5q0 -51 -13 -91t-44 -75t-91.5 -54.5t-146.5 -19.5h-18q-16 0 -17 -11v-74q0 -10 -3 -13.5t-13 -3.5zM223 423v-151 q0 -12 3 -15.5t14 -3.5h27q115 0 115 91q0 92 -116 92h-30q-8 0 -10.5 -2.5t-2.5 -10.5z" />
<glyph unicode="&#xdf;" horiz-adv-x="681" d="M189 0h-111q-11 0 -14.5 4.5t-3.5 16.5v487q0 52 22 93.5t58 65.5t78.5 36t88.5 12q106 0 177 -54.5t71 -146.5q0 -76 -72 -141q77 -39 117.5 -78.5t40.5 -101.5q0 -89 -82 -141t-238 -52h-15q-15 0 -18.5 4.5t-3.5 17.5v88q0 13 3.5 17.5t15.5 4.5h22q66 0 109 17t43 51 q0 20 -15.5 37.5t-31.5 26t-52 24t-51 22.5q-47 24 -47 59q0 36 40 60q3 2 15.5 9.5t17 10t14 10.5t13 14t7 16t3.5 21q0 32 -24.5 53t-62.5 21q-33 0 -60.5 -19t-27.5 -57v-481q0 -10 -1 -14.5t-7 -8.5t-18 -4z" />
<glyph unicode="&#xe0;" horiz-adv-x="547" d="M381 20l-3 8q-71 -38 -156 -38q-177 0 -177 150q0 82 50 125.5t148 43.5q54 0 104 -16q0 16 -9 26t-28 14.5t-35.5 5.5t-43.5 1q-59 0 -119 -32q-8 -3 -12.5 -0.5t-4.5 8.5v112q0 8 0.5 11t4 6.5t10.5 6.5q65 23 153 23q108 0 171 -46.5t63 -144.5v-270q0 -14 -12 -14 h-79q-11 0 -15.5 3.5t-9.5 16.5zM190 146q0 -13 17 -22t43 -9q53 0 97 19v36q-46 13 -100 13q-25 0 -41 -10.5t-16 -26.5zM212 555l-105 100q-10 9 -10 17t14 8h130q30 0 43 -19l74 -103q7 -9 4.5 -16.5t-13.5 -7.5h-89q-27 0 -48 21z" />
<glyph unicode="&#xe1;" horiz-adv-x="547" d="M381 20l-3 8q-71 -38 -156 -38q-177 0 -177 150q0 82 50 125.5t148 43.5q54 0 104 -16q0 16 -9 26t-28 14.5t-35.5 5.5t-43.5 1q-59 0 -119 -32q-8 -3 -12.5 -0.5t-4.5 8.5v112q0 8 0.5 11t4 6.5t10.5 6.5q65 23 153 23q108 0 171 -46.5t63 -144.5v-270q0 -14 -12 -14 h-79q-11 0 -15.5 3.5t-9.5 16.5zM190 146q0 -13 17 -22t43 -9q53 0 97 19v36q-46 13 -100 13q-25 0 -41 -10.5t-16 -26.5zM323 534h-104q-4 0 -6.5 4.5t0.5 10.5l88 113q7 13 22 13h139q9 0 11.5 -6.5t-3.5 -10.5l-127 -116q-10 -8 -20 -8z" />
<glyph unicode="&#xe2;" horiz-adv-x="547" d="M381 20l-3 8q-71 -38 -156 -38q-177 0 -177 150q0 82 50 125.5t148 43.5q54 0 104 -16q0 16 -9 26t-28 14.5t-35.5 5.5t-43.5 1q-59 0 -119 -32q-8 -3 -12.5 -0.5t-4.5 8.5v112q0 8 0.5 11t4 6.5t10.5 6.5q65 23 153 23q108 0 171 -46.5t63 -144.5v-270q0 -14 -12 -14 h-79q-11 0 -15.5 3.5t-9.5 16.5zM190 146q0 -13 17 -22t43 -9q53 0 97 19v36q-46 13 -100 13q-25 0 -41 -10.5t-16 -26.5zM263 673h42q11 0 20 -9l131 -119q5 -4 4 -8.5t-7 -4.5h-66q-8 0 -16 3l-78 35q-3 1 -9 1t-9 -1l-78 -35q-8 -3 -16 -3h-66q-6 0 -7 4.5t4 8.5l131 119 q9 9 20 9z" />
<glyph unicode="&#xe3;" horiz-adv-x="547" d="M381 20l-3 8q-71 -38 -156 -38q-177 0 -177 150q0 82 50 125.5t148 43.5q54 0 104 -16q0 16 -9 26t-28 14.5t-35.5 5.5t-43.5 1q-59 0 -119 -32q-8 -3 -12.5 -0.5t-4.5 8.5v112q0 8 0.5 11t4 6.5t10.5 6.5q65 23 153 23q108 0 171 -46.5t63 -144.5v-270q0 -14 -12 -14 h-79q-11 0 -15.5 3.5t-9.5 16.5zM190 146q0 -13 17 -22t43 -9q53 0 97 19v36q-46 13 -100 13q-25 0 -41 -10.5t-16 -26.5zM317 541q-22 0 -55.5 14t-42.5 14q-23 0 -36 -21q-5 -8 -11 -4l-39 42q-7 4 -4 11q39 74 101 74q21 0 54.5 -13.5t43.5 -13.5q29 0 38 22q2 6 9 3 l41 -43q5 -4 3 -9q-39 -76 -102 -76z" />
<glyph unicode="&#xe4;" horiz-adv-x="547" d="M381 20l-3 8q-71 -38 -156 -38q-177 0 -177 150q0 82 50 125.5t148 43.5q54 0 104 -16q0 16 -9 26t-28 14.5t-35.5 5.5t-43.5 1q-59 0 -119 -32q-8 -3 -12.5 -0.5t-4.5 8.5v112q0 8 0.5 11t4 6.5t10.5 6.5q65 23 153 23q108 0 171 -46.5t63 -144.5v-270q0 -14 -12 -14 h-79q-11 0 -15.5 3.5t-9.5 16.5zM190 146q0 -13 17 -22t43 -9q53 0 97 19v36q-46 13 -100 13q-25 0 -41 -10.5t-16 -26.5zM200 702q36 0 62.5 -26t26.5 -62t-26.5 -61.5t-62.5 -25.5q-38 0 -63 25.5t-25 61.5q0 37 25 62.5t63 25.5zM385 702q36 0 62.5 -26t26.5 -62 t-26.5 -61.5t-62.5 -25.5q-37 0 -62.5 25.5t-25.5 61.5t25.5 62t62.5 26z" />
<glyph unicode="&#xe5;" horiz-adv-x="547" d="M381 20l-3 8q-71 -38 -156 -38q-177 0 -177 150q0 82 50 125.5t148 43.5q54 0 104 -16q0 16 -9 26t-28 14.5t-35.5 5.5t-43.5 1q-59 0 -119 -32q-8 -3 -12.5 -0.5t-4.5 8.5v112q0 8 0.5 11t4 6.5t10.5 6.5q65 23 153 23q108 0 171 -46.5t63 -144.5v-270q0 -14 -12 -14 h-79q-11 0 -15.5 3.5t-9.5 16.5zM190 146q0 -13 17 -22t43 -9q53 0 97 19v36q-46 13 -100 13q-25 0 -41 -10.5t-16 -26.5zM419 617q0 -34 -36.5 -58.5t-99.5 -24.5t-99.5 24.5t-36.5 58.5q0 33 36.5 58t99.5 25t99.5 -25t36.5 -58zM283 592q18 0 27.5 7.5t9.5 17.5 q0 9 -10 16.5t-27 7.5t-26.5 -7.5t-9.5 -16.5q0 -10 9.5 -17.5t26.5 -7.5z" />
<glyph unicode="&#xe6;" horiz-adv-x="855" d="M814 233v-36q0 -14 -13 -14h-297q20 -62 113 -62q84 0 136 22q7 2 8.5 1t1.5 -7v-107q0 -10 -7 -14q-59 -26 -164 -26q-104 0 -167 50q-90 -50 -193 -50q-187 0 -187 150q0 82 50 125.5t148 43.5q54 0 104 -16q0 16 -9 26t-28 14.5t-35.5 5.5t-43.5 1q-59 0 -119 -32 q-8 -3 -12.5 -0.5t-4.5 8.5v112q0 8 0.5 11t4 6.5t10.5 6.5q65 23 153 23q111 0 171 -47q63 47 145 47q100 0 167.5 -67t67.5 -175zM190 146q0 -13 17 -22t43 -9q53 0 97 19v36q-46 13 -100 13q-25 0 -41 -10.5t-16 -26.5zM579 354q-52 0 -72 -56h152q-25 56 -80 56z" />
<glyph unicode="&#xe7;" horiz-adv-x="473" d="M201 232q0 -48 33 -79.5t92 -31.5q55 0 96 17q10 4 10 -5v-108q0 -10 -10 -14q-36 -14 -83 -19l-11 -28q-2 -4 1 -4q85 -9 85 -82q0 -71 -91 -89q-20 -4 -48 -4q-40 0 -82 10q-9 3 -9 14l2 28q1 11 16 9q16 -2 40 -2q61 0 61 29q0 34 -61 34q-10 0 -6 9l30 77 q-96 12 -158.5 79.5t-62.5 159.5q0 101 75 172t185 71q57 0 109 -21q18 -7 18 -21v-108q0 -12 -14 -4q-36 22 -92 22q-59 0 -92 -31.5t-33 -79.5z" />
<glyph unicode="&#xe8;" horiz-adv-x="555" d="M514 233v-36q0 -14 -13 -14h-297q20 -62 113 -62q70 0 109 19q13 4 15 2.5t2 -8.5v-98q0 -16 -11 -22q-49 -24 -140 -24q-125 0 -186 69t-61 171q0 110 68 177.5t168 67.5t166.5 -67t66.5 -175zM281 354q-56 0 -75 -56h156q-21 56 -81 56zM198 555l-105 100q-10 9 -10 17 t14 8h130q30 0 43 -19l74 -103q7 -9 4.5 -16.5t-13.5 -7.5h-89q-27 0 -48 21z" />
<glyph unicode="&#xe9;" horiz-adv-x="555" d="M514 233v-36q0 -14 -13 -14h-297q20 -62 113 -62q70 0 109 19q13 4 15 2.5t2 -8.5v-98q0 -16 -11 -22q-49 -24 -140 -24q-125 0 -186 69t-61 171q0 110 68 177.5t168 67.5t166.5 -67t66.5 -175zM281 354q-56 0 -75 -56h156q-21 56 -81 56zM329 534h-104q-4 0 -6.5 4.5 t0.5 10.5l88 113q7 13 22 13h139q9 0 11.5 -6.5t-3.5 -10.5l-127 -116q-10 -8 -20 -8z" />
<glyph unicode="&#xea;" horiz-adv-x="555" d="M514 233v-36q0 -14 -13 -14h-297q20 -62 113 -62q70 0 109 19q13 4 15 2.5t2 -8.5v-98q0 -16 -11 -22q-49 -24 -140 -24q-125 0 -186 69t-61 171q0 110 68 177.5t168 67.5t166.5 -67t66.5 -175zM281 354q-56 0 -75 -56h156q-21 56 -81 56zM249 673h42q11 0 20 -9 l131 -119q5 -4 4 -8.5t-7 -4.5h-66q-9 0 -16 3l-78 35q-3 1 -9 1t-9 -1l-78 -35q-7 -3 -16 -3h-66q-6 0 -7 4.5t4 8.5l131 119q9 9 20 9z" />
<glyph unicode="&#xeb;" horiz-adv-x="555" d="M514 233v-36q0 -14 -13 -14h-297q20 -62 113 -62q70 0 109 19q13 4 15 2.5t2 -8.5v-98q0 -16 -11 -22q-49 -24 -140 -24q-125 0 -186 69t-61 171q0 110 68 177.5t168 67.5t166.5 -67t66.5 -175zM281 354q-56 0 -75 -56h156q-21 56 -81 56zM186 702q36 0 62.5 -26 t26.5 -62t-26.5 -61.5t-62.5 -25.5q-38 0 -63 25.5t-25 61.5q0 37 25 62.5t63 25.5zM371 702q36 0 62.5 -26t26.5 -62t-26.5 -61.5t-62.5 -25.5q-37 0 -62.5 25.5t-25.5 61.5t25.5 62t62.5 26z" />
<glyph unicode="&#xec;" horiz-adv-x="255" d="M205 446v-429q0 -12 -3 -14.5t-13 -2.5h-119q-8 0 -11.5 0.5t-6 4t-2.5 11.5v429q0 14 4.5 17t21.5 3h114q15 0 15 -19zM49 555l-105 100q-10 9 -10 17t14 8h130q30 0 43 -19l74 -103q7 -9 4.5 -16.5t-13.5 -7.5h-89q-27 0 -48 21z" />
<glyph unicode="&#xed;" horiz-adv-x="255" d="M205 446v-429q0 -12 -3 -14.5t-13 -2.5h-119q-8 0 -11.5 0.5t-6 4t-2.5 11.5v429q0 14 4.5 17t21.5 3h114q15 0 15 -19zM180 534h-104q-4 0 -6.5 4.5t0.5 10.5l88 113q7 13 22 13h139q9 0 11.5 -6.5t-3.5 -10.5l-127 -116q-10 -8 -20 -8z" />
<glyph unicode="&#xee;" horiz-adv-x="255" d="M205 446v-429q0 -12 -3 -14.5t-13 -2.5h-119q-8 0 -11.5 0.5t-6 4t-2.5 11.5v429q0 14 4.5 17t21.5 3h114q15 0 15 -19zM100 673h42q11 0 20 -9l131 -119q5 -4 4 -8.5t-7 -4.5h-66q-8 0 -16 3l-78 35q-3 1 -9 1t-9 -1l-78 -35q-8 -3 -16 -3h-66q-6 0 -7 4.5t4 8.5 l131 119q9 9 20 9z" />
<glyph unicode="&#xef;" horiz-adv-x="255" d="M205 446v-429q0 -12 -3 -14.5t-13 -2.5h-119q-8 0 -11.5 0.5t-6 4t-2.5 11.5v429q0 14 4.5 17t21.5 3h114q15 0 15 -19zM37 702q36 0 62.5 -26t26.5 -62t-26.5 -61.5t-62.5 -25.5q-38 0 -63 25.5t-25 61.5q0 37 25 62.5t63 25.5zM222 702q36 0 62.5 -26t26.5 -62 t-26.5 -61.5t-62.5 -25.5q-37 0 -62.5 25.5t-25.5 61.5t25.5 62t62.5 26z" />
<glyph unicode="&#xf0;" horiz-adv-x="608" d="M352 434l-65 90l-68 -15q-21 -4 -30 1t-17 25l-11 27q-9 23 -9 29q0 14 28 20l39 9l-34 48q-9 16 -0.5 24t24.5 8h61q60 0 84 -36l7 -12l55 13q21 5 30.5 -0.5t16.5 -20.5l14 -35q16 -39 -21 -47l-31 -7l33 -50q33 -47 52 -78.5t39 -88.5t20 -110q0 -113 -68.5 -175.5 t-198.5 -62.5q-128 0 -195.5 62.5t-67.5 184.5q0 104 49.5 171t144.5 67q70 0 119 -41zM398 230q0 57 -25.5 90t-69.5 33q-41 0 -67 -30.5t-26 -92.5q0 -63 26.5 -92t68.5 -29q93 0 93 121z" />
<glyph unicode="&#xf1;" horiz-adv-x="580" d="M207 451v-6q54 30 132 30q94 0 142.5 -56.5t48.5 -161.5v-242q0 -15 -17 -15h-125q-14 0 -14 15v217q0 102 -79 102q-47 0 -89 -28l-1 -292q0 -14 -15 -14h-122q-18 0 -18 14v437q0 14 13 14h128q16 0 16 -14zM339 541q-22 0 -55.5 14t-42.5 14q-23 0 -36 -21 q-5 -8 -11 -4l-39 42q-7 4 -4 11q39 74 101 74q21 0 54.5 -13.5t43.5 -13.5q29 0 38 22q2 6 9 3l41 -43q5 -4 3 -9q-39 -76 -102 -76z" />
<glyph unicode="&#xf2;" horiz-adv-x="589" d="M45 232q0 101 73 172t177 71q103 0 176 -71t73 -172t-73 -171.5t-176 -70.5q-104 0 -177 70.5t-73 171.5zM194 232q0 -42 29.5 -71.5t71.5 -29.5q41 0 70.5 29.5t29.5 71.5t-29.5 71.5t-70.5 29.5q-42 0 -71.5 -29.5t-29.5 -71.5zM213 555l-105 100q-10 9 -10 17t14 8 h130q30 0 43 -19l74 -103q7 -9 4.5 -16.5t-13.5 -7.5h-89q-27 0 -48 21z" />
<glyph unicode="&#xf3;" horiz-adv-x="589" d="M45 232q0 101 73 172t177 71q103 0 176 -71t73 -172t-73 -171.5t-176 -70.5q-104 0 -177 70.5t-73 171.5zM194 232q0 -42 29.5 -71.5t71.5 -29.5q41 0 70.5 29.5t29.5 71.5t-29.5 71.5t-70.5 29.5q-42 0 -71.5 -29.5t-29.5 -71.5zM344 534h-104q-4 0 -6.5 4.5t0.5 10.5 l88 113q7 13 22 13h139q9 0 11.5 -6.5t-3.5 -10.5l-127 -116q-10 -8 -20 -8z" />
<glyph unicode="&#xf4;" horiz-adv-x="589" d="M45 232q0 101 73 172t177 71q103 0 176 -71t73 -172t-73 -171.5t-176 -70.5q-104 0 -177 70.5t-73 171.5zM194 232q0 -42 29.5 -71.5t71.5 -29.5q41 0 70.5 29.5t29.5 71.5t-29.5 71.5t-70.5 29.5q-42 0 -71.5 -29.5t-29.5 -71.5zM264 673h42q11 0 20 -9l131 -119 q5 -4 4 -8.5t-7 -4.5h-66q-8 0 -16 3l-78 35q-3 1 -9 1t-9 -1l-78 -35q-7 -3 -16 -3h-66q-6 0 -7 4.5t4 8.5l131 119q9 9 20 9z" />
<glyph unicode="&#xf5;" horiz-adv-x="589" d="M45 232q0 101 73 172t177 71q103 0 176 -71t73 -172t-73 -171.5t-176 -70.5q-104 0 -177 70.5t-73 171.5zM194 232q0 -42 29.5 -71.5t71.5 -29.5q41 0 70.5 29.5t29.5 71.5t-29.5 71.5t-70.5 29.5q-42 0 -71.5 -29.5t-29.5 -71.5zM338 541q-22 0 -55.5 14t-42.5 14 q-23 0 -36 -21q-5 -8 -11 -4l-39 42q-7 4 -4 11q39 74 101 74q21 0 54.5 -13.5t43.5 -13.5q29 0 38 22q3 6 9 3l41 -43q5 -4 3 -9q-39 -76 -102 -76z" />
<glyph unicode="&#xf6;" horiz-adv-x="589" d="M45 232q0 101 73 172t177 71q103 0 176 -71t73 -172t-73 -171.5t-176 -70.5q-104 0 -177 70.5t-73 171.5zM194 232q0 -42 29.5 -71.5t71.5 -29.5q41 0 70.5 29.5t29.5 71.5t-29.5 71.5t-70.5 29.5q-42 0 -71.5 -29.5t-29.5 -71.5zM201 702q36 0 62.5 -26t26.5 -62 t-26.5 -61.5t-62.5 -25.5q-38 0 -63 25.5t-25 61.5q0 37 25 62.5t63 25.5zM386 702q36 0 62.5 -26t26.5 -62t-26.5 -61.5t-62.5 -25.5q-37 0 -62.5 25.5t-25.5 61.5t25.5 62t62.5 26z" />
<glyph unicode="&#xf7;" horiz-adv-x="526" d="M260 497q30 0 51.5 -21t21.5 -51t-21.5 -51.5t-51.5 -21.5q-31 0 -52 21.5t-21 51.5t21 51t52 21zM260 128q31 0 52 -21.5t21 -51.5t-21 -51.5t-52 -21.5q-32 0 -52.5 21t-20.5 52t20.5 52t52.5 21zM498 189h-471v112h471v-112z" />
<glyph unicode="&#xf8;" horiz-adv-x="589" d="M469 497l-29 -67q48 -34 76 -86t28 -112q0 -101 -73 -171.5t-176 -70.5q-25 0 -44 4l-9 -23q-4 -10 -14 -10h-101q-11 0 -8 14l27 62q-47 33 -74 84.5t-27 110.5q0 101 73 172t177 71q20 0 38 -3l14 31q4 8 12 8h100q7 0 9.5 -4.5t0.5 -9.5zM395 232q0 30 -17 55 l-67 -155q36 6 60 34.5t24 65.5zM194 232q0 -29 14 -52l64 150q-34 -8 -56 -35t-22 -63z" />
<glyph unicode="&#xf9;" horiz-adv-x="553" d="M276 -10q-113 0 -172 56.5t-59 161.5v232q0 25 27 25h107q13 0 17.5 -5.5t4.5 -19.5v-227q0 -92 75 -92q76 0 76 92v227q0 14 5 19.5t18 5.5h115q18 0 18 -16v-241q0 -218 -232 -218zM196 555l-105 100q-10 9 -10 17t14 8h130q30 0 43 -19l74 -103q7 -9 4.5 -16.5 t-13.5 -7.5h-89q-27 0 -48 21z" />
<glyph unicode="&#xfa;" horiz-adv-x="553" d="M276 -10q-113 0 -172 56.5t-59 161.5v232q0 25 27 25h107q13 0 17.5 -5.5t4.5 -19.5v-227q0 -92 75 -92q76 0 76 92v227q0 14 5 19.5t18 5.5h115q18 0 18 -16v-241q0 -218 -232 -218zM327 534h-104q-4 0 -6.5 4.5t0.5 10.5l88 113q7 13 22 13h139q9 0 11.5 -6.5 t-3.5 -10.5l-127 -116q-10 -8 -20 -8z" />
<glyph unicode="&#xfb;" horiz-adv-x="553" d="M276 -10q-113 0 -172 56.5t-59 161.5v232q0 25 27 25h107q13 0 17.5 -5.5t4.5 -19.5v-227q0 -92 75 -92q76 0 76 92v227q0 14 5 19.5t18 5.5h115q18 0 18 -16v-241q0 -218 -232 -218zM247 673h42q11 0 20 -9l131 -119q5 -4 4 -8.5t-7 -4.5h-66q-9 0 -16 3l-78 35 q-3 1 -9 1t-9 -1l-78 -35q-8 -3 -16 -3h-66q-6 0 -7 4.5t4 8.5l131 119q9 9 20 9z" />
<glyph unicode="&#xfc;" horiz-adv-x="553" d="M276 -10q-113 0 -172 56.5t-59 161.5v232q0 25 27 25h107q13 0 17.5 -5.5t4.5 -19.5v-227q0 -92 75 -92q76 0 76 92v227q0 14 5 19.5t18 5.5h115q18 0 18 -16v-241q0 -218 -232 -218zM184 702q36 0 62.5 -26t26.5 -62t-26.5 -61.5t-62.5 -25.5q-38 0 -63 25.5t-25 61.5 q0 37 25 62.5t63 25.5zM369 702q36 0 62.5 -26t26.5 -62t-26.5 -61.5t-62.5 -25.5q-37 0 -62.5 25.5t-25.5 61.5t25.5 62t62.5 26z" />
<glyph unicode="&#xfd;" horiz-adv-x="566" d="M554 450l-359 -667q-3 -8 -13 -8h-144q-4 0 -7 3.5t-1 6.5l172 318l-190 349q-3 2 -1.5 7.5t9.5 5.5h134q16 0 20 -9l109 -203l107 198q8 14 20 14h133q7 0 10.5 -5t0.5 -10zM333 534h-104q-4 0 -6.5 4.5t0.5 10.5l88 113q7 13 22 13h139q9 0 11.5 -6.5t-3.5 -10.5 l-127 -116q-10 -8 -20 -8z" />
<glyph unicode="&#xfe;" horiz-adv-x="603" d="M208 715v-275q55 35 118 35q98 0 167.5 -64.5t69.5 -178.5q0 -112 -69 -177t-168 -65q-65 0 -118 34v-179q0 -8 -2.5 -10t-10.5 -2h-128q-7 0 -9.5 2.5t-2.5 9.5v871q0 14 15 14h126q12 0 12 -15zM414 232q0 48 -31.5 80t-78.5 32q-59 0 -96 -46v-131q36 -45 96 -45 q46 0 78 31t32 79z" />
<glyph unicode="&#xff;" horiz-adv-x="566" d="M554 450l-359 -667q-3 -8 -13 -8h-144q-4 0 -7 3.5t-1 6.5l172 318l-190 349q-3 2 -1.5 7.5t9.5 5.5h134q16 0 20 -9l109 -203l107 198q8 14 20 14h133q7 0 10.5 -5t0.5 -10zM190 702q36 0 62.5 -26t26.5 -62t-26.5 -61.5t-62.5 -25.5q-38 0 -63 25.5t-25 61.5 q0 37 25 62.5t63 25.5zM375 702q36 0 62.5 -26t26.5 -62t-26.5 -61.5t-62.5 -25.5q-37 0 -62.5 25.5t-25.5 61.5t25.5 62t62.5 26z" />
<glyph unicode="&#x152;" horiz-adv-x="1027" d="M592 16v4q-75 -30 -168 -30q-176 0 -280 100.5t-104 259.5q0 158 104 259t280 101q86 0 168 -31v7q0 10 3.5 12t11.5 2h371q12 0 15.5 -3t3.5 -11v-123q0 -9 -3 -11.5t-14 -2.5h-223q-2 0 -2 -1v-114q0 -3 2 -3h226q14 0 14 -21v-101q0 -29 -14 -29h-224q-4 0 -4 -3v-124 q0 -2 3 -2h226q9 0 11 -6t2 -23v-99q0 -23 -20 -23h-368q-7 0 -10 0.5t-5 4t-2 11.5zM211 350q0 -92 51.5 -151t138.5 -66q51 -3 90 13q74 18 101 76v242q-25 66 -99 88q-41 18 -92 15q-87 -7 -138.5 -66.5t-51.5 -150.5z" />
<glyph unicode="&#x153;" horiz-adv-x="905" d="M864 233v-36q0 -14 -13 -14h-297q20 -62 113 -62q70 0 109 19q13 4 15 2.5t2 -8.5v-98q0 -16 -11 -22q-50 -24 -140 -24q-115 0 -180 62q-70 -62 -167 -62q-104 0 -177 70.5t-73 171.5t73 172t177 71q98 0 170 -66q66 66 166 66t166.5 -67t66.5 -175zM194 232 q0 -42 29.5 -71.5t71.5 -29.5q40 0 69.5 28.5t30.5 68.5v4q0 42 -29.5 71.5t-70.5 29.5q-42 0 -71.5 -29.5t-29.5 -71.5zM631 354q-56 0 -75 -56h156q-21 56 -81 56z" />
<glyph unicode="&#x178;" horiz-adv-x="662" d="M406 0h-146q-13 0 -13 17v318q0 11 -6 23l-225 324q-13 18 10 18h141q17 0 22 -11l139 -198q5 -9 6 -9t5 10l131 191q16 16 20 17h146q20 0 11 -18l-223 -326q-5 -11 -5 -23v-320q0 -8 -2.5 -10.5t-10.5 -2.5zM241 909q36 0 62.5 -26t26.5 -62t-26.5 -61.5t-62.5 -25.5 q-38 0 -63 25.5t-25 61.5q0 37 25 62.5t63 25.5zM426 909q36 0 62.5 -26t26.5 -62t-26.5 -61.5t-62.5 -25.5q-37 0 -62.5 25.5t-25.5 61.5t25.5 62t62.5 26z" />
<glyph unicode="&#x2c6;" horiz-adv-x="350" d="M146 868h42q11 0 20 -9l131 -119q5 -4 4 -8.5t-7 -4.5h-66q-8 0 -16 3l-78 35q-3 1 -9 1t-9 -1l-78 -35q-8 -3 -16 -3h-66q-6 0 -7 4.5t4 8.5l131 119q9 9 20 9z" />
<glyph unicode="&#x2dc;" horiz-adv-x="346" d="M216 732q-22 0 -55.5 14t-42.5 14q-23 0 -36 -21q-5 -8 -11 -4l-39 42q-7 4 -4 11q39 74 101 74q21 0 54.5 -13.5t43.5 -13.5q29 0 38 22q3 6 9 3l41 -43q5 -4 3 -9q-39 -76 -102 -76z" />
<glyph unicode="&#x2000;" horiz-adv-x="454" />
<glyph unicode="&#x2001;" horiz-adv-x="909" />
<glyph unicode="&#x2002;" horiz-adv-x="454" />
<glyph unicode="&#x2003;" horiz-adv-x="909" />
<glyph unicode="&#x2004;" horiz-adv-x="303" />
<glyph unicode="&#x2005;" horiz-adv-x="227" />
<glyph unicode="&#x2006;" horiz-adv-x="151" />
<glyph unicode="&#x2007;" horiz-adv-x="151" />
<glyph unicode="&#x2008;" horiz-adv-x="113" />
<glyph unicode="&#x2009;" horiz-adv-x="181" />
<glyph unicode="&#x200a;" horiz-adv-x="50" />
<glyph unicode="&#x2010;" horiz-adv-x="341" d="M310 200h-274q-11 0 -13.5 3.5t-2.5 14.5v96q0 8 3 11.5t13 3.5h270q15 0 15 -13v-105q0 -7 -1.5 -9t-9.5 -2z" />
<glyph unicode="&#x2011;" horiz-adv-x="341" d="M310 200h-274q-11 0 -13.5 3.5t-2.5 14.5v96q0 8 3 11.5t13 3.5h270q15 0 15 -13v-105q0 -7 -1.5 -9t-9.5 -2z" />
<glyph unicode="&#x2012;" horiz-adv-x="341" d="M310 200h-274q-11 0 -13.5 3.5t-2.5 14.5v96q0 8 3 11.5t13 3.5h270q15 0 15 -13v-105q0 -7 -1.5 -9t-9.5 -2z" />
<glyph unicode="&#x2013;" horiz-adv-x="495" d="M486 150h-476q-10 0 -10 9v118q0 12 12 12h474q9 0 9 -10v-119q0 -10 -9 -10z" />
<glyph unicode="&#x2014;" horiz-adv-x="936" d="M831 150h-725q-7 0 -9 2t-2 10v116q0 11 11 11h725q10 0 10 -10v-119q0 -7 -1.5 -8.5t-8.5 -1.5z" />
<glyph unicode="&#x2018;" horiz-adv-x="299" d="M155 700h94q11 0 9 -11l-53 -194q-3 -11 -14 -11h-139q-5 0 -6.5 5.5t0.5 8.5l96 194q3 8 13 8z" />
<glyph unicode="&#x2019;" horiz-adv-x="299" d="M144 484h-93q-13 0 -8 15l51 190q4 11 14 11h136q7 0 9.5 -5t-0.5 -11l-94 -189q-5 -11 -15 -11z" />
<glyph unicode="&#x201a;" horiz-adv-x="323" d="M150 -111h-102q-12 0 -14.5 4t-0.5 14l49 235q3 18 21 18h147q22 0 14 -21l-93 -234q-6 -16 -21 -16z" />
<glyph unicode="&#x201c;" horiz-adv-x="487" d="M156 700h91q5 0 8 -4.5t2 -9.5l-52 -190q-3 -12 -17 -12h-134q-5 0 -7.5 4t0.5 11l94 190q6 11 15 11zM344 700h91q13 0 10 -15l-51 -187q-2 -9 -5 -11.5t-12 -2.5h-133q-8 0 -10 6t2 12l92 185q6 13 16 13z" />
<glyph unicode="&#x201d;" horiz-adv-x="487" d="M330 484h-90q-12 0 -9 14l49 186q4 16 19 16h133q17 0 9 -17l-94 -187q-6 -12 -17 -12zM144 484h-91q-15 0 -10 16l50 184q4 16 18 16h131q7 0 10 -4.5t0 -12.5l-92 -186q-6 -13 -16 -13z" />
<glyph unicode="&#x201e;" horiz-adv-x="539" d="M164 -111h-109q-13 0 -11 14l52 241q2 10 5.5 13t14.5 3h149q8 0 12 -4.5t2 -9.5l-99 -246q-4 -11 -16 -11zM395 -111h-113q-11 0 -9 13l52 243q3 15 18 15h152q19 0 13 -16l-99 -246q-4 -9 -14 -9z" />
<glyph unicode="&#x2022;" horiz-adv-x="363" d="M181 358q55 0 92.5 -33t37.5 -80t-37.5 -79.5t-92.5 -32.5t-92 32.5t-37 79.5q0 48 37 80.5t92 32.5z" />
<glyph unicode="&#x2026;" horiz-adv-x="808" d="M134 154q33 0 57 -23.5t24 -57.5q0 -36 -23.5 -58.5t-57.5 -22.5t-56.5 22t-22.5 59q0 35 22.5 58t56.5 23zM404 154q33 0 56.5 -23.5t23.5 -57.5q0 -37 -23 -59t-57 -22q-35 0 -57.5 22t-22.5 59q0 35 23 58t57 23zM673 154q33 0 57 -23.5t24 -57.5q0 -36 -23.5 -58.5 t-57.5 -22.5t-56.5 22t-22.5 59q0 35 22.5 58t56.5 23z" />
<glyph unicode="&#x202f;" horiz-adv-x="181" />
<glyph unicode="&#x2039;" horiz-adv-x="389" d="M341 402l-112 -137q-4 -4 0 -8l110 -134q8 -11 0 -18l-86 -71q-7 -6 -14 1l-194 219q-6 6 1 15l196 222q9 11 18 2l80 -71q10 -9 1 -20z" />
<glyph unicode="&#x203a;" horiz-adv-x="389" d="M165 264l-115 139q-9 11 -1 17l80 71q13 11 24 -2l190 -219q8 -10 1 -17l-193 -220q-8 -8 -14 -3l-91 74q-6 6 -1 13l119 141q1 1 1.5 3t-0.5 3z" />
<glyph unicode="&#x205f;" horiz-adv-x="227" />
<glyph unicode="&#x20ac;" horiz-adv-x="901" d="M711 419l-51 -60q-9 -11 -20 -11h-319q0 -20 5 -42h279q8 0 10 -5.5t-2 -8.5l-52 -61q-8 -9 -21 -9h-174q63 -81 167 -81q70 0 108.5 8.5t78.5 27.5q18 9 18 -7v-119q0 -15 -15 -22q-86 -39 -190 -39q-118 0 -212 64t-135 168h-114q-7 0 -10 5.5t2 11.5l43 56q9 11 25 11 h33q-3 21 -3 42h-90q-7 0 -10.5 3.5t2.5 13.5l41 55q9 12 22 12h43q28 124 129.5 204.5t233.5 80.5q105 0 189 -43q11 -6 13.5 -11t2.5 -16v-115q0 -21 -20 -9q-68 42 -185 42q-66 0 -119.5 -37t-77.5 -96h366q8 0 10.5 -4.5t-1.5 -8.5z" />
<glyph unicode="&#x2122;" horiz-adv-x="900" d="M634 301h-74q-6 0 -8 6l-66 201q-2 3 -3 1l-40 -202q-1 -6 -7 -6h-97q-7 0 -6 6l89 383q2 10 11 10h75q11 0 14 -10l74 -221q2 -5 4 1l73 220q3 10 12 10h77q8 0 10 -8l88 -384q2 -7 -4 -7h-99q-5 0 -7 5l-40 202l-2 2l-1 -2l-65 -201q-2 -6 -8 -6zM248 302h-89 q-9 0 -9 10v294q0 4 -5 4h-93q-14 0 -14 12v64q0 14 13 14h307q13 0 13 -13v-65q0 -12 -12 -12h-96q-5 0 -5 -4v-293q0 -11 -10 -11z" />
<glyph unicode="&#x25fc;" horiz-adv-x="465" d="M0 465h465v-465h-465v465z" />
<glyph unicode="&#xfb03;" horiz-adv-x="1042" d="M989 446v-429q0 -12 -3 -14.5t-13 -2.5h-119q-8 0 -11.5 0.5t-6 4t-2.5 11.5v308h-194q-6 0 -7.5 -2t-1.5 -9v-300q0 -13 -10 -13h-135q-6 0 -8 2.5t-2 12.5v300q0 6 -2 7.5t-9 1.5h-165q-6 0 -7.5 -2t-1.5 -9v-300q0 -13 -10 -13h-135q-6 0 -8 2.5t-2 12.5v300 q0 6 -2 7.5t-9 1.5h-95q-10 0 -12.5 2.5t-2.5 12.5v111q0 9 2 12t11 3h97q8 0 9.5 2.5t1.5 10.5v49q0 119 44.5 171t150.5 52q65 0 113 -19q11 -4 13 -8t2 -15v-111q0 -16 -15 -7q-27 17 -76 17q-48 0 -62.5 -18.5t-14.5 -68.5v-40q0 -10 2 -12.5t10 -2.5h162q8 0 9.5 2.5 t1.5 10.5v49q0 119 44.5 171t150.5 52q65 0 113 -19q11 -4 13 -8t2 -15v-111q0 -16 -15 -7q-27 17 -76 17q-48 0 -62.5 -18.5t-14.5 -68.5v-40q0 -10 2 -12.5t10 -2.5h331q15 0 15 -19zM911 740q42 0 71.5 -29t29.5 -72q0 -47 -29 -74.5t-72 -27.5q-44 0 -72 27.5t-28 74.5 q0 43 28.5 72t71.5 29z" />
</font>
</defs>
</svg>
