<?xml version="1.0" encoding="UTF-8" standalone="no"?>
<svg width="158px" height="201px" viewBox="0 0 158 201" version="1.1" xmlns="http://www.w3.org/2000/svg" xmlns:xlink="http://www.w3.org/1999/xlink">
    <!-- Generator: Sketch 3.8.3 (29802) - http://www.bohemiancoding.com/sketch -->
    <title>Pin</title>
    <desc>Created with Sketch.</desc>
    <defs>
        <filter x="-50%" y="-50%" width="200%" height="200%" filterUnits="objectBoundingBox" id="filter-1">
            <feOffset dx="0" dy="-6" in="SourceAlpha" result="shadowOffsetOuter1"></feOffset>
            <feGaussianBlur stdDeviation="10" in="shadowOffsetOuter1" result="shadowBlurOuter1"></feGaussianBlur>
            <feColorMatrix values="0 0 0 0 0.380392157   0 0 0 0 0.376470588   0 0 0 0 0.368627451  0 0 0 0.2 0" type="matrix" in="shadowBlurOuter1" result="shadowMatrixOuter1"></feColorMatrix>
            <feMerge>
                <feMergeNode in="shadowMatrixOuter1"></feMergeNode>
                <feMergeNode in="SourceGraphic"></feMergeNode>
            </feMerge>
        </filter>
    </defs>
    <g id="Page-1" stroke="none" stroke-width="1" fill="none" fill-rule="evenodd">
        <g id="Desktop-HD" transform="translate(-129.000000, -72.000000)">
            <g id="Pin" filter="url(#filter-1)" transform="translate(149.000000, 97.000000)">
                <path d="M59.3011102,112.60222 C29.9055479,112.60222 6,88.6877889 6,59.3011102 C6,29.9055479 29.9055479,6 59.3011102,6 C88.6966724,6 112.60222,29.9055479 112.60222,59.3011102 C112.60222,88.6877889 88.6966724,112.60222 59.3011102,112.60222" id="Path" fill="#FFFFFF"></path>
                <text id="PICK" font-family="Steagal-Medium, Steagal" font-size="28" font-weight="400" letter-spacing="1.86666667" fill="#494A43">
                    <tspan x="26.3946667" y="58">PICK</tspan>
                    <tspan x="40.1753333" y="89">UP</tspan>
                </text>
                <path d="M59.1126657,112.952817 C29.7171035,112.952817 5.81155556,89.0383854 5.81155556,59.6517067 C5.81155556,30.2561444 29.7171035,6.35059649 59.1126657,6.35059649 C88.508228,6.35059649 112.413776,30.2561444 112.413776,59.6517067 C112.413776,89.0383854 88.508228,112.952817 59.1126657,112.952817 M0.162432749,59.6488421 C0.162432749,86.6598363 18.861848,110.409076 44.9100351,116.860538 L55.9593918,136.850246 C56.358924,138.258433 57.6426667,139.227789 59.1098012,139.227789 C60.570386,139.227789 60.7749044,138.54508 62.2536608,136.850246 C63.7324172,135.155412 73.3030175,116.860538 73.3030175,116.860538 C99.3577544,110.409076 118.05717,86.6598363 118.05717,59.6488421 C118.05717,27.1426433 91.6094503,0.701473684 59.1098012,0.701473684 C26.6036023,0.701473684 0.162432749,27.1426433 0.162432749,59.6488421 Z" id="Fill-55" fill="#494A43"></path>
                <rect id="Rectangle-107" fill="#494A43" x="53" y="123" width="12" height="40" rx="6"></rect>
            </g>
        </g>
    </g>
</svg>