<?xml version="1.0" standalone="no"?>
<!DOCTYPE svg PUBLIC "-//W3C//DTD SVG 1.1//EN" "http://www.w3.org/Graphics/SVG/1.1/DTD/svg11.dtd" >
<svg xmlns="http://www.w3.org/2000/svg">
<metadata></metadata>
<defs>
<font id="steagalmedium" horiz-adv-x="551" >
<font-face units-per-em="1000" ascent="740" descent="-260" />
<missing-glyph horiz-adv-x="220" />
<glyph unicode="&#xfb01;" horiz-adv-x="704" d="M630 450v-436q0 -9 -2.5 -11.5t-9.5 -2.5h-85q-6 0 -8.5 0.5t-4.5 3.5t-2 9v350h-249q-6 0 -7.5 -2t-1.5 -9v-341q0 -11 -9 -11h-94q-9 0 -9 13v342q0 8 -10 8h-103q-7 0 -9.5 2.5t-2.5 9.5v78q0 7 2 9.5t9 2.5h104q7 0 8.5 1.5t1.5 8.5v75q0 108 38.5 154t128.5 46 q59 0 101 -19q12 -5 12 -18v-79q0 -13 -13 -5q-27 17 -75 17t-64 -22t-16 -78v-69q0 -8 1.5 -10t8.5 -2h348q12 0 12 -15zM574 714q31 0 53 -22t22 -54q0 -34 -21.5 -55t-53.5 -21q-33 0 -54 20.5t-21 55.5q0 32 21 54t54 22z" />
<glyph unicode="&#xfb02;" horiz-adv-x="675" d="M609 728v-716q0 -12 -12 -12h-89q-12 0 -12 14v349h-227q-6 0 -7.5 -2t-1.5 -9v-341q0 -11 -9 -11h-94q-9 0 -9 13v342q0 8 -10 8h-103q-7 0 -9.5 2.5t-2.5 9.5v78q0 7 2 9.5t9 2.5h104q7 0 8.5 1.5t1.5 8.5v75q0 108 38.5 154t128.5 46q59 0 101 -19q12 -5 12 -18v-79 q0 -13 -13 -5q-27 17 -75 17t-64 -22t-16 -78v-69q0 -8 1.5 -10t8.5 -2h226v263q0 12 10 12h91q7 0 9.5 -2t2.5 -10z" />
<glyph unicode="&#xfb04;" horiz-adv-x="1000" d="M675 646q-48 0 -63.5 -22t-15.5 -78v-69q0 -12 10 -12h214v263q0 12 11 12h90q8 0 10.5 -2t2.5 -10v-716q0 -12 -13 -12h-88q-13 0 -13 14v349h-216q-8 0 -8 -11v-341q0 -11 -9 -11h-95q-9 0 -9 13v342q0 8 -9 8h-205q-6 0 -7.5 -2t-1.5 -9v-341q0 -11 -9 -11h-94 q-9 0 -9 13v342q0 8 -10 8h-103q-7 0 -9.5 2.5t-2.5 9.5v78q0 7 2 9.5t9 2.5h104q7 0 8.5 1.5t1.5 8.5v75q0 108 38.5 154t128.5 46q59 0 101 -19q12 -5 12 -18v-79q0 -13 -13 -5q-27 17 -75 17t-64 -22t-16 -78v-69q0 -8 1.5 -10t8.5 -2h204q6 0 7.5 1.5t1.5 8.5v75 q0 107 38.5 153.5t128.5 46.5q61 0 101 -19q12 -5 12 -18v-79q0 -5 -3.5 -7t-8.5 2q-28 17 -76 17z" />
<glyph horiz-adv-x="1000" />
<glyph horiz-adv-x="1000" />
<glyph unicode="&#xd;" horiz-adv-x="1000" />
<glyph unicode=" "  horiz-adv-x="220" />
<glyph unicode="&#x09;" horiz-adv-x="220" />
<glyph unicode="&#xa0;" horiz-adv-x="220" />
<glyph unicode="!" horiz-adv-x="299" d="M208 712v-505q0 -10 -3 -13t-12 -3h-90q-12 0 -12 18v504q0 8 1.5 10.5t9.5 2.5h94q8 0 10 -3t2 -11zM149 123q29 0 49 -20t20 -48t-20 -47t-49 -19q-28 0 -47.5 19t-19.5 47t19.5 48t47.5 20z" />
<glyph unicode="&#x22;" horiz-adv-x="372" d="M71 700h75q19 0 19 -16v-236q0 -13 -11 -13h-88q-9 0 -11 2.5t-2 11.5v234q0 11 3.5 14t14.5 3zM219 700h88q8 0 10 -2.5t2 -11.5v-239q0 -12 -9 -12h-92q-11 0 -11 14v236q0 15 12 15z" />
<glyph unicode="#" horiz-adv-x="615" d="M62 429v68q0 9 7 9h128q7 0 8 8l36 186q1 7 9 7h75q10 0 7 -8l-38 -188q-1 -5 3 -5h88q6 0 7 6l37 187q3 8 10 8h70q7 0 9 -2t0 -10l-35 -181q-1 -8 4 -8h91q5 0 6.5 -1.5t1.5 -6.5v-68q0 -6 -1.5 -7t-7.5 -1h-106q-6 0 -8 -7l-23 -115q1 -11 6 -12h91q9 0 9 -10v-67 q0 -9 -8 -9h-112q-6 0 -7 -6l-36 -189q-1 -7 -10 -7h-72q-10 0 -8 9l37 187q1 4 -0.5 5t-5.5 1h-83q-8 0 -9 -5l-37 -189q-1 -8 -10 -8h-72q-9 0 -6 9l36 187q1 4 0 5t-5 1h-106q-6 0 -7 1.5t-1 7.5v67q0 10 9 10h121q7 0 8 7q1 2 1 3l23 118q2 6 -5 6h-112q-7 0 -7 7z M275 417l-23 -119q-2 -10 6 -10h82q7 0 9 7q1 2 1 3l23 118q1 6 -4 6h-87q-6 0 -7 -5z" />
<glyph unicode="$" horiz-adv-x="512" d="M468 198q0 -166 -154 -200v-89q0 -7 -2 -8.5t-8 -1.5h-90q-6 0 -8.5 2t-2.5 9v81q-84 6 -137 33q-10 5 -10 16v94q0 10 12 4q65 -44 145 -44q140 0 140 102q0 15 -4 29t-9.5 24t-17.5 20.5t-20 16.5t-25.5 15t-26 12.5t-29 12.5t-28.5 12q-64 30 -100 73t-36 123 q0 67 37.5 111.5t106.5 58.5v87q0 12 8 12h94q6 0 8 -1.5t2 -8.5v-86q64 -6 105 -29q9 -5 9 -17v-90q0 -10 -10 -5q-54 42 -129 42q-111 0 -111 -81q0 -21 7.5 -37t27.5 -30t33.5 -21t45.5 -21q7 -3 11 -5q38 -18 60 -31.5t50.5 -38.5t42 -61t13.5 -84z" />
<glyph unicode="%" horiz-adv-x="1168" d="M397 -12h-106q-4 0 -6 3t1 8l467 705q6 10 17 10h102q5 0 8 -3.5t0 -9.5l-467 -705q-5 -8 -16 -8zM281 287q-113 0 -172 60.5t-59 151.5t59 151t172 60t172.5 -60t59.5 -151t-59.5 -151.5t-172.5 -60.5zM281 376q53 0 83.5 34.5t30.5 88.5t-31 88t-83 34t-82 -34t-30 -88 t30 -88.5t82 -34.5zM886 -10q-113 0 -172 60.5t-59 151.5t59 151t172 60t172.5 -60t59.5 -151t-59.5 -151.5t-172.5 -60.5zM886 79q52 0 83 34t31 89q0 54 -31 88t-83 34t-82 -34t-30 -88q0 -55 30 -89t82 -34z" />
<glyph unicode="&#x26;" horiz-adv-x="675" d="M520 288l107 -1q10 0 1 -11q-83 -107 -91 -117q-2 -4 -1 -7l110 -139q3 -4 1.5 -8.5t-4.5 -4.5h-99q-8 0 -16 8l-64 80q-1 1 -5 0q-57 -50 -108 -74t-114 -24q-98 0 -144.5 46.5t-46.5 121.5q0 68 35.5 119.5t114.5 108.5q4 4 1 7q-41 50 -58.5 86t-17.5 74q0 70 51 114 t128 44q76 0 125.5 -41t49.5 -110q0 -56 -31.5 -97t-89.5 -86q-2 -1 0 -5l107 -141q4 -4 6 -1q21 25 35 49q7 9 18 9zM391 161l-122 155q-2 2 -4 0q-50 -36 -76 -70t-26 -74q0 -39 23.5 -65t68.5 -26q37 0 67 18t69 56q3 3 0 6zM285 449q3 -3 7 -1q39 31 56 55t17 55 q0 33 -17.5 51t-47.5 18t-50 -19t-20 -50q0 -42 55 -109z" />
<glyph unicode="'" horiz-adv-x="244" d="M79 700h85q14 0 14 -15v-224q0 -15 -14 -15h-81q-17 0 -17 13v228q0 13 13 13z" />
<glyph unicode="(" horiz-adv-x="333" d="M272 -94l-32 -36q-12 -14 -25 0q-79 88 -121 201t-42 232q0 117 41.5 227.5t121.5 196.5q4 4 10 4t9 -3l41 -40q6 -8 0 -19q-100 -166 -100 -371q0 -217 99 -368q9 -9 -2 -24z" />
<glyph unicode=")" horiz-adv-x="333" d="M96 -136l-38 45q-6 8 2 20q48 73 73.5 171.5t25.5 197.5q0 96 -27 195t-73 175q-7 11 -2 16l40 49q3 4 8 3t8 -5q82 -84 125 -197.5t43 -230.5q0 -119 -42.5 -234t-122.5 -201q-13 -13 -20 -4z" />
<glyph unicode="*" horiz-adv-x="534" d="M322 692l-24 -124q0 -5 5 -3l110 57q9 5 12 -2l34 -75q4 -8 -7 -10l-134 -23q-5 -1 -1 -4l91 -80q11 -8 4 -13l-74 -56q-7 -4 -13 6l-58 106q-3 5 -4 1l-58 -107q-6 -9 -15 -3l-69 51q-7 6 -1 12l93 83q4 4 0 5l-133 22q-11 2 -6 9l31 78q2 7 12 1l113 -58q4 -3 4 3 l-23 122q-3 10 6 10h98q9 0 7 -8z" />
<glyph unicode="+" horiz-adv-x="578" d="M346 205v-171q0 -13 -10 -13h-92q-10 0 -10 14v168q0 8 -9 8h-181q-7 0 -9.5 2t-2.5 9v72q0 7 2 9t10 2h184q6 0 6 7v171q0 12 9 12h93q6 0 8 -2.5t2 -10.5v-171q0 -6 4 -6h183q9 0 10.5 -2t1.5 -10v-71q0 -8 -2.5 -9.5t-11.5 -1.5h-180q-5 0 -5 -6z" />
<glyph unicode="," horiz-adv-x="279" d="M126 -98h-75q-12 0 -8 16l42 181q3 17 14 17h101q7 0 10 -4.5t1 -9.5l-71 -189q-4 -11 -14 -11z" />
<glyph unicode="-" horiz-adv-x="307" d="M278 208h-245q-8 0 -10.5 3t-2.5 11v69q0 11 13 11h241q13 0 13 -10v-75q0 -6 -1.5 -7.5t-7.5 -1.5z" />
<glyph unicode="." horiz-adv-x="232" d="M116 140q30 0 51.5 -21t21.5 -52q0 -33 -21 -53.5t-52 -20.5q-32 0 -52.5 20.5t-20.5 53.5q0 31 21 52t52 21z" />
<glyph unicode="/" horiz-adv-x="471" d="M457 719l-321 -754q-4 -12 -16 -12h-98q-5 0 -8 4.5t-1 10.5l322 757q5 12 15 12h97q17 0 10 -18z" />
<glyph unicode="0" horiz-adv-x="636" d="M50 350q0 159 72 259.5t196 100.5q123 0 195.5 -100.5t72.5 -259.5t-72.5 -259.5t-195.5 -100.5q-124 0 -196 100.5t-72 259.5zM174 350q0 -111 39.5 -181t104.5 -70q66 0 104.5 69.5t38.5 181.5q0 111 -38.5 181t-104.5 70q-65 0 -104.5 -70t-39.5 -181z" />
<glyph unicode="1" horiz-adv-x="319" d="M32 494l2 99q0 11 13 24l94 79q5 4 13 4h71q16 0 16 -15v-671q0 -10 -2.5 -12t-11.5 -2h-89q-10 0 -12.5 2.5t-2.5 12.5v540q0 4 -3 1l-78 -64q-2 -2 -6 -1.5t-4 3.5z" />
<glyph unicode="2" horiz-adv-x="550" d="M367 503q0 50 -31 74t-84 24q-100 0 -177 -57q-10 -7 -10 5l4 97q0 7 5 10q86 54 196 54q92 0 157 -45t65 -140q0 -71 -24.5 -125t-87.5 -115l-160 -170q-4 -4 -1 -4h262q14 0 14 -13v-85q0 -13 -16 -13h-413q-13 0 -13 11v93q0 8 8 16l222 226q84 84 84 157z" />
<glyph unicode="3" horiz-adv-x="557" d="M257 -10q-112 0 -198 45q-9 5 -9 15v96q0 11 15 3q89 -52 193 -52q59 0 96 28.5t37 82.5q0 58 -37 88t-98 30h-87q-11 0 -11 11l-1 80q0 9 11 9h76q55 0 83 27t28 68q0 35 -28.5 59t-83.5 24q-82 0 -153 -49q-10 -7 -10 4l-1 89q0 12 8 17q78 45 181 45q92 0 147 -43.5 t55 -125.5q0 -52 -24.5 -93.5t-75.5 -54.5q-4 -2 1 -2q58 -13 99 -58.5t41 -133.5q0 -45 -15 -81.5t-39.5 -60t-58 -39t-68.5 -22t-73 -6.5z" />
<glyph unicode="4" horiz-adv-x="540" d="M163 227h154q4 0 4 4v128q0 11 9 11h101q9 0 9 -9v-130q0 -4 3 -4h61q9 0 9 -10v-94q0 -6 -6 -6h-64q-3 0 -3 -3v-105q0 -9 -8 -9h-102q-9 0 -9 10v104q0 3 -4 3h-279q-11 0 -11 10v94q0 3 5 13l292 460q5 6 14 6h118q4 0 6 -3t-1 -7l-300 -458q-3 -5 2 -5z" />
<glyph unicode="5" horiz-adv-x="535" d="M241 581l-26 -122q-1 -6 6 -6q260 -3 260 -231q0 -60 -21 -106t-56.5 -73t-78.5 -40.5t-92 -13.5q-104 0 -188 39q-8 3 -8 13v99q0 10 10 4q78 -45 166 -45q38 0 70 10.5t56 39t24 71.5q0 130 -174 130h-99q-12 0 -9 11l66 330q3 9 11 9h294q11 0 11 -9v-93 q0 -10 -10 -10h-204q-7 0 -8 -7z" />
<glyph unicode="6" horiz-adv-x="607" d="M415 692l-173 -261v-1q2 0 4 2q36 33 101 33q83 0 146.5 -65.5t63.5 -167.5q0 -112 -74 -177t-179 -65q-106 0 -180 66.5t-74 177.5q0 46 18.5 97.5t33 76t40.5 62.5l145 227q6 7 13 7h109q14 0 6 -12zM166 228q0 -58 40 -95.5t98 -37.5q54 0 95.5 38t41.5 96 q0 61 -40.5 98t-95.5 37q-61 0 -100 -41t-39 -95z" />
<glyph unicode="7" horiz-adv-x="553" d="M363 589h-295q-13 0 -13 11v90q0 10 12 10h417q13 0 13 -11v-85q0 -4 -5 -17l-299 -579q-5 -8 -15 -8h-106q-7 0 -9 3.5t0 6.5l304 574q2 2 0.5 3.5t-4.5 1.5z" />
<glyph unicode="8" horiz-adv-x="615" d="M50 213q0 53 27 99.5t74 77.5q-67 56 -67 134q0 79 65.5 134.5t157.5 55.5t158 -55.5t66 -134.5q0 -80 -68 -133q47 -31 74.5 -78t27.5 -100q0 -94 -75 -158.5t-182 -64.5q-108 0 -183 64.5t-75 158.5zM161 213q0 -49 43 -83.5t104 -34.5t103.5 34.5t42.5 83.5t-42.5 83 t-103.5 34t-104 -34t-43 -83zM192 524q0 -35 34 -61t81 -26q48 0 82 26t34 61q0 37 -34 62.5t-82 25.5q-47 0 -81 -25.5t-34 -62.5z" />
<glyph unicode="9" horiz-adv-x="600" d="M192 8l170 262v1q-1 0 -4 -2q-36 -34 -100 -34q-82 0 -145 65.5t-63 167.5q0 112 73 177t177 65t177 -65t73 -172q0 -47 -18.5 -99.5t-32.5 -77t-40 -64.5l-144 -229q-3 -6 -13 -6h-105q-12 0 -5 11zM437 472q0 59 -40 97.5t-97 38.5q-54 0 -95.5 -39t-41.5 -98 q0 -63 40.5 -101t95.5 -38q60 0 99 42.5t39 97.5z" />
<glyph unicode=":" horiz-adv-x="240" d="M120 475q28 0 48 -19.5t20 -47.5t-20 -47.5t-48 -19.5q-29 0 -48.5 19.5t-19.5 47.5t20 47.5t48 19.5zM120 127q30 0 49 -19.5t19 -47.5q0 -29 -19 -48.5t-49 -19.5t-49 19.5t-19 48.5q0 28 19 47.5t49 19.5z" />
<glyph unicode=";" horiz-adv-x="260" d="M134 476q28 0 48 -20t20 -48t-19.5 -47.5t-48.5 -19.5q-28 0 -47.5 19.5t-19.5 47.5q0 29 19.5 48.5t47.5 19.5zM108 -109h-67q-7 0 -10.5 5.5t-1.5 15.5l40 170q5 19 22 19h94q17 0 10 -20l-68 -176q-6 -14 -19 -14z" />
<glyph unicode="&#x3c;" horiz-adv-x="506" d="M474 478v-85q0 -9 -7 -12l-291 -123q-5 -2 0 -5l290 -122q8 -3 8 -12v-81q0 -11 -10 -8l-422 179q-11 5 -11 14v64q0 13 12 17l419 179q12 5 12 -5z" />
<glyph unicode="=" horiz-adv-x="498" d="M47 383h392q13 0 13 -13v-69q0 -12 -15 -12h-390q-14 0 -14 10v72q0 12 14 12zM452 171v-72q0 -12 -14 -12h-392q-14 0 -14 11v75q0 9 11 9h397q12 0 12 -11z" />
<glyph unicode="&#x3e;" horiz-adv-x="506" d="M31 37v83q0 9 8 12l289 122q7 2 0 5l-288 121q-9 4 -9 13v83q0 10 10 6l423 -178q10 -4 10 -14v-67q0 -11 -7 -14l-425 -179q-11 -4 -11 7z" />
<glyph unicode="?" horiz-adv-x="512" d="M214 121q29 0 49.5 -19.5t20.5 -47.5t-20.5 -48t-49.5 -20q-28 0 -48 20t-20 48t20 47.5t48 19.5zM265 172h-93q-9 0 -11.5 3t-2.5 13v10q0 60 18 103t43 66t50.5 42.5t43.5 46.5t18 64q0 88 -114 88q-81 0 -144 -44q-7 -4 -10 -2t-3 6v100q0 6 6 10q62 37 174 37 q215 0 215 -181q0 -55 -18 -92.5t-43 -59t-50.5 -42.5t-43.5 -57t-18 -87v-10q0 -14 -17 -14z" />
<glyph unicode="@" horiz-adv-x="795" d="M415 28l-1 -65q0 -10 -11 -10q-175 4 -285.5 98t-110.5 259q0 90 34.5 163t91.5 119t127.5 70.5t146.5 24.5q147 0 254.5 -85t107.5 -214q0 -57 -20 -113t-68.5 -99.5t-116.5 -43.5q-41 0 -69 15.5t-37 41.5q-45 -54 -112 -54q-65 0 -108 41.5t-43 114.5q0 88 59.5 157 t161.5 69q77 0 114.5 -41t37.5 -102q0 -35 -13.5 -73.5t-13.5 -48.5q0 -32 35 -32q41 0 69 48.5t28 110.5q0 101 -77 161.5t-189 60.5q-59 0 -113 -19t-97 -54t-68.5 -91.5t-25.5 -126.5q0 -128 81.5 -195t215.5 -76q15 0 15 -11zM359 220q53 0 85.5 43.5t32.5 96.5 q0 73 -67 73q-54 0 -89 -42t-35 -94q0 -36 19 -56.5t54 -20.5z" />
<glyph unicode="A" horiz-adv-x="688" d="M20 16l316 682q9 19 17 2l315 -685q7 -15 -8 -15h-98q-12 0 -17 10l-57 128h-288l-56 -127q-5 -11 -20 -11h-98q-12 0 -6 16zM340 455l-92 -207h192l-91 207q-5 10 -9 0z" />
<glyph unicode="B" horiz-adv-x="563" d="M78 18v664q0 11 3 14.5t13 3.5h152q127 0 190 -40t63 -131q0 -58 -31.5 -97.5t-78.5 -48.5q142 -24 142 -180q0 -113 -69.5 -158t-197.5 -45h-170q-16 0 -16 18zM189 300v-183q0 -8 6 -8h73q82 0 113.5 24t31.5 72q0 101 -135 101h-81q-8 0 -8 -6zM189 587v-167 q0 -6 7 -6h60q58 0 93.5 22.5t35.5 68.5q0 51 -31.5 70t-95.5 19h-63q-6 0 -6 -7z" />
<glyph unicode="C" horiz-adv-x="649" d="M165 352q0 -104 73.5 -178t177.5 -74q103 0 178 36q16 8 16 -5v-85q0 -11 -13 -17q-87 -39 -181 -39q-152 0 -259 105.5t-107 256.5q0 150 107 256t259 106q102 0 179 -40q15 -9 15 -23v-80q0 -16 -18 -7q-74 41 -176 41q-104 0 -177.5 -74.5t-73.5 -178.5z" />
<glyph unicode="D" horiz-adv-x="686" d="M250 0h-158q-14 0 -14 17v670q0 13 10 13h160q186 0 287.5 -99.5t101.5 -250.5t-101.5 -250.5t-285.5 -99.5zM195 585v-465q0 -12 11 -12h61q121 0 186.5 69.5t65.5 167.5q0 104 -66 175t-195 71h-58q-5 0 -5 -6z" />
<glyph unicode="E" horiz-adv-x="512" d="M78 13v676q0 8 2.5 9.5t8.5 1.5h357q15 0 15 -11v-87q0 -7 -2.5 -9t-10.5 -2h-250q-2 0 -2 -2v-173q0 -3 2 -3h252q11 0 11 -16v-71q0 -22 -12 -22h-250q-3 0 -3 -3v-189q0 -3 3 -3h252q10 0 10 -21v-71q0 -17 -16 -17h-354h-6.5t-3.5 1.5t-2.5 4t-0.5 7.5z" />
<glyph unicode="F" horiz-adv-x="487" d="M78 16v663q0 14 3.5 17.5t13.5 3.5h344q11 0 14.5 -3t3.5 -14v-73q0 -8 -0.5 -11t-4 -5t-11.5 -2h-241q-4 0 -4 -4v-160q0 -3 2 -3h246q10 0 10 -11v-87q0 -11 -11 -11h-244q-3 0 -3 -5v-294q0 -11 -3.5 -14t-14.5 -3h-87q-8 0 -10.5 3.5t-2.5 12.5z" />
<glyph unicode="G" horiz-adv-x="757" d="M172 352q0 -104 73 -178t176 -74q88 0 147 24v181q0 14 -12 14h-175q-13 0 -13 16v80q0 14 13 14h288q11 0 14 -3t3 -13v-343q0 -16 -14 -24q-114 -56 -259 -56q-155 1 -259 101t-104 261t109.5 261.5t271.5 100.5q127 0 231 -55q13 -7 13 -17v-88q0 -17 -19 -3 q-86 54 -225 54q-118 0 -188.5 -72.5t-70.5 -180.5z" />
<glyph unicode="H" horiz-adv-x="677" d="M184 0h-93q-13 0 -13 12v674q0 14 12 14h95q11 0 11 -12v-272q0 -3 3 -3h277q5 0 5 4v271q0 12 13 12h90q15 0 15 -17v-671q0 -12 -12 -12h-89q-17 0 -17 16v279q0 8 -8 8h-274q-3 0 -3 -3v-287q0 -13 -12 -13z" />
<glyph unicode="I" horiz-adv-x="273" d="M183 0h-91q-10 0 -12 2.5t-2 12.5v671q0 9 2 11.5t11 2.5h93q12 0 12 -12v-674q0 -14 -13 -14z" />
<glyph unicode="J" horiz-adv-x="379" d="M301 687v-452q0 -238 -273 -245q-14 0 -14 12v85q0 8 2.5 11t11.5 3q155 0 155 158v428q0 13 12 13h96q10 0 10 -13z" />
<glyph unicode="K" horiz-adv-x="600" d="M185 0h-96q-7 0 -9 2.5t-2 10.5v676q0 11 7 11h101q10 0 10 -11v-300l248 305q4 6 10 6h110q12 0 5 -9l-261 -330q-3 -3 1 -7l273 -339q12 -15 -7 -15h-102q-15 0 -25 14l-252 313v-313q0 -9 -2 -11.5t-9 -2.5z" />
<glyph unicode="L" horiz-adv-x="448" d="M418 0h-319q-14 0 -17.5 3.5t-3.5 17.5v668q0 11 8 11h92q11 0 14.5 -4t3.5 -15v-560q0 -4 1 -5t5 -1h216q15 0 15 -16v-82q0 -10 -3 -13.5t-12 -3.5z" />
<glyph unicode="M" horiz-adv-x="841" d="M753 0h-90q-9 0 -11.5 3t-2.5 11v413q0 6 -3.5 6t-6.5 -3l-209 -231q-13 -13 -25 0l-208 227q-6 6 -9.5 4t-3.5 -10v-407q0 -13 -10 -13h-90q-10 0 -12 2.5t-2 12.5v678q0 5 2.5 7t5 1.5t3.5 -2.5l326 -342q7 -7 10 -7t10 6l321 339q5 7 10.5 5t5.5 -11v-677 q0 -7 -2 -9.5t-9 -2.5z" />
<glyph unicode="N" horiz-adv-x="692" d="M615 691v-688q0 -4 -2 -5.5t-4.5 -0.5t-4.5 4l-413 432v-422q0 -11 -9 -11h-96q-8 0 -8 11v682q0 16 13 4l410 -436v430q0 9 6 9h99q9 0 9 -9z" />
<glyph unicode="O" horiz-adv-x="834" d="M50 352q0 150 107.5 256t259.5 106t259.5 -106t107.5 -256q0 -151 -107.5 -256.5t-259.5 -105.5t-259.5 105.5t-107.5 256.5zM165 352q0 -104 74 -178t178 -74t177 74t73 178q0 105 -73 179t-177 74t-178 -74.5t-74 -178.5z" />
<glyph unicode="P" horiz-adv-x="576" d="M90 700h148q159 0 223.5 -58.5t64.5 -163.5q0 -219 -272 -219h-43q-9 0 -12 -2.5t-3 -11.5v-229q0 -16 -14 -16h-92q-12 0 -12 11v677q0 12 12 12zM196 578v-194q0 -9 2.5 -12t11.5 -3h49q144 0 144 111t-145 111h-51q-7 0 -9 -2.5t-2 -10.5z" />
<glyph unicode="Q" horiz-adv-x="833" d="M50 352q0 150 107.5 256t259.5 106t259.5 -106t107.5 -256q0 -90 -41.5 -167.5t-112.5 -127.5l105 -162q15 -24 -13 -24h-80q-13 0 -19 3.5t-15 17.5l-75 116q-59 -18 -116 -18q-152 0 -259.5 105.5t-107.5 256.5zM165 352q0 -104 74 -178t178 -74q27 0 54 6l-69 108 q-8 13 -5.5 18t18.5 5h80q10 0 14 -1t9 -5t10 -14l41 -65q46 35 72 87.5t26 112.5q0 105 -73 179t-177 74t-178 -74.5t-74 -178.5z" />
<glyph unicode="R" horiz-adv-x="636" d="M92 700h162q78 0 132 -14.5t83.5 -43t41.5 -63t12 -81.5q0 -155 -118 -202l235 -279q5 -5 4 -11t-10 -6h-114q-12 0 -20 11l-221 263h-72q-11 0 -11 -13v-248q0 -13 -13 -13h-93q-12 0 -12 13v671q0 16 14 16zM196 580v-185q0 -8 2 -10t9 -2h54q71 0 105 25t34 79 q0 56 -34.5 80t-105.5 24h-54q-7 0 -8.5 -1.5t-1.5 -9.5z" />
<glyph unicode="S" horiz-adv-x="517" d="M471 198q0 -108 -63.5 -158t-167.5 -50q-100 0 -171 34q-10 5 -10 16v94q0 10 12 4q65 -44 145 -44q140 0 140 102q0 15 -4 29t-9.5 24t-17.5 20.5t-20 16.5t-25.5 15t-26 12.5t-29 12.5t-28.5 12q-64 30 -100 73t-36 123q0 82 55 129t152 47q98 0 154 -32q9 -5 9 -17 v-90q0 -10 -10 -5q-54 42 -129 42q-111 0 -111 -81q0 -21 7.5 -37t27.5 -30t33.5 -21t45.5 -21q7 -3 11 -5q38 -18 60 -31.5t50.5 -38.5t42 -61t13.5 -84z" />
<glyph unicode="T" horiz-adv-x="543" d="M323 0h-101q-9 0 -11 1.5t-2 10.5v568q0 11 -8 11h-209q-7 0 -9 1.5t-2 8.5v88q0 11 10 11h560q12 0 12 -9v-91q0 -9 -11 -9h-211q-8 0 -8 -10v-567q0 -14 -10 -14z" />
<glyph unicode="U" horiz-adv-x="671" d="M477 268v419q0 13 10 13h101q13 0 13 -12v-423q0 -275 -260 -275q-263 0 -263 275v424q0 5 0.5 7t2 3t6.5 1h103q7 0 9 -2.5t2 -10.5v-419q0 -161 140 -161q136 0 136 161z" />
<glyph unicode="V" horiz-adv-x="635" d="M313 -1l-295 688q-6 13 6 13h107q11 0 16 -11l166 -435q5 -10 8 0l166 433q2 5 2.5 6t2.5 3.5t4 3t6 0.5h109q12 0 7 -12l-297 -689q-4 -8 -8 0z" />
<glyph unicode="W" horiz-adv-x="979" d="M675 12l-185 422l-185 -423q-7 -16 -11.5 -16t-10.5 16l-265 677q-2 4 -1.5 7t2.5 4t8 1h106q8 0 12 -10l158 -428l173 408q9 22 14 22t14 -22l173 -410l156 422q5 13 7.5 15.5t10.5 2.5h102q14 0 8 -17l-263 -671q-5 -12 -8 -15t-6 0t-9 15z" />
<glyph unicode="X" horiz-adv-x="574" d="M21 14l200 342q7 12 -1 25l-201 307q-8 12 5 12h101q15 0 21 -10l133 -204q9 -16 22 5l129 199q6 10 21 10h99q6 0 7.5 -4t-2.5 -8l-198 -304q-10 -15 -3 -26l201 -343q9 -15 -3 -15h-98q-20 0 -26 13l-133 239q-8 12 -16 1l-129 -236q-9 -17 -27 -17h-96q-18 0 -6 14z " />
<glyph unicode="Y" horiz-adv-x="614" d="M361 0h-104q-10 0 -10 15v331q0 12 -6 24l-222 315q-11 15 7 15h101q13 0 17 -10l158 -221q4 -7 5.5 -9t3.5 0t5 9l151 217q11 14 17 14h104q16 0 8 -15l-220 -317q-5 -9 -5 -24v-332q0 -12 -10 -12z" />
<glyph unicode="Z" horiz-adv-x="548" d="M43 24l279 563q5 12 -5 12h-219q-10 0 -14.5 3.5t-4.5 14.5v68q0 15 17 15h380q26 0 14 -23l-277 -563q-5 -12 8 -12h268q14 0 17.5 -3t3.5 -16v-69q0 -9 -3.5 -11.5t-13.5 -2.5h-440q-22 0 -10 24z" />
<glyph unicode="[" horiz-adv-x="288" d="M64 724h157q8 0 11 -2.5t3 -9.5v-61q0 -9 -11 -9h-50q-7 0 -7 -9v-699q0 -5 1.5 -6.5t6.5 -1.5h51q6 0 7.5 -1.5t1.5 -6.5v-64q0 -7 -2 -8.5t-8 -1.5h-160q-8 0 -10.5 3t-2.5 11v855q0 11 12 11z" />
<glyph unicode="\" horiz-adv-x="346" d="M253 -10l-303 711q-4 9 6 9h100q9 0 13 -8l301 -710q5 -10 -6 -10h-99q-9 0 -12 8z" />
<glyph unicode="]" horiz-adv-x="288" d="M64 724h154q11 0 14 -3.5t3 -13.5v-848q0 -15 -12 -15h-161q-10 0 -10 15v55q0 8 2 10t12 2h43q12 0 12 11v692q0 8 -2 10.5t-10 2.5h-44q-8 0 -10.5 2t-2.5 10v59q0 11 12 11z" />
<glyph unicode="^" horiz-adv-x="611" d="M446 354l-125 143q-16 19 -36 -4l-120 -138q-13 -15 -20 -16t-23 11l-45 38q-15 13 -14.5 20t15.5 22l206 216q21 19 44 -4l206 -214q20 -21 4 -36l-51 -43q-15 -11 -22 -10t-19 15z" />
<glyph unicode="_" horiz-adv-x="458" d="M442 -98h-427q-9 0 -12 2.5t-3 12.5v71q0 12 12 12h425h4q6 0 8.5 -0.5t4 -3.5t1.5 -9v-70q0 -9 -2 -12t-11 -3z" />
<glyph unicode="`" horiz-adv-x="265" d="M132 745l-106 108q-5 5 -6 9t1.5 6.5t8.5 2.5h93q22 0 32 -14l83 -109q3 -5 4 -9.5t-2 -7t-8 -2.5h-64q-20 0 -36 16z" />
<glyph unicode="a" d="M399 15l-5 16q-74 -41 -162 -41q-84 0 -128.5 38t-44.5 107q0 75 50 116t140 41q66 0 127 -24v31q0 77 -126 77q-73 0 -129 -28q-6 -4 -10 -2t-4 8v80q0 14 11 18q69 23 154 23q97 0 155 -44.5t58 -137.5v-282q0 -11 -10 -11h-58q-8 0 -11 2.5t-7 12.5zM165 139 q0 -25 23.5 -41.5t60.5 -16.5q70 0 127 30v67q-54 22 -126 22q-36 0 -60.5 -17t-24.5 -44z" />
<glyph unicode="b" horiz-adv-x="602" d="M177 729v-304q63 50 144 50q95 0 163 -65.5t68 -178.5q0 -111 -68.5 -176t-162.5 -65q-89 0 -159 61l-17 -43q-5 -8 -11 -8h-59q-10 0 -10 11v718q0 11 13 11h88q11 0 11 -11zM443 231q0 64 -39.5 106t-98.5 42q-80 0 -128 -65v-165q46 -63 128 -63q56 0 97 40.5 t41 104.5z" />
<glyph unicode="c" horiz-adv-x="479" d="M163 232q0 -62 43.5 -104t112.5 -42q61 0 107 23q8 4 8 -5v-77q0 -9 -8 -12q-56 -25 -122 -25q-106 0 -180 70.5t-74 171.5t74 172t180 71q58 0 116 -25q14 -7 14 -17v-77q0 -11 -12 -4q-46 26 -103 26q-69 0 -112.5 -42.5t-43.5 -103.5z" />
<glyph unicode="d" horiz-adv-x="597" d="M284 475q74 0 135 -47v300q0 12 11 12h87q14 0 14 -11v-718q0 -11 -10 -11h-59q-6 0 -11 8l-16 41q-67 -59 -151 -59q-97 0 -165.5 65.5t-68.5 178.5q0 112 69 176.5t165 64.5zM159 234q0 -64 40 -106t100 -42q73 0 120 56v181q-47 56 -120 56q-57 0 -98.5 -40.5 t-41.5 -104.5z" />
<glyph unicode="e" d="M505 238v-24q0 -12 -11 -12h-336q14 -116 147 -116q72 0 120 25q14 5 14 -6v-69q0 -14 -9 -18q-59 -28 -142 -28q-123 0 -182.5 68t-59.5 170q0 111 66.5 179t164.5 68t163 -65.5t65 -171.5zM277 386q-43 0 -72.5 -26.5t-41.5 -72.5h234q-11 46 -41.5 72.5t-78.5 26.5z " />
<glyph unicode="f" horiz-adv-x="444" d="M340 646q-48 0 -64 -22t-16 -78v-69q0 -8 1.5 -10t8.5 -2h112q8 0 10.5 -2t2.5 -11v-77q0 -8 -2.5 -10t-9.5 -2h-114q-6 0 -7.5 -2t-1.5 -9v-341q0 -11 -9 -11h-94q-9 0 -9 13v342q0 8 -10 8h-103q-7 0 -9.5 2.5t-2.5 9.5v78q0 7 2 9.5t9 2.5h104q7 0 8.5 1.5t1.5 8.5v75 q0 108 38.5 154t128.5 46q59 0 101 -19q12 -5 12 -18v-79q0 -13 -13 -5q-27 17 -75 17z" />
<glyph unicode="g" horiz-adv-x="600" d="M419 31v7q-59 -48 -138 -48q-97 0 -166 65.5t-69 178.5q0 111 69.5 176t165.5 65q76 0 138 -50v15q0 16 3.5 20.5t16.5 4.5h77q12 0 15 -3t3 -18v-412q0 -67 -22.5 -116.5t-60 -75.5t-77 -38t-81.5 -12q-84 0 -146 23q-12 4 -12 19v77q0 15 15 8q60 -24 123 -24 q146 0 146 138zM155 234q0 -64 40.5 -106t100.5 -42q77 0 123 61v171q-46 61 -123 61q-57 0 -99 -40.5t-42 -104.5z" />
<glyph unicode="h" horiz-adv-x="595" d="M185 728v-304q62 51 157 51q91 0 139 -52.5t48 -154.5v-256q0 -12 -13 -12h-89q-11 0 -11 12v239q0 122 -103 122q-70 0 -128 -56v-304q0 -13 -13 -13h-89q-10 0 -10 12v714q0 9 2.5 11.5t10.5 2.5h84q15 0 15 -12z" />
<glyph unicode="i" horiz-adv-x="260" d="M130 714q31 0 53 -22t22 -54q0 -34 -21.5 -55t-53.5 -21q-33 0 -54 20.5t-21 55.5q0 32 21.5 54t53.5 22zM186 450v-436q0 -9 -2.5 -11.5t-9.5 -2.5h-85q-6 0 -8.5 0.5t-4.5 3.5t-2 9v436q0 8 2 11.5t5.5 4t12.5 0.5h80q12 0 12 -15z" />
<glyph unicode="j" horiz-adv-x="267" d="M133 717q31 0 53 -22t22 -54q0 -34 -21.5 -55t-53.5 -21q-33 0 -54 20.5t-21 55.5q0 32 21.5 54t53.5 22zM60 -189q-37 0 -59 7q-10 3 -13 7t-3 14v67q0 16 16 12q28 -6 38 -6q20 0 28.5 12t8.5 43v485q0 13 11 13h89q12 0 12 -11v-494q0 -77 -31.5 -113t-96.5 -36z" />
<glyph unicode="k" horiz-adv-x="532" d="M383 7l-191 194q-4 4 -5 3.5t-1 -7.5v-180q0 -17 -13 -17h-86q-14 0 -14 16v704q0 13 2 16.5t9 3.5h91q5 0 7 -0.5t3 -4t1 -11.5v-439q0 -8 5 -3l190 177q6 6 17 6h111q11 0 2 -11l-215 -207q-8 -6 -1 -12l219 -222q6 -6 4 -9.5t-8 -3.5h-111q-10 0 -16 7z" />
<glyph unicode="l" horiz-adv-x="252" d="M186 728v-716q0 -12 -12 -12h-89q-7 0 -9.5 3t-2.5 11v714q0 12 10 12h91q8 0 10 -2t2 -10z" />
<glyph unicode="m" horiz-adv-x="855" d="M180 454v-15q58 36 134 36q93 0 135 -65q28 31 74 48t95 17q84 0 127.5 -52.5t43.5 -154.5v-256q0 -12 -12 -12h-91q-11 0 -11 12v246q0 115 -93 115q-56 0 -103 -43q5 -32 5 -62v-258q0 -10 -11 -10h-90q-12 0 -12 13v245q0 115 -94 115q-54 0 -98 -38l-1 -324 q0 -11 -11 -11h-87q-14 0 -14 11v443q0 11 10 11h91q13 0 13 -11z" />
<glyph unicode="n" horiz-adv-x="578" d="M180 454v-21q58 42 145 42q91 0 139 -52.5t48 -154.5v-256q0 -12 -13 -12h-89q-11 0 -11 12v239q0 122 -103 122q-65 0 -117 -45l-1 -317q0 -11 -11 -11h-87q-14 0 -14 11v443q0 11 10 11h91q13 0 13 -11z" />
<glyph unicode="o" horiz-adv-x="587" d="M46 232q0 101 72.5 172t175.5 71t175 -71t72 -172t-72 -171.5t-175 -70.5t-175.5 70.5t-72.5 171.5zM155 232q0 -58 40.5 -98.5t98.5 -40.5q57 0 97.5 40.5t40.5 98.5t-40.5 98.5t-97.5 40.5q-58 0 -98.5 -40.5t-40.5 -98.5z" />
<glyph unicode="p" horiz-adv-x="607" d="M185 457v-30q61 48 141 48q96 0 163.5 -65.5t67.5 -178.5q0 -111 -68.5 -176t-162.5 -65q-79 0 -141 46v-238q0 -12 -11 -12h-88q-13 0 -13 12v656q0 11 10 11h91q11 0 11 -8zM448 231q0 64 -39.5 106t-97.5 42q-79 0 -126 -61v-173q47 -59 126 -59q55 0 96 40.5 t41 104.5z" />
<glyph unicode="q" horiz-adv-x="593" d="M415 -203l-2 234q-57 -41 -129 -41q-97 0 -165.5 65.5t-68.5 178.5q0 112 69 176.5t165 64.5q68 0 127 -41v19q0 12 11 12h94q7 0 9 -2t2 -9v-657q0 -11 -11 -11h-92q-9 0 -9 11zM159 234q0 -64 40 -106t100 -42q68 0 114 49l-2 196q-45 48 -112 48q-57 0 -98.5 -40.5 t-41.5 -104.5z" />
<glyph unicode="r" horiz-adv-x="407" d="M80 465h77q12 0 14 -14l3 -43q51 67 137 67q37 0 69 -12q10 -4 10 -14v-71q0 -13 -12 -8q-23 10 -63 10q-73 0 -136 -71v-298q0 -7 -2 -9t-9 -2h-91q-11 0 -11 10v437q0 12 2.5 15t11.5 3z" />
<glyph unicode="s" horiz-adv-x="455" d="M257 383q-89 0 -89 -43q0 -17 17.5 -28.5t43.5 -17.5t56 -17t56 -26t43.5 -46.5t17.5 -76.5q0 -138 -191 -138q-99 0 -151 26q-9 4 -9 18v76q0 5 3.5 6.5t8.5 -1.5q52 -33 130 -33q98 0 98 50q0 24 -24.5 38.5t-59 23.5t-69 22.5t-59 45.5t-24.5 83q0 57 47.5 93.5 t133.5 36.5q85 0 131 -22q11 -6 14.5 -10t3.5 -14v-65q0 -18 -19 -8q-49 27 -109 27z" />
<glyph unicode="t" horiz-adv-x="408" d="M361 66v-65q0 -11 -13 -11q-113 2 -166 46t-53 147v180h-104q-12 0 -12 11v78q0 13 13 13h103v170q0 14 11 14h89q8 0 10.5 -3t2.5 -11v-170h113h5t4 -0.5t2.5 -2l1 -3t0.5 -4.5v-81q0 -7 -1.5 -9t-9.5 -2h-115v-165q0 -62 27.5 -88.5t79.5 -28.5q8 0 10 -3t2 -12z" />
<glyph unicode="u" horiz-adv-x="553" d="M276 -10q-106 0 -161.5 55t-55.5 162v239q0 19 20 19h77q10 0 13.5 -4t3.5 -15v-236q0 -125 103 -125q104 0 104 125v236q0 19 17 19h83q13 0 13 -13v-245q0 -217 -217 -217z" />
<glyph unicode="v" horiz-adv-x="512" d="M249 3l-234 451q-5 11 6 11h95q13 0 16 -8l124 -258l124 258q3 8 14 8h97q12 0 6 -12l-234 -449q-7 -14 -14 -1z" />
<glyph unicode="w" horiz-adv-x="815" d="M229 6l-214 447q-5 12 7 12h92q12 0 18 -9l118 -259l149 261q8 15 18 1l147 -264l120 261q4 9 12 9h97q11 0 7 -12l-213 -446q-8 -16 -20 -1l-160 275l-160 -275q-10 -14 -18 0z" />
<glyph unicode="x" horiz-adv-x="500" d="M363 465h107q5 0 6.5 -3.5t-0.5 -6.5l-163 -219l172 -226q2 -3 0.5 -6.5t-5.5 -3.5h-104q-6 0 -12 6l-114 150l-115 -151q-4 -5 -14 -5h-102q-4 0 -5 3t2 7l172 226l-164 219q-2 3 0.5 6.5t7.5 3.5h105q7 0 12 -6l101 -140l100 138q6 8 13 8z" />
<glyph unicode="y" horiz-adv-x="530" d="M515 452l-331 -659q-2 -7 -11 -7h-101q-4 0 -6 3t0 6l142 284l-188 375q-6 11 6 11h95q13 0 16 -8l128 -266l131 261q6 13 17 13h94q6 0 8.5 -4.5t-0.5 -8.5z" />
<glyph unicode="z" horiz-adv-x="457" d="M37 13l205 365h-178q-12 0 -12 12v65q0 10 11 10h329q16 0 10 -12l-207 -367h207q16 0 16 -12v-60q0 -14 -16 -14h-358q-14 0 -7 13z" />
<glyph unicode="{" horiz-adv-x="374" d="M52 245v54q0 9 13 13q66 23 66 114v117q0 157 132 157h47q8 0 10 -2.5t2 -8.5v-66q0 -9 -11 -10q-33 -4 -47.5 -21t-14.5 -51v-103q0 -59 -18 -98t-76 -69q58 -29 76 -68t18 -98v-102q0 -34 14.5 -51.5t47.5 -20.5q11 -1 11 -12v-64q0 -12 -11 -12h-48q-132 0 -132 157 v118q0 91 -68 114q-11 3 -11 13z" />
<glyph unicode="|" horiz-adv-x="304" d="M208 717v-874q0 -10 -11 -10h-91q-10 0 -10 10v875q0 11 12 11h90q10 0 10 -12z" />
<glyph unicode="}" horiz-adv-x="374" d="M322 293v-50q0 -3 -2 -6t-3.5 -3.5t-4.5 -2t-4 -1.5q-65 -23 -65 -112v-118q0 -157 -132 -157h-46q-13 0 -13 14v60q0 13 17 14q57 9 57 72v102q0 54 20.5 93t85.5 73q-66 35 -86 74t-20 93v103q0 71 -63 72q-11 0 -11 10v69q0 8 9 8h50q132 0 132 -157v-117 q0 -80 55 -109q3 -1 8 -3.5l7 -3.5t4.5 -3t3.5 -5.5t1 -8.5z" />
<glyph unicode="~" horiz-adv-x="555" d="M363 160q-36 0 -89 28t-80 28q-40 0 -65 -36q-9 -12 -20 -8l-63 26q-15 5 -4 24q29 48 68.5 73.5t79.5 25.5q37 0 95.5 -27.5t84.5 -27.5q35 0 57 34q9 15 20 9l55 -24q17 -8 8 -26q-50 -99 -147 -99z" />
<glyph unicode="&#xa0;" horiz-adv-x="267" d="M258 208h-245q-8 0 -10.5 3t-2.5 11v69q0 11 13 11h241q13 0 13 -10v-75q0 -6 -1.5 -7.5t-7.5 -1.5z" />
<glyph unicode="&#xa1;" horiz-adv-x="327" d="M114 200h97q10 0 10 -13v-354q0 -8 -2 -10.5t-9 -2.5h-96q-9 0 -9 12v357q0 11 9 11zM163 226q-28 0 -47.5 19.5t-19.5 47.5q0 29 19.5 48.5t47.5 19.5q29 0 48.5 -19.5t19.5 -48.5q0 -28 -20 -47.5t-48 -19.5z" />
<glyph unicode="&#xa2;" horiz-adv-x="482" d="M163 232q0 -62 43.5 -104t112.5 -42q61 0 107 23q8 4 8 -5v-77q0 -9 -8 -12q-41 -18 -89 -23v-54q0 -8 -9 -8h-93q-7 0 -8.5 2t-1.5 8v62q-78 23 -126.5 86.5t-48.5 143.5t48.5 143.5t126.5 87.5v67q0 12 10 12h93q9 0 9 -11v-58q45 -6 83 -23q14 -7 14 -17v-77 q0 -11 -12 -4q-46 26 -103 26q-69 0 -112.5 -42.5t-43.5 -103.5z" />
<glyph unicode="&#xa3;" horiz-adv-x="586" d="M430 294h-130q-3 0 -3 -6q9 -45 9 -65q0 -34 -20 -69.5t-69 -56.5q-1 -1 1 -2h321q7 0 7 -6v-83q0 -6 -7 -6h-483q-7 0 -7 6v79q0 7 6 8q66 27 95.5 60.5t29.5 79.5q0 26 -6 56q-1 5 -6 5h-104q-8 0 -8 9v80q0 8 9 8h91q6 0 4 6q-13 62 -13 101q0 216 221 216 q69 0 140 -20q11 -2 11 -13v-70q0 -9 -12 -8q-80 20 -122 20q-114 0 -114 -123q0 -16 2 -33.5t5.5 -37.5t4.5 -32q1 -6 9 -6h136q12 0 12 -11v-76q0 -10 -10 -10z" />
<glyph unicode="&#xa4;" horiz-adv-x="621" d="M537 57l-39 -29q-10 -7 -21 4l-51 52q-57 -27 -134 -27q-74 0 -133 26l-49 -51q-12 -12 -23 -3l-40 30q-8 6 0 16l46 54q-60 63 -60 161q0 99 62 161l-46 54q-9 13 0 18l41 32q9 7 17 -1l55 -58q55 25 130 25q77 0 132 -26l55 57q9 9 20 2l39 -30q11 -8 2 -19l-50 -56 q61 -61 61 -159q0 -97 -60 -160l47 -52q10 -11 -1 -21zM292 146q64 0 102 40.5t38 103.5t-37.5 102.5t-102.5 39.5t-102.5 -39.5t-37.5 -102.5t38 -103.5t102 -40.5z" />
<glyph unicode="&#xa5;" horiz-adv-x="506" d="M301 0h-96q-11 0 -11 11v95q0 4 -4 4h-179q-8 0 -8 8v80q0 7 10 7h178q3 0 3 4v48q0 4 -4 4h-178q-9 0 -9 8v79q0 8 10 8h148q3 0 2 3l-159 303q-8 14 7 14h107q8 0 11 -7l121 -239q3 -6 6 0l119 238q3 8 11 8h111q13 0 7 -11l-161 -305q-3 -4 2 -4h143q16 0 16 -16v-65 q0 -14 -15 -14h-172q-4 0 -4 -4v-48q0 -4 4 -4h173q14 0 14 -15v-65q0 -15 -14 -15h-174q-3 0 -3 -4v-92q0 -14 -12 -14z" />
<glyph unicode="&#xa6;" horiz-adv-x="304" d="M208 687v-359q0 -10 -11 -10h-92q-9 0 -9 14v358q0 9 11 9h89q12 0 12 -12zM208 220v-351q0 -12 -11 -12h-90q-7 0 -9 2.5t-2 9.5v352q0 12 9 12h93q10 0 10 -13z" />
<glyph unicode="&#xa7;" horiz-adv-x="443" d="M266 642q-95 0 -95 -62q0 -31 24 -50.5t58.5 -30.5t69.5 -26t59 -48t24 -85q0 -91 -82 -128q69 -39 69 -123q0 -152 -199 -152q-86 0 -145 13q-7 3 -6 7l10 54q1 9 13 7q72 -13 127 -13q98 0 98 73q0 32 -24.5 50.5t-59 29.5t-69.5 25t-59.5 47.5t-24.5 86.5q0 93 82 126 q-69 39 -69 126q0 76 47 108.5t136 32.5q73 0 136 -12q8 -1 7 -10l-8 -51q-2 -6 -10 -5q-58 10 -109 10zM303 330q0 42 -48 66q-97 -8 -97 -69q0 -44 54 -68q91 8 91 71z" />
<glyph unicode="&#xa8;" horiz-adv-x="367" d="M99 861q28 0 48 -20t20 -47q0 -28 -20 -47t-48 -19t-47.5 19t-19.5 47q0 27 19.5 47t47.5 20zM267 861q27 0 47.5 -20t20.5 -47t-20.5 -46.5t-47.5 -19.5q-28 0 -47.5 19t-19.5 47q0 27 19.5 47t47.5 20z" />
<glyph unicode="&#xa9;" horiz-adv-x="809" d="M403 -13q-154 0 -260.5 105.5t-106.5 244.5q0 144 108.5 246.5t260.5 102.5q158 0 263 -105t105 -253q0 -76 -32 -141.5t-84.5 -108.5t-118.5 -67t-135 -24zM403 35q122 0 215.5 82t93.5 212t-87.5 220t-219.5 90q-128 0 -217.5 -88t-89.5 -214q0 -119 87.5 -210.5 t217.5 -91.5zM331 335q0 -38 25.5 -64t65.5 -26q27 0 57 17q10 5 16 -1l51 -52q6 -8 -2 -16q-52 -45 -130 -45q-91 0 -144 55t-53 132q0 76 53 132t144 56q77 0 133 -47q8 -6 1 -13l-54 -55q-7 -7 -16 0q-27 17 -56 17q-40 0 -65.5 -26t-25.5 -64z" />
<glyph unicode="&#xaa;" horiz-adv-x="479" d="M24 527q0 83 47.5 133t129.5 50q76 0 115 -56q3 2 3 6v30q0 10 8 10h97q10 0 10 -11v-331q0 -7 -9 -7h-98q-8 0 -8 8v31l-1 6q-1 0 -2 -2q-39 -53 -112 -53q-84 0 -132 51t-48 135zM138 525q0 -43 25 -66t66 -23q40 0 65 24t25 65q0 42 -25 66t-66 24q-40 0 -65 -23.5 t-25 -66.5z" />
<glyph unicode="&#xab;" horiz-adv-x="603" d="M481 471l61 -51q2 -2 2.5 -6t-1.5 -6l-125 -155q-2 -3 0 -7l127 -152q8 -5 -2 -12l-64 -49q-8 -6 -15 4l-178 205q-6 9 0 15l180 212q7 7 15 2zM256 471l59 -51q8 -7 2 -13l-126 -153q-3 -5 0 -8l125 -149q9 -9 0 -16l-60 -49q-7 -6 -13 0l-184 210q-7 9 0 16l182 209 q7 9 15 4z" />
<glyph unicode="&#xac;" horiz-adv-x="582" d="M42 353h497q12 0 12 -10v-249q0 -11 -8 -11h-88q-12 0 -12 13v161q0 5 -4 5h-395q-12 0 -12 11v69q0 11 10 11z" />
<glyph unicode="&#xad;" horiz-adv-x="267" d="M258 208h-245q-8 0 -10.5 3t-2.5 11v69q0 11 13 11h241q13 0 13 -10v-75q0 -6 -1.5 -7.5t-7.5 -1.5z" />
<glyph unicode="&#xae;" horiz-adv-x="810" d="M404 -13q-155 0 -257.5 99.5t-102.5 250.5q0 157 104 253t257 96q158 0 260 -99t102 -259q0 -76 -31.5 -141.5t-83 -108.5t-116.5 -67t-132 -24zM404 35q77 0 144 31.5t111.5 100t44.5 162.5q0 141 -83.5 225.5t-215.5 84.5q-129 0 -214.5 -82t-85.5 -220 q0 -131 84.5 -216.5t214.5 -85.5zM381 529q69 0 107.5 -35t38.5 -83q0 -30 -15.5 -57.5t-44.5 -44.5q-1 -1 0 -3l79 -147q2 -3 0 -6.5t-7 -3.5h-58q-7 0 -11 7l-58 107q-3 2 -16 10.5t-17 12.5t-4 -3v-121q0 -13 -8 -13h-55q-8 0 -8 12v352q0 6 5 7q41 9 72 9zM375 465v-111 q0 -5 4 -5q34 -4 55 15t21 45q0 25 -21 43.5t-55 17.5q-4 0 -4 -5z" />
<glyph unicode="&#xaf;" horiz-adv-x="323" d="M32 742v73q0 10 10 10h239q10 0 10 -9v-74q0 -9 -9 -9h-240q-10 0 -10 9z" />
<glyph unicode="&#xb0;" horiz-adv-x="398" d="M199 687q31 0 57 -41.5t26 -94.5q0 -55 -26 -95.5t-57 -40.5q-32 0 -58 41t-26 95t27 95t57 41z" />
<glyph unicode="&#xb1;" horiz-adv-x="583" d="M346 206v-164q0 -14 -14 -14h-85q-13 0 -13 17v161q0 5 -4 5h-185q-8 0 -10.5 2.5t-2.5 10.5v69q0 8 2.5 10t10.5 2h186q3 0 3 4v173q0 13 10 13h94q8 0 8 -12v-173q0 -5 4 -5h184q7 0 9 -2t2 -9v-73q0 -10 -9 -10h-187q-3 0 -3 -5zM539 -112h-491q-13 0 -13 12v73 q0 13 11 13h494q10 0 10 -11v-74q0 -13 -11 -13z" />
<glyph unicode="&#xb2;" horiz-adv-x="449" d="M292 635q0 66 -80 66q-70 0 -78 -50q-1 -10 -9 -10h-79q-11 0 -8 12q19 127 178 127q49 0 87 -11t66 -43.5t28 -84.5q0 -84 -76 -140l-139 -121q-4 -4 0 -4h215q8 0 8 -9v-59q0 -8 -9 -8h-350q-7 0 -7 8v61q0 7 6 12l181 155q66 51 66 99z" />
<glyph unicode="&#xb3;" horiz-adv-x="411" d="M204 293q-84 0 -131 26t-63 84q-3 12 9 13l76 12q12 3 17 -8q23 -45 90 -45q82 0 82 70q0 36 -23.5 55t-61.5 19h-40q-7 0 -10 2t-5 10l-13 50q-3 10 9 10h37q42 0 61.5 16t19.5 40t-16 40t-48 16q-49 0 -63 -32q-5 -11 -16 -8l-71 12q-6 1 -8.5 5.5t0.5 10.5 q42 88 163 88q72 0 116 -30.5t44 -89.5q0 -80 -75 -96q-2 -1 1 -2q105 -19 105 -124q0 -41 -17 -71t-45.5 -45t-59 -21.5t-64.5 -6.5z" />
<glyph unicode="&#xb4;" horiz-adv-x="225" d="M94 729h-73q-4 0 -6 3.5t1 8.5l86 110q6 11 18 11h98q7 0 9 -5t-3 -9l-113 -112q-9 -7 -17 -7z" />
<glyph unicode="&#xb5;" horiz-adv-x="595" d="M406 195v258q0 12 9 12h94q9 0 9 -10v-444q0 -11 -7 -11h-88q-7 0 -7 10v43l-1 4q-1 1 -2 -1q-50 -66 -153 -66q-43 0 -78 11v-180q0 -11 -11 -11h-93q-9 0 -9 12v634q0 3 1 4q0 1 1 1q1 2 6 4h94q4 0 5 -1l2 -2q4 -3 4 -8v-259q0 -115 108 -115q52 0 84 29t32 86z" />
<glyph unicode="&#xb6;" horiz-adv-x="546" d="M469 687v-801q0 -12 -11 -12h-58q-7 0 -9 2t-2 9v738q0 6 -5 6h-48q-4 0 -4 -5v-740q0 -10 -10 -10h-59q-10 0 -10 11v414q-2 4 -3 4q-90 2 -145 57.5t-55 138.5q0 88 62.5 144.5t162.5 56.5h182q7 0 9.5 -2.5t2.5 -10.5z" />
<glyph unicode="&#xb7;" horiz-adv-x="287" d="M148 319q28 0 48 -19.5t20 -47.5t-20 -48t-48 -20t-48 20t-20 48t20 47.5t48 19.5z" />
<glyph unicode="&#xb8;" horiz-adv-x="231" d="M152 -2l-13 -30q-2 -4 1 -4q75 -7 80 -71q3 -65 -78 -83q-19 -4 -43 -4q-35 0 -73 10q-8 3 -8 11l2 21q0 9 14 7q15 -3 44 -3q63 0 60 37q-3 35 -64 35q-9 0 -5 8l28 66h55z" />
<glyph unicode="&#xb9;" horiz-adv-x="307" d="M74 640l-41 39q-12 12 5 23l86 63q10 8 21 8h74q21 0 21 -24v-421q0 -28 -21 -28h-66q-19 0 -19 20v337q0 10 -8 4l-30 -22q-11 -9 -22 1z" />
<glyph unicode="&#xba;" horiz-adv-x="449" d="M24 527q0 80 61 131.5t146 51.5t146 -51.5t61 -131.5q0 -81 -60.5 -133.5t-146.5 -52.5t-146.5 52.5t-60.5 133.5zM323 525q0 43 -26 66.5t-66 23.5q-41 0 -67 -23.5t-26 -66.5t26 -66t67 -23t66.5 23t25.5 66z" />
<glyph unicode="&#xbb;" horiz-adv-x="603" d="M61 419l60 52q9 5 16 -3l175 -205q10 -13 0 -26l-175 -203q-6 -6 -13 -2l-63 49q-9 7 0 16l123 148q4 5 0 10l-125 153q-6 6 2 11zM287 419l61 51q6 6 12 -1l183 -210q9 -9 0 -18l-183 -209q-6 -7 -12 -1l-62 52q-8 5 -1 12l127 151q4 4 0 7l-126 154q-5 8 1 12z" />
<glyph unicode="&#xbc;" horiz-adv-x="1033" d="M364 -43h-93q-13 0 -7 14l314 738q5 12 16 12h94q5 0 7 -4.5t0 -9.5l-316 -741q-5 -9 -15 -9zM104 567l-41 39q-12 12 5 23l86 63q10 8 21 8h74q21 0 21 -24v-421q0 -28 -21 -28h-66q-19 0 -19 20v337q0 10 -8 4l-30 -22q-11 -9 -22 1zM794 -7q-84 0 -131 26t-63 84 q-3 12 9 13l76 12q12 3 17 -8q23 -45 90 -45q82 0 82 70q0 36 -23.5 55t-61.5 19h-40q-7 0 -10 2t-5 10l-13 50q-3 10 9 10h37q42 0 61.5 16t19.5 40t-16 40t-48 16q-49 0 -63 -32q-5 -11 -16 -8l-71 12q-6 1 -8.5 5.5t0.5 10.5q42 88 163 88q72 0 116 -30.5t44 -89.5 q0 -80 -75 -96q-2 -1 1 -2q105 -19 105 -124q0 -41 -17 -71t-45.5 -45t-59 -21.5t-64.5 -6.5z" />
<glyph unicode="&#xbd;" horiz-adv-x="1048" d="M363 -43h-92q-12 0 -7 14l314 739q5 11 17 11h93q6 0 8.5 -4t0.5 -8l-316 -743q-4 -9 -18 -9zM104 567l-41 39q-12 12 5 23l86 63q10 8 21 8h74q21 0 21 -24v-421q0 -28 -21 -28h-66q-19 0 -19 20v337q0 10 -8 4l-30 -22q-11 -9 -22 1zM882 335q0 66 -80 66 q-70 0 -78 -50q-1 -10 -9 -10h-79q-11 0 -8 12q19 127 178 127q49 0 87 -11t66 -43.5t28 -84.5q0 -84 -76 -140l-139 -121q-4 -4 0 -4h215q8 0 8 -9v-59q0 -8 -9 -8h-350q-7 0 -7 8v61q0 7 6 12l181 155q66 51 66 99z" />
<glyph unicode="&#xbe;" horiz-adv-x="1180" d="M483 -43h-97q-11 0 -6 10l315 741q2 5 2.5 6t2.5 3.5t4.5 3t6.5 0.5h94q13 0 9 -12l-318 -745q-3 -7 -13 -7zM238 221q-84 0 -131 26t-63 84q-3 12 9 13l76 12q12 3 17 -8q23 -45 90 -45q82 0 82 70q0 36 -23.5 55t-61.5 19h-40q-7 0 -10 2t-5 10l-13 50q-3 10 9 10h37 q42 0 61.5 16t19.5 40t-16 40t-48 16q-49 0 -63 -32q-5 -11 -16 -8l-71 12q-6 1 -8.5 5.5t0.5 10.5q42 88 163 88q72 0 116 -30.5t44 -89.5q0 -80 -75 -96q-2 -1 1 -2q105 -19 105 -124q0 -41 -17 -71t-45.5 -45t-59 -21.5t-64.5 -6.5zM829 168h131q3 0 3 4v289q0 8 7 8h85 q9 0 9 -9v-289q0 -3 3 -3h45q9 0 9 -8v-59q0 -9 -9 -9h-45q-3 0 -3 -3v-84q0 -9 -10 -9h-81q-10 0 -10 11v80q0 5 -4 5h-224q-9 0 -9 9v61q0 6 3 14l84 234q1 7 9 7h80q9 0 5 -9l-81 -237q0 -3 3 -3z" />
<glyph unicode="&#xbf;" d="M341 282v-34q0 -35 -18 -66.5t-43.5 -55.5t-51 -47t-43.5 -50.5t-18 -56.5q0 -41 30.5 -64t77.5 -23q41 0 73.5 18t39.5 55q3 13 12 13h95q10 0 9 -13q-6 -171 -229 -171q-229 0 -229 183q0 41 18 75.5t43.5 58.5t51.5 45.5t44 46t18 50.5v38q0 11 10 11h100q10 0 10 -13 zM281 343q-29 0 -49.5 19.5t-20.5 46.5q0 28 20.5 47.5t49.5 19.5t48.5 -19.5t19.5 -47.5t-19.5 -47t-48.5 -19z" />
<glyph unicode="&#xc0;" horiz-adv-x="688" d="M20 16l316 682q9 19 17 2l315 -685q7 -15 -8 -15h-98q-12 0 -17 10l-57 128h-288l-56 -127q-5 -11 -20 -11h-98q-12 0 -6 16zM340 455l-92 -207h192l-91 207q-5 10 -9 0zM285 745l-106 108q-5 5 -6 9t1.5 6.5t8.5 2.5h93q22 0 32 -14l83 -109q3 -5 4 -9.5t-2 -7t-8 -2.5 h-64q-20 0 -36 16z" />
<glyph unicode="&#xc1;" horiz-adv-x="688" d="M20 16l316 682q9 19 17 2l315 -685q7 -15 -8 -15h-98q-12 0 -17 10l-57 128h-288l-56 -127q-5 -11 -20 -11h-98q-12 0 -6 16zM340 455l-92 -207h192l-91 207q-5 10 -9 0zM380 729h-73q-4 0 -6 3.5t1 8.5l86 110q6 11 18 11h98q7 0 9 -5t-3 -9l-113 -112q-9 -7 -17 -7z " />
<glyph unicode="&#xc2;" horiz-adv-x="688" d="M20 16l316 682q9 19 17 2l315 -685q7 -15 -8 -15h-98q-12 0 -17 10l-57 128h-288l-56 -127q-5 -11 -20 -11h-98q-12 0 -6 16zM340 455l-92 -207h192l-91 207q-5 10 -9 0zM327 860h31q9 0 16 -7l119 -115q4 -3 3.5 -6.5t-5.5 -3.5h-49q-7 0 -14 4l-79 51q-2 1 -7 1t-7 -1 l-79 -51q-7 -4 -14 -4h-48q-5 0 -6 3.5t3 6.5l120 115q6 7 16 7z" />
<glyph unicode="&#xc3;" horiz-adv-x="688" d="M20 16l316 682q9 19 17 2l315 -685q7 -15 -8 -15h-98q-12 0 -17 10l-51 115h-300l-50 -114q-5 -11 -20 -11h-98q-12 0 -6 16zM340 455l-97 -220h203l-97 220q-5 10 -9 0zM390 734q-20 0 -53 16t-45 16q-21 0 -38 -25q-4 -7 -10 -4l-29 30q-6 5 -3 10q34 64 89 64 q20 0 52.5 -15t45.5 -15q29 0 39 24q3 6 9 3l30 -30q5 -4 3 -8q-34 -66 -90 -66z" />
<glyph unicode="&#xc4;" horiz-adv-x="688" d="M20 16l316 682q9 19 17 2l315 -685q7 -15 -8 -15h-98q-12 0 -17 10l-57 128h-288l-56 -127q-5 -11 -20 -11h-98q-12 0 -6 16zM340 455l-92 -207h192l-91 207q-5 10 -9 0zM260 861q28 0 48 -20t20 -47q0 -28 -20 -47t-48 -19t-47.5 19t-19.5 47q0 27 19.5 47t47.5 20z M428 861q27 0 47.5 -20t20.5 -47t-20.5 -46.5t-47.5 -19.5q-28 0 -47.5 19t-19.5 47q0 27 19.5 47t47.5 20z" />
<glyph unicode="&#xc5;" horiz-adv-x="688" d="M20 16l316 682q9 19 17 2l315 -685q7 -15 -8 -15h-98q-12 0 -17 10l-57 128h-288l-56 -127q-5 -11 -20 -11h-98q-12 0 -6 16zM340 455l-92 -207h192l-91 207q-5 10 -9 0zM459 811q0 -32 -30.5 -55t-83.5 -23q-54 0 -84.5 23t-30.5 55q0 31 31 54.5t84 23.5t83.5 -23.5 t30.5 -54.5zM345 778q19 0 29.5 10t10.5 23q0 12 -10.5 21.5t-29.5 9.5t-29.5 -9.5t-10.5 -21.5q0 -13 10.5 -23t29.5 -10z" />
<glyph unicode="&#xc6;" horiz-adv-x="1020" d="M502 13v135h-259l-83 -135q-8 -13 -32 -13h-83q-21 0 -5 25l405 664q7 11 29 11h396q15 0 15 -11v-87q0 -7 -2.5 -9t-10.5 -2h-250q-2 0 -2 -2v-173q0 -3 2 -3h252q11 0 11 -16v-71q0 -22 -12 -22h-250q-3 0 -3 -3v-189q0 -3 3 -3h252q10 0 10 -21v-71q0 -17 -16 -17 h-354h-6.5t-3.5 1.5t-2.5 4t-0.5 7.5zM308 252h194v312z" />
<glyph unicode="&#xc7;" horiz-adv-x="649" d="M165 352q0 -104 73.5 -178t177.5 -74q103 0 178 36q16 8 16 -5v-85q0 -11 -13 -17q-75 -35 -161 -39l-5 -12q-2 -4 1 -4q75 -7 80 -71q3 -65 -78 -83q-19 -4 -43 -4q-35 0 -73 10q-8 3 -8 11l2 21q0 9 14 7q15 -3 44 -3q63 0 60 37q-3 35 -64 35q-9 0 -5 8l21 50 q-141 12 -236.5 115t-95.5 245q0 150 107 256t259 106q102 0 179 -40q15 -9 15 -23v-80q0 -16 -18 -7q-74 41 -176 41q-104 0 -177.5 -74.5t-73.5 -178.5z" />
<glyph unicode="&#xc8;" horiz-adv-x="512" d="M78 13v676q0 8 2.5 9.5t8.5 1.5h357q15 0 15 -11v-87q0 -7 -2.5 -9t-10.5 -2h-250q-2 0 -2 -2v-173q0 -3 2 -3h252q11 0 11 -16v-71q0 -22 -12 -22h-250q-3 0 -3 -3v-189q0 -3 3 -3h252q10 0 10 -21v-71q0 -17 -16 -17h-354h-6.5t-3.5 1.5t-2.5 4t-0.5 7.5zM217 745 l-106 108q-5 5 -6 9t1.5 6.5t8.5 2.5h93q22 0 32 -14l83 -109q3 -5 4 -9.5t-2 -7t-8 -2.5h-64q-20 0 -36 16z" />
<glyph unicode="&#xc9;" horiz-adv-x="512" d="M78 13v676q0 8 2.5 9.5t8.5 1.5h357q15 0 15 -11v-87q0 -7 -2.5 -9t-10.5 -2h-250q-2 0 -2 -2v-173q0 -3 2 -3h252q11 0 11 -16v-71q0 -22 -12 -22h-250q-3 0 -3 -3v-189q0 -3 3 -3h252q10 0 10 -21v-71q0 -17 -16 -17h-354h-6.5t-3.5 1.5t-2.5 4t-0.5 7.5zM313 729h-73 q-4 0 -6 3.5t1 8.5l86 110q6 11 18 11h98q7 0 9 -5t-3 -9l-113 -112q-9 -7 -17 -7z" />
<glyph unicode="&#xca;" horiz-adv-x="512" d="M78 13v676q0 8 2.5 9.5t8.5 1.5h357q15 0 15 -11v-87q0 -7 -2.5 -9t-10.5 -2h-250q-2 0 -2 -2v-173q0 -3 2 -3h252q11 0 11 -16v-71q0 -22 -12 -22h-250q-3 0 -3 -3v-189q0 -3 3 -3h252q10 0 10 -21v-71q0 -17 -16 -17h-354h-6.5t-3.5 1.5t-2.5 4t-0.5 7.5zM255 860h31 q9 0 16 -7l119 -115q4 -3 3.5 -6.5t-5.5 -3.5h-49q-7 0 -14 4l-79 51q-2 1 -7 1t-7 -1l-79 -51q-7 -4 -14 -4h-48q-5 0 -6 3.5t3 6.5l120 115q6 7 16 7z" />
<glyph unicode="&#xcb;" horiz-adv-x="512" d="M78 13v676q0 8 2.5 9.5t8.5 1.5h357q15 0 15 -11v-87q0 -7 -2.5 -9t-10.5 -2h-250q-2 0 -2 -2v-173q0 -3 2 -3h252q11 0 11 -16v-71q0 -22 -12 -22h-250q-3 0 -3 -3v-189q0 -3 3 -3h252q10 0 10 -21v-71q0 -17 -16 -17h-354h-6.5t-3.5 1.5t-2.5 4t-0.5 7.5zM193 861 q28 0 48 -20t20 -47q0 -28 -20 -47t-48 -19t-47.5 19t-19.5 47q0 27 19.5 47t47.5 20zM361 861q27 0 47.5 -20t20.5 -47t-20.5 -46.5t-47.5 -19.5q-28 0 -47.5 19t-19.5 47q0 27 19.5 47t47.5 20z" />
<glyph unicode="&#xcc;" horiz-adv-x="268" d="M183 0h-91q-10 0 -12 2.5t-2 12.5v671q0 9 2 11.5t11 2.5h93q12 0 12 -12v-674q0 -14 -13 -14zM79 745l-106 108q-5 5 -6 9t1.5 6.5t8.5 2.5h93q22 0 32 -14l83 -109q3 -5 4 -9.5t-2 -7t-8 -2.5h-64q-20 0 -36 16z" />
<glyph unicode="&#xcd;" horiz-adv-x="268" d="M180 0h-91q-10 0 -12 2.5t-2 12.5v671q0 9 2 11.5t11 2.5h93q12 0 12 -12v-674q0 -14 -13 -14zM175 729h-73q-4 0 -6 3.5t1 8.5l86 110q6 11 18 11h98q7 0 9 -5t-3 -9l-113 -112q-9 -7 -17 -7z" />
<glyph unicode="&#xce;" horiz-adv-x="268" d="M183 0h-91q-10 0 -12 2.5t-2 12.5v671q0 9 2 11.5t11 2.5h93q12 0 12 -12v-674q0 -14 -13 -14zM122 860h31q9 0 16 -7l119 -115q4 -3 3.5 -6.5t-5.5 -3.5h-49q-7 0 -14 4l-79 51q-2 1 -7 1t-7 -1l-79 -51q-7 -4 -14 -4h-48q-5 0 -6 3.5t3 6.5l120 115q6 7 16 7z" />
<glyph unicode="&#xcf;" horiz-adv-x="268" d="M180 0h-91q-10 0 -12 2.5t-2 12.5v671q0 9 2 11.5t11 2.5h93q12 0 12 -12v-674q0 -14 -13 -14zM49 861q28 0 48 -20t20 -47q0 -28 -20 -47t-48 -19t-47.5 19t-19.5 47q0 27 19.5 47t47.5 20zM217 861q27 0 47.5 -20t20.5 -47t-20.5 -46.5t-47.5 -19.5q-28 0 -47.5 19 t-19.5 47q0 27 19.5 47t47.5 20z" />
<glyph unicode="&#xd0;" horiz-adv-x="687" d="M252 0h-158q-14 0 -14 17v280h-61q-8 0 -10.5 3t-2.5 11v69q0 11 13 11h61v296q0 13 10 13h160q186 0 287.5 -99.5t101.5 -250.5t-101.5 -250.5t-285.5 -99.5zM197 585v-194h113q13 0 13 -10v-75q0 -6 -1.5 -7.5t-7.5 -1.5h-117v-177q0 -12 11 -12h61q121 0 186.5 69.5 t65.5 167.5q0 104 -66 175t-195 71h-58q-5 0 -5 -6z" />
<glyph unicode="&#xd1;" horiz-adv-x="692" d="M615 691v-688q0 -4 -2 -5.5t-4.5 -0.5t-4.5 4l-413 432v-422q0 -11 -9 -11h-96q-8 0 -8 11v682q0 16 13 4l410 -436v430q0 9 6 9h99q9 0 9 -9zM388 746q-20 0 -53 16t-45 16q-21 0 -38 -25q-4 -7 -10 -4l-29 30q-6 5 -3 10q34 64 89 64q20 0 52.5 -15t45.5 -15 q29 0 39 24q3 6 9 3l30 -30q5 -4 3 -8q-34 -66 -90 -66z" />
<glyph unicode="&#xd2;" horiz-adv-x="834" d="M50 352q0 150 107.5 256t259.5 106t259.5 -106t107.5 -256q0 -151 -107.5 -256.5t-259.5 -105.5t-259.5 105.5t-107.5 256.5zM165 352q0 -104 74 -178t178 -74t177 74t73 178q0 105 -73 179t-177 74t-178 -74.5t-74 -178.5zM357 757l-106 108q-5 5 -6 9t1.5 6.5t8.5 2.5 h93q22 0 32 -14l83 -109q3 -5 4 -9.5t-2 -7t-8 -2.5h-64q-20 0 -36 16z" />
<glyph unicode="&#xd3;" horiz-adv-x="834" d="M50 352q0 150 107.5 256t259.5 106t259.5 -106t107.5 -256q0 -151 -107.5 -256.5t-259.5 -105.5t-259.5 105.5t-107.5 256.5zM165 352q0 -104 74 -178t178 -74t177 74t73 178q0 105 -73 179t-177 74t-178 -74.5t-74 -178.5zM453 741h-73q-4 0 -6 3.5t1 8.5l86 110 q6 11 18 11h98q7 0 9 -5t-3 -9l-113 -112q-9 -7 -17 -7z" />
<glyph unicode="&#xd4;" horiz-adv-x="834" d="M50 352q0 150 107.5 256t259.5 106t259.5 -106t107.5 -256q0 -151 -107.5 -256.5t-259.5 -105.5t-259.5 105.5t-107.5 256.5zM165 352q0 -104 74 -178t178 -74t177 74t73 178q0 105 -73 179t-177 74t-178 -74.5t-74 -178.5zM395 872h31q9 0 16 -7l119 -115q4 -3 3.5 -6.5 t-5.5 -3.5h-49q-7 0 -14 4l-79 51q-2 1 -7 1t-7 -1l-79 -51q-7 -4 -14 -4h-48q-5 0 -6 3.5t3 6.5l120 115q6 7 16 7z" />
<glyph unicode="&#xd5;" horiz-adv-x="834" d="M50 352q0 150 107.5 256t259.5 106t259.5 -106t107.5 -256q0 -151 -107.5 -256.5t-259.5 -105.5t-259.5 105.5t-107.5 256.5zM165 352q0 -104 74 -178t178 -74t177 74t73 178q0 105 -73 179t-177 74t-178 -74.5t-74 -178.5zM463 746q-21 0 -54 16t-44 16q-21 0 -38 -25 q-5 -7 -10 -4l-29 30q-6 5 -3 10q34 64 89 64q20 0 52.5 -15t45.5 -15q28 0 39 24q3 6 9 3l30 -30q5 -4 3 -8q-34 -66 -90 -66z" />
<glyph unicode="&#xd6;" horiz-adv-x="834" d="M50 352q0 150 107.5 256t259.5 106t259.5 -106t107.5 -256q0 -151 -107.5 -256.5t-259.5 -105.5t-259.5 105.5t-107.5 256.5zM165 352q0 -104 74 -178t178 -74t177 74t73 178q0 105 -73 179t-177 74t-178 -74.5t-74 -178.5zM333 873q28 0 48 -20t20 -47q0 -28 -20 -47 t-48 -19t-47.5 19t-19.5 47q0 27 19.5 47t47.5 20zM501 873q27 0 47.5 -20t20.5 -47t-20.5 -46.5t-47.5 -19.5q-28 0 -47.5 19t-19.5 47q0 27 19.5 47t47.5 20z" />
<glyph unicode="&#xd7;" horiz-adv-x="575" d="M286 189l-181 -167l-73 71l179 164l-182 169l75 66l181 -166l183 166l75 -68l-182 -167l178 -163q-13 -12 -36.5 -36.5t-35.5 -35.5z" />
<glyph unicode="&#xd8;" horiz-adv-x="834" d="M638 733l-31 -72q81 -48 129 -130t48 -179q0 -151 -107.5 -256.5t-259.5 -105.5q-45 0 -91 11l-9 -22q-5 -12 -16 -12h-98q-5 0 -8 4.5t-1 10.5l27 63q-79 49 -125 130t-46 177q0 150 107.5 256t259.5 106q45 0 84 -10l15 35q5 12 15 12h97q18 0 10 -18zM667 352 q0 62 -28 116t-76 89l-193 -453q20 -4 47 -4q104 0 177 74t73 178zM165 352q0 -61 27 -114t73 -88l192 451q-26 4 -40 4q-104 0 -178 -74.5t-74 -178.5z" />
<glyph unicode="&#xd9;" horiz-adv-x="671" d="M477 268v419q0 13 10 13h101q13 0 13 -12v-423q0 -275 -260 -275q-263 0 -263 275v424q0 5 0.5 7t2 3t6.5 1h103q7 0 9 -2.5t2 -10.5v-419q0 -161 140 -161q136 0 136 161zM280 757l-106 108q-5 5 -6 9t1.5 6.5t8.5 2.5h93q22 0 32 -14l83 -109q3 -5 4 -9.5t-2 -7 t-8 -2.5h-64q-20 0 -36 16z" />
<glyph unicode="&#xda;" horiz-adv-x="671" d="M477 268v419q0 13 10 13h101q13 0 13 -12v-423q0 -275 -260 -275q-263 0 -263 275v424q0 5 0.5 7t2 3t6.5 1h103q7 0 9 -2.5t2 -10.5v-419q0 -161 140 -161q136 0 136 161zM376 741h-73q-4 0 -6 3.5t1 8.5l86 110q6 11 18 11h98q7 0 9 -5t-3 -9l-113 -112q-9 -7 -17 -7z " />
<glyph unicode="&#xdb;" horiz-adv-x="671" d="M477 268v419q0 13 10 13h101q13 0 13 -12v-423q0 -275 -260 -275q-263 0 -263 275v424q0 5 0.5 7t2 3t6.5 1h103q7 0 9 -2.5t2 -10.5v-419q0 -161 140 -161q136 0 136 161zM318 872h31q9 0 16 -7l119 -115q4 -3 3.5 -6.5t-5.5 -3.5h-49q-7 0 -14 4l-79 51q-2 1 -7 1 t-7 -1l-79 -51q-7 -4 -14 -4h-48q-5 0 -6 3.5t3 6.5l120 115q6 7 16 7z" />
<glyph unicode="&#xdc;" horiz-adv-x="671" d="M477 268v419q0 13 10 13h101q13 0 13 -12v-423q0 -275 -260 -275q-263 0 -263 275v424q0 5 0.5 7t2 3t6.5 1h103q7 0 9 -2.5t2 -10.5v-419q0 -161 140 -161q136 0 136 161zM256 873q28 0 48 -20t20 -47q0 -28 -20 -47t-48 -19t-47.5 19t-19.5 47q0 27 19.5 47t47.5 20z M424 873q27 0 47.5 -20t20.5 -47t-20.5 -46.5t-47.5 -19.5q-28 0 -47.5 19t-19.5 47q0 27 19.5 47t47.5 20z" />
<glyph unicode="&#xdd;" horiz-adv-x="614" d="M361 0h-104q-10 0 -10 15v331q0 12 -6 24l-222 315q-11 15 7 15h101q13 0 17 -10l158 -221q4 -7 5.5 -9t3.5 0t5 9l151 217q11 14 17 14h104q16 0 8 -15l-220 -317q-5 -9 -5 -24v-332q0 -12 -10 -12zM342 742h-73q-4 0 -6 4t1 8l86 110q6 11 18 11h98q7 0 9 -4.5t-3 -9.5 l-113 -112q-9 -7 -17 -7z" />
<glyph unicode="&#xde;" horiz-adv-x="576" d="M92 0q-14 0 -14 8v678q0 9 2 11.5t11 2.5h93q12 0 12 -12v-112h42q159 0 223.5 -58.5t64.5 -163.5q0 -219 -272 -219h-43q-14 0 -15 -10v-114q-1 -11 -11 -11h-93zM196 454v-200q0 -9 14 -9h49q144 0 144 111q0 59 -37 84.5t-108 25.5h-51q-7 0 -9 -2.5t-2 -9.5z" />
<glyph unicode="&#xdf;" horiz-adv-x="663" d="M169 0h-79q-9 0 -11.5 3.5t-2.5 13.5v497q0 97 67.5 147t158.5 50q96 0 161 -51.5t65 -138.5q0 -92 -87 -152q38 -18 63 -32.5t53.5 -37.5t42.5 -52.5t14 -64.5q0 -83 -76.5 -132.5t-220.5 -49.5h-15q-11 0 -14.5 3.5t-3.5 13.5v62q0 17 17 17h20q75 0 124.5 22.5 t49.5 67.5q0 17 -9 33t-19 26.5t-35.5 25t-39.5 21.5t-49 23q-49 24 -49 51t42 52q23 15 34.5 23.5t25 30t13.5 46.5q0 43 -30.5 70.5t-80.5 27.5q-42 0 -76 -25t-34 -77v-491q0 -8 -0.5 -12t-5 -7.5t-13.5 -3.5z" />
<glyph unicode="&#xe0;" d="M399 15l-5 16q-74 -41 -162 -41q-84 0 -128.5 38t-44.5 107q0 75 50 116t140 41q66 0 127 -24v31q0 77 -126 77q-73 0 -129 -28q-6 -4 -10 -2t-4 8v80q0 14 11 18q69 23 154 23q97 0 155 -44.5t58 -137.5v-282q0 -11 -10 -11h-58q-8 0 -11 2.5t-7 12.5zM165 139 q0 -25 23.5 -41.5t60.5 -16.5q70 0 127 30v67q-54 22 -126 22q-36 0 -60.5 -17t-24.5 -44zM232 556l-106 108q-5 5 -6 9t1.5 6.5t8.5 2.5h93q22 0 32 -14l83 -109q3 -5 4 -9.5t-2 -7t-8 -2.5h-64q-20 0 -36 16z" />
<glyph unicode="&#xe1;" d="M399 15l-5 16q-74 -41 -162 -41q-84 0 -128.5 38t-44.5 107q0 75 50 116t140 41q66 0 127 -24v31q0 77 -126 77q-73 0 -129 -28q-6 -4 -10 -2t-4 8v80q0 14 11 18q69 23 154 23q97 0 155 -44.5t58 -137.5v-282q0 -11 -10 -11h-58q-8 0 -11 2.5t-7 12.5zM165 139 q0 -25 23.5 -41.5t60.5 -16.5q70 0 127 30v67q-54 22 -126 22q-36 0 -60.5 -17t-24.5 -44zM314 540h-73q-4 0 -6 4t1 8l86 110q6 11 18 11h98q7 0 9 -4.5t-3 -9.5l-113 -112q-9 -7 -17 -7z" />
<glyph unicode="&#xe2;" d="M399 15l-5 16q-74 -41 -162 -41q-84 0 -128.5 38t-44.5 107q0 75 50 116t140 41q66 0 127 -24v31q0 77 -126 77q-73 0 -129 -28q-6 -4 -10 -2t-4 8v80q0 14 11 18q69 23 154 23q97 0 155 -44.5t58 -137.5v-282q0 -11 -10 -11h-58q-8 0 -11 2.5t-7 12.5zM165 139 q0 -25 23.5 -41.5t60.5 -16.5q70 0 127 30v67q-54 22 -126 22q-36 0 -60.5 -17t-24.5 -44zM270 671h31q9 0 16 -7l119 -115q4 -3 3.5 -6.5t-5.5 -3.5h-49q-7 0 -14 4l-79 51q-2 1 -7 1t-7 -1l-79 -51q-7 -4 -14 -4h-48q-5 0 -6 3.5t3 6.5l120 115q6 7 16 7z" />
<glyph unicode="&#xe3;" d="M399 15l-5 16q-74 -41 -162 -41q-84 0 -128.5 38t-44.5 107q0 75 50 116t140 41q66 0 127 -24v31q0 77 -126 77q-73 0 -129 -28q-6 -4 -10 -2t-4 8v80q0 14 11 18q69 23 154 23q97 0 155 -44.5t58 -137.5v-282q0 -11 -10 -11h-58q-8 0 -11 2.5t-7 12.5zM165 139 q0 -25 23.5 -41.5t60.5 -16.5q70 0 127 30v67q-54 22 -126 22q-36 0 -60.5 -17t-24.5 -44zM324 545q-20 0 -53 16t-45 16q-21 0 -38 -25q-4 -7 -10 -4l-29 30q-6 5 -3 10q34 64 89 64q20 0 52.5 -15t45.5 -15q29 0 39 24q3 6 9 3l30 -30q5 -4 3 -8q-34 -66 -90 -66z" />
<glyph unicode="&#xe4;" d="M399 15l-5 16q-74 -41 -162 -41q-84 0 -128.5 38t-44.5 107q0 75 50 116t140 41q66 0 127 -24v31q0 77 -126 77q-73 0 -129 -28q-6 -4 -10 -2t-4 8v80q0 14 11 18q69 23 154 23q97 0 155 -44.5t58 -137.5v-282q0 -11 -10 -11h-58q-8 0 -11 2.5t-7 12.5zM165 139 q0 -25 23.5 -41.5t60.5 -16.5q70 0 127 30v67q-54 22 -126 22q-36 0 -60.5 -17t-24.5 -44zM208 672q28 0 48 -20t20 -47q0 -28 -20 -47t-48 -19t-47.5 19t-19.5 47q0 27 19.5 47t47.5 20zM376 672q27 0 47.5 -20t20.5 -47t-20.5 -46.5t-47.5 -19.5q-28 0 -47.5 19t-19.5 47 q0 27 19.5 47t47.5 20z" />
<glyph unicode="&#xe5;" d="M399 15l-5 16q-74 -41 -162 -41q-84 0 -128.5 38t-44.5 107q0 75 50 116t140 41q66 0 127 -24v31q0 77 -126 77q-73 0 -129 -28q-6 -4 -10 -2t-4 8v80q0 14 11 18q69 23 154 23q97 0 155 -44.5t58 -137.5v-282q0 -11 -10 -11h-58q-8 0 -11 2.5t-7 12.5zM165 139 q0 -25 23.5 -41.5t60.5 -16.5q70 0 127 30v67q-54 22 -126 22q-36 0 -60.5 -17t-24.5 -44zM400 622q0 -32 -30.5 -55t-83.5 -23q-54 0 -84.5 23t-30.5 55q0 31 31 54.5t84 23.5t83.5 -23.5t30.5 -54.5zM286 589q19 0 29.5 10t10.5 23q0 12 -10.5 21.5t-29.5 9.5t-29.5 -9.5 t-10.5 -21.5q0 -13 10.5 -23t29.5 -10z" />
<glyph unicode="&#xe6;" horiz-adv-x="879" d="M834 238v-24q0 -12 -11 -12h-336q14 -116 147 -116q87 0 147 25q10 4 10 -5v-76q0 -8 -7 -12q-63 -28 -168 -28q-110 0 -174 59q-98 -59 -204 -59q-87 0 -133 38t-46 107q0 75 50 116t140 41q66 0 127 -24v31q0 77 -126 77q-73 0 -129 -28q-6 -4 -10 -2t-4 8v80 q0 14 11 18q69 23 154 23q120 0 174 -63q65 63 158 63q98 0 164 -65.5t66 -171.5zM376 139v39q-54 22 -126 22q-36 0 -60.5 -17t-24.5 -44q0 -25 23.5 -41.5t60.5 -16.5q83 0 144 43q-1 3 -5 14zM604 386q-42 0 -71 -27t-41 -72h232q-12 44 -43.5 71.5t-76.5 27.5z" />
<glyph unicode="&#xe7;" horiz-adv-x="479" d="M163 232q0 -62 43.5 -104t112.5 -42q61 0 107 23q8 4 8 -5v-77q0 -9 -8 -12q-42 -19 -97 -24l-11 -25q-2 -4 1 -4q75 -7 80 -71q3 -65 -78 -83q-19 -4 -43 -4q-35 0 -73 10q-8 3 -8 11l2 21q0 9 14 7q15 -3 44 -3q63 0 60 37q-3 35 -64 35q-9 0 -5 8l26 62 q-96 11 -160 79t-64 161q0 101 74 172t180 71q58 0 116 -25q14 -7 14 -17v-77q0 -11 -12 -4q-46 26 -103 26q-69 0 -112.5 -42.5t-43.5 -103.5z" />
<glyph unicode="&#xe8;" horiz-adv-x="554" d="M508 238v-24q0 -12 -11 -12h-336q14 -116 147 -116q72 0 120 25q14 5 14 -6v-69q0 -14 -9 -18q-59 -28 -142 -28q-123 0 -182.5 68t-59.5 170q0 111 66.5 179t164.5 68t163 -65.5t65 -171.5zM280 386q-43 0 -72.5 -26.5t-41.5 -72.5h234q-11 46 -41.5 72.5t-78.5 26.5z M218 556l-106 108q-5 5 -6 9t1.5 6.5t8.5 2.5h93q22 0 32 -14l83 -109q3 -5 4 -9.5t-2 -7t-8 -2.5h-64q-20 0 -36 16z" />
<glyph unicode="&#xe9;" horiz-adv-x="554" d="M508 238v-24q0 -12 -11 -12h-336q14 -116 147 -116q72 0 120 25q14 5 14 -6v-69q0 -14 -9 -18q-59 -28 -142 -28q-123 0 -182.5 68t-59.5 170q0 111 66.5 179t164.5 68t163 -65.5t65 -171.5zM280 386q-43 0 -72.5 -26.5t-41.5 -72.5h234q-11 46 -41.5 72.5t-78.5 26.5z M314 540h-73q-4 0 -6 4t1 8l86 110q6 11 18 11h98q7 0 9 -4.5t-3 -9.5l-113 -112q-9 -7 -17 -7z" />
<glyph unicode="&#xea;" horiz-adv-x="554" d="M508 238v-24q0 -12 -11 -12h-336q14 -116 147 -116q72 0 120 25q14 5 14 -6v-69q0 -14 -9 -18q-59 -28 -142 -28q-123 0 -182.5 68t-59.5 170q0 111 66.5 179t164.5 68t163 -65.5t65 -171.5zM280 386q-43 0 -72.5 -26.5t-41.5 -72.5h234q-11 46 -41.5 72.5t-78.5 26.5z M256 671h31q9 0 16 -7l119 -115q4 -3 3.5 -6.5t-5.5 -3.5h-49q-7 0 -14 4l-79 51q-2 1 -7 1t-7 -1l-79 -51q-7 -4 -14 -4h-48q-5 0 -6 3.5t3 6.5l120 115q6 7 16 7z" />
<glyph unicode="&#xeb;" horiz-adv-x="554" d="M508 238v-24q0 -12 -11 -12h-336q14 -116 147 -116q72 0 120 25q14 5 14 -6v-69q0 -14 -9 -18q-59 -28 -142 -28q-123 0 -182.5 68t-59.5 170q0 111 66.5 179t164.5 68t163 -65.5t65 -171.5zM280 386q-43 0 -72.5 -26.5t-41.5 -72.5h234q-11 46 -41.5 72.5t-78.5 26.5z M195 672q28 0 48 -20t20 -47q0 -28 -20 -47t-48 -19t-47.5 19t-19.5 47q0 27 19.5 47t47.5 20zM363 672q27 0 47.5 -20t20.5 -47t-20.5 -46.5t-47.5 -19.5q-28 0 -47.5 19t-19.5 47q0 27 19.5 47t47.5 20z" />
<glyph unicode="&#xec;" horiz-adv-x="244" d="M178 450v-436q0 -9 -2.5 -11.5t-9.5 -2.5h-84q-7 0 -9.5 0.5t-4.5 3.5t-2 9v436q0 8 2 11.5t5.5 4t13.5 0.5h79q12 0 12 -15zM64 556l-106 108q-5 5 -6 9t1.5 6.5t8.5 2.5h93q22 0 32 -14l83 -109q3 -5 4 -9.5t-2 -7t-8 -2.5h-64q-20 0 -36 16z" />
<glyph unicode="&#xed;" horiz-adv-x="244" d="M178 450v-436q0 -9 -2.5 -11.5t-9.5 -2.5h-84q-7 0 -9.5 0.5t-4.5 3.5t-2 9v436q0 8 2 11.5t5.5 4t13.5 0.5h79q12 0 12 -15zM160 540h-73q-4 0 -6 4t1 8l86 110q6 11 18 11h98q7 0 9 -4.5t-3 -9.5l-113 -112q-9 -7 -17 -7z" />
<glyph unicode="&#xee;" horiz-adv-x="244" d="M178 450v-436q0 -9 -2.5 -11.5t-9.5 -2.5h-84q-7 0 -9.5 0.5t-4.5 3.5t-2 9v436q0 8 2 11.5t5.5 4t13.5 0.5h79q12 0 12 -15zM102 671h31q9 0 16 -7l119 -115q4 -3 3.5 -6.5t-5.5 -3.5h-49q-7 0 -14 4l-79 51q-2 1 -7 1t-7 -1l-79 -51q-7 -4 -14 -4h-48q-5 0 -6 3.5 t3 6.5l120 115q6 7 16 7z" />
<glyph unicode="&#xef;" horiz-adv-x="244" d="M178 450v-436q0 -9 -2.5 -11.5t-9.5 -2.5h-84q-7 0 -9.5 0.5t-4.5 3.5t-2 9v436q0 8 2 11.5t5.5 4t13.5 0.5h79q12 0 12 -15zM41 672q28 0 48 -20t20 -47q0 -28 -20 -47t-48 -19t-47.5 19t-19.5 47q0 27 19.5 47t47.5 20zM209 672q27 0 47.5 -20t20.5 -47t-20.5 -46.5 t-47.5 -19.5q-28 0 -47.5 19t-19.5 47q0 27 19.5 47t47.5 20z" />
<glyph unicode="&#xf0;" horiz-adv-x="589" d="M380 428l-81 122l-66 -22q-15 -4 -22 -0.5t-14 18.5l-9 19q-9 19 -7.5 25.5t19.5 10.5l54 18l-37 56q-7 13 -1.5 19t18.5 6h44q43 0 61 -28l12 -20l54 18q27 7 38 -12l12 -25q16 -28 -16 -36l-45 -15l64 -103q94 -142 94 -250q0 -116 -66 -177.5t-185 -61.5 q-118 0 -183.5 62t-65.5 183q0 109 53.5 175t146.5 66q76 0 128 -48zM428 230q0 68 -35 112t-93 44q-54 0 -89 -39t-35 -116q0 -78 35.5 -116t91.5 -38q57 0 91 37.5t34 115.5z" />
<glyph unicode="&#xf1;" horiz-adv-x="578" d="M180 454v-21q58 42 145 42q91 0 139 -52.5t48 -154.5v-256q0 -12 -13 -12h-89q-11 0 -11 12v239q0 122 -103 122q-65 0 -117 -45l-1 -317q0 -11 -11 -11h-87q-14 0 -14 11v443q0 11 10 11h91q13 0 13 -11zM339 545q-21 0 -53.5 16t-44.5 16q-21 0 -38 -25q-5 -7 -10 -4 l-29 30q-6 5 -3 10q34 64 89 64q20 0 52.5 -15t45.5 -15q28 0 39 24q3 6 9 3l30 -30q5 -4 3 -8q-34 -66 -90 -66z" />
<glyph unicode="&#xf2;" horiz-adv-x="594" d="M50 232q0 101 72 172t175 71t175 -71t72 -172t-72 -171.5t-175 -70.5t-175 70.5t-72 171.5zM158 232q0 -58 40.5 -98.5t98.5 -40.5t98.5 40.5t40.5 98.5t-40.5 98.5t-98.5 40.5t-98.5 -40.5t-40.5 -98.5zM238 556l-106 108q-5 5 -6 9t1.5 6.5t8.5 2.5h93q22 0 32 -14 l83 -109q3 -5 4 -9.5t-2 -7t-8 -2.5h-64q-20 0 -36 16z" />
<glyph unicode="&#xf3;" horiz-adv-x="594" d="M50 232q0 101 72 172t175 71t175 -71t72 -172t-72 -171.5t-175 -70.5t-175 70.5t-72 171.5zM158 232q0 -58 40.5 -98.5t98.5 -40.5t98.5 40.5t40.5 98.5t-40.5 98.5t-98.5 40.5t-98.5 -40.5t-40.5 -98.5zM333 540h-73q-4 0 -6 4t1 8l86 110q6 11 18 11h98q7 0 9 -4.5 t-3 -9.5l-113 -112q-9 -7 -17 -7z" />
<glyph unicode="&#xf4;" horiz-adv-x="594" d="M50 232q0 101 72 172t175 71t175 -71t72 -172t-72 -171.5t-175 -70.5t-175 70.5t-72 171.5zM158 232q0 -58 40.5 -98.5t98.5 -40.5t98.5 40.5t40.5 98.5t-40.5 98.5t-98.5 40.5t-98.5 -40.5t-40.5 -98.5zM276 671h31q9 0 16 -7l119 -115q4 -3 3.5 -6.5t-5.5 -3.5h-49 q-7 0 -14 4l-79 51q-2 1 -7 1t-7 -1l-79 -51q-7 -4 -14 -4h-48q-5 0 -6 3.5t3 6.5l120 115q6 7 16 7z" />
<glyph unicode="&#xf5;" horiz-adv-x="594" d="M50 232q0 101 72 172t175 71t175 -71t72 -172t-72 -171.5t-175 -70.5t-175 70.5t-72 171.5zM158 232q0 -58 40.5 -98.5t98.5 -40.5t98.5 40.5t40.5 98.5t-40.5 98.5t-98.5 40.5t-98.5 -40.5t-40.5 -98.5zM343 545q-21 0 -54 16t-44 16q-21 0 -38 -25q-5 -7 -10 -4l-29 30 q-6 5 -3 10q34 64 89 64q20 0 52.5 -15t45.5 -15q28 0 39 24q3 6 9 3l30 -30q5 -4 3 -8q-34 -66 -90 -66z" />
<glyph unicode="&#xf6;" horiz-adv-x="594" d="M50 232q0 101 72 172t175 71t175 -71t72 -172t-72 -171.5t-175 -70.5t-175 70.5t-72 171.5zM158 232q0 -58 40.5 -98.5t98.5 -40.5t98.5 40.5t40.5 98.5t-40.5 98.5t-98.5 40.5t-98.5 -40.5t-40.5 -98.5zM214 672q28 0 48 -20t20 -47q0 -28 -20 -47t-48 -19t-47.5 19 t-19.5 47q0 27 19.5 47t47.5 20zM382 672q27 0 47.5 -20t20.5 -47t-20.5 -46.5t-47.5 -19.5q-28 0 -47.5 19t-19.5 47q0 27 19.5 47t47.5 20z" />
<glyph unicode="&#xf7;" horiz-adv-x="481" d="M239 491q24 0 40.5 -16.5t16.5 -39.5t-16.5 -40t-40.5 -17t-40.5 17t-16.5 40t16.5 39.5t40.5 16.5zM239 99q25 0 41 -16.5t16 -39.5q0 -24 -16.5 -40.5t-40.5 -16.5q-25 0 -41 16.5t-16 40.5t16 40t41 16zM463 203h-447v83h447v-83z" />
<glyph unicode="&#xf8;" horiz-adv-x="594" d="M458 505l-29 -68q53 -33 84 -87.5t31 -117.5q0 -101 -72 -171.5t-175 -70.5q-28 0 -55 6l-15 -36q-5 -9 -13 -9h-72q-10 0 -7 12l27 65q-52 33 -82 86.5t-30 117.5q0 101 72 172t175 71q27 0 52 -6l18 42q5 9 12 9h72q15 0 7 -15zM436 232q0 64 -49 105l-103 -244h13 q58 0 98.5 40.5t40.5 98.5zM158 232q0 -63 46 -104l103 242q-3 1 -10 1q-58 0 -98.5 -40.5t-40.5 -98.5z" />
<glyph unicode="&#xf9;" horiz-adv-x="553" d="M276 -10q-106 0 -161.5 55t-55.5 162v239q0 19 20 19h77q10 0 13.5 -4t3.5 -15v-236q0 -125 103 -125q104 0 104 125v236q0 19 17 19h83q13 0 13 -13v-245q0 -217 -217 -217zM217 556l-106 108q-5 5 -6 9t1.5 6.5t8.5 2.5h93q22 0 32 -14l83 -109q3 -5 4 -9.5t-2 -7 t-8 -2.5h-64q-20 0 -36 16z" />
<glyph unicode="&#xfa;" horiz-adv-x="553" d="M276 -10q-106 0 -161.5 55t-55.5 162v239q0 19 20 19h77q10 0 13.5 -4t3.5 -15v-236q0 -125 103 -125q104 0 104 125v236q0 19 17 19h83q13 0 13 -13v-245q0 -217 -217 -217zM313 540h-73q-4 0 -6 4t1 8l86 110q6 11 18 11h98q7 0 9 -4.5t-3 -9.5l-113 -112q-9 -7 -17 -7 z" />
<glyph unicode="&#xfb;" horiz-adv-x="553" d="M276 -10q-106 0 -161.5 55t-55.5 162v239q0 19 20 19h77q10 0 13.5 -4t3.5 -15v-236q0 -125 103 -125q104 0 104 125v236q0 19 17 19h83q13 0 13 -13v-245q0 -217 -217 -217zM255 671h31q9 0 16 -7l119 -115q4 -3 3.5 -6.5t-5.5 -3.5h-49q-7 0 -14 4l-79 51q-2 1 -7 1 t-7 -1l-79 -51q-7 -4 -14 -4h-48q-5 0 -6 3.5t3 6.5l120 115q6 7 16 7z" />
<glyph unicode="&#xfc;" horiz-adv-x="553" d="M276 -10q-106 0 -161.5 55t-55.5 162v239q0 19 20 19h77q10 0 13.5 -4t3.5 -15v-236q0 -125 103 -125q104 0 104 125v236q0 19 17 19h83q13 0 13 -13v-245q0 -217 -217 -217zM193 672q28 0 48 -20t20 -47q0 -28 -20 -47t-48 -19t-47.5 19t-19.5 47q0 27 19.5 47t47.5 20z M361 672q27 0 47.5 -20t20.5 -47t-20.5 -46.5t-47.5 -19.5q-28 0 -47.5 19t-19.5 47q0 27 19.5 47t47.5 20z" />
<glyph unicode="&#xfd;" horiz-adv-x="530" d="M515 452l-331 -659q-2 -7 -11 -7h-101q-4 0 -6 3t0 6l142 284l-188 375q-6 11 6 11h95q13 0 16 -8l128 -266l131 261q6 13 17 13h94q6 0 8.5 -4.5t-0.5 -8.5zM303 540h-73q-4 0 -6 4t1 8l86 110q6 11 18 11h98q7 0 9 -4.5t-3 -9.5l-113 -112q-9 -7 -17 -7z" />
<glyph unicode="&#xfe;" horiz-adv-x="600" d="M184 717v-288q61 46 138 46q96 0 163.5 -65.5t67.5 -178.5q0 -111 -68.5 -176t-162.5 -65q-78 0 -138 44v-191q0 -10 -11 -10h-91q-9 0 -9 10v875q0 11 11 11h90q10 0 10 -12zM444 231q0 64 -39.5 106t-97.5 42q-77 0 -123 -57v-181q45 -55 123 -55q55 0 96 40.5 t41 104.5z" />
<glyph unicode="&#xff;" horiz-adv-x="530" d="M515 452l-331 -659q-2 -7 -11 -7h-101q-4 0 -6 3t0 6l142 284l-188 375q-6 11 6 11h95q13 0 16 -8l128 -266l131 261q6 13 17 13h94q6 0 8.5 -4.5t-0.5 -8.5zM184 672q28 0 48 -20t20 -47q0 -28 -20 -47t-48 -19t-47.5 19t-19.5 47q0 27 19.5 47t47.5 20zM352 672 q27 0 47.5 -20t20.5 -47t-20.5 -46.5t-47.5 -19.5q-28 0 -47.5 19t-19.5 47q0 27 19.5 47t47.5 20z" />
<glyph unicode="&#x152;" horiz-adv-x="1014" d="M593 13v9q-78 -32 -169 -32q-170 0 -272 101t-102 259t102 259t272 101q90 0 169 -34v13q0 8 2.5 9.5t8.5 1.5h357q15 0 15 -11v-87q0 -7 -2.5 -9t-10.5 -2h-250q-2 0 -2 -2v-173q0 -3 2 -3h252q11 0 11 -16v-71q0 -22 -12 -22h-250q-3 0 -3 -3v-189q0 -3 3 -3h252 q10 0 10 -21v-71q0 -17 -16 -17h-354h-6.5t-3.5 1.5t-2.5 4t-0.5 7.5zM174 350q0 -101 55.5 -170.5t149.5 -82.5q22 -2 31 -2q30 0 60 8q83 13 123 68v345q-37 63 -122 80q-42 12 -92 7q-94 -13 -149.5 -82.5t-55.5 -170.5z" />
<glyph unicode="&#x153;" horiz-adv-x="935" d="M889 238v-24q0 -12 -11 -12h-336q14 -116 147 -116q72 0 120 25q14 5 14 -6v-69q0 -14 -9 -18q-59 -28 -142 -28q-133 0 -195 82q-74 -82 -185 -82q-103 0 -175.5 70.5t-72.5 171.5t72.5 172t175.5 71q114 0 188 -86q67 86 181 86q98 0 163 -65.5t65 -171.5zM153 232 q0 -58 40.5 -98.5t98.5 -40.5q56 0 96.5 39.5t41.5 95.5v4q0 58 -40.5 98.5t-97.5 40.5q-58 0 -98.5 -40.5t-40.5 -98.5zM661 386q-43 0 -72.5 -26.5t-41.5 -72.5h234q-11 46 -41.5 72.5t-78.5 26.5z" />
<glyph unicode="&#x178;" horiz-adv-x="614" d="M361 0h-104q-10 0 -10 15v331q0 12 -6 24l-222 315q-11 15 7 15h101q13 0 17 -10l158 -221q4 -7 5.5 -9t3.5 0t5 9l151 217q11 14 17 14h104q16 0 8 -15l-220 -317q-5 -9 -5 -24v-332q0 -12 -10 -12zM225 874q28 0 48 -20t20 -47q0 -28 -20 -47t-48 -19t-47.5 19 t-19.5 47q0 27 19.5 47t47.5 20zM393 874q27 0 47.5 -20t20.5 -47t-20.5 -46.5t-47.5 -19.5q-28 0 -47.5 19t-19.5 47q0 27 19.5 47t47.5 20z" />
<glyph unicode="&#x2c6;" horiz-adv-x="308" d="M133 860h31q9 0 16 -7l119 -115q4 -3 3.5 -6.5t-5.5 -3.5h-49q-7 0 -14 4l-79 51q-2 1 -7 1t-7 -1l-79 -51q-7 -4 -14 -4h-48q-5 0 -6 3.5t3 6.5l120 115q6 7 16 7z" />
<glyph unicode="&#x2dc;" horiz-adv-x="322" d="M205 730q-21 0 -54 16t-44 16q-21 0 -38 -25q-5 -7 -10 -4l-29 30q-6 5 -3 10q34 64 89 64q20 0 52.5 -15t45.5 -15q28 0 39 24q3 6 9 3l30 -30q5 -4 3 -8q-34 -66 -90 -66z" />
<glyph unicode="&#x2000;" horiz-adv-x="444" />
<glyph unicode="&#x2001;" horiz-adv-x="889" />
<glyph unicode="&#x2002;" horiz-adv-x="444" />
<glyph unicode="&#x2003;" horiz-adv-x="889" />
<glyph unicode="&#x2004;" horiz-adv-x="296" />
<glyph unicode="&#x2005;" horiz-adv-x="222" />
<glyph unicode="&#x2006;" horiz-adv-x="148" />
<glyph unicode="&#x2007;" horiz-adv-x="148" />
<glyph unicode="&#x2008;" horiz-adv-x="111" />
<glyph unicode="&#x2009;" horiz-adv-x="177" />
<glyph unicode="&#x200a;" horiz-adv-x="49" />
<glyph unicode="&#x2010;" horiz-adv-x="307" d="M278 208h-245q-8 0 -10.5 3t-2.5 11v69q0 11 13 11h241q13 0 13 -10v-75q0 -6 -1.5 -7.5t-7.5 -1.5z" />
<glyph unicode="&#x2011;" horiz-adv-x="307" d="M278 208h-245q-8 0 -10.5 3t-2.5 11v69q0 11 13 11h241q13 0 13 -10v-75q0 -6 -1.5 -7.5t-7.5 -1.5z" />
<glyph unicode="&#x2012;" horiz-adv-x="307" d="M278 208h-245q-8 0 -10.5 3t-2.5 11v69q0 11 13 11h241q13 0 13 -10v-75q0 -6 -1.5 -7.5t-7.5 -1.5z" />
<glyph unicode="&#x2013;" horiz-adv-x="476" d="M469 168h-461q-8 0 -8 7v84q0 10 10 10h459q7 0 7 -8v-85q0 -8 -7 -8z" />
<glyph unicode="&#x2014;" horiz-adv-x="973" d="M851 168h-728q-9 0 -9 10v82q0 9 9 9h728q9 0 9 -9v-84q0 -5 -1.5 -6.5t-7.5 -1.5z" />
<glyph unicode="&#x2018;" horiz-adv-x="280" d="M153 700h67q8 0 6 -10l-53 -174q-3 -10 -11 -10h-99q-10 0 -5 13l84 174q4 7 11 7z" />
<glyph unicode="&#x2019;" horiz-adv-x="280" d="M129 506h-67q-11 0 -6 13l51 171q4 10 12 10h96q14 0 8 -13l-82 -171q-6 -10 -12 -10z" />
<glyph unicode="&#x201a;" horiz-adv-x="286" d="M122 -115h-72q-15 0 -11 15l47 209q3 14 17 14h104q16 0 11 -17l-80 -208q-5 -13 -16 -13z" />
<glyph unicode="&#x201c;" horiz-adv-x="434" d="M153 700h65q4 0 6 -3.5t1 -7.5l-52 -172q-3 -11 -14 -11h-95q-4 0 -6 3.5t1 8.5l82 173q5 9 12 9zM307 700h64q11 0 8 -12l-52 -171q-3 -11 -13 -11h-95q-6 0 -7.5 5t1.5 10l81 169q5 10 13 10z" />
<glyph unicode="&#x201d;" horiz-adv-x="434" d="M279 506h-63q-11 0 -7 11l51 171q3 12 14 12h95q13 0 7 -13l-83 -171q-5 -10 -14 -10zM127 506h-64q-12 0 -8 12l52 170q3 12 14 12h93q14 0 8 -13l-82 -171q-5 -10 -13 -10z" />
<glyph unicode="&#x201e;" horiz-adv-x="478" d="M135 -115h-78q-10 0 -8 12l49 213q1 9 4 11t11 2h108q6 0 9 -4t1 -8l-84 -217q-3 -9 -12 -9zM337 -115h-80q-9 0 -7 11l48 215q3 12 15 12h109q16 0 10 -13l-84 -216q-3 -9 -11 -9z" />
<glyph unicode="&#x2022;" horiz-adv-x="346" d="M173 346q47 0 79.5 -29t32.5 -71q0 -41 -32.5 -70t-79.5 -29t-79 29t-32 70q0 42 32 71t79 29z" />
<glyph unicode="&#x2026;" horiz-adv-x="758" d="M126 115q25 0 42.5 -18t17.5 -43q0 -26 -17.5 -42.5t-42.5 -16.5q-26 0 -42.5 16t-16.5 43q0 26 17 43.5t42 17.5zM379 115q25 0 42 -17.5t17 -43.5t-17 -42.5t-42 -16.5q-26 0 -42.5 16t-16.5 43q0 26 16.5 43.5t42.5 17.5zM631 115q25 0 42.5 -17.5t17.5 -43.5 q0 -27 -17 -43t-43 -16t-42 16t-16 43q0 26 16.5 43.5t41.5 17.5z" />
<glyph unicode="&#x202f;" horiz-adv-x="177" />
<glyph unicode="&#x2039;" horiz-adv-x="374" d="M315 410l-123 -151q-2 -4 0 -7l121 -149q7 -9 1 -15l-59 -49q-6 -4 -11 1l-186 209q-7 6 1 14l187 210q7 9 14 1l55 -48q7 -7 0 -16z" />
<glyph unicode="&#x203a;" horiz-adv-x="374" d="M186 258l-125 152q-9 10 -1 14l55 49q9 9 18 -2l182 -207q8 -9 1 -16l-184 -208q-6 -8 -12 -4l-62 51q-5 5 0 13l127 152q3 4 1 6z" />
<glyph unicode="&#x205f;" horiz-adv-x="222" />
<glyph unicode="&#x20ac;" horiz-adv-x="876" d="M280 352q0 -30 6 -57h308q6 0 8.5 -4t-0.5 -7l-37 -45q-6 -7 -17 -7h-238q32 -60 91 -96t130 -36q103 0 178 36q16 8 16 -5v-85q0 -11 -13 -17q-87 -39 -181 -39q-119 0 -213.5 67t-132.5 175h-117q-7 0 -10 3.5t1 8.5l31 42q7 9 20 9h59q-4 24 -4 57v4h-97q-18 0 -8 14 l29 39q8 11 18 11h64q24 127 125 210.5t235 83.5q102 0 179 -40q15 -9 15 -23v-80q0 -16 -18 -7q-74 41 -176 41q-86 0 -152.5 -52t-89.5 -133h393q7 0 9.5 -4t-1.5 -8l-36 -43q-7 -9 -16 -9h-358v-4z" />
<glyph unicode="&#x2122;" horiz-adv-x="921" d="M630 307h-53q-6 0 -7 5l-85 245q-2 0 -3 1l-53 -245q-1 -6 -6 -6h-70q-7 0 -5 6l87 379q3 8 10 8h56q9 0 12 -9l89 -259q2 -6 4 0l89 260q3 8 10 8h58q7 0 8 -7l87 -381q2 -5 -3 -5h-71q-6 0 -7 4l-53 248q0 3 -2 1q-1 0 -1 -2l-83 -245q-2 -6 -8 -6zM249 308h-65 q-7 0 -7 8v313q0 4 -5 4h-101q-11 0 -11 9v47q0 11 10 11h293q11 0 11 -10v-48q0 -9 -10 -9h-103q-4 0 -4 -4v-312q0 -9 -8 -9z" />
<glyph unicode="&#xfb03;" horiz-adv-x="1008" d="M937 450v-436q0 -9 -2.5 -11.5t-9.5 -2.5h-84q-7 0 -9.5 0.5t-4.5 3.5t-2 9v350h-221q-8 0 -8 -11v-341q0 -11 -9 -11h-95q-9 0 -9 13v342q0 8 -9 8h-205q-6 0 -7.5 -2t-1.5 -9v-341q0 -11 -9 -11h-94q-9 0 -9 13v342q0 8 -10 8h-103q-7 0 -9.5 2.5t-2.5 9.5v78 q0 7 2 9.5t9 2.5h104q7 0 8.5 1.5t1.5 8.5v75q0 108 38.5 154t128.5 46q59 0 101 -19q12 -5 12 -18v-79q0 -13 -13 -5q-27 17 -75 17t-64 -22t-16 -78v-69q0 -8 1.5 -10t8.5 -2h204q6 0 7.5 1.5t1.5 8.5v75q0 107 38.5 153.5t128.5 46.5q61 0 101 -19q12 -5 12 -18v-79 q0 -5 -3.5 -7t-8.5 2q-28 17 -76 17t-63.5 -22t-15.5 -78v-69q0 -12 10 -12h319q12 0 12 -15zM881 717q32 0 54 -22t22 -54q0 -35 -21.5 -55.5t-54.5 -20.5t-53.5 20.5t-20.5 55.5q0 32 21 54t53 22z" />
</font>
</defs>
</svg>
