<?xml version="1.0" encoding="utf-8"?>
<!-- Generator: Adobe Illustrator 19.0.0, SVG Export Plug-In . SVG Version: 6.00 Build 0)  -->
<!DOCTYPE svg PUBLIC "-//W3C//DTD SVG 1.1//EN" "http://www.w3.org/Graphics/SVG/1.1/DTD/svg11.dtd">
<svg version="1.1"
	 id="svg2" xmlns:dc="http://purl.org/dc/elements/1.1/" xmlns:rdf="http://www.w3.org/1999/02/22-rdf-syntax-ns#" xmlns:cc="http://creativecommons.org/ns#"
	 xmlns="http://www.w3.org/2000/svg" xmlns:xlink="http://www.w3.org/1999/xlink" x="0px" y="0px" viewBox="22 180.9 640 480"
	 style="enable-background:new 22 180.9 640 480;" xml:space="preserve">
<style type="text/css">
	.st0{fill:#FFFFFF;}
	.st1{fill:#00AB39;}
	.st2{fill:#D21034;}
</style>
<rect x="-17.3" y="181.6" class="st0" width="718.3" height="478.8"/>
<rect x="-17.3" y="421" class="st1" width="718.3" height="239.4"/>
<g id="dragon" transform="translate(-59.512 8.2826)">
	<path d="M550.5,233.3c-1.9-0.3-3.7,0.1-5.8,1c-4.1,1.9-9.1,6-17.7,12.6c-19.4,14.8-41.5,16.7-67.7,17.3
		c-54.5,1.2-79.7,14.6-91.6,31.6c-11.9,17-10.4,37.6-11.8,52.8c-1,10.4-2.9,19.3-10.5,29.1c2.1-5,2.7-8.7,2.2-11.5
		c-0.5-2.9-2.2-4.8-4.2-6.4c-1.9-1.6-4.1-2.8-5.7-4.6c-1.3-1.4-2.2-3.2-2.6-5.5c2.2-1.4,4.8-1.4,6.8-0.2c2.6,1.6,4.3,5.1,3.1,10.4
		c0,0.2,0.2,0.4,0.3,0.5c0,0.1,0,0.2,0,0.3c0.2,0.2,0.5,0.2,0.7,0l0.1-0.1c0,0,0,0,0,0c5.3-5.6,7.6-10.2,7.9-14.1
		c0.4-4-1.2-7.2-3.3-10c-2.1-2.8-4.8-5.2-6.7-7.6c-1.8-2.3-2.9-4.4-2.5-6.9c0.8-0.9,1.7-1.5,2.4-1.7c1.6-0.6,2.8-0.2,4,0.9
		c1.1,1.1,2.1,2.8,2.6,4.7c0.6,1.9,0.8,3.9,0.5,5.4c0,0,0,0,0,0.1c-0.1,0.3,0,0.6,0.3,0.7c0.3,0.1,0.6,0.1,0.7-0.1
		c0,0,0-0.1,0.1-0.1c0,0,0,0,0-0.1c3.5-5.3,4.9-9.9,5-13.8c0.1-4-1.3-7.4-3.2-10.2c-1.9-2.8-4.4-5.2-6.6-7.2c-2.2-2-4-3.6-5-5
		c0-0.4,0-0.9,0-1.3c1.6-1.2,3.8-1.8,5.9-1.4c2.2,0.5,4.2,2.1,5.1,5.6c0,0,0.1,0,0.1,0c0,0.3,0.3,0.6,0.6,0.6c0.3,0,0.6-0.3,0.6-0.6
		v0c0.2-7.3-1.1-13.1-3.8-17.5c-2.5-4-6.1-6.7-10.6-8.2c0.2-0.3,0.3-0.5,0.6-0.9c1.5-2,3.6-4.3,5.6-6.9c4-5.3,7.8-12,7-20.4
		c0-0.1-0.1-0.1-0.1-0.2c0-0.1,0-0.2-0.1-0.2c-0.1-0.1-0.3-0.2-0.5-0.1c-0.1,0-0.1,0.1-0.2,0.2c-0.1,0-0.2,0.1-0.3,0.1
		c-3.7,4.8-10.4,6.2-17.5,7.2c0.8-1.5,1.8-3.4,2.7-5.8c1-2.7,1.8-5.4,1.4-7.4v0c0-0.1,0-0.1,0-0.2c0-0.2-0.1-0.3-0.3-0.4
		c-0.1-0.1-0.3-0.1-0.5-0.1c-0.1,0-0.1,0.1-0.1,0.1c-0.1,0-0.2,0.1-0.3,0.1c-4.3,4.7-12.4,7.5-19.5,9.4c-3.5,1-6.8,1.8-9.3,2.5
		c-1.2,0.4-2.3,0.8-3.1,1.2c-0.5,0.3-0.9,0.6-1.2,1c-4.9-1.1-9.6-1.8-13.7-2c-7.5-0.4-13.6,0.5-17.8,2.2c-2.1,0.8-3.7,1.9-4.7,3.1
		c-1,1.2-1.5,2.7-1.1,4.2c0.3,1.4,1.5,2.7,3,4.1c-10.7-4.4-20-6.2-27.5-6.2c-3.1,0-6,0.3-8.5,0.7c-5.1,0.9-9.1,2.5-12.1,4.2
		c-2.3,1.3-3.7,2.5-4.7,3.5c-0.1,0.1-0.3,0.1-0.4,0.2c0,0,0,0-0.1,0c0,0,0,0.1,0,0.1c0,0.1-0.2,0.2-0.2,0.2c0,0-0.1,0-0.1,0v0
		c0,0-0.1,0.1-0.2,0.1c-0.2,0.2-0.1,0.5,0,0.7c0.2,0.2,0.5,0.2,0.7,0.1c1.4-0.8,2.9-1.5,4.5-2.1c0.1,0,0.2,0,0.2,0
		c1.3,0,2.7,0.3,4,0.8c1.4,0.5,2.8,1.2,3.7,1.9c1,0.6,1.7,1.2,1.8,1.3c0,0,0,0.1,0.1,0.1c0.7,0.5,1.7,0.9,2.7,1.3
		c-2.1,4.3-2.8,9.8-2.8,17.8c-0.4,0.1-0.6,0.2-1.1,0.2c-2.2,0.3-5.1,0.5-8.2,0.3c-4.5-0.3-9.5-1.4-14-3.8c0.7,0.1,1.5,0.4,2.2,0.4
		c3.4,0.2,6.3-0.5,8.5-1.7c0.3-0.1,0.7-0.1,1-0.2c0.2-0.1,0.4-0.3,0.4-0.6c0-0.2-0.1-0.3-0.3-0.4c0-0.1,0-0.2-0.1-0.2
		c-3.3-1.3-20.6-9.2-35.2-27.7c0,0,0,0,0,0c0,0,0,0,0,0c-0.1-0.2-0.3-0.3-0.6-0.2c-0.3,0.1-0.5,0.3-0.5,0.6c0,0.1,0,0.2,0,0.2
		c0.7,8.8,3.4,30.3,21.3,47.6c0.2,0.2,0.5,0.2,0.7,0.1c0.2-0.1,0.3-0.4,0.3-0.6c-0.4-2.3-0.6-3.8-1.1-6.2c0,0-0.1,0-0.1-0.1
		c0-3-0.2-5-0.6-6.8c5.3,4.9,11,7.1,16.2,7.8c6.7,0.9,12.8-0.5,16.8-1.2c0.2,0,0.4-0.1,0.6-0.1c0.1,3.8-1.4,8.7-3.8,12.7
		c-1.4,2.3-2.9,4.2-4.6,5.6c-1.7,1.4-3.4,2.1-5.1,2h0c-0.3,0-0.5,0.3-0.5,0.6c-0.1,0.1-0.3,0.1-0.3,0.3c0,0.3,0.3,0.6,0.6,0.6
		c7.3,0,13.4,0.2,20-0.2h0c0.8-0.1,1.2,0,1.2,0c0,0.1,0,0.1-0.1,0.3c-0.4,0.7-1.8,2.1-3.4,3.7c-0.2,0.2-0.3,0.4-0.1,0.7
		c0.1,0.2,0.3,0.4,0.6,0.4c0,0,0.1,0,0.1,0c0.1,0.1,0.3,0.2,0.5,0.1c0.1,0,0.1-0.1,0.2-0.1c0.3-0.1,0.4-0.1,0.7-0.2
		c4.3-0.5,9.6-1.3,13.6-4.2c-0.1,0.4-0.2,1-0.4,1.4c-0.2,0.4-0.4,0.8-0.9,1.3c-0.1,0.1-0.2,0.2-0.3,0.3c-0.7,0.5-1.2,1-2.1,1.6
		c0,0-0.1,0-0.1,0.1c-0.2,0.1-0.3,0.4-0.2,0.6c0.1,0.2,0.2,0.4,0.5,0.4c0,0,0.1,0,0.2,0h0.1c0,0,0.1,0,0.1,0
		c4.5-0.5,12.4-3.9,18.1-9.9c2.9,0.4,4.8,1.8,6.1,3.3c0.7,0.8,1.2,1.5,1.8,2c0.2,0.2,0.5,0.3,0.8,0.4c0,0.3-0.2,0.5-0.2,0.8
		c0.1,0.5,0.5,1,1,1.2c-2.1,3.9-2.8,6.6-2.4,8.4c0.2,1,0.6,1.7,1.1,2.2c-2.8,2.1-5.2,4.3-6.3,6.3c-0.6,1.1-0.9,2.2-0.7,3.1
		c0.1,0.3,0.3,0.5,0.4,0.7c-0.2,0-0.4,0-0.7,0h0c-2.8,1.4-5.5,4.1-7,6.7c-0.7,1.3-1.1,2.6-1,3.8c0,0.5,0.3,1,0.6,1.4
		c-3.5,1.8-6.9,5.9-8.7,9.5c-0.9,1.9-1.5,3.6-1.3,5c0.1,0.7,0.4,1.3,0.9,1.7c-0.1,0.1-0.2,0.2-0.3,0.3c-0.1,0.1-0.1,0.1-0.2,0.1
		c-3.6,1.8-5.9,6.1-7,9.9c-0.5,1.9-0.7,3.7-0.4,5.1c0.1,0.5,0.4,0.9,0.7,1.2c-0.2,0.1-0.4,0.2-0.6,0.4c-1.1,0.9-1.8,2-2.1,2.4l0,0
		c-2.1,2.7-3,7-2.9,10.6c0.1,1.8,0.4,3.5,1.1,4.7c0.2,0.4,0.6,0.7,1,1c0,0-0.2,0.1-0.2,0.2l0,0c-2.1,2.7-3,7-2.9,10.6
		c0.1,1.8,0.4,3.5,1.1,4.7c0.3,0.6,0.8,1.1,1.3,1.4c0.3,0.1,0.6,0.1,1,0.1c-0.1,0.1-0.3,0.4-0.4,0.5c0,0,0,0,0,0.1
		c-0.3,0.3-0.6,0.7-0.7,1.3c-0.1,0.3-0.1,0.6-0.2,1c-1.3,2.6-2.3,1.2-3,0.2c-5.5-11.5-10.9-18.3-16.2-44.5
		c-0.9-4.6-11.2-11.7-14-30.3c-0.6-4.2,5.8-13.2-3-16c0,0,0,0-0.1,0c-5.9-11.3-18.1-7-20.1-3.3c-0.2,0.2-0.2,0.5,0,0.7
		c0.1,0.2,0.4,0.3,0.6,0.2c1.6-0.4,6.3,1.2,6.3,4.1c-2.6,6.2,0.6,11.3-1.1,10.8c-0.3-9.6-10.8-9.5-11.1-9.4c0,0,0,0,0,0l-4.7-0.6
		c-15.7,0.1-11.3,11.6-10.3,13.8c0.2,0.2,0.5,0.3,0.8,0.3c0.3,0,0.6-0.2,0.7-0.4c-0.7-4.3,2.7-4.5,6.3-2.8c2.3,8.7,7.1,9,7.7,9v0
		h0.1c6.5,1.3,8.6,5.7,8.6,8.3c-2.1-0.8-4.6-1.2-8.1-0.6c-2.4-2.4-6.9-3.3-8.4-3.6c-0.7-0.1-5.6,0.5-7.6,3.3l-0.7-0.1
		c-9.7,3.1-5.7,14.1-2.4,15.4c0.1,0.2,0.3,0.3,0.6,0.2c0.2-0.1,0.3-0.3,0.3-0.5c-1.5-3.4,0.6-5.2,3.1-4.1c3.7,4.1,8.3,5.8,17.6,0.5
		c0.1,0.1,3.3,1.5,6.6,2.7c-0.1,3.9,4,10.8,7,15.9c-0.9,4-2.5,8-3.4,9.4c0,0-0.1,0.1-0.1,0.1c-3.8,2.9-7,9.8-5.5,16
		c-1.2,3.1-5.5,4.7-5.5-1.2c-0.2-0.2-0.5-0.2-0.7-0.1s-0.3,0.4-0.3,0.6c-1.4,3.9,5.1,15.7,15.2,9.6l2-2.3c3.3,0,6.8-4.3,8.1-8.1
		c5,30.7,16.8,61.6,21.8,71.6c-3.7,11.3-14.3,10.8-17.8,7.2c0,0-0.1,0-0.1-0.1c-0.3-0.2-0.6-0.1-0.8,0.1c-0.2,0.3-0.2,0.6,0.1,0.8
		c6.5,6.5,10.1,8.6,16.5,8.6c14.1,0,19-8.8,20.1-12.5c11.8-2.5,20.9-10.3,24.3-10.9c0.5,0.5,1.2,1.3,1.7,1.7
		c2.8,2.2,5.2,3.5,7.2,3.7c1,0.1,1.9,0,2.7-0.5c0.8,1.7,2,3,3.5,4.1c-0.6,4.2-1.1,12.7-4.1,23.5c-3.1,11.2-8.9,24.5-20.2,37.1
		c-4.4,1.9-8-1.1-10.3-2.9c-1.9-1.6-7-7-7.9-9.8c-1-3.3-2.3-5.6-4-7.3s-4.6-2.3-6.9-2.5c0,0,0.8,0.2-0.1,0c-0.8,0.1-1.4,0-1.9,0.1
		c-6.9-5.4-13.6,3.7-12.8,9.4c0,0.2,0.2,0.5,0.4,0.5c0.3,0.1,0.5,0,0.7-0.2c0.9-2.2,3.7-1.6,5,0.3c-0.2,2-0.1,4.3,2.1,7
		c-2.2,0.2-4.9,0.8-7.8,4.1c-11.7,1.4-9.6,14.7-6.1,17c0.1,0.2,0.3,0.4,0.6,0.3c0.2,0,0.4-0.2,0.5-0.5c-3.8-5,1.6-7.1,4.3-4.8
		c0.7,2.2,3.8,4.2,6.4,5.5c-0.1,0.6-1,3.3-0.7,4c-12.6,6.9-0.9,19,2,18.2c0.2-0.1,0.5-0.1,0.7-0.2c0.2-0.1,0.3-0.4,0.2-0.7
		c-1.8-2.9-1.9-6.3,1.3-5.3c1.6,1.1,4.7,1.5,6.4,1.5c4,0.1,6.2-2.5,11.2-7.4c3-2.9,5.3-1.5,7.1-0.5c0.2,0.8,0.5,1.8,1.5,2.2
		c1.5,0.6,4.7,0.9,6.5,0.9c10.3-0.3,16-2.6,20.7-4.2c4.7-1.6,9-2.5,12.9-2.6c3.7-0.1,6.1,0.7,10.1,2c2,0.7,5.2,2.3,6.8,2.3
		c2.6-0.1,3.8-1.3,4.4-2.3c3.9-0.7,4.8,1,2.6,5.4c-0.1,0.3,0,0.5,0.3,0.7c0.2,0.1,0.5,0.1,0.7,0c4-1.7,15.9-13.1-0.2-19.7
		c-2.5-2.2-5.7-4-8.1-4c-2.5,0-5,1-7.5,1.6c-2.6,0.6-5.1,1.1-5.9,1.1c-3.3,0.1-3.5-2-3.8-5.6c-0.3-3.7,7.4-16.4,10.8-21
		c6.8-8.9,15.8-19.1,22.3-25.8c19.3-0.8,11.5,10.6,8.3,12.8c-0.3,0.2-0.3,0.5-0.2,0.8c0.1,0.3,0.4,0.4,0.7,0.3
		c0.1,0,0.1-0.1,0.2-0.1c7-1.8,13.6-6.7,15.9-11.1c0,0,5.1-8.8,0.7-16.2c-0.2-0.4-0.4-1-0.6-1.5c2.4-1.1,5.4-5.2,5.5-5.8
		c3.2,0.9,15.6,0.3,16.8-6.8c5.7,0.6,16-3.2,16.4-9.5c0.7,0.6,2.1,0.7,3.7,0.4c0.6,5.2,8.6,10.2,10.4,9.1
		c0.8,8.7,11.8,12.8,14.9,11.3c-0.5,2.1,7.5,6.1,10.8,5.9c-6.2,16.8-17.3,35.8-32.5,43.4c-4.1-0.4-9.9-3.1-12.5-4.9
		c-2.1-1.4-4.7-3.1-6.3-5.7s-1.5-2.5-3.3-4.2c-1.7-1.7-5.2-3-6.3-2.9c-0.8,0.1-2.1,0.7-3.3,1.5c-15.1-2.7-13.6,8.1-12.3,12
		c0,0.2,0.2,0.4,0.4,0.5c0.3,0.1,0.6,0,0.7-0.2c0-5.6,3.2-5.6,4.9-3c0,0.1-0.1,0.2,0,0.3c0.9,2,0.5,3,0.2,3.8
		c-1.7,0.2-3.4,0.6-5.3,2c-13.3-1.5-12,13.2-7.8,14.9c0.1,0.2,0.3,0.4,0.6,0.3c0.2,0,0.4-0.2,0.5-0.5c-2.4-3.5,3.6-8.8,5-2.5v0
		c-0.2,0.2-0.2,0.5-0.1,0.7c0.3,2.1,2.7,4.1,4.8,5.1c-0.4,0.6-1.2,1.2-1.4,2.3c-14,4.9-6.2,16.9-2,18.6c0.2,0.1,0.5,0.1,0.7,0
		c0.2-0.1,0.3-0.4,0.2-0.6c-1.3-1.8-0.8-5.9,5-5.1c0.5,1.7,3,2.4,5,2.5c4,0,11.3-5.4,15.1-7.5c3.6-2,9.5-1.2,11-1.1
		c0.8,0.6,2,1.3,4.6,1.3c14-0.2,16.4-7.8,30.6-7.5c6.3,0.1,21.4,7.6,26.2,0.7c2.2-0.8,3.4,1.1,0.7,3.7c-0.2,0.2,0,0.5,0.3,0.7
		c0.2,0.1,0.4-0.1,0.7,0c4.2,0.5,16.7-13.1,0.1-17.6c-0.1-0.1-0.1-0.3-0.3-0.4c-0.4-0.3-2.5-2.5-7.4-2.5c-5.1,0-8.7,2.3-10.4,2.8
		c-3.7,1.1-2.4-2-2-2.9c4.1-10.1,24.1-29,33.2-36.6c0.9-0.4,2-0.9,3.3-1.7c9.1-3.3,11.5,5.6,2.6,8.8c-0.4,0.4-0.4,1-0.1,1.4
		c0.3,0.5,0.8,0.7,1.3,0.6c21.1-5.6,17.9-17.1,17.9-17.3c0.8-11.9-13.4-16.9-15.7-18.1c-3.9-4.3-4.8-6.8-4.5-9.9
		c0.1-1.5,1.3-4,3.3-2.9c3.4,2.7,7.5,4.3,8.6,2.1c-2.4,2.8,14.3,12.8,16,8.7c1.6,7.2,13.7,6.7,16,4.8c3.5,6.8,15.8,5,15.8,3.8
		c-0.5,2.5,10.7,6.2,15.9,2.3l0.2,0.6c4.1,5,6.5,11.6,9.3,23.3c2.8,11.6,2.3,20.9-1.4,30.3c-0.2,0.3-1.2,0.4-2.3,0.3
		c-3-1.2-4.8-2.1-6.8-3.7c-1.9-1.6-4.2-3.7-5.9-6.2c-1.6-2.8-2.7-5-4.4-6.8c-1.7-1.7-4.7-2.5-7-2.7h-0.1c-1,0.1-1.8,0.4-2.6,0.9
		c-11.3-3.5-16.7,8.4-15.3,12.3c0,0.2,0.2,0.5,0.5,0.5c0.3,0.1,0.5,0,0.7-0.2c1.1-2.9,6.3-4.4,8.2-1.6c0.3,1.2,0.2,2-0.1,2.6
		c-2.3,0.3-5.1,1-7.8,4.3c-13.2,0.8-8.7,13.8-6,17.1c0.1,0.2,0.3,0.4,0.6,0.3c0.3,0,0.5-0.2,0.5-0.5c-0.3-3.7,3.5-8.2,6.2-4.8
		c1.2,1.9,3.8,3.2,5.7,3.7c-15.1,6.9-4.3,16.9-0.2,18.7c0.2,0.1,0.5,0.1,0.7,0c0.2-0.1,0.3-0.4,0.3-0.6c-1.8-2.9-0.8-7.4,2.7-6.2
		c-0.1,2.4,4.9,4.1,7.2,4.1c4,0.1,8.2-3.2,12.1-5.3c3.7-2,12.3-2.1,14-2.1c5.8,5.5,16.8,4.1,23,2.2c6.6-2.1,11.6-5.7,16.7-5.9
		c7,0,12.4,8.5,18.6,1.3c4-1.9,5.2,3,3.3,6.1c-0.1,0.2,0,0.5,0.2,0.6c0.2,0.1,0.5,0.2,0.7,0c4.1-1.7,14.6-11.4,0.2-18.4
		c0.7-1.9-5.6-7.3-10.9-7.3c-6.5,0-16.3,9.9-20.1-9.8c-0.9-4.7-3.6-39-3.8-42.3c1.3-0.8,3-1.8,4.2-1.7c1.4-0.1,2.9-0.2,4.3,2.1
		c1.4,2.3,2.5,5.7-1.1,10.4c0,0.1,0.1,0.1,0,0.2c0,0.1-0.1,0.2-0.1,0.3c0,0.1,0.1,0.1,0.1,0.1c0,0.1,0,0.1,0,0.2c0,0,0.1,0,0.2,0
		c0,0,0,0.1,0.1,0.1c0.2,0.1,0.4,0,0.6-0.2c8.9-8.9,11.1-18.4,8.7-24.9c-2.4-6.5-8.9-11.3-14.2-11.5c-6.4-0.2-13.5-3.9-19.5-9.5
		c-6-5.6-9.8-12-12.2-18c-0.4-1.1-1-2.1-1.5-3.2c39-13.5,50.2-44.6,50.2-63.7c0-13.2-5.4-24.5-13.2-32.7c-0.1-3.2,0.7-7.2,2-10.8
		c0.7-2,1.5-3.8,2.2-5.1c0.3-0.6,0.5-0.9,0.7-1.3c0.2,0.8,0.3,1.5,0.8,2.6c0.7,1.6,1.5,3.6,2.5,5.5c2,3.9,4.3,7.9,6.4,9.6
		c0.2,0.1,0.4,0.2,0.6,0.1c0.2-0.1,0.3-0.3,0.4-0.5c1.6-19.2,8.2-47.4,29.6-73.4c0,0,0,0,0,0c0,0,0,0,0,0c0.1,0,0.1-0.1,0.2-0.1
		c0.3-0.1,0.4-0.4,0.3-0.7c-0.1-0.3-0.4-0.5-0.7-0.4c0,0-0.1,0-0.1,0c0,0,0,0,0,0c-4.9,2.3-9.3,4.6-13.3,6.8
		c-34.8,18.6-41.1,31.1-60.4,46c-0.2,0.2-0.3,0.5-0.2,0.7c0.1,0.3,0.4,0.4,0.6,0.4c9.5-0.5,17.7-2.6,25.2-6.4
		c-1.9,3.1-4.1,6.9-6.2,10.2c-1.2,2-2.5,3.7-3.4,4.8c-0.5,0.6-0.9,1-1.3,1.2c-0.2,0.1-0.2,0.1-0.3,0.1c-5.1-2.4-10.5-3.8-15.7-3.8
		c-19.2,0-32.5,12.8-32.6,28.2c-0.1,16.5,12.7,28.8,25.5,28.2c4.4-0.2,10.3-1.4,15.5-4.8c3.8-2.5,7.1-6.4,9.1-11.8
		c0,0.4,0.1,0.9,0.1,1.3c0,8.9-3.4,14.9-8.9,19.1c-5.5,4.1-13.4,6.2-22.2,6.4c-8.6,0.2-17.4-4.5-29.8-9.5
		c-12.4-5-28.5-10.2-51.5-10.6c-6.9-0.1-13.4,0.6-18.9,3.4c-0.3,0.2-0.6,0.5-1,0.7c2.9-3.5,6.5-6.7,10.7-9c10-5.5,22.7-6.9,34-2.3
		c1.2,0.6,2.6,1.3,3.7,1.7c0.9,0.4,1.4,0.4,2.1,0.6c0.2,1.4,0.2,2.5,0,3c-0.1,0.3-0.3,0.4-0.5,0.5c-0.1,0-0.3,0.1-0.4,0.1
		c-0.2,0-0.5,0.1-0.9,0c-0.2,0-0.4,0-0.6,0.2c-0.1,0.2-0.2,0.4-0.1,0.6c0,0.3,0.1,0.5,0.3,0.6c0.2,0.1,0.3,0,0.4,0.1
		c0.9,0.9,1.9,1.3,2.9,1.1c1.2-0.3,2.2-1.2,3-2.3c0.8-1.1,1.4-2.4,1.7-3.6c0-0.1,0-0.2,0-0.4c0.9-1.1,1.7-2.6,1.3-4.4
		c-0.3-1.9-1.9-3.9-4.8-5.5c-0.1,0,0-0.1-0.1-0.2c-0.1-0.1-0.7-0.7-1.2-1.8c-0.5-1-1-2.5-1.4-4.2c-0.7-3.3-1-7.6,0-11.9
		c1.9-8.5,8.2-17,25.4-18.7c0.1,0,0.1-0.1,0.2-0.1c3.3,0.7,6.3,1.1,8.6,1.1c0.4,0,0.6-0.1,1-0.1c0.2,0.2,0.3,0.3,0.4,0.6
		c0.3,0.4,0.4,0.9,0.3,1.6c-0.1,0.5-0.5,1.1-1,1.8c0,0,0,0-0.1,0c-0.2,0-0.3,0.2-0.4,0.4c-0.1,0.2,0,0.4,0.1,0.6v0v0h0v0
		c0.1,0.2,0.2,0.4,0.4,0.4c0.2,0,0.5-0.1,0.7-0.1c1,0.3,2.1,0.3,3-0.3c1.2-0.8,2.2-2.2,2.8-3.8c0.6-1.5,0.8-3.2,0.3-4.7
		c-0.3-1-1.2-1.7-2.3-2.1c-13.6-14.2-13-31.3-7.7-45.9c2.7-7.3,6.6-13.8,10.5-18.7c3.9-4.9,8.2-8.4,10.3-9.2c0.1,0-0.1,0.1,0,0
		c0.8,0,1.7,0.1,2.5-0.1c1.2-0.3,2.3-0.9,3.2-1.7c0,0,0,0.2,0.1,0.2c0.3,0.1,0.6,0,0.7-0.3l0,0c0.1-0.1,0.3-0.1,0.5-0.2
		c0.4-0.1,1-0.2,1.4-0.2c0.2,0,0.3,0.1,0.4,0.1c0.1,0.1,0.1,0.1,0.1,0.2c0,0.3-0.1,1.1-0.8,2.2c0,0,0,0,0,0v0v0
		c-0.1,0.1-0.1,0.3,0,0.5c0,0,0,0,0,0v0c0,0,0,0,0,0c0,0,0,0.1,0,0.1c0,0,0,0,0,0c0,0,0,0,0,0c0,0,0.1,0.1,0.1,0.1c0,0,0,0,0.1,0
		c0,0,0,0,0.1,0c0,0,0,0,0.1,0c0,0,0,0,0.1,0c0.1,0,0.1,0,0.2,0c0,0,0.1-0.1,0.1-0.1c0,0,0,0,0,0c1.1-0.2,2.1-0.8,3.1-1.8
		c1-1.1,1.9-2.5,2.3-4c0.4-1.4,0.3-3-0.7-4.1c-0.9-0.9-2.5-1.3-4.6-1.3c-0.4-0.8-1-1.6-2-2c-0.9-0.4-2-0.4-3.2-0.4l-0.8-0.2
		C554.3,234.4,552.4,233.5,550.5,233.3L550.5,233.3z M252.4,294.7c4,0,8,0.7,11.7,2.4c-0.8,0.7-1.8,1.1-3,1.4
		c-2.3,0.5-5.2,0.4-8-0.1c-2.8-0.5-5.4-1.5-7.2-2.4c-0.5-0.3-0.8-0.5-1.1-0.8C247.3,294.9,249.8,294.7,252.4,294.7L252.4,294.7z
		 M564.8,354.5c1.5,0,3.1,0.3,4.7,0.9c1.2,0.4,2.4,1.2,3.6,1.9c-0.2,0.2-0.3,0.5-0.4,0.7c-2.1,7.6-6.1,9.8-9.3,9.8
		c-3.2-0.1-5.9-2.5-5.9-5.7c0-4,1.4-5.9,3.5-6.9C562,354.8,563.3,354.5,564.8,354.5L564.8,354.5z M340.7,374.8
		c0.9-0.1,1.6,0,2.2,0.5c0.6,0.5,1.1,1.3,1.3,2.7c0,0.1,0.1,0.1,0.2,0.2c0,0.2,0,0.4,0.3,0.5c0.1,0,0.1,0,0.2,0
		c-1.1,1.3-2.1,2.6-3.3,3.9c-2-0.8-3.7-2-5.1-4.2C337.5,376.4,339.2,375,340.7,374.8L340.7,374.8z"/>
	<path class="st2" d="M550.8,235.3c-7.3,7.3-14.5,12.4-24.7,18.6c-17.9,11-38.9,13.8-65.1,15.1c-53,2.8-76.5,13.1-87.4,28
		c-10.9,14.9-9,34-11.8,54c-0.9,6.3-2.8,13.8-6.2,20.1c-2.9,5.4-6.8,9.8-12.2,12.2c14.7-13.3,14.8-26.3,16-34
		c2.2-13.7-0.3-33.2,10.4-49.8c10.6-16.6,34.4-30.5,89.7-32.6c22.8-0.9,36.7-3.1,46.4-5.9c9.6-2.9,15-6.4,20.6-9.8
		c5.7-3.5,10.5-8.8,15.1-12.4c2.3-1.8,4.6-3.1,6.9-3.6C549.3,235.2,550,235.3,550.8,235.3z M557.2,238.4c1,0,1.9,0,2.3,0.2
		c0.5,0.2,0.7,0.5,0.8,0.9c0.3,0.7-0.1,2.2-1.1,3.6c-1,1.4-2.6,2.6-4.2,3.1c-1.7,0.5-4.6-0.8-5-1.2c-0.2-0.2-0.5-0.2-0.8-0.2
		c-0.3-0.3-0.6-0.6-0.9-1c-0.1-0.2-0.3-0.2-0.5-0.2c-0.1,0-0.2,0.1-0.3,0.1c-26.1,23.9-48.4,28.4-85.2,31
		c-12.5,0.9-32.1,3.3-49.1,7.5c-8.5,2.1-16.3,4.7-22.2,7.8c-5.9,3.1-10.1,6.8-11,11.2c0,0.2,0,0.4,0.2,0.5c0.1,0.1,0.3,0.2,0.5,0.2
		c0.1,0,0.2,0,0.2,0c0.3,0.3,0.6,0.6,1.1,0.5c3.1-0.3,12.1-0.3,24.2,0.1c12.1,0.5,27.5,1.4,43.7,2.9c31.2,3,65.3,8.4,85.6,17
		c0.4,0.5,0.8,1,1.2,1.5c0,0,0,0,0,0c-0.5,0.3-1.8,0.5-3.6,0.3c-3.7-0.3-9.4-1.7-16.4-3.5c-14-3.6-32.9-8.9-50.3-10.7
		c-29.6-3.1-47.3-7.1-87.7-7.2c0,0-0.1,0-0.1,0c0,0-0.1,0-0.1,0c-0.2,0.1-0.2,0.2-0.4,0.3c-0.1,0.1-0.3,0.3-0.5,0.5
		c-0.4,0.4-0.8,0.9-1.3,1.6c-0.8,1.4-1.5,3.4-1.2,5.9c0,0.2,0.1,0.4,0.3,0.5c0.1,0,0.2,0,0.3,0.1c0.1,0.1,0.1,0.4,0.3,0.4
		c3.5,0.6,11.4,3.1,21.6,6.7c10.2,3.6,22.7,8.5,35.6,13.8c25.3,10.5,52.3,23,67.5,32.8c1.1,0.8,2.6,2,3.3,3c0.2,0.3,0.3,0.5,0.4,0.7
		c0,0.2,0,0.3,0,0.4c-0.1,0.1-0.7,0.4-1.4,0.6c-6-1.3-15.5-6.4-26.5-12.8c-12-6.9-25.7-15.1-38.5-20.4
		c-22.5-9.3-49.8-21.4-62.7-24.2c0,0-0.1,0-0.2,0c-0.2,0-0.2,0.2-0.3,0.4c-0.1,0-0.2,0-0.3,0c-0.1,0-0.1,0.1-0.2,0.1
		c-0.9,0.6-1.6,1.3-1.9,2.1c-0.3,0.8-0.2,1.7,0.2,2.5c0.8,1.8,2.6,3.7,5.4,6.5c5.5,5.6,14.8,14.4,26.6,29.7
		c20.5,26.5,30,39.3,34.2,45.6c2.1,3.2,2.7,4.8,2.7,5.4c0,0.3,0,0.4-0.1,0.5c-0.1,0.1-0.3,0.2-0.6,0.4c-1.6-0.1-2.6-0.4-3.6-1.3
		c-1-0.9-2-2.6-3.6-5.3c-3.1-5.4-8.4-14.9-20.6-30.9c-7.4-9.7-16.5-20.2-24.1-28.9c-7.5-8.6-13.6-15.4-15.5-18
		c0-0.1-0.1-0.3-0.1-0.4c-0.1-0.1-0.2-0.3-0.3-0.3c-0.3-0.1-0.8-0.1-1.1,0.1c-0.3,0.2-0.5,0.5-0.7,0.8c-0.4,0.6-0.6,1.5-0.9,2.6
		c-0.6,2.2-1.1,5.2-1.5,8.4c-0.4,3.2-0.7,6.5-0.9,9.2c-0.2,2.6-0.3,4.5-0.2,5.5v0v0v0.2c0,0.1,0.1,0.2,0.1,0.3
		c0.5,4.6,2.5,8.5,5.1,13.8c2.7,5.6,5.9,12.8,8.9,24.3c2.5,9.7,5,19.7,6.2,27.3c0.6,3.8,0.8,7.1,0.7,9.3c-0.1,1.1-0.3,2-0.6,2.6
		c-0.3,0.6-0.6,0.8-1.1,0.9h0c-0.7,0.2-1,0.1-1.2-0.2c-0.3-0.3-0.5-0.9-0.7-2c-0.4-2.2-0.5-6-1.1-11.6c-1.2-11.1-4.3-29.4-15-57.2
		c0-0.1,0-0.1-0.1-0.2c0-0.1-0.1,0-0.1-0.1c-0.1-0.1-0.1-0.2-0.2-0.3c-0.1,0-0.1,0-0.2,0c0,0-0.1-0.1-0.1-0.1c0,0,0,0.1-0.1,0.1
		c-0.1,0-0.2,0-0.3,0c-0.1,0.1-0.3,0.2-0.3,0.3c-0.2,0.3-0.4,0.6-0.6,1c-0.4,0.8-0.9,2-1.4,3.6c-1.1,3.1-2.5,7.5-3.7,12.6
		c-1.7,6.8-3.2,14.9-4,23.1c-0.1-1.2-0.1-2-0.1-3.2c-0.1-2.9-0.1-5.8,0.1-8.2c0.1-1.2,0.3-2.2,0.6-3.1c0.1-0.4,0.2-0.6,0.4-1
		c0.2-0.5,0.3-1,0.6-1.3c0,0,0,0,0-0.1c0,0,0-0.1,0-0.1c0.1-0.2,0.1-0.4,0-0.6c0,0-0.1,0-0.1,0c-0.1-0.1-0.3-0.3-0.5-0.2
		c-0.1,0-0.2,0.1-0.3,0.1c-4.7,4.5-7.8,7.8-10.1,12.8c-1.1,2.5-2.1,5.4-2.9,9c0.1-2.4,0.2-4.7,0.4-6.5s0.4-3.2,0.6-3.7
		c0.1-0.2,0.1-0.5-0.1-0.7c-0.2-0.2-0.4-0.2-0.6-0.1c-0.1,0-0.1,0.1-0.2,0.2c0,0-0.1,0-0.1,0c0,0-0.1,0-0.1,0c-3,1.4-7.3,4.4-11,8.2
		c-1.7,1.8-3.2,3.8-4.5,5.9c0.9-3.8,1.8-5.3,2.6-6.9c0.3-0.3,0.5-0.6,0.7-1c0.1-0.2,0.1-0.4,0-0.6c-0.1-0.1-0.2-0.1-0.3-0.2
		c0,0,0,0,0,0c-0.1,0-0.1-0.1-0.2-0.1c-0.1,0-0.1,0-0.2,0c-0.1,0-0.2-0.1-0.3-0.1c-0.1,0-0.1,0.1-0.2,0.1
		c-16.4,1.5-26.4,7.6-32.2,14.6c-3.9,4.6-5.8,9.5-6.7,13.6c0.7-10.5,7-20.4,16.1-24.1c5.2-2.1,12.2-3,18.5-4.1
		c6.1-1.1,11.5-2.4,14.2-5.4c7.4-2.6,12.9-9.6,16.6-17c3.8-7.5,5.9-15.4,6.7-19.6c3.2-17.9,0-36.8,9.9-51.6
		c5-7.4,13.2-13.9,27.2-18.7c14.1-4.9,34-8.1,62.2-9.1c22.8-0.8,36.6-3.7,46.2-7.2c9.5-3.5,14.8-7.7,20.4-11
		c3.1-1.8,8.5-6.5,14.2-10.3c2.8-1.9,5.8-3.7,8.5-4.8C555.1,238.8,556.2,238.6,557.2,238.4L557.2,238.4z M337,241.2
		c-0.9,2.1-2,4.3-3.4,6.1c-1,1.4-2,2.6-2.7,3.4c-0.4,0.4-0.7,0.7-0.8,0.9c0,0,0,0.1-0.1,0.1c0,0,0,0,0,0c0,0-0.1,0-0.1,0
		c0,0,0,0,0,0c-0.1,0-0.1,0.1-0.1,0.2c-4,0.5-8,1.1-11.3,2.5c-0.4,0.2-0.7,0.5-1.1,0.7c-2.4-0.8-4.6-1.3-6.9-1.9c0,0,0,0,0,0
		c0.1-0.3,0.4-0.6,1-1c0.6-0.4,1.6-0.7,2.7-1c2.3-0.7,5.4-1.4,8.6-2.3C328.1,247.4,333.6,245.2,337,241.2L337,241.2z M563.9,241.3
		c0.6,0.1,1,0.3,1.3,0.5c0.6,0.4,0.8,1,0.7,1.9c-0.1,0.7-0.6,1.5-1.1,2.3c0.1-0.6,0.3-1.2,0-1.6c-0.5-1-1.6-1.4-2.7-1.7
		c0.2-0.5,0.4-0.9,0.6-1.3C563.1,241.3,563.6,241.3,563.9,241.3L563.9,241.3z M351.9,246.6c-2,10.6-7.8,17.3-13.3,21.6
		c-3,2.3-5.9,3.9-8.1,5.1c-1.1,0.6-2,1.1-2.7,1.6c-0.3,0.2-0.6,0.5-0.8,0.7c-0.2,0.3-0.4,0.6-0.4,0.9c0,0.3,0.3,0.6,0.6,0.6
		c0.9,0,3.3,0,5.7-0.1c0.9,0,1.2,0,2,0c2.7,5.7,3.8,13.8,3.6,23.1c-0.2,9.9-1.8,21.1-4,31.8c-2.2,10.8-4.8,22.7-4.8,33.1
		c0,5.2,0.7,9.9,2.5,13.9c1.5,3.2,3.7,6,6.8,8c-0.6,0.9-1.5,1.7-3.1,2.3c-1.9,0.7-4.3,1.2-7,1.7c-5.3,0.9-11.6,1.4-16.2,2.8
		c-3.1,0.9-9.8,4.4-15,10.6c-4.3,5.2-7.2,12.4-6,21.5c-0.1,0.2-0.1,0.4-0.1,0.5c0.1,0.3,0.2,0.5,0.3,0.8c0.3,1.4,0.3,2.7,0.8,4.1v0
		c0.1,0.3,0.4,0.5,0.7,0.4c0.3-0.1,0.5-0.4,0.4-0.7c0,0,0-0.1,0-0.1c0-0.1,0-0.2,0-0.3c-0.1-0.5-0.1-0.9-0.2-1.4
		c1.1,0.6,2.5,0.8,4.3,0.9c-2.2,5-3.7,10.6-4.7,16.6c-1.1-1.7-2.7-3.2-4.9-4.7c0.2-0.7,0.3-1.3,0.3-2c0-3.4-2.3-7.4-7.4-12.2
		c0.4-0.6,0.7-1.2,0.9-1.8c1-3.1,0.3-7-2.7-12.2c1.9-3.1,1.9-7.7-0.8-14.8c0,0-0.1,0-0.1-0.1c0.3-0.3,0.6-0.4,0.8-0.7
		c2.3-2.8,2.9-7.1,1-13.6c0,0,0,0,0,0c0.5-0.4,0.9-0.7,1.3-1.2c2.2-2.5,3.1-6.6,2.1-13c0.8-0.4,1.6-0.9,2.2-1.6
		c2-2.2,2.9-6.1,2.4-12.2c1.5-0.5,2.8-1.2,3.9-2.3c2-2.1,2.9-5.5,2.2-10.5c1-0.5,2-1,2.7-1.9c1.8-2.1,2.7-5.4,2.4-10.3
		c0.7-0.3,1.4-0.6,1.8-1.1c1.2-1.3,1.5-3.2,1.4-5.9c0-2.3-0.3-5.7-0.5-9.6c0.9-1.4,1.6-2.9,1.8-4.8c0.4-3,0-6.8-1.2-11.5
		c1.5-3.7,2.4-7.9,2.1-12.9c1.1,0.4,2.3,0.6,3.9,0.3c1.8-0.3,4-1.4,6.6-3.2c0.1,0,0.1-0.1,0.2-0.1c0,0,0.1,0,0.1-0.1
		c0.3-0.2,0.3-0.5,0.2-0.8c-0.2-0.3-0.5-0.4-0.8-0.2c0,0,0,0.1-0.1,0.1c-0.6,0.3-1.3,0.8-1.7,1c-0.5,0.3-0.9,0.4-1.1,0.3
		c-2.6-1-3.2,0.2-10.7-6c-0.1-0.1-0.3-0.2-0.4-0.1c-0.2,0-0.4,0.1-0.5,0.3c-0.1,0.2-0.1,0.4,0,0.6c0,0.1,0.1,0.2,0.1,0.3
		c0,0,0,0,0,0c0.7,1.5,2,2.9,3.4,4.1c0.6,0.5,0.9,0.6,1.4,0.9c-1.7-0.4-3.1-1-4.2-1.5c-0.2-0.1-0.5-0.1-0.7,0.1
		c-0.2,0.2-0.2,0.4-0.1,0.7c3.2,7.5,0.9,16.6-4.7,22.5c-5.5,5.9-14.1,8.7-23.5,4.2c-0.1-0.2-0.4-0.4-0.6-0.3c-0.1,0-0.2,0.1-0.3,0.3
		c0,0-0.1,0-0.1,0c-1.3,2.2-2.4,4.2-4.7,6.3c-1.4,1.3-3.6,2.8-6.3,4.3c1.2-1.1,2-2.2,2.5-3.2c1.1-2.2,1.1-4.3,1-7
		c0-0.3-0.2-0.5-0.4-0.6c-0.3-0.1-0.5,0.1-0.7,0.3c-1.7,3.1-6.9,7.7-15.4,10.9c3.6-3,5.9-6.1,6-9.3c0-0.3-0.1-0.5-0.3-0.6
		c-0.2-0.1-0.5-0.1-0.7,0.1c-4.7,4.2-12.9,5.5-20.8,6c1.8-0.8,3.5-2.1,5-3.7c3-3.3,5.5-8.3,7-15c5.6,3.3,10.6,4.3,14.9,4
		c4.9-0.3,8.8-2.2,11.6-3.8c-0.1,1.2-0.1,2.2-0.2,3.8c0,0.3,0.2,0.5,0.5,0.6c0.3,0.1,0.6-0.1,0.7-0.4c2.6-6.2,3.9-10.1,3.6-13.4
		c-0.3-3.3-2.4-5.7-6.1-8.9c-0.1-0.1-0.3-0.2-0.5-0.1c-0.3,0-0.4,0.3-0.5,0.5c-0.1,0.8-0.1,1.5-0.2,2.3c-7.3-0.4-15.1-7.3-30.9,4.6
		c-0.4-6.9,0-11.5,1.9-15.2c0.7,0.1,1.5,0.1,2.2,0c1.5-0.3,2.9-1.1,3.9-2.7c0.9-1.5,1.5-3.7,1.7-6.6c9.5,0.4,20.3,2.2,32,5.6
		c0,0,0.1,0,0.1,0c0.3,0.1,0.6-0.1,0.7-0.4c0-0.1,0-0.1,0-0.2c0,0,0.1,0,0.1,0c0.1-0.3,0-0.6-0.3-0.7c0,0,0,0-0.1,0c0,0,0,0-0.1,0
		c-1.9-0.8-3.4-1.6-4.7-2.4c-0.8-0.7-1.5-1.5-1.8-2.3c-0.6-1.9,0.3-3.9,2.9-5.5c5.3-3.3,17.8-4.4,38.1,2.4c-0.8,1-1.4,2.1-1.9,3.4
		c-0.1,0.3,0,0.6,0.2,0.7c0.2,0.1,0.5,0.1,0.7-0.1c5.8-5.7,13.9-6.6,21.7-7.8C340.6,253.8,347.4,252.2,351.9,246.6L351.9,246.6z
		 M346,255.8c-0.1,0-0.2,0.1-0.3,0.1c-5.1,4-9.5,5.3-14.4,6.2c-4.2,0.6-6,2.2-7,2.9c-0.3,0.2-0.5,0.3-0.6,0.3c-0.2,0-0.3,0-0.4,0
		c-0.3-0.1-0.9-0.5-1.9-1.6c-0.2-0.2-0.4-0.2-0.7-0.1c-0.2,0.1-0.4,0.3-0.3,0.6c0,0.1,0.1,0.2,0.1,0.3c0,0,0,0,0,0
		c0.2,1,0.8,2.3,1.6,3.7c0.4,0.7,0.9,1.5,1.3,2.1c0.4,0.6,0.7,1,1.2,1.3c0.1,0.1,0.3,0.1,0.5,0.1c0.2-0.1,0.3-0.2,0.4-0.3
		c1.6-3.4,3-5.4,4.1-6.5c1.1-1.1,2-1.2,2.7-1.1c0.7,0.1,1.4,0.6,2,1.2c0.3,0.3,0.6,0.5,0.9,0.7c0.3,0.2,0.7,0.4,1.1,0.3
		c0.2,0,0.3-0.1,0.4-0.2c1.8-2.6,5.4-5.4,9.7-8.8c0.2-0.2,0.3-0.4,0.2-0.7C346.6,255.9,346.3,255.8,346,255.8L346,255.8z
		 M185.8,257.5c7,9.8,16.1,19,29.1,25.9c-5.3,0.5-9.4-0.6-12.8-2.8c-4.4-2.8-7.6-7.4-10.8-12.4c0,0,0-0.1,0-0.1
		c-0.1-0.2-0.4-0.3-0.6-0.3c-0.2,0-0.3,0.2-0.4,0.3c-0.1,0.2-0.1,0.4,0,0.5c0,0,0,0,0,0c4.3,9.3,7.9,13.5,10.1,16.6
		c2,2.8,2.8,4.7,2.4,8.8c-5.3-3.9-9.4-10.7-12.2-17.9C187.7,269,186.3,262,185.8,257.5L185.8,257.5z M538.3,258.2
		c-3.5,4.8-6.8,10.5-9.2,17c-4.9,13.3-5.9,29.5,3.5,43.5c-21.1-8-53-12.8-82.3-15.6c-16.3-1.6-31.7-2.4-43.8-2.9
		c-10.9-0.4-17.9-0.4-22-0.1c1.9-3.3,6.4-6.4,12.8-9.1c7.1-3,16.2-5.4,25.3-7.3c18.3-3.9,37-5.8,41-6c29.1-1,49.5-6.9,63.5-13.3
		C531.4,262.2,535,260.2,538.3,258.2L538.3,258.2z M278,260.3c-1-0.1-2.1,0-3.4,0.3c-0.3,0.1-0.5,0.3-0.4,0.6
		c0.1,0.9,0.5,1.6,1.1,2.1c0.6,0.5,1.2,0.8,2,1.3c1.4,0.9,3.1,2.1,4.3,5.3c0.1,0.2,0.3,0.4,0.5,0.4c0.2,0,0.5-0.1,0.6-0.3
		c0.2-0.5,0.3-0.9,0.4-1.2c0-0.1,0.1-0.1,0.1-0.1c0.2,0.2,0.4,0.4,0.7,0.7c0.2,0.2,0.5,0.5,0.9,0.6c0.4,0.1,0.9,0.1,1.4-0.1
		c4.7-1.5,7.9-2.2,10.2-2.3c2.2-0.2,3.4,0.2,4.4,1c0.2,0.2,0.5,0.1,0.7,0c0.2-0.2,0.2-0.5,0.1-0.7c0-0.1-0.1-0.1-0.1-0.1
		c-2.3-3.4-4.7-4.6-7.1-4.9c-2.5-0.3-4.9,0.2-7.7-0.3c-2.8-0.5-4.4-1.2-6-1.8C279.8,260.6,279,260.4,278,260.3L278,260.3z
		 M278.7,262.1c1.3,0.2,4.2,1.3,5.3,1.3c-0.7,2.5,0.7,3.6,1.9,4.3C282.2,268.1,278.8,262.5,278.7,262.1L278.7,262.1z M241.8,262.1
		c0.1,1.2,0.2,3-0.4,4.5c-0.3,0.9-0.8,1.6-1.6,1.9c-0.8,0.3-2,0.3-3.7-0.5c0,0,0,0,0,0c-1.2-0.6-4.7-2.3-8.4-3.3
		c-0.9-0.2-1.8-0.2-2.6-0.3C229.8,262.9,235.4,262.1,241.8,262.1L241.8,262.1z M291.9,263.9c1.9-0.2,3.4,0.9,1.7,1.9
		c-1.8,1-4.8,2.4-6.6,1.8c1.8-0.1,2.3-2.1,1.5-3.5C287.8,263.9,290,264.1,291.9,263.9z M300.3,270c-3.2-0.1-5.2,0.1-6.7,0.5
		c-1.5,0.4-2.5,1.1-3.7,1.9c-0.2,0.1-0.3,0.4-0.3,0.6s0.3,0.4,0.5,0.4c1.2,0.2,1.8,0.4,2,0.5c0.1,0.1,0.1,0.1,0.2,0.2
		c0.1,0.1,0.2,0.3,0.3,0.6c0.1,0.2,0.3,0.4,0.5,0.4c0.2,0,0.5-0.1,0.6-0.3c0.8-1.7,1.5-2.5,2.5-3c0.9-0.4,2.2-0.5,3.9-0.6
		c0.1,0,0.2,0,0.3,0v0c0,0,0,0,0,0c0.3-0.1,0.5-0.3,0.4-0.6C300.8,270.3,300.6,270.1,300.3,270C300.3,270,300.3,270,300.3,270
		C300.3,270,300.3,270,300.3,270L300.3,270z M637.7,274.5c-22.6,26-28,54-29.4,62.6c-3-5.1-6.7-10.9-4.4-18.1v0
		c5.4-13.1,7.3-15.2,21.6-33.8c0,0,0,0,0,0c0.2-0.3,0.2-0.6-0.1-0.8c-0.2-0.2-0.6-0.2-0.8,0c0,0,0,0,0,0c0,0,0,0,0,0
		c-0.1,0.1-0.1,0.1-0.2,0.2c0,0,0,0,0,0c-15.5,12.9-22.5,21.7-28.5,27.6c-5.7,5.5-10.7,8.3-20.9,9.9
		C593.7,306.2,602.4,291.8,637.7,274.5L637.7,274.5z M340.5,276.7c0.2,0.1,0.2,0,0.3,0.1c1.5,0.5,3.4,1.5,5.3,3
		c3,2.5,5.9,6.6,7.1,13.3c-1.1-1.7-2.5-2.9-4.1-3.5c-2.5-1-5.2-1-6.9-1c-0.2-1.4-0.2-2.9-0.4-4.2c2-0.1,4.1-0.1,6.2,2.1
		c0.2,0.2,0.6,0.2,0.8,0c0.2-0.2,0.3-0.6,0.1-0.8c0,0,0,0,0,0c-2.6-3.5-5.3-5.3-7.7-5.3C340.9,279.1,340.7,277.9,340.5,276.7
		L340.5,276.7z M201.6,282.7c0.4,0.2,0.9,0.3,1.3,0.6c6.7,4.9,12.5,7.8,18,8.7c5.8,1,11.4,0,17.6-2.3h0c1.3-0.6,3.9-1.2,7-1.7
		c3.1-0.5,6.7-0.8,10.3-0.8c3.6,0,7.1,0.2,9.9,0.9c2,0.5,3.4,1.2,4.4,2.1c-5.6-1.2-10.8-1.6-17.3-1.2c-0.2,0-0.3,0.1-0.4,0.2
		c-0.2,0.2-0.4,0.3-0.4,0.8c0,0.2,0.2,0.5,0.4,0.6c0.2,0.1,0.3,0.1,0.4,0.1c0.5,0.1,1,0,1.8-0.1c1.5-0.2,3.7-0.5,6-0.3
		c2.3,0.2,3.3,0.3,8.4,1.9c0.4,0.4,0.6,0.8,0.7,1.3c-0.2-0.1-0.4-0.1-0.7-0.2c-0.6-0.2-1.4-0.3-2.4-0.6c-2-0.4-4.7-0.9-7.8-1.2
		c-6.2-0.7-13.8-0.9-19.8,0.9h0c-5.2,2.1-12.1,3.2-18.9,2.1c-6.4-1.1-12.6-4.2-17.3-10C202.3,284,202,283.3,201.6,282.7L201.6,282.7
		z M616.9,293.4c-12.1,14.6-18.5,27.1-21.8,35.7c-2,5.2-3,9.1-3.8,11.3c-0.3,1-0.7,1.4-0.9,1.7c-1.6-1.3-3.1-2.5-4.8-3.5
		c0-0.6,0.1-1.1,0.4-2.1c0.4-1.3,1.2-2.9,2.1-4.8c1.9-3.7,4.8-8.5,8.3-13.7C601.8,310.4,608.8,301.6,616.9,293.4L616.9,293.4z
		 M342.6,301.2c3.8,2.6,7.6,5.6,9.6,10c1.6,3.6,2.2,8.1,0.9,13.9c-0.3-2.8-1.5-5.2-3.4-6.8c-1.5-1.3-3.4-2-5.3-2
		c-1.3,0-2.6,0.4-3.8,1c0.4-2.3,0.7-4.5,1-6.5c0.5-0.1,1.2-0.2,2.2,0.2c1.1,0.4,2.3,1.1,3.4,1.9c1.1,0.8,2.2,1.8,2.9,2.7
		c0.8,0.9,1.2,1.9,1.2,2.5c0,0.3,0.3,0.6,0.6,0.6c0.3,0,0.6-0.3,0.6-0.6c0-0.9-0.5-1.7-1-2.6c-0.2-0.3-0.2-0.6-0.4-1
		c-0.8-1.3-1.9-2.5-3.1-3.7c-1.2-1.2-2.4-2.2-3.6-3c-0.9-0.6-1.6-1-2.3-1.1C342.3,304.9,342.5,302.9,342.6,301.2L342.6,301.2z
		 M300.3,303.4c1.3,3.1,1.6,5.6,1.1,7.5c-0.5,2.1-1.8,3.7-3.7,4.9c-3.2,2.2-8,3.2-12.3,3.9c-0.4-0.1-1.2-0.2-1.4-0.4
		c-0.2-0.2-0.3-0.3-0.3-0.4c0-0.1,0-0.2,0-0.3c0,0,0.1-0.1,0.1-0.1c0.2-0.2,0.3-0.4,0.6-0.7c0.7-0.6,1.7-1.2,2.8-2
		c2.2-1.5,5.1-3.4,7.9-6C296.9,308.1,298.7,305.9,300.3,303.4L300.3,303.4z M379.3,305.8c44.9,1.7,56.8,4.8,86.4,8.3
		c20.5,2.4,39.3,7.9,52.9,11.2c0.1,0,0.2,0,0.3,0.1c-13.2,3.3-19.3,11.6-21.1,19.8c-1.1,4.8-0.8,9.5,0,13.2c0.3,1.3,0.7,2.2,1.1,3.2
		c-15.9-9.7-40.8-21.2-64.6-31.1c-13-5.4-25.6-10.2-35.8-13.9c-8.8-3.1-15.3-5.2-19.6-6.2C378.5,309,378.5,307.1,379.3,305.8z
		 M375.9,316.6c0.6,0.1,1.2,0.2,2.3,0.6c1.4,0.4,3.3,1.1,5.4,1.9c4.3,1.6,9.8,3.7,15.9,6.2c12.2,4.9,26.6,11,37.8,15.7
		c12.3,5.1,29.5,15.3,43.7,23.1c0.7,0.4,1.3,0.7,2,1.1c-0.7,0-1.2-0.1-2-0.1c-4.7,0.1-10.4,1.1-15.9,3.1
		c-10.7,4-21.2,12.3-24.8,27.4c-0.4-0.6-0.6-1-1.1-1.7c-6.2-8.7-17.3-21.8-32.3-41.1c-9.3-11.9-18.5-20.6-24.5-26.7
		c-3-3.1-5.1-5.6-6-7.4C375.9,317.7,375.8,317.1,375.9,316.6L375.9,316.6z M299.5,317.8c0.7,3.7,0.8,6.4,0.3,8.2
		c-0.5,2-1.6,3.1-3.1,3.8c-2.3,1.1-6.1,1.2-10.3,1.4c-1.6-0.2-2.5-0.8-3-1.5c-0.6-0.8-0.7-1.7-0.6-2.8c0.3-2.1,1.7-4.6,3-5.8h0.1
		c0.4,0,0.5,0,1.2,0c0.1,0,0.1-0.1,0.2-0.2C292.2,320.6,296.5,319.9,299.5,317.8L299.5,317.8z M540.1,326c0.1,0.1,0.2,0.2,0.3,0.3
		c0.4,0.7,0.3,1.6,0,2.5c-0.4,1-1.1,1.9-1.9,2.5c0,0-0.1,0-0.1,0c0.5-0.6,0.8-1.2,0.9-1.9c0.1-0.8,0-1.6-0.2-2.4
		c0.1-0.1,0.3-0.1,0.4-0.2C539.7,326.6,539.8,326.3,540.1,326z M374.1,327c0.3,0.2,0.4,0.1,0.8,0.4c1.8,1.5,4.5,4.5,7.6,8.3
		c6.2,7.6,14.4,18.7,22.4,28.6c8.2,10.3,14.8,22.2,20.7,31.1c0.9,1.4,1.8,2.6,2.7,3.8c-2.8-0.8-5.9-1.5-9.3-1.5
		c-1.9,0-3.8,0.1-5.7,0.4c-7.5,1.2-15.2,5.5-21.1,14.7c-1.3-7.5-3.9-16.8-7.1-27.5c-4.7-15.6-7.5-21.5-9.4-25.2
		c-1.9-3.7-3-5.3-4.3-12.4c0,0,0,0,0-0.1c-0.2-3,0.3-8.8,1.1-13.6c0.4-2.4,0.9-4.6,1.4-6.1C373.9,327.5,374,327.3,374.1,327
		L374.1,327z M338.8,329c0.8,1.1,1.8,2.2,3.1,3.3c2,1.6,4.2,3.4,6,5.6s3,4.8,2.8,8.4c-0.1,2.7-1.4,6-3.4,9.9
		c0.3-1.8,0.2-3.5-0.4-4.8c-1-2.3-2.9-3.9-5-5.1c-2-1.2-4.2-1.9-5.6-2.5c-0.3-0.1-0.5-0.2-0.7-0.3c0.4-1.5,0.9-2.6,1.6-3.1
		c0.9-0.7,2.1-0.6,3.4-0.2c1.3,0.4,2.6,1.3,3.7,2.2c1.1,0.9,1.9,2,2.1,2.5c0.1,0.3,0.5,0.4,0.7,0.3c0.3-0.1,0.5-0.4,0.4-0.7
		c0,0,0,0,0,0c0,0,0-0.1,0-0.1c-1.7-4.5-4.9-5.8-7-7.3c-1-0.7-1.8-1.5-2.1-2.8C338.1,333.1,338.2,331.3,338.8,329L338.8,329z
		 M196.5,330.3c4.4-0.2,7.6,1.6,9.3,4.6c-0.5,0.4-1,0.4-1.8,0.5c-0.5-1.7-3.2-3.6-5.6-3.9c-0.2-0.1-0.4-0.2-0.6,0
		c-0.2,0.1-0.3,0.3-0.3,0.6c0,0.2,0.2,0.4,0.4,0.5c1.7,0.9,3.7,1.5,2.9,3.1c-0.9,0-1.4,0-2.1,0c0-1.7-3.5-3.3-6.9-4.5
		C193.5,330.6,195,330.4,196.5,330.3L196.5,330.3z M296.3,332.4c0.3,4.4-0.6,7-2.1,8.4c-1.6,1.5-3.9,1.9-6.5,1.8
		c-2.5-0.1-5.2-0.6-7.6-0.9c-0.1-0.1-0.1-0.3-0.3-0.3h-0.1c-0.7,0-1.2-0.2-1.5-0.4c-0.3-0.2-0.4-0.5-0.4-0.9c0-0.8,0.5-2.1,1.4-3.3
		c0.9-1.2,2-2.4,3.1-3.2c1-0.7,1.9-1,2.4-1c4,0,7.8,0.1,10.2-0.1C295.5,332.6,295.8,332.5,296.3,332.4L296.3,332.4z M565.1,335.7
		c17.5,0,39.6,17.9,39.6,43.5c0,17.8-10.2,47.5-48.2,60.4c-10.6-20.9-30.8-39.6-56.9-48.5c-0.1-0.1-0.3-0.1-0.4,0
		c-0.3,0.1-0.5,0.3-0.5,0.6c0,0.3,0.2,0.5,0.4,0.6c28.4,9.8,47.4,31.9,56.7,55.1c2.5,6.2,8.7,14.7,14.8,20.4
		c6.2,5.7,13.2,9.5,20.1,9.6c4.7,0.1,9.9,2.8,12.1,8.9c1.7,4.8,1.6,10.9-2.8,17.5c0.8-2.9,0.1-5.4-0.9-7c-1.7-2.7-5.2-3.8-7.6-3.7
		c-4.1,0.2-6.4,2-12,4.9c-0.3,0.1-0.4,0.5-0.3,0.8c0.1,0.2,2,0.4,4.1,0.4c0.2,3.2,5.2,37.2,5.9,42c3.7,23.6,20.1,12.2,22.9,12.6
		c5.3,0.8,6.5,2.3,8.2,4c-1.8,0.1-3.3,5.6-2.4,9.2c-6.6,4.8-13.3-2.5-18.1-2.5c-5.6,0.1-11.7,4-18.2,6c-5.9,1.9-8.8,3.3-16.2-0.1
		c1.1-0.3,2.5-0.7,2.6-0.7c0.2,0,0.3,0,0.4,0c0.1,0,0.1,0,0.3,0c0.2,0,0.4-0.1,0.5-0.4c0.1-0.2,0.1-0.5-0.1-0.6
		c-0.2-0.2-0.4-0.2-0.6-0.1c0.1,0,0,0-0.1,0h-0.4c-0.3,0-0.7,0-1.2,0c-1,0-2.3,0-3.7,0c-2.8,0-5.8,0-7,0c-3.1,0-7.7,0.9-11.5,3
		c-3.8,2.1-6.7,4.6-10.2,4.6c-2,0-4.1-0.4-5.8-1.7c0.9-3.2,0.8-7.4-1.7-11l-0.6,0c4.1-0.6,5.6-2.7,8.3-2.7c3.2-0.1,3.2,6.4,19.8-4.2
		c0.2-0.1,0.3-0.3,0.3-0.5c0-0.2-0.1-0.5-0.3-0.6c-0.2-0.1-0.5-0.1-0.6,0.1c-14.7,6.7-10.1,1.6-17.6,2c-7.2,0.3-7.4,2.7-11.7,2.6
		c-2.2,0-4.9-1.1-5.4-2.2c1.6-0.4,2.3-5.9,1.4-8.8c0-0.1,0.1-0.2,0.1-0.3c0.1-0.3-0.1-0.5-0.3-0.7c0.9-1.1,3.5-1.6,5.8-1.6
		c2.1,0,4.9,2,8.2,3.4c3.2,1.4,6.1-1.1,10.1,1.5c0.3,0.2,0.6,0.1,0.8-0.2s0.1-0.6-0.2-0.8c-1.4-0.8-4.3-3.9-7.6-5.3
		c-2.1-0.9-4.5-1.4-6.7-1.8c-1.5-1.4-4.3-4-3.9-4.2c0.8-0.5,1.6-1.1,2.3-2c0.7-0.8,1.3-1.8,1.4-2.8c0.1-0.7-0.1-1-0.3-1.4
		c0.1-0.2,0.1-0.3,0.2-0.7c0.8-0.9,1.4-1.4,2.6-1.5c1.9,0.2,3,0.9,4.6,2.5c1.6,1.6,3.3,3.9,4.9,6.7c2.3,4.1,5.4,6.4,8.6,8.5
		c-1,0.8-2.2,1.8-2.3,1.8c-0.2,0-0.3-0.1-0.6,0.1c-0.3,0.1-0.4,0.5-0.3,0.8c0.1,0.3,0.5,0.5,0.8,0.3c0.1,0,0.2,0,0.4,0
		c0.3,0.1,0.8,0.2,1.4,0.3c1.1,0.3,2.6,0.6,4.2,0.8c1.5,0.2,3.1,0.3,4.6,0s2.8-0.9,3.5-2.2c4.9-8.9,4.5-22.2,1.6-34
		c-2.8-11.8-11.3-27.8-11.6-27.9c-0.3-3.9-10-15.8-12.1-13.1c0-0.4,0.1-0.8,0-1.3c-0.3-0.7-0.6-1.6-1.2-2.4
		c-1.1-1.7-2.7-3.5-4.4-4.9c-1.7-1.5-3.5-2.6-5.1-2.9c-0.8-0.1-1.7,0-2.3,0.4c-0.2,0.1-0.2,0.4-0.4,0.6c-0.3-0.8-0.7-1.7-1.4-2.6
		c-1.2-1.6-2.9-3.3-4.7-4.7c-1.8-1.4-3.7-2.4-5.3-2.7c-0.8-0.1-1.6-0.1-2.3,0.2c-0.1,0-0.1,0.1-0.1,0.2c-0.2-0.7-0.6-1.3-1-2
		c-1.1-1.6-2.9-3.4-4.9-4.7c-2-1.4-4.2-2.3-6.2-2.2c-1.1,0-2.2,0.5-3,1.3c-0.1-1.3-0.4-2.6-1.1-3.8c-1.2-2.3-3.2-4.3-5.4-5.8
		c-2.2-1.5-4.6-2.4-6.7-2.3c-1,0.1-2,0.4-2.7,1.1l0,0c-0.2-1.4-0.7-2.7-1.6-3.7c-1.6-1.9-3.9-3.2-6.3-4c-2.4-0.8-4.9-1.1-6.8-0.7
		c-1,0.2-1.8,0.5-2.5,1.1c-0.2,0.2-0.3,0.4-0.4,0.6c-0.1-0.1,0-0.3-0.1-0.4c-0.6-0.7-1.4-1.3-2.3-1.9c-1.9-1.1-4.4-2-6.9-2.4
		c-1.3-0.2-2.5-0.3-3.7-0.2c-1.2,0.1-2.3,0.3-3.2,0.8c-1.2,0.6-1.9,1.7-2.3,3.1c-0.6-1.1-1.5-1.9-2.7-2.3c-2.1-0.8-4.7-0.8-7.1-0.3
		c-2.5,0.5-4.8,1.4-6.3,2.6c-0.5,0.4-0.7,0.8-1,1.3c-0.3-0.3-0.5-0.6-1-0.8c-1.7-0.8-4.2-1-6.7-0.9c-2.5,0.2-5,0.8-6.7,2.1
		c-0.8,0.6-1.5,1.5-1.7,2.5c0,0.1,0,0.2,0,0.2c-0.6-0.3-1.1-0.7-1.8-0.8c-2.2-0.4-5.1-0.2-7.9,0.6c-2.7,0.7-5.2,2-6.5,3.7
		c-0.6,0.8-0.8,1.7-0.8,2.7c-0.4-0.1-0.8-0.4-1.3-0.5c-2.3-0.3-5.1,0.2-7.6,1.1c-2.5,0.9-4.7,2.2-5.9,3.9c-0.4,0.6-0.6,1.3-0.7,1.9
		c-0.7-0.3-1.5-0.6-2.3-0.7c-2.3-0.1-5,0.5-7.4,1.7s-4.4,2.7-5.3,4.5c-0.2,0.4-0.3,0.9-0.4,1.4c-0.9-0.1-1.8-0.2-2.7-0.1
		c-0.8,0.1,0.7-2.6,2.1-5.1c1-1.2,1.7-2.4,2.9-3.8c0.3-0.1,0.5-0.4,0.5-0.7c-0.1-0.3-0.4-0.5-0.7-0.4c-0.1,0-0.2,0-0.2,0.1
		c-5.7,2.7-10.5,9.8-13.9,17.8c-3.4,8.1-5.4,17.2-5.3,24.3v0.1c0.8,6.9,3.4,10.2,4.9,13.4c1.5,3.2,2.2,6.2-0.6,13c0,0,0,0,0,0
		c-1.7,3.5-2,4.4-6.8,6.8c5.3-11-11.5-17.5-30-7.2c-0.2,0.1-0.3,0.3-0.4,0.5c0,0.2,0.1,0.4,0.3,0.6c0.2,0.1,0.4,0.1,0.6,0
		c1.3-0.3,2.2-0.3,3.4-0.5c2.4,4.4-7.5,13.9-13.7,22.8c-3.2,4.7-12,16.7-12,22.3c0,5.7,1.4,8.4,5.8,8.3c1.2,0,3.3,0.1,5.9-0.5
		s6.3-2,8.6-2c2.3,0,3.7,0.2,5.9,2c-0.6,0.3-5.3,8.5-2.3,11.6c-0.2,0.6-2.4,0.8-3,0.9c-1.3,0-4.8-1.5-6.7-2.1
		c-4-1.3-5.7-2.3-9.8-2.3c-4.2,0.1-10.7,1.8-15.3,3.4c-4.6,1.6-8.7,2.8-18.9,3.1c-1.3,0-2.7-0.3-4-0.6c1.7-2.6,2.7-3.4,2.8-3.4
		c0.1,0,0.1,0,0.3,0c0.2,0,0.5-0.2,0.6-0.4c0.1-0.2,0-0.5-0.1-0.6c-0.2-0.2-0.4-0.2-0.6-0.1c0.1,0,0,0-0.1,0c-0.1,0-0.2,0-0.4,0
		c-0.3,0-0.7,0-1.2,0c-1,0-10.6,1.8-14.5,3.8c-3.8,2.1-5.9,7-9.5,6.9c-2,0-2.8,0-4.5-1.3c1.7-8-4-10.3-1.5-12.3
		c2.7,0.4,12.7,1.6,22.1-4.3c0.2-0.1,0.3-0.3,0.3-0.5c0-0.2-0.1-0.5-0.3-0.6c-0.2-0.1-0.4-0.1-0.6,0.1c-5.3,3.3-9.1-2.8-13.2-2.5
		c-7.1,0.6-5.5,1.9-9.8,1.8c-2.2,0-4.9-1.1-5.4-2.2c1.5-3.1,3.9-7.5,2.6-9.9c0.9-1.2,2.2-1.4,4.5-1.4c2.1,0,3.1,1.9,6.3,3.3
		c11.5,5.9,8.1,1.2,16.9,4.5c0.3,0.2,0.6,0.1,0.8-0.2s0.3-1.6-0.8-1.6c-9.9-1.4-12.7-5.5-14.9-7.7c-0.7-0.7-2.4-1.2-4.2-1.5
		c-4.8-4.4-4.8-8.4-4.3-8.7c0.8-0.5,3.4-4,2.9-4.8c1.1-1.2,1.8-0.8,3.2-1c4.9,0.1,10,7.5,8.6,10.3c-0.1,0.2,4.2,4.1,6.9,7.3
		c2.1,2.5,6.4,7.7,12.1,6.7c0.1,0.1,0.1,0.3,0.3,0.3c0.2,0.1,0.4,0,0.6-0.1c10.8-9.8,18.6-25.5,23.8-39.4c2.6-7,4.5-13.5,5.8-18.7
		c1.3-5.1,1.9-8.8,1.9-10.3c0-7.8-1.8-20.3-1.7-32.4c0.2-11.1,2.1-21.8,8.4-28.3c1.5-0.3,3.1-0.7,4.7-1.3c4-1.5,7.9-4,11-7.5
		c0.1,0.9,0.3,1.9,0.6,2.9c0.7,2.3,1.8,4.9,3.4,7.4c3.1,4.9,7.9,9.3,14.2,10.3h0c0,0,0.1,0,0.1,0c0.3,0.1,0.7-0.1,0.7-0.4
		c0-0.1-0.1-0.1-0.1-0.1c0,0,0,0,0,0c0-0.2-0.1-0.5-0.3-0.6c-0.1,0-0.1,0-0.2-0.1c-0.8-0.1-1.3-0.5-1.7-1c-0.3-0.5-0.6-1.3-0.6-2.2
		c-0.1-1.9,0.6-4.4,1.5-7c0.7-2,1.7-3.9,2.6-5.7c1.8,3.9,4.5,8.1,8.9,10.8c5.1,3.1,12,4.1,21,0.1c0,0,0,0,0.1,0c0.1,0,0.1,0,0.2-0.1
		c0.1-0.1,0.1-0.2,0.1-0.3c0.1-0.1,0.2-0.1,0.2-0.2c0-0.1-0.1-0.1-0.1-0.2c0,0,0,0,0,0c0-0.2,0-0.4-0.2-0.5c-6.7-3.2-8.6-7.2-8.8-11
		c-0.1-2.1,0.3-4,0.8-5.9c3.6,4,7.9,7.2,11.7,8.7c2.1,0.8,4.1,1.1,5.7,0.8c0.8-0.2,1.4-0.6,2-1.2c0.2,0.8,0.5,1.5,1,2.1
		s1,0.9,1.7,1.2c0.1,1.3-0.2,2.3-0.7,2.9c-0.7,0.7-1.7,1-2.7,0.8h0h0h0h-0.1l-0.1,0h0c0,0-0.1,0-0.1,0c0,0-0.1,0.1-0.1,0.2
		c0,0,0,0-0.1,0.1l0,0.1c-0.1,0.1-0.1,0.3,0,0.4v0c0,0,0,0.1,0,0.1v0l0,0.1c0.1,0.1,0.2,0.1,0.3,0.2c0,0,0,0,0,0.1
		c0.4,0.5,0.9,0.8,1.5,1.1c0.2,0.1,0.4,0.1,0.6,0.2c0.2,0,0.4,0.2,0.7,0.2c0.2,0,0.3-0.1,0.5-0.1c0.3,0,0.7,0.1,1,0.1
		c1.8-0.3,3.7-1.2,5.3-2.5c1.6-1.3,2.9-2.9,3.6-4.6c0.7-1.7,0.7-3.7-0.5-5.2c-0.1-0.1-0.2,0-0.2-0.1c0.2-1.4,0.3-2.9,0.1-4.6
		c0.6-1.8,2-4.1,4.2-6.4c2.4-2.5,5.7-5,9.6-6.9c7.4-3.5,16.8-4.5,26.8,0.7c0.2,0.2,0.3,0.4,0.5,0.5c0.8,0.7,1.7,1.1,2.5,1.6
		c0.2,1.5-0.1,2.4-0.7,2.9c-0.7,0.5-1.8,0.7-2.8,0.5c0,0-0.1,0-0.1,0c-0.1,0-0.1,0-0.2,0c-0.1,0-0.2,0.1-0.3,0.1
		c-0.1,0.1-0.1,0.1-0.1,0.2v0c0,0.1,0,0.3,0,0.4v0l0,0v0h0c0.1,0.1,0.2,0.1,0.2,0.2c0.4,0.5,0.9,0.9,1.5,1.2
		c0.2,0.1,0.5,0.2,0.7,0.3c0.3,0.1,0.6,0.2,0.9,0.2c0.3,0.1,0.6,0.2,1,0.3c1.7,0.1,3.4-0.5,4.9-1.3c1.5-0.9,2.7-2.1,3.3-3.5
		c0.4-0.9,0.3-1.9,0.1-2.9c0.3-0.8,0.3-1.6,0.1-2.6c-0.2-0.8-0.8-1.9-1.3-2.9c0-1.3,0.1-2.5,0.3-3.7c2-6.1,5.2-9.8,9.4-12
		c4.6-2.4,10.5-3.1,17.2-3c22.5,0.4,37.9,5.4,50.1,10.4c12.3,4.9,21.4,10,31.2,9.8c9.3-0.2,17.8-2.4,24.2-7.1
		c6.4-4.7,10.4-12.1,10.4-21.9c0-3.7-1.2-6.8-2.8-9.7c-2.9-5.4-7.8-9.6-12.9-11.4c-2-0.7-3.9-1.1-5.9-1.2c-1.9,0-3.8,0.3-5.4,1.1
		c-3.3,1.6-5.5,5.2-5.5,10.2c0,5.2,4.4,9.1,9.4,9.2c4.9,0.1,10.1-3.7,12.6-11.9c1.8,1.6,3.5,3.5,4.7,5.7c-1.1,7.9-4.7,12.5-9.1,15.4
		c-4.5,3-9.8,4-13.7,4.2c-10.3,0.5-21.9-10-21.8-24.6C536.1,346.9,547.4,335.7,565.1,335.7L565.1,335.7z M208.4,336.8
		c5.5,5,0.1,8.7,1,14.4c3.8,23.3,13.7,26.2,15.3,36.4c5.4,33.8,20.5,49.9,21.5,51c0.5,0.8,1.1,1.5,2,1.8c-0.3,2.7,0.3,6.8,1.7,10.7
		c1.4,3.7,3.4,7,6.3,8.5v0c0.1,3,1.2,6.8,3.1,10c1.8,3.1,4.3,5.7,7.3,6.5c1.1,1.2,1.8,1.7,2.8,2.7c2.4,5.5-14.2,11.6-21.3,13.7
		c-2.5,7.3-11.1,13.2-17.5,13c-4.7-0.1-5.1-0.9-8-2.4c10.3-1.9,14.2-1.5,13.7-25.5c0-0.5,0-0.9,0-1.2c0-0.2,0-0.3,0-0.4
		c0,0,0-0.1,0-0.1c0,0,0-0.1-0.1-0.2c-0.1-0.3-0.3-0.4-0.6-0.4c-0.2,0-0.3,0.1-0.4,0.3c-0.1,0.2-0.1,0.3-0.1,0.5v0v0
		c-4.9,14.7-18.6-42.2-21.5-62.9c-0.7-4.9,4.5-15.4,4-21.1c0.2-0.2-1.2-0.3-1.3-0.2c-0.4,2.5-1.5,5.3-2.6,8.1c0,0,0,0,0,0
		c-0.3,0.2-0.7,0.5-1.2,0.9c-0.9,0.8-1.9,1.9-2.9,3.4c-1.9,3-4.2,4.7-1.5,11.8c1,2.6-3.7,7.5-5.5,8.5c0.1-4.2-6.8-5.5-8.1-4.9
		c-0.6-4.6,1.4-10.6,4.6-13.3c3.6-3.6,6.5-15.4,4.2-20.8c-0.2-0.6-0.8-0.9-1.4-0.8c-0.3,0.1-0.6,0.3-0.8,0.6c-0.2,0.3-0.2,0.6-0.1,1
		c0.4,0.7,0.6,1.8,0.7,2.9c0,0,0,0,0,0c-1.6,1.4-5.5-6.2-2.2-8.5c0.6,0.1,1.4,0.3,1.8,0.2c0.6-0.1,1.1-0.8,1-1.4
		c-0.1-0.6-0.8-1.1-1.4-0.9c-2.1,0.4-8.8-1.8-12.8-4.4c-11.8,4-14,3.4-17.3-0.5c2-2.6,0.3-6.9,0.3-7.2c2.3-2,4.4-2.2,6.7-1.7
		c1.2,0.3,4.8,1.2,7,3.3c4.2-1.5,11,1.8,11.9,4.8c0.1,0.4,0.4,0.6,0.8,0.8c0,0,0.2,0.3,0.2,0.3c0.4,0.1,0.9,0,1.3-0.4
		c0.3-0.3,0.4-0.8,0.2-1.3c-0.8-2.9-4.3-17-14.6-17h0c0.1,0-5.3-1.1-5.4-6.9c1.9-0.7,6.3-4,6-7.6c0.1,0,0.1,0,0.2,0
		c5.1,1.4,7.5,6.8,7.6,9.3c2,1.4,9.2,3.4,11.1,22.2c0,0.5,0.2,0.9,0.6,1.1c0.4,0.2,0.9,0.2,1.3-0.1c0.4-0.3,0.5-0.8,0.4-1.2
		c-0.4-4.6-1.2-8.3-2.2-11.3c0.1-5.2-0.9-8.8-4.6-13.5c0-0.1-0.1-0.2-0.1-0.2c-1.8-3.2-2.1-6.4,0.1-8.9
		C202.8,338.8,208.1,336.9,208.4,336.8L208.4,336.8z M177.6,340.3c1.4,0,2.9,0.1,4.2,0.4c0.1,0.4,0.1,1.8,0,2.7
		c-0.1,0.2-0.4,0.4-0.5,0.6c-2.5-0.4-7.3-2.6-9.1-0.2c-0.3,0.1-0.5,0.3-0.4,0.5c0,0.2,0.3,0.3,0.6,0.4c0.3,0.1,0.6,0,0.8-0.1
		c2-0.5,5.2,0.1,6,1.4c-0.3,0.2-0.7,0.4-1,0.6c-2.2-0.5-5.5-1-8.8,1C169.2,342,173.3,340.3,177.6,340.3L177.6,340.3z M275.8,343.9
		c1.4,0,3.2,0.1,5.4,0.5c2.7,0.4,5.7,0.8,8.5,0.7c0.5,0,1-0.2,1.5-0.3c0.9,4.5,0.2,7.2-1.4,8.7c-1.7,1.5-4.5,1.9-7.7,1.8
		c-3.2-0.1-6.6-0.8-9.5-1.1c-0.5-0.1-0.9,0-1.3-0.1c-0.5-0.1-0.9-0.2-1.2-0.3c-0.4-0.2-0.5-0.5-0.6-0.9c-0.2-0.7,0.1-1.9,0.7-3.1
		C271.4,347.5,273.8,345.1,275.8,343.9L275.8,343.9z M268.4,356.1c1.4,0.1,3,0.1,5.3,0.5c3.1,0.5,6.7,1,10,0.8c0.5,0,1-0.2,1.5-0.3
		c0.8,5.6-0.2,8.5-2,10c-1.8,1.5-4.7,1.7-8,1.5c-3.3-0.2-7-0.9-10.2-1c-0.8,0-1.4,0.2-2.2,0.3c-0.1,0-0.1-0.1-0.2-0.1
		c-0.2,0-0.4,0-0.6,0c-0.3-0.2-0.5-0.4-0.6-0.7c-0.3-0.8,0-2.3,0.8-3.9C263.4,360.5,266,357.7,268.4,356.1L268.4,356.1z
		 M333.5,358.8c4,0.8,7.6,2.9,9.8,6c2,2.9,2.8,6.7,1.5,11.1c-0.3-1.2-0.8-2.2-1.5-2.8c-1.1-1-2.5-1.2-3.8-1.2
		c-2.1,0.1-4,0.9-5.2,1.5c-0.1-0.5-0.3-0.9-0.4-1.5c-0.2-1.1-0.2-2.5-0.3-3.7c0.6-0.2,1.6-0.3,2.8-0.3c2.5,0.2,5.5,1.1,6.9,2.3
		c0.3,0.2,0.6,0.2,0.8-0.1c0.2-0.2,0.2-0.6,0-0.8c-3.4-3-6-3.7-7.9-4.1c-0.9-0.2-1.6-0.4-2.2-0.8c-0.2-0.2-0.4-0.6-0.6-0.9
		C333.3,361.9,333.4,360.4,333.5,358.8L333.5,358.8z M367.4,363.8c0.3,0,0.7,0.2,1.2,0.8c0.5,0.6,1,1.5,1.6,2.7
		c1.1,2.3,2.3,5.4,3.3,8.8c2.1,6.8,3.8,14.5,4.4,18.4c2.1,13.3,2.2,21.8,2.7,27.2c0,0.5,0.2,0.9,0.2,1.4c-0.9,0.6-2,0.8-3.3,0.6
		c-1.7-0.3-3.6-1.1-5.4-2.3c-3.7-2.3-7.2-5.9-8.8-8.8c0-0.1,0-0.2-0.1-0.3c-0.1-0.2-0.3-0.3-0.5-0.2h0c0,0,0,0-0.1,0
		c-0.3,0-0.5,0.2-0.6,0.5c0,0.2,0,0.2-0.1,0.3c-2.8,3.2-4.2,6.2-4.5,8.8c-0.3,2.8,0.6,5.2,2,7.2c1.4,2,3.3,3.5,5.2,4.5
		c1,0.6,1.8,0.7,2.7,1c-3.6,0.5-8,1.1-12.3-0.2c-5.1-1.5-9.8-5.6-11.9-15.9c0,0-0.1,0-0.1,0c0-0.1,0.1-0.3,0.1-0.4
		c-0.1-0.2-0.4-0.3-0.6-0.3c-0.1,0-0.2,0.1-0.3,0.2c0,0,0,0-0.1,0.1c-4.5,3.5-7.4,9-8.3,13.8c-0.5,2.4-0.5,4.7,0.1,6.5
		c0,0.1,0.2,0.2,0.2,0.3c-4.6-2.7-7.4-6-9-9.7c-1.9-4.5-2-9.7-1.3-15c0.1-0.2,0.3-0.3,0.3-0.4c0.1-0.1,0.1-0.1,0.2-0.2
		c0.1-0.1,0.1-0.2,0.1-0.2c0,0,0,0,0,0c0,0,0.1-0.1,0.1-0.1c0,0,0,0,0.1-0.2c0,0,0-0.1,0-0.1v-0.1l-0.1-0.3l-0.3-0.2l-0.3-0.1
		l-0.1,0c0,0-0.1,0.1-0.1,0.1c-0.1,0.1-0.1,0.1-0.1,0.1c0,0,0,0-0.1,0c-0.2,0-0.4,0.1-0.4,0.3c-1.8,3.1-6.4,7.9-12.1,11.1
		c-5.1,2.9-11,4.4-16.6,2.7c3.5-11.4,9.7-18.5,16.4-22.5c6.4-3.8,13.1-4.7,18-4.2c0,0,0,0,0,0.1c-0.8,2.8-1.2,6.5-1.2,10.8v0v0.1
		c0,0.3,0.2,0.6,0.6,0.6c0.3,0,0.6-0.2,0.6-0.6v-0.1c0,0,0.1,0,0.1-0.1c0.7-3.4,3.3-7.8,6.5-11c1.6-1.6,3.3-2.8,4.9-3.5
		c1.2-0.5,2.4-0.6,3.4-0.4c-0.1,1.1-0.3,2-0.3,3.2c-0.2,5-0.1,10.9-0.2,15.1v0.1c0,0.3,0.2,0.5,0.5,0.6h0c0,0,0,0,0,0
		c0.1,0,0.2-0.1,0.3-0.2c0.1-0.1,0.2-0.1,0.3-0.2c0,0,0,0,0-0.1c0,0,0,0,0,0c0,0,0-0.1,0-0.1c2-8.7,4.2-16.2,6.2-20.9
		c1-2.4,2.1-4.1,2.9-4.8c0.4-0.4,0.8-0.5,1.1-0.5c0.2,0,0.5,0.2,0.8,0.4c0,0,0,0.1,0,0.1c0.1,0.4,0.3,1,0.4,1.7
		c0.2,1.4,0.5,3.4,0.7,5.7c0.4,4.5,0.7,9.9,1,13.5c0,0,0,0.1,0,0.1c0,0.3,0.3,0.6,0.6,0.6s0.6-0.3,0.6-0.6c0,0,0-0.1,0-0.1
		c0.5-11.6,2.8-23.8,5.1-32.9c1.2-4.6,2.4-8.4,3.3-11C367.1,364.5,367.2,364.2,367.4,363.8L367.4,363.8z M169.3,367.1
		c0.2,0.6,0.3,0.8,0.5,1.8c-1.4,0.1-3.2,0.5-4.5,2.1c-0.1,0.1-0.2,0.3-0.1,0.5c0,0.2,0.2,0.3,0.4,0.4c0.2,0,0.4-0.1,0.5-0.2
		c1-1.2,2.6-1.1,3.8-0.9c0,0.9-0.3,1.8-0.7,2.8c-1.4-0.3-3.4-0.4-5.1,2C162.7,369.7,166.7,367.6,169.3,367.1L169.3,367.1z
		 M262.1,370.3c1.6-0.1,3.2-0.1,5,0.1c3.5,0.3,7.1,1.1,10.4,1.1c1.1,0,2.1-0.2,3.1-0.3c0.7,5.9-0.4,9.1-2.5,11
		c-2.1,1.9-5.4,2.4-9.1,2.5c-3.7,0-7.6-0.4-11.2-0.3c-1.6,0-3.1,0.3-4.5,0.7c-0.4-0.2-0.7-0.4-0.8-1c-0.2-1.2,0.4-3.5,1.7-5.9
		c1.2-2.3,3-4.8,4.8-6.5c0.5-0.4,0.9-0.6,1.4-1C261,370.7,261.5,370.4,262.1,370.3L262.1,370.3z M502.9,374.3
		c0.4,0.1,0.9,0.3,1.2,0.3c-0.2,0.6-0.5,1.3-0.9,1.9c-0.1,0.1-0.2,0.1-0.3,0.3c0.2-0.5,0.3-1,0.3-1.5
		C503.1,374.9,502.9,374.7,502.9,374.3z M277.3,386.2c1.6,5.5,0.9,8.7-1,10.7c-2,2.1-5.6,3-9.6,3.5c-4,0.5-8.5,0.7-12.2,1.6
		c-1.6,0.4-2.9,1-4.2,1.7c-0.2-0.2-0.5-0.3-0.7-0.7c-0.6-1.2-0.7-3.4-0.4-5.7c0.3-2.3,1-4.8,1.8-6.7c0.4-0.9,0.8-1.8,1.3-2.3
		c0.2-0.2,0.3-0.2,0.5-0.4c2.2-0.6,4.8-0.9,7.6-0.8c3.9,0.1,8.1,0.4,11.8,0.2C274,387.1,275.7,386.8,277.3,386.2L277.3,386.2z
		 M274.8,401.4c1.5,2.6,2.3,4.8,2.6,6.5c0.3,1.8,0,3.1-0.8,4.1c-1.5,2-4.8,3.1-8.9,3.8c-4.1,0.7-8.8,1.1-12.8,2.1
		c-2.1,0.6-4.1,1.4-5.6,2.5c-0.3-0.2-0.6-0.3-0.8-0.7c-0.6-1.1-0.7-3.1-0.4-5.2c0.3-2.1,0.9-4.4,1.7-6.2c0.4-0.9,0.8-1.6,1.3-2.2
		c0.3-0.3,0.4-0.3,0.7-0.5c1.4-0.5,2.9-1,4.6-1.3c4-0.7,8.6-0.8,12.7-1.5C271.1,402.6,273,402.1,274.8,401.4L274.8,401.4z
		 M441.2,408.6c0,2-1.3,3.3-2.9,4c-0.9,0.3-1.8,0.4-2.6,0.2c-0.1,0-0.2-0.1-0.4-0.1c-0.2-0.1-0.4-0.3-0.6-0.4c1.7,0,3.2-0.5,4-1.4
		c0.6-0.6,1-1.4,1.3-2c0-0.1,0-0.1,0-0.1C440.4,408.8,440.8,408.6,441.2,408.6L441.2,408.6z M276.1,416.9c1.5,1.8,2.4,3.3,2.7,4.7
		c0.4,1.4,0.2,2.6-0.3,3.7c-1.1,2.2-3.9,4-7.5,5.6s-7.9,3-11.9,4.4c-2.2,0.8-4.2,1.6-6,2.5c-2-0.4-3.4-1.6-4.3-3.1
		c-0.9-1.7-1.2-3.8-1.1-5.9c0.1-2.1,0.6-4.1,1.4-5.4c0.1-0.2,0.2-0.2,0.3-0.4c1.9-1.2,4.3-1.9,7.2-2.3c4.1-0.7,8.8-0.8,13-1.5
		C272,418.6,274.2,418,276.1,416.9z M195.3,422.7c0.6,0.2,1.3,0.5,2,0.8c-0.8,1.3-2,3.1-3.8,3.1c-0.2,0-0.5,0.1-0.6,0.3
		c-0.1,0.2-0.1,0.5,0,0.7c0.1,0.2,0.4,0.3,0.6,0.3c2.3,0,4.3-2,5.6-3.3c0.8,0.5,1.5,0.9,2,1.4c-2.2,2-7.1,5.3-12.1,0.5
		C192.3,426.8,194.3,424.3,195.3,422.7L195.3,422.7z M388.9,428.2c0,2.1-1.3,3.9-3,4.8c-0.8,0.5-2.3,0.6-2,0.5
		c1-0.4,1.7-1.1,2.3-1.8c0.5-0.8,0.8-1.6,1-2.3c0.1-0.3,0.1-0.4,0.1-0.7C387.9,428.7,388.4,428.5,388.9,428.2L388.9,428.2z
		 M455.1,428.7c4-0.2,7.9,1.8,8.9,4.5c0,0.2,0,0.3,0,0.6c0,0.7-0.1,1.7-0.2,2.8c-0.1,2.3-0.4,5.3-0.6,8.3c-0.4,5.4-0.6,9.8-0.7,10.8
		c-5.2,3.9-9.6,0.2-11.1-2.9c-0.2-1-1-5.1-1.9-10.2c-0.5-2.9-1-5.8-1.4-7.9c-0.2-0.9-0.3-1.6-0.4-2.2
		C449.6,429.9,452.4,428.8,455.1,428.7L455.1,428.7z M438.8,429.8c2.2,0,4.3,0.9,5.8,2.9c0.1,0.6,0.3,1.4,0.4,2.4
		c0.4,2.2,0.9,5.1,1.5,7.9c1,5.3,1.8,9.6,1.9,10.5c-1.5,2.5-9.4,4.5-12.2,0.6c0-0.1,0.1-0.2,0-0.2l-5.2-21.1
		C432.2,431.4,435.5,429.8,438.8,429.8L438.8,429.8z M277.8,430.9c2.9,1.8,4.8,3.4,6,4.9c1.2,1.5,1.7,2.9,1.6,4.1
		c-0.1,2.5-2.4,4.9-5.9,7.1c-3.4,2.2-7.9,4.3-12,6.2c-2,1-3.9,1.9-5.6,2.8c-2,0.4-3.8-0.1-5.3-1.3c-1.6-1.3-2.9-3.2-3.8-5.4
		c-0.9-2.1-1.3-4.4-1.3-6.3c0-1.3,0.4-2.2,0.8-2.9c7.2-3.1,16.1-4.7,22.4-7.5C275.9,432.2,276.8,431.5,277.8,430.9L277.8,430.9z
		 M422,431.8c2-0.2,4.2,0.4,6.2,1.9l5.1,20.3c-1.5,3.8-7.7,5-10.3,3.5l-7.6-21C415.1,434.6,418.2,432.1,422,431.8z M470.2,432.2
		c4.3,0.2,10.5,4.6,10.4,8.3l-5.2,20.5c-1,2.5-8.6,1.6-10.1-3.9c0,0,0,0,0,0c0,0,0.4-5.9,0.8-11.9c0.2-3,0.4-6.1,0.6-8.4
		c0.1-1.1,0.1-2.1,0.1-2.8c0-0.2,0-0.2,0-0.4C467.6,432.5,468.8,432.1,470.2,432.2L470.2,432.2z M409.6,436.1c1.1,0,2,0.3,2.7,0.8
		l7.9,21.7c-0.8,2.7-10.1,7.8-12.6,4.9l-7.9-21.8C400,439,405.5,436.1,409.6,436.1z M486.8,440.5c4.3,0,9.3,3.9,9.3,9.7l-8.2,20.4
		c-2.9,1.2-9.9-1.7-10-7.1l5.5-21.9C484.4,440.9,485.5,440.5,486.8,440.5L486.8,440.5z M393.4,441.8c1.2,0,2.5,0.4,3.7,1.2l7.6,21.2
		c-0.9,4-8.8,8.8-11.9,5.3l-9-20.6c0-0.1,0.1-0.4,0.1-0.3C384.1,447,388.7,442,393.4,441.8z M286.4,445.3c4.3,2.7,5.9,5.5,5.7,8.4
		c-0.2,2.9-2.1,6-5,8.9c-4.6,4.5-10.9,8.1-16.1,10.4c-1.2,0-2.6-0.5-4-1.4c-1.6-1.2-3.2-2.8-4.4-4.6c-1.2-1.8-2.1-3.7-2.4-5.3
		c-0.1-0.8-0.1-1.4,0-2c0.1-0.4,0.4-0.7,0.7-0.9c7.3-3.3,16.3-6.2,22.1-10.2C284.4,447.6,285.5,446.5,286.4,445.3L286.4,445.3z
		 M378.2,449.1c1.2-0.2,2.2,0,3.1,0.4l9.3,21.3c0.2,5.6-10.9,10.8-13.4,8.4l-8.4-23.3C368.8,453.6,373.9,449.7,378.2,449.1z
		 M501.9,451c4.1,0.1,9.7,2.7,9.5,6.5l-8,21.6c-4.1,3.1-12.7-4.2-12.9-7.1l8.2-20.2C499.4,451.2,500.5,450.9,501.9,451L501.9,451z
		 M362.1,455.2c1.3-0.4,2.9,0,4.6,1.6l8.4,23.3c-0.2,2.4-9.5,9-14.4,6.1c-1.1-2.7-5.2-12.2-6.2-18.5c0.5-2,1.1-4,1.9-5.8
		c0.7-1.7,1.5-2.8,2.2-4.2C359.5,456.9,360.7,455.7,362.1,455.2L362.1,455.2z M450.1,458.3c0,0,0,0.1,0.1,0.2
		c0.2,1.8,10.6,3.7,11.8,3.5c-0.8,2.2,5.9,6.5,9.5,7.9c1,1.3,1,4,0.8,5.4c-0.3,3.7,0.8,8.5,6.2,11.9c3.5,2.2,15.2,6.3,15.2,15.7
		c0,6.8-5.4,9.6-7.8,11.1c2.1-4-0.1-8.2-4.6-9c-3.1-0.5-11.1-1-17.9-0.3c-0.7,0.1-1.1,0.6-1.1,1.3s0.6,1.1,1.3,1.1
		c3,0.6,4.5,0.5,4,3.1c0,0.1,0.1,0.1,0.1,0.2c-10.8,8.5-34.2,30.5-34.9,38.9c-0.2,2.4,2.3,4.9,5.4,4.6c0.2,0,11.4-5.5,16.2-1.3
		c-2.6,2.6-0.6,8.6-0.7,8.9c-6,4.3-13-1.8-24.6-1.9c-11.6-0.1-21.1,7.5-28.6,7.6c-1,0-1.5-0.2-2-0.3c0.7-0.9,1.2-1.8,1.3-1.8
		c0.1,0,0.7-0.4,0.9-0.4c0.2,0,0.4-0.1,0.5-0.4c0.1-0.2,0-0.5-0.1-0.6c-0.2-0.2-0.4-0.2-0.6-0.1c0.1,0,0,0-0.1,0c-0.1,0-0.2,0-0.4,0
		c-0.3,0-5.2,1.3-6.6,1.3c-2.8,0-8.8,2.1-12.6,4.1c-2.6,1.1-7.6,6.7-15.2,5c0.9-3.2-0.3-7.4-2.8-10.9c0.4,0,1.2-1.1,1.6-2
		c11.3-1.9,10.1,3.9,12.7-0.3c1.7-2.7,2.6,4.5,16.6-7.1c0.2-0.1,0.3-0.3,0.3-0.5c0-0.2-0.1-0.4-0.3-0.5c-0.2-0.1-0.4-0.1-0.6,0
		c-16.8,6.9-11.8,2.1-19.3,2.5c-7.2,0.3-5.2,2-9.5,1.9c-2.2,0-4.7-2-5.2-3.1c1.8-0.4,1.9-6.1,0.6-8.5c0.9-1.2,3.6-1.7,5.9-1.7
		c6.4,0,8.9,5.8,15.6,6.5c4.8,0,9.2-4,13.2-1.3c0.3,0.2,0.7,0.1,0.8-0.2c0.1-0.2,0-0.5-0.2-0.7c29.2,1,50.8-62.9,46.2-69.8
		c0-0.2-0.1-0.4-0.2-0.5c0,0-0.1,0-0.2,0c-0.6-1.9-1.8-4.5-4.8-5.6c0,0,0-0.2,0-0.3c-0.8-0.9-2.2-6.6-8.2-7.4
		c0.3-1.5,0.5-2.5,0.6-3.3c3-0.7,6.3-1.8,7-2.8C436.9,460.8,450.6,460.4,450.1,458.3L450.1,458.3z M515.9,459.4
		c3.9,0,9.2,3.3,9.6,6.5l-6.6,17.2c-3,3.6-10.5,1-11.5,0c-0.8-0.7-1-2-1.1-3.4l7-19.4C514,459.8,514.8,459.4,515.9,459.4z
		 M291.5,461.3c-0.1,0.9-0.2,1.8-0.2,2.6c-0.3,5.2-0.3,9.9-0.4,14.3c0,0,0,0,0,0v0c-0.9,3.2-2.2,5.1-3.7,6.1c-1.5,1-3.2,1.1-5,0.5
		c-3.5-1.1-7.3-5-10-10.2c7.2-2.4,14.4-7,18.8-12.4C291.1,462,291.2,461.7,291.5,461.3z M424.1,462.5c-0.6,7.9-13.2,17.2-18.1,17.1
		c0,0,0,0,0,0c-0.9-0.8-2-1.3-2.7-2.2C401.5,474.2,420.2,463.6,424.1,462.5L424.1,462.5z M475,467.4c0,0.1,0.1,0.1,0.2,0.2
		c-0.1,0-0.2,0.1-0.3,0.1C475,467.6,475,467.5,475,467.4z M428,467.9c5,0.5,6.7,6.3,5.1,7.2c0.2,0.3-4.5,11.1-9.9,13.9
		c-1.8,0.9-4.2,0.5-5.7,0.3c-2.7-1.1-5.8-3.9-6.7-6.8c1.4-2.5,8.6-4.9,14.9-14.3C426.5,467.9,427.3,467.8,428,467.9L428,467.9z
		 M528.1,468c3.5-0.8,10.3,3,10.7,8.2l-3.9,10.8c-2.4,1.8-13.2,2-13.3-2.2l6.2-16.5C527.8,468.2,527.9,468.1,528.1,468z
		 M353.4,476.5c2.1-1.2,4.3,7.6,5.3,10.3l0,0c0,0.5-3.7,10.8-6.3-3.9c0.1-0.9,0.4-3.6,0.7-5.9C353.1,476.9,353.2,476.6,353.4,476.5z
		 M436.2,477.4c0.6,0.8,2.3,0.9,2.8,3.5c-0.6,4.2-1.8,9.2-3.6,14.7c-2.5,1-7-0.6-9.6-2.1c-0.5-0.7-0.9-1.4-0.5-2.4
		c5.8-3.9,8.7-10.8,9.6-13.3C435.5,477.4,436,477,436.2,477.4z M540.6,479.2c2.2-0.3,8.5,4.2,9.2,10.2l0.1,0.4
		c-1,3.5-9.9,2.7-12.3-1.7L540.6,479.2z M290.6,483.5c-0.1,2.4-0.2,4.3-0.3,5.9c-0.7-0.6-1.2-1.4-1.5-2.3c0-0.1,0.1-0.1,0.1-0.1
		C289.6,486.1,290.1,484.9,290.6,483.5L290.6,483.5z M373.1,528.5c1.7,0,2.2,0.4,3.8,1.9c1.6,1.6,2.7,4.2,5.7,7.2
		c2.7,2.7,9.9,6.5,14.2,7.6c-1.5,0.5-3,0.8-4.6,1.1c-4-1.2-8.9,1.7-15.5-4c-0.9-0.8-3.4-1.4-5.9-1.8c-1.4-1.1-5.1-4-4.7-4.2
		c1.8-2.9,3.8-5.8,3.3-6.6C370.1,528.8,371.4,528.5,373.1,528.5L373.1,528.5z M362.5,529.3c1.8-0.4,3.6,0.2,5,0.9
		c-0.2,0.4-0.4,0.8-0.6,1.1c-1.1-0.7-2.6-1.3-5.2-0.7c-0.3,0-0.4,0.2-0.5,0.4c-0.1,0.2,0,0.5,0.2,0.6c0.2,0.1,0.4,0.2,0.7,0.1
		c2.1-0.5,3.1,0.3,4.1,1.2c-0.2,0.4-0.4,0.8-0.6,1.1c-1.3-0.9-5.9-4-7.2,0.8C358.5,531.3,360.4,529.7,362.5,529.3z M525.1,531.6
		c1.9,0.2,3.3,1,4.1,1.6c0.1,0.3,0.3,0.6,0.3,1c0,0.1-0.1,0.2-0.2,0.3c-1.5-0.9-4.1-2-7-1.3c-0.3,0-0.4,0.2-0.5,0.4
		c-0.1,0.2,0,0.4,0.1,0.6c0.2,0.1,0.5,0.2,0.7,0.1c2.6-0.6,4.1,1.4,5.4,2.5c-0.5,0.5-1.1,1-1.6,1.4c-0.9-0.8-5.6-4.8-9.4,0.6
		C519.3,532.6,522.5,531.3,525.1,531.6L525.1,531.6z M228.6,532.2c1.9-0.4,3.2,1.1,3.9,2c0,0.2-0.1,0.4-0.1,0.5
		c0.1,0.1,0,0.4-0.1,0.7c-1.1-0.6-2.5-0.8-5.2-0.2c-0.2,0-0.4,0.2-0.5,0.4s0,0.4,0.2,0.6c0.2,0.1,0.4,0.2,0.7,0.1
		c2.2-0.5,2.9,0.3,3.9,1.1c-0.5,0.6-0.9,1-1.2,1.4c-1.4-0.9-5.1-2.9-6.8,0C225.3,534.2,227.1,532.5,228.6,532.2L228.6,532.2z
		 M363.9,535.9C363.9,535.9,364,535.9,363.9,535.9c0,0.1,0,0.1-0.1,0.1C363.9,535.9,363.9,535.9,363.9,535.9z M355.7,545
		c0.1,0,0.1,0,0.3,0c0.3,0.2,0.9,0.4,1,0.6c0.3,0.3,0.3,0.7,0.5,1c-1.7-0.2-3.7-0.1-5.5,1.4c-0.2,0.1-0.3,0.3-0.3,0.6
		s0.2,0.4,0.4,0.5c0.2,0.1,0.4,0,0.6-0.2c1.8-1.5,3.8-0.3,5.3,0.3c0,0.6-0.1,1.1-0.3,1.8c-1.4-1.2-4.9-3.1-7.8,0.2
		C349.5,545.6,353.5,544.9,355.7,545L355.7,545z M518.1,550.2c0.5,0,0.5,0.1,0.9,0.1c0.2,0.7,0.2,1.5,0.1,2.3
		c-1.7-0.2-3.9-0.2-5.9,1.4c-0.2,0.1-0.3,0.4-0.3,0.6c0,0.2,0.2,0.4,0.4,0.5c0.2,0.1,0.5,0,0.6-0.1c1.5-1.2,3.1-0.6,4.5,0
		c-0.1,0.4-0.3,0.8-0.4,1.2c-1.7-0.6-6.3-1.9-7.1,4.4C507.5,551,514.3,550,518.1,550.2L518.1,550.2z M456.9,554.2c0,0,0,0.2,0,0.2
		c4.3,0.1,12.3,5.6,2.5,11.7c3.3-4.2-2.8-5.7-3.5-5.8c0-0.1,0-0.3,0-0.4c1.4,0,2.8-0.7,5.4,1.9c0.2,0.2,0.3,0.4,0.5,0.4
		c0.2,0,0.4-0.1,0.6-0.3c0.1-0.2,0.1-0.4,0-0.6c-1.2-2.7-4.6-4-6.4-4.4C456.2,556,456.5,555.2,456.9,554.2L456.9,554.2z M224,555.1
		c0.1,0.6,0.1,1.4-0.1,2.2c-1.7-0.3-4-0.3-6,1.4c-0.2,0.1-0.3,0.3-0.3,0.6c0,0.2,0.2,0.4,0.4,0.5c0.2,0.1,0.5,0,0.6-0.1
		c1.5-1.2,3.1-0.6,4.5,0c-0.4,0.8-0.6,1.5-1,2.1c-1.5-0.7-4.4-1.7-6.9,0.8C216.2,555.4,221.2,554.8,224,555.1L224,555.1z
		 M620.9,559.8c1.9,0.6,12.5,4.7,3.7,12.8c2.2-6.4-4-7.1-5-7.2c0-0.3,0-0.6,0-0.9c1.6,0.2,3.7,0.2,4.6,2.2c0.1,0.2,0.3,0.4,0.5,0.4
		c0.2,0,0.5-0.1,0.6-0.3c0.1-0.2,0.1-0.4,0-0.6c-1.1-2.6-3.6-3.8-5.3-4.3C620.2,561.2,620.4,560.4,620.9,559.8L620.9,559.8z
		 M525.9,565.4c0.3,0.6,0.6,1.4,0.9,2.3c-1.6,0.3-4.4,1.6-5.6,4.4c-0.1,0.2-0.1,0.4,0,0.6c0.1,0.2,0.4,0.3,0.6,0.3
		c0.2,0,0.4-0.2,0.5-0.4c1-2.2,3.4-2,5-2.2c0,0.3,0.1,0.6,0.1,0.9c-1.4,0.1-7.7,0.9-5.5,7.1C512.5,569.8,524.9,565.7,525.9,565.4
		L525.9,565.4z M361.9,566c0.3,0.5,0.5,0.8,0.7,1.4c-1.6,0.5-3.8,1.6-4.9,4.1c-0.1,0.2-0.1,0.4,0,0.6c0.1,0.2,0.4,0.3,0.6,0.3
		c0.2,0,0.4-0.2,0.5-0.4c0.9-2.1,3-2,4.6-2.2c0.2,0.9,0.3,1.8,0.3,2.7c-2-0.4-6.4,0.1-7.7,3.8C352.2,572.2,357.2,567,361.9,566z
		 M321,567.5c4.3,0.8,12.4,4.6,3.5,12.8c3-4.5-3.2-5.8-4.8-6c-0.2-0.5-0.2-1-0.2-1.6c1.7,0.2,4.6,0.1,5.5,2.2
		c0.1,0.2,0.3,0.4,0.5,0.4c0.2,0,0.5-0.1,0.6-0.3c0.1-0.2,0.1-0.4,0-0.6c-1.1-2.6-4.4-4.1-6.2-4.6
		C320.2,568.8,320.6,568.1,321,567.5L321,567.5z M228.7,576.6L228.7,576.6c0.4,0.7,0.9,1.1,1.2,1.9c-1.6,0.6-3.3,1.7-4.3,3.8
		c-0.1,0.2-0.1,0.4,0,0.6c0.1,0.2,0.3,0.3,0.6,0.3c0.2,0,0.4-0.2,0.5-0.4c0.8-1.7,2.3-2,3.8-2.1c0.2,0.9,0.2,1.7,0.1,2.5
		c-2-0.1-5.6,0.3-3.8,5.4C221.2,581.8,225.5,576.7,228.7,576.6L228.7,576.6z"/>
</g>
</svg>
