<?xml version="1.0" standalone="no"?>
<!DOCTYPE svg PUBLIC "-//W3C//DTD SVG 1.1//EN" "http://www.w3.org/Graphics/SVG/1.1/DTD/svg11.dtd" >
<svg xmlns="http://www.w3.org/2000/svg">
<metadata></metadata>
<defs>
<font id="steagalthin" horiz-adv-x="552" >
<font-face units-per-em="1000" ascent="740" descent="-260" />
<missing-glyph horiz-adv-x="240" />
<glyph unicode="&#xfb01;" horiz-adv-x="651" d="M537 457v-450q0 -7 -5 -7h-11q-6 0 -6 6v439h-313q-5 0 -6 -1.5t-1 -8.5v-427q0 -8 -7 -8h-9q-6 0 -6 9v430q0 4 -1 5t-6 1h-119q-7 0 -7 6v8q0 6 6 6h120q7 0 7 5v130q0 82 25.5 116t81.5 34q43 0 76 -19q5 -3 5 -8v-9q0 -8 -7 -3q-32 19 -74 19q-47 0 -66 -30.5 t-19 -99.5v-128q0 -7 5 -7h330q7 0 7 -8zM526 667q21 0 21 -22q0 -20 -21 -20t-21 20q0 22 21 22z" />
<glyph unicode="&#xfb02;" horiz-adv-x="633" d="M533 733v-725q0 -8 -6 -8h-10q-6 0 -6 10v435h-309q-5 0 -6 -1.5t-1 -8.5v-427q0 -8 -7 -8h-9q-6 0 -6 9v430q0 4 -1 5t-6 1h-119q-7 0 -7 6v8q0 6 6 6h120q7 0 7 5v130q0 82 25.5 116t81.5 34q43 0 76 -19q5 -3 5 -8v-9q0 -8 -7 -3q-32 19 -74 19q-47 0 -66 -30.5 t-19 -99.5v-128q0 -7 5 -7h311v267q0 8 4 8h14q4 0 4 -7z" />
<glyph unicode="&#xfb04;" horiz-adv-x="935" d="M606 730q-47 0 -66 -30.5t-19 -99.5v-128q0 -7 5 -7h287v267q0 8 4 8h14q4 0 4 -7v-725q0 -8 -6 -8h-10q-6 0 -6 10v435h-285q-5 0 -6 -1.5t-1 -8.5v-427q0 -8 -7 -8h-9q-6 0 -6 9v430q0 4 -1 5t-6 1h-290q-5 0 -6 -1.5t-1 -8.5v-427q0 -8 -7 -8h-9q-6 0 -6 9v430 q0 4 -1 5t-6 1h-119q-7 0 -7 6v8q0 6 6 6h120q7 0 7 5v130q0 82 25.5 116t81.5 34q43 0 76 -19q5 -3 5 -8v-9q0 -8 -7 -3q-32 19 -74 19q-47 0 -66 -30.5t-19 -99.5v-128q0 -7 5 -7h292q7 0 7 5v130q0 82 25.5 116t81.5 34q43 0 76 -19q5 -3 5 -8v-9q0 -8 -7 -3 q-32 19 -74 19z" />
<glyph horiz-adv-x="1000" />
<glyph horiz-adv-x="1000" />
<glyph unicode="&#xd;" horiz-adv-x="1000" />
<glyph unicode=" "  horiz-adv-x="240" />
<glyph unicode="&#x09;" horiz-adv-x="240" />
<glyph unicode="&#xa0;" horiz-adv-x="240" />
<glyph unicode="!" horiz-adv-x="275" d="M150 719v-544q0 -6 -3 -6h-16q-4 0 -4 8v541q0 7 4 7h15q4 0 4 -6zM137 48q23 0 23 -22q0 -9 -6.5 -15t-16.5 -6q-9 0 -15.5 6.5t-6.5 14.5q0 22 22 22z" />
<glyph unicode="&#x22;" horiz-adv-x="263" d="M86 700h9q5 0 5 -6v-198q0 -6 -4 -6h-12q-4 0 -4 7v196q0 7 6 7zM166 700h13q4 0 4 -7v-198q0 -5 -4 -5h-12q-5 0 -5 7v195q0 8 4 8z" />
<glyph unicode="#" horiz-adv-x="561" d="M69 470v11q0 5 5 5h139q4 0 5 8l39 209q1 7 6 7h12q5 0 4 -5l-40 -214q-1 -5 2 -5h130q3 0 4 7l39 211q2 6 7 6h10q6 0 5 -7l-39 -209q-1 -8 2 -8h113q4 0 4 -5v-9q0 -6 -4 -6h-117q-4 0 -5 -5l-38 -200q0 -2 -2 -7t-2.5 -7t2 -4.5t8.5 -2.5h112q6 0 6 -5v-10q0 -5 -6 -5 h-120q-6 0 -7 -7l-38 -209q-1 -4 -7 -4h-11q-6 0 -4 7l39 206q2 8 -6 7h-3h-116q-10 0 -11 -6l-39 -209q-1 -5 -6 -5h-11q-6 0 -4 6l39 207q1 5 -0.5 6t-6.5 1h-123q-6 0 -6 4v11q0 5 5 5h126q5 0 7.5 2t3.5 4t1.5 6t0.5 6l38 205q1 3 -3 3h-133q-6 0 -6 4zM233 463 l-38 -206q0 -1 -2 -7t0 -8t9 -2h114q5 0 8 2t4 4t1.5 6.5t0.5 6.5l37 201q0 6 -3 6h-125q-5 0 -6 -3z" />
<glyph unicode="$" horiz-adv-x="474" d="M420 178q0 -173 -162 -187v-84q0 -7 -4 -7h-13q-5 0 -5 7v83h-7q-90 0 -143 33q-9 6 -9 14v9q0 9 9 2q53 -37 142 -37q170 0 170 167q0 38 -10.5 69t-24 50t-38.5 37.5t-42 27.5t-46 22q-71 32 -107 71.5t-36 109.5q0 139 146 145v76q0 6 4 6h14q4 0 4 -6v-76 q64 -2 114 -32q5 -3 5 -9v-9q0 -8 -6 -4q-59 33 -123 33q-136 0 -136 -125q0 -63 32 -96t97 -63q40 -18 63 -32t53 -40.5t44.5 -65t14.5 -89.5z" />
<glyph unicode="%" horiz-adv-x="1034" d="M288 -14h-13q-9 0 -3 9l463 718q3 4 7 4h15q5 0 1 -7l-462 -718q-4 -6 -8 -6zM261 290q-93 0 -147 58t-54 152t54 152t147 58q94 0 148 -58t54 -152t-54 -152t-148 -58zM261 309q83 0 131 54t48 137q0 82 -47.5 136t-131.5 54q-83 0 -130.5 -54t-47.5 -136q0 -83 48 -137 t130 -54zM772 -10q-93 0 -147 58t-54 152t54 152t147 58q94 0 148 -58t54 -152t-54 -152t-148 -58zM772 9q83 0 131 54t48 137q0 82 -47.5 136t-131.5 54q-83 0 -130.5 -54t-47.5 -136q0 -83 48 -137t130 -54z" />
<glyph unicode="&#x26;" horiz-adv-x="592" d="M535 235h10q7 0 1 -9q-36 -55 -62 -91q-3 -3 -2 -5l98 -122q8 -8 0 -8h-12q-5 0 -11 8l-87 106q-2 5 -6 1q-106 -125 -229 -125q-81 0 -123 44.5t-42 109.5q0 67 43.5 119t132.5 117q3 3 -1 8q-91 118 -91 193q0 55 38.5 92t95.5 37q62 0 98.5 -35.5t36.5 -96.5 q0 -58 -35.5 -102t-102.5 -95q-3 -2 0 -7l177 -222q6 -6 10 -2q25 33 54 79q4 6 9 6zM448 137l-181 226q-3 3 -7 1q-40 -29 -62.5 -48t-50.5 -47.5t-41 -59t-13 -63.5q0 -58 38 -97t104 -39q65 0 114.5 30t99.5 87q5 4 -1 10zM264 400q4 -4 10 0q67 52 97 90t30 90 q0 53 -31 81.5t-79 28.5q-50 0 -82.5 -30.5t-32.5 -81.5q0 -66 88 -178z" />
<glyph unicode="'" horiz-adv-x="220" d="M104 700h12q4 0 4 -5v-204q0 -6 -4 -6h-12q-4 0 -4 5v206q0 4 4 4z" />
<glyph unicode="(" horiz-adv-x="300" d="M219 -128l-2 -1q-1 0 -3 2q-134 177 -134 440t134 440q3 3 4 2l1 -1q1 -2 -2 -5q-52 -85 -83 -201t-31 -235t31.5 -235.5t83.5 -201.5q2 -2 1 -4z" />
<glyph unicode=")" horiz-adv-x="300" d="M82 -129l-2 2q-1 1 5 9q55 78 83.5 193.5t28.5 237.5q0 115 -30 229t-80 199q-1 1 -2.5 3t-3 3.5t-2 3t0.5 2.5l3 3q2 0 9 -9q128 -175 128 -434q0 -283 -126 -431q-12 -12 -12 -11z" />
<glyph unicode="*" horiz-adv-x="501" d="M261 692l-7 -131q0 -5 6 -3l131 49q8 2 10 -1l3 -9q1 -2 -1 -3.5t-7 -3.5l-135 -41q-5 -1 -1 -6l85 -102q6 -9 4 -10l-10 -9q-1 -1 -9 7l-77 108q-3 5 -6 1l-77 -111q-4 -7 -9 -3l-8 5q-4 2 0 8l86 106q4 5 1 6q-1 1 -2 1l-134 40q-9 2 -7 7l3 9q1 3 12 -1l129 -47 q5 -2 5 3l-5 129q0 11 4 11h12q4 0 4 -9z" />
<glyph unicode="+" horiz-adv-x="566" d="M295 245v-212q0 -8 -4 -8h-12q-5 0 -5 9v209q0 7 -7 7h-217q-7 0 -7 5v11q0 4 6 4h221q4 0 4 7v210q0 7 4 7h14q3 0 3 -8v-211q0 -5 3 -5h217q8 0 8 -5v-10q0 -5 -10 -5h-214q-4 0 -4 -5z" />
<glyph unicode="," horiz-adv-x="231" d="M69 -112h-10q-5 0 -1 12l37 124q4 11 8 11h12q7 0 3 -10l-43 -129q-3 -8 -6 -8z" />
<glyph unicode="-" horiz-adv-x="236" d="M209 226h-183q-6 0 -6 5v11q0 4 6 4h180q10 0 10 -5v-10q0 -5 -7 -5z" />
<glyph unicode="." horiz-adv-x="157" d="M79 37q18 0 18 -18q0 -19 -18 -19q-19 0 -19 19q0 7 5 12.5t14 5.5z" />
<glyph unicode="/" horiz-adv-x="390" d="M374 765l-336 -813q-3 -7 -9 -7h-10q-8 0 -6 7l336 817q5 12 11 12h12q4 0 5 -0.5t0.5 -4t-3.5 -11.5z" />
<glyph unicode="0" horiz-adv-x="601" d="M60 350q0 158 67 259t175 101q106 0 172.5 -101t66.5 -259t-66.5 -259t-172.5 -101q-108 0 -175 101t-67 259zM84 350q0 -149 60.5 -244t157.5 -95q96 0 155.5 95.5t59.5 243.5t-59.5 243.5t-155.5 95.5q-97 0 -157.5 -95t-60.5 -244z" />
<glyph unicode="1" horiz-adv-x="287" d="M79 625v9q0 5 3 7l64 56q3 3 6 3h15q5 0 5 -5v-688q0 -7 -6 -7h-10q-6 0 -6 10v660q0 2 -3 1l-60 -48q-8 -8 -8 2z" />
<glyph unicode="2" horiz-adv-x="527" d="M418 536q0 79 -45 116t-113 37q-105 0 -171 -52q-8 -5 -8 2v15q0 4 5 7q70 49 175 49q77 0 128.5 -42.5t51.5 -132.5q0 -51 -26.5 -99t-80.5 -117l-230 -291q-5 -6 -1 -6h345q7 0 7 -5v-12q0 -5 -6 -5h-373q-6 0 -6 4l1 14q0 5 7 14l236 301q51 66 77.5 113t26.5 90z" />
<glyph unicode="3" horiz-adv-x="522" d="M252 -10q-94 0 -184 50q-8 4 -8 11v16q2 2 5 1t7 -4q87 -53 181 -53q80 0 132.5 49.5t52.5 139.5t-55 141.5t-137 51.5h-21q-4 0 -4 5l-3 13q-1 5 5 5h23q66 0 105 41.5t39 99.5q0 55 -36.5 93.5t-105.5 38.5q-81 0 -146 -54h-6l-1 11q0 8 6 12q71 52 147 52 q79 0 122.5 -44t43.5 -112q0 -58 -32 -97.5t-85 -47.5q-1 -1 3 -2q66 -9 114 -63t48 -144q0 -100 -59.5 -155t-150.5 -55z" />
<glyph unicode="4" horiz-adv-x="491" d="M61 177h288q5 0 5 5v191q0 8 5 8h11q6 0 6 -6v-192q0 -6 4 -6h76q5 0 5 -6v-12q0 -4 -4 -4h-77q-4 0 -4 -4v-145q0 -6 -5 -6h-12q-5 0 -5 6v145q0 4 -4 4h-314q-6 0 -6 5v13q0 5 5 12l316 510q4 5 9 5h14q8 0 2 -9l-316 -508q-4 -6 1 -6z" />
<glyph unicode="5" horiz-adv-x="496" d="M162 669l-41 -215q-1 -2 1 -3t9 -1q162 -1 227 -65t65 -179q0 -56 -21.5 -99.5t-56.5 -68t-74 -36.5t-78 -12t-72 6.5t-49 12.5t-46 20q-7 3 -7 9v9q0 9 9 5q77 -41 165 -41q35 0 69 10.5t66 32.5t52 61.5t20 90.5t-12 88.5t-41.5 69.5t-87 49t-140.5 17h-13q-6 0 -9 2 t-2 7l50 254q2 7 9 7h245q9 0 9 -5v-14q0 -5 -8 -5h-231q-6 0 -7 -7z" />
<glyph unicode="6" horiz-adv-x="571" d="M308 704l-163 -291q-1 -3 11 9q16 19 54 34.5t82 15.5q88 0 153.5 -62.5t65.5 -181.5q0 -103 -68 -170.5t-158 -67.5t-157.5 67t-67.5 170q0 84 59 186l165 292q2 4 9 4h11q7 0 4 -5zM84 228q0 -93 60 -155.5t142 -62.5q78 0 139.5 63t61.5 156q0 108 -59 165.5 t-137 57.5q-90 0 -148.5 -66.5t-58.5 -157.5z" />
<glyph unicode="7" horiz-adv-x="547" d="M436 678h-370q-8 0 -8 5v12q0 5 7 5h395q7 0 7 -6v-12q0 -3 -6 -15l-337 -663q-2 -4 -7 -4h-15q-6 0 -3 6l339 668q2 4 -2 4z" />
<glyph unicode="8" horiz-adv-x="569" d="M60 202q0 72 45.5 129.5t116.5 77.5q-50 17 -81.5 57.5t-31.5 92.5q0 62 51 106t123 44q73 0 125.5 -44t52.5 -106q0 -52 -32.5 -92.5t-83.5 -57.5q72 -20 118 -77.5t46 -129.5q0 -89 -66 -150.5t-160 -61.5q-93 0 -158 61.5t-65 150.5zM81 202q0 -80 59 -135.5 t143 -55.5q86 0 145 55.5t59 135.5q0 79 -59.5 136t-144.5 57q-84 0 -143 -57t-59 -136zM130 559q0 -58 42.5 -99t103.5 -43h7q65 0 110.5 41.5t45.5 100.5q0 54 -45.5 92t-110.5 38q-63 0 -108 -38.5t-45 -91.5z" />
<glyph unicode="9" horiz-adv-x="572" d="M263 -5l164 291q2 3 -6 -4l-5 -5q-16 -19 -54.5 -34.5t-82.5 -15.5q-88 0 -153.5 62.5t-65.5 181.5q0 103 68 170.5t158 67.5t158 -67t68 -170q0 -84 -59 -186l-166 -292q-2 -4 -8 -4h-12q-7 0 -4 5zM489 471q0 93 -61 155.5t-143 62.5q-78 0 -139.5 -63t-61.5 -156 q0 -108 59 -165.5t138 -57.5q91 0 149.5 66.5t58.5 157.5z" />
<glyph unicode=":" horiz-adv-x="206" d="M103 476q10 0 16.5 -6t6.5 -16q0 -8 -6.5 -14.5t-16.5 -6.5t-16.5 6.5t-6.5 14.5q0 10 6.5 16t16.5 6zM103 38q10 0 16.5 -6t6.5 -16q0 -8 -6.5 -14.5t-16.5 -6.5t-16.5 6.5t-6.5 14.5q0 10 6.5 16t16.5 6z" />
<glyph unicode=";" horiz-adv-x="240" d="M137 477q23 0 23 -22q0 -21 -23 -21q-10 0 -16 6t-6 15q0 22 22 22zM92 -112h-6q-6 0 -4 5l39 135q2 7 8 7h15q6 0 4 -6l-50 -138q-2 -3 -6 -3z" />
<glyph unicode="&#x3c;" horiz-adv-x="485" d="M442 452v-11q0 -5 -4 -7l-370 -175q-5 -3 -2 -4l370 -173q6 -3 6 -8v-8q0 -3 -1.5 -4.5t-3.5 -0.5l-393 185q-3 2 -3 5v11q0 6 4 7l392 186q5 3 5 -3z" />
<glyph unicode="=" horiz-adv-x="531" d="M52 345h418q6 0 6 -7v-8q0 -4 -8 -4h-416q-8 0 -8 4v10q0 5 8 5zM476 141v-8q0 -6 -4 -6h-423q-6 0 -6 6v9q0 5 6 5h422q5 0 5 -6z" />
<glyph unicode="&#x3e;" horiz-adv-x="486" d="M41 64v13q0 5 6 7l367 173q4 2 1 4l-370 173q-4 2 -4 5v13q0 5 6 3l392 -184q4 -2 4 -6v-13q0 -4 -3 -6l-394 -186q-5 -2 -5 4z" />
<glyph unicode="?" horiz-adv-x="502" d="M218 38q10 0 16.5 -6t6.5 -15t-6.5 -15.5t-16.5 -6.5q-22 0 -22 22q0 9 6 15t16 6zM232 148h-12q-5 0 -5 9v21q0 52 10.5 91t26.5 61.5t36 40.5t40 34t36 34.5t26.5 50t10.5 74.5q0 125 -141 125q-90 0 -153 -40q-13 -9 -13 1v12q0 4 4 6q72 42 162 42q84 0 124 -38.5 t40 -106.5q0 -52 -14 -89.5t-34.5 -56.5t-44.5 -40t-44.5 -41.5t-34.5 -61.5t-14 -98v-21q0 -9 -6 -9z" />
<glyph unicode="@" horiz-adv-x="758" d="M396 10l1 -8q1 -6 -10 -6q-153 8 -253 94.5t-100 227.5q0 149 105.5 245.5t257.5 96.5q83 0 155 -31.5t120.5 -99.5t48.5 -160q0 -89 -42 -148t-116 -59q-84 0 -89 83q-19 -42 -57 -62.5t-84 -20.5q-60 0 -97 34.5t-37 101.5q0 83 55.5 144.5t140.5 61.5q62 0 93.5 -37 t31.5 -96q0 -32 -11.5 -71.5t-11.5 -57.5q0 -61 65 -61q67 0 102 54.5t35 132.5q0 128 -87.5 200.5t-214.5 72.5q-144 0 -242 -91t-98 -232q0 -69 26 -124.5t72 -91.5t103 -57.5t123 -28.5q14 -2 15 -6zM333 181q79 0 122 57t43 134q0 113 -103 113q-77 0 -125 -55t-48 -133 q0 -116 111 -116z" />
<glyph unicode="A" horiz-adv-x="633" d="M32 10l280 687q5 12 10 0l279 -688q4 -9 -4 -9h-6q-9 0 -11 6l-90 222h-346l-90 -222q-2 -6 -8 -6h-13q-4 0 -1 10zM313 642l-160 -393h328l-159 392q-5 12 -9 1z" />
<glyph unicode="B" horiz-adv-x="546" d="M115 8v681q0 11 8 11h122q108 0 162.5 -38t54.5 -134q0 -63 -44 -109t-106 -48q84 -7 130.5 -57t46.5 -129q0 -185 -238 -185h-129q-7 0 -7 8zM137 351v-325q0 -6 4 -6h111q114 0 163.5 42.5t49.5 123.5q0 82 -52 126.5t-151 44.5h-118q-7 0 -7 -6zM137 673v-290 q0 -5 6 -5h101q90 0 142 43t52 108q0 83 -45.5 116.5t-144.5 33.5h-108q-3 0 -3 -6z" />
<glyph unicode="C" horiz-adv-x="654" d="M92 349q0 -140 98.5 -238.5t237.5 -98.5q78 0 159 38q10 5 10 -2v-12q0 -5 -7 -8q-86 -38 -162 -38q-149 0 -253.5 105t-104.5 254t105 254.5t253 105.5q93 0 155 -36q14 -8 14 -14v-6q0 -5 -2 -5.5t-12 4.5q-47 22 -77 29.5t-78 7.5q-139 0 -237.5 -100t-98.5 -240z" />
<glyph unicode="D" horiz-adv-x="666" d="M234 0h-112q-7 0 -7 8v682q0 10 8 10h111q172 0 267 -101.5t95 -248.5t-95 -248.5t-267 -101.5zM137 677v-653q0 -6 4 -6h83q165 0 256 95t91 235q0 144 -90 238t-257 94h-82q-5 0 -5 -3z" />
<glyph unicode="E" horiz-adv-x="517" d="M115 6v690q0 4 4 4h326q7 0 7 -5v-9q0 -6 -5 -6h-307q-2 0 -2 -3v-298q0 -4 3 -4h306q5 0 5 -5v-9q0 -6 -6 -6h-305q-3 0 -3 -4v-327q0 -3 3 -3h307q4 0 4 -5v-11q0 -5 -7 -5h-324q-6 0 -6 6z" />
<glyph unicode="F" horiz-adv-x="486" d="M115 6v683q0 7 2 9t9 2h304q6 0 6 -4v-12q0 -4 -5 -4h-288q-5 0 -5 -6v-264q0 -3 3 -3h290q5 0 5 -4v-12q0 -4 -5 -4h-290q-3 0 -3 -4v-378q0 -5 -5 -5h-15q-3 0 -3 6z" />
<glyph unicode="G" horiz-adv-x="777" d="M92 349q0 -140 98.5 -238.5t237.5 -98.5q40 0 69 4q77 12 153 47v309q0 8 -6 8h-219q-7 0 -7 5v10q0 5 11 5h230q14 0 14 -8v-329q0 -9 -2 -11.5t-11 -7.5q-26 -14 -67 -28q-83 -26 -165 -26q-149 0 -253.5 105t-104.5 254t102 254.5t246 105.5q126 0 230 -59q9 -5 9 -9 v-12q0 -8 -13 0q-99 60 -226 60q-135 0 -230.5 -100t-95.5 -240z" />
<glyph unicode="H" horiz-adv-x="660" d="M132 0h-12q-5 0 -5 5v690q0 5 5 5h13q5 0 5 -5v-317q0 -4 3 -4h378q3 0 3 4v317q0 5 5 5h13q5 0 5 -5v-690q0 -5 -4 -5h-12q-7 0 -7 8v341q0 3 -3 3h-378q-3 0 -3 -3v-342q0 -7 -6 -7z" />
<glyph unicode="I" horiz-adv-x="253" d="M133 0h-12q-6 0 -6 7v685q0 8 5 8h14q4 0 4 -9v-684q0 -7 -5 -7z" />
<glyph unicode="J" horiz-adv-x="315" d="M200 692v-513q0 -95 -53.5 -140.5t-130.5 -45.5q-9 0 -9 6v10q0 4 1.5 5t9.5 1q73 0 116.5 40t43.5 124v513q0 8 5 8h13q4 0 4 -8z" />
<glyph unicode="K" horiz-adv-x="539" d="M132 0h-11q-6 0 -6 8v686q0 6 3 6h16q4 0 4 -6v-312l321 315q3 3 7 3h17q2 0 2.5 -2.5t-1.5 -4.5l-317 -312q-6 -4 -1 -9l349 -364q8 -8 -1 -8h-13q-9 0 -16 8l-347 361v-360q0 -9 -6 -9z" />
<glyph unicode="L" horiz-adv-x="426" d="M397 0h-271q-11 0 -11 9v683q0 8 4 8h15q4 0 4 -7v-668q0 -4 3 -4h255q7 0 7 -6v-10q0 -5 -6 -5z" />
<glyph unicode="M" horiz-adv-x="869" d="M749 0h-13q-4 0 -4 9v632q0 13 -9 0l-282 -364q-12 -16 -22 -3l-286 369q-4 6 -7 -1q-1 -2 -1 -7v-627q0 -8 -5 -8h-12q-5 0 -5 8v696q0 3 2.5 4t4.5 -2l309 -398q9 -12 16 -4l308 396q11 13 11 0v-693q0 -7 -5 -7z" />
<glyph unicode="N" horiz-adv-x="721" d="M606 694v-693q0 -8 -7 -1q-2 1 -3 3l-458 638v-634q0 -7 -4 -7h-15q-4 0 -4 6v687q0 5 2 6.5t4 1t3 -2.5l459 -638v634q0 6 4 6h15q4 0 4 -6z" />
<glyph unicode="O" horiz-adv-x="859" d="M70 349q0 149 105.5 254.5t254.5 105.5q148 0 253.5 -105.5t105.5 -254.5t-105.5 -254t-253.5 -105q-149 0 -254.5 105t-105.5 254zM94 349q0 -140 98.5 -238.5t237.5 -98.5t237 98.5t98 238.5q0 141 -98 240.5t-237 99.5t-237.5 -100t-98.5 -240z" />
<glyph unicode="P" horiz-adv-x="540" d="M125 700h120q225 0 225 -172q0 -175 -225 -175h-96q-11 0 -11 -9v-335q0 -9 -6 -9h-12q-5 0 -5 8v682q0 7 1.5 8.5t8.5 1.5zM138 667v-285q0 -7 9 -7h95q103 0 154 36.5t51 116.5t-51.5 115.5t-155.5 35.5h-95q-7 0 -7 -12z" />
<glyph unicode="Q" horiz-adv-x="862" d="M70 349q0 149 105.5 254.5t254.5 105.5q148 0 253.5 -105.5t105.5 -254.5q0 -101 -51.5 -185t-136.5 -131l105 -158q6 -9 -3 -9h-8q-10 0 -16 9l-98 148q-72 -33 -151 -33q-149 0 -254.5 105t-105.5 254zM94 349q0 -140 98.5 -238.5t237.5 -98.5q71 0 139 30l-91 139 q-5 7 4 7h8q11 0 13 -6l86 -130q80 44 128 123t48 174q0 141 -98 240.5t-237 99.5t-237.5 -100t-98.5 -240z" />
<glyph unicode="R" horiz-adv-x="580" d="M123 700h112q116 0 170.5 -44.5t54.5 -137.5q0 -153 -149 -179l256 -332q6 -7 -2 -7h-17q-4 0 -9 6l-254 329q-30 -2 -50 -2h-88q-6 0 -7.5 -1t-1.5 -7v-317q0 -8 -5 -8h-13q-5 0 -5 8v686q0 6 8 6zM138 669v-306q0 -6 1 -7.5t6 -1.5h87q106 0 155.5 39t49.5 125 q0 87 -49.5 124.5t-157.5 37.5h-82q-7 0 -8.5 -2t-1.5 -9z" />
<glyph unicode="S" horiz-adv-x="488" d="M430 178q0 -92 -48 -140t-143 -48q-90 0 -143 33q-9 6 -9 14v9q0 9 9 2q53 -37 142 -37q170 0 170 167q0 38 -10.5 69t-24 50t-38.5 37.5t-42 27.5t-46 22q-71 32 -107 71.5t-36 109.5q0 145 158 145q72 0 124 -32q5 -3 5 -9v-9q0 -8 -6 -4q-59 33 -123 33 q-136 0 -136 -125q0 -63 32 -96t97 -63q40 -18 63 -32t53 -40.5t44.5 -65t14.5 -89.5z" />
<glyph unicode="T" horiz-adv-x="539" d="M275 0h-13q-5 0 -5 7v664q0 9 -6 9h-241q-7 0 -7 5v10q0 5 6 5h519q8 0 8 -6v-9q0 -5 -10 -5h-240q-6 0 -6 -7v-664q0 -9 -5 -9z" />
<glyph unicode="U" horiz-adv-x="650" d="M523 234v460q0 6 4 6h15q4 0 4 -7v-462q0 -241 -215 -241q-216 0 -216 241v463q0 6 5 6h14q4 0 4 -8v-458q0 -224 193 -224q192 0 192 224z" />
<glyph unicode="V" horiz-adv-x="545" d="M269 1l-245 691q-3 8 3 8h13q5 0 8 -9l221 -627q5 -10 8 1l218 623q7 11 10 12h13q5 0 3 -8l-244 -690q-1 -2 -2.5 -3.5t-3 -0.5t-2.5 3z" />
<glyph unicode="W" horiz-adv-x="872" d="M621 8l-184 622l-184 -622q-6 -23 -14 0l-214 684q-3 8 5 8h11q6 0 9 -9l194 -623h3l178 601q7 28 12 28q3 0 12 -28l179 -611h2l190 621q6 19 10 20q2 1 6 1h6q10 0 3 -24l-209 -668q-8 -25 -15 0z" />
<glyph unicode="X" horiz-adv-x="501" d="M26 9l207 344q4 7 0 14l-207 324q-5 9 1 9h14q7 0 10 -7l194 -306q5 -10 10 -3l197 311q3 5 9 5h11q9 0 3 -8l-204 -323q-6 -9 -2 -16l206 -344q6 -9 -1 -9h-15q-4 0 -9 8l-196 326q-5 7 -8 2l-194 -328q-5 -8 -9 -8h-15q-4 0 -4 3t2 6z" />
<glyph unicode="Y" horiz-adv-x="513" d="M265 0h-14q-5 0 -5 12v357q0 19 -5 25l-215 297q-5 9 1 9h14q4 0 8 -7l199 -271q7 -13 9.5 -13t8.5 11l196 272q5 8 10 8h14q6 0 1 -8l-213 -299q-5 -7 -5 -27v-355q0 -11 -4 -11z" />
<glyph unicode="Z" horiz-adv-x="504" d="M59 10l344 666q2 4 -2 4h-310q-7 0 -8.5 1t-1.5 6v7q0 6 9 6h336q7 0 8.5 -4.5t-0.5 -6.5l-343 -664q-1 -1 0.5 -2t3.5 -1h344q8 0 8 -6v-9q0 -7 -7 -7h-376q-4 0 -5.5 2t-1 4t1.5 4z" />
<glyph unicode="[" horiz-adv-x="261" d="M88 730h85q8 0 8 -5v-7q0 -5 -9 -5h-65q-6 0 -6 -6v-837q0 -7 8 -7h65q7 0 7 -5v-6q0 -5 -6 -5h-88q-7 0 -7 10v863q0 10 8 10z" />
<glyph unicode="\" horiz-adv-x="239" d="M273 -16l-298 716q-4 10 3 10h12q5 0 9 -8l296 -716q3 -7 -4 -7h-11q-4 0 -7 5z" />
<glyph unicode="]" horiz-adv-x="261" d="M88 730h81q12 0 12 -15v-857q0 -11 -10 -11h-83q-8 0 -8 5v6q0 5 10 5h63q7 0 7 7v832q0 7 -1.5 9t-6.5 2h-63q-9 0 -9 5v7q0 5 8 5z" />
<glyph unicode="^" horiz-adv-x="565" d="M453 418l-164 201q-8 9 -16 -2l-163 -201q-8 -10 -13 -7l-8 4q-7 3 4 16l179 220q10 13 22 -3l179 -220q6 -9 2 -13l-4 -3q-7 -5 -18 8z" />
<glyph unicode="_" horiz-adv-x="484" d="M477 -20h-469q-8 0 -8 6v10q0 4 7 4h467q10 0 10 -5v-9q0 -6 -7 -6z" />
<glyph unicode="`" horiz-adv-x="138" d="M109 734l-107 126q-1 1 0 2.5t3 1.5h14q4 0 8 -5l102 -123q2 -2 2 -4.5t-2 -2.5h-10q-5 0 -10 5z" />
<glyph unicode="a" horiz-adv-x="559" d="M440 0q-3 0 -3 3v38q-82 -51 -185 -51q-74 0 -118 37.5t-44 95.5q0 61 50 96.5t123 35.5q99 0 174 -40v96q0 75 -40 109t-106 34q-95 0 -151 -22q-3 -3 -5.5 -2t-2.5 4v13l4 6q74 22 154 22q75 0 122 -39.5t47 -124.5v-306q0 -5 -4 -5h-15zM113 123q0 -50 37 -81.5 t97 -31.5q51 0 103 14.5t87 38.5v129q-69 43 -180 43q-60 0 -102 -30.5t-42 -81.5z" />
<glyph unicode="b" horiz-adv-x="589" d="M123 735v-340q21 23 38.5 37t57.5 28.5t90 14.5q91 0 155.5 -67.5t64.5 -177.5t-67.5 -175t-152.5 -65q-50 0 -90 13.5t-58 27.5t-38 36v-62q0 -5 -3 -5h-16q-3 0 -3 4v732q0 4 4 4h14q4 0 4 -5zM505 230q0 97 -57 160t-140 63q-56 0 -104.5 -23.5t-80.5 -64.5v-268 q66 -86 185 -86q77 0 137 60.5t60 158.5z" />
<glyph unicode="c" horiz-adv-x="493" d="M83 231q0 -91 64.5 -155.5t155.5 -64.5q70 0 130 36q6 3 6 -4v-12q0 -5 -4 -8q-55 -34 -132 -34q-101 0 -172 71t-71 171q0 101 71 172t172 71q60 0 130 -33q6 -4 6 -8v-12q0 -8 -8 -4q-66 35 -128 35q-91 0 -155.5 -64.5t-64.5 -156.5z" />
<glyph unicode="d" horiz-adv-x="580" d="M289 475q102 0 169 -69v329q0 5 4 5h14q4 0 4 -4v-732q0 -4 -3 -4h-16q-3 0 -3 5v56q-67 -71 -169 -71q-94 0 -161.5 67.5t-67.5 177.5t70 175t159 65zM84 235q0 -97 59 -160t146 -63q104 0 169 78v287q-63 77 -169 77q-80 0 -142.5 -60.5t-62.5 -158.5z" />
<glyph unicode="e" d="M498 249q0 -6 -7 -6h-409v-17q0 -90 49 -152.5t159 -62.5q69 0 143 37q7 4 7 -4v-9q0 -6 -4 -8q-72 -37 -147 -37q-118 0 -173.5 66t-55.5 169q0 111 63.5 180.5t155.5 69.5q93 0 156 -62t63 -164zM279 455q-75 0 -129.5 -53.5t-65.5 -137.5h391q-5 83 -59 137t-137 54z " />
<glyph unicode="f" horiz-adv-x="401" d="M280 730q-47 0 -66 -30.5t-19 -99.5v-128q0 -7 5 -7h132q7 0 7 -6v-8q0 -6 -6 -6h-131q-5 0 -6 -1.5t-1 -8.5v-427q0 -8 -7 -8h-9q-6 0 -6 9v430q0 4 -1 5t-6 1h-119q-7 0 -7 6v8q0 6 6 6h120q7 0 7 5v130q0 82 25.5 116t81.5 34q43 0 76 -19q5 -3 5 -8v-9q0 -8 -7 -3 q-32 19 -74 19z" />
<glyph unicode="g" horiz-adv-x="586" d="M464 9v59q-19 -22 -36.5 -36t-55 -28t-83.5 -14q-94 0 -161.5 67.5t-67.5 177.5t70 175t159 65q108 0 175 -76v55q0 11 6 11h9q7 0 7 -5v-450q0 -112 -56 -160.5t-147 -49.5q-58 0 -122 22q-10 0 -10 12v6q0 8 15 2q59 -20 117 -20q181 0 181 187zM84 235q0 -97 59 -160 t146 -63q111 0 175 86v271q-63 85 -175 85q-80 0 -142.5 -60.5t-62.5 -158.5z" />
<glyph unicode="h" horiz-adv-x="593" d="M132 734v-346q67 87 183 87q87 0 132.5 -43.5t45.5 -140.5v-285q0 -6 -5 -6h-11q-6 0 -6 6v285q0 164 -154 164q-53 0 -97 -21t-88 -73v-355q0 -6 -4 -6h-14q-4 0 -4 7v726q0 7 6 7h10q6 0 6 -6z" />
<glyph unicode="i" horiz-adv-x="250" d="M125 667q21 0 21 -22q0 -20 -21 -20t-21 20q0 22 21 22zM136 457v-450q0 -7 -5 -7h-11q-6 0 -6 6v450q0 6 1.5 7.5t7.5 1.5h6q7 0 7 -8z" />
<glyph unicode="j" horiz-adv-x="240" d="M122 667q21 0 21 -22q0 -20 -21 -20t-21 20q0 22 21 22zM64 -170q-24 0 -41 6q-6 2 -6 7v7q0 6 7 5q23 -5 44 -5q42 0 42 61v547q0 7 5 7h12q5 0 5 -5v-550q0 -43 -16.5 -61.5t-51.5 -18.5z" />
<glyph unicode="k" horiz-adv-x="465" d="M410 6l-270 234q-8 7 -8 -4v-229q0 -7 -7 -7h-9q-6 0 -6 6v728q0 6 5 6h12q5 0 5 -6v-475q0 -5 6 -1l276 205q4 3 9 3h19q6 0 1 -5l-273 -206q-4 -3 -5 -4t-0.5 -3t4.5 -5l272 -236q7 -7 -2 -7h-15q-8 0 -14 6z" />
<glyph unicode="l" horiz-adv-x="232" d="M132 733v-725q0 -8 -6 -8h-10q-6 0 -6 10v722q0 8 4 8h14q4 0 4 -7z" />
<glyph unicode="m" horiz-adv-x="858" d="M122 460v-59q62 74 158 74q113 0 147 -84q63 84 167 84q164 0 164 -184v-283q0 -8 -5 -8h-13q-4 0 -4 9v282q0 164 -141 164q-91 0 -161 -84q10 -31 10 -80v-284q0 -7 -7 -7h-10q-5 0 -5 8v283q0 164 -140 164q-91 0 -160 -82v-368q0 -5 -4 -5h-14q-4 0 -4 6v453q0 6 5 6 h11q6 0 6 -5z" />
<glyph unicode="n" horiz-adv-x="573" d="M122 460v-60q67 75 173 75q87 0 132.5 -43.5t45.5 -140.5v-285q0 -6 -5 -6h-11q-6 0 -6 6v285q0 164 -154 164q-100 0 -175 -83v-367q0 -5 -4 -5h-14q-4 0 -4 6v453q0 6 5 6h11q6 0 6 -5z" />
<glyph unicode="o" horiz-adv-x="604" d="M60 232q0 101 71 172t171 71t171 -71t71 -172q0 -100 -71 -171t-171 -71t-171 71t-71 171zM82 232q0 -92 64 -156t156 -64t156 64t64 156t-64.5 156.5t-155.5 64.5t-155.5 -64.5t-64.5 -156.5z" />
<glyph unicode="p" horiz-adv-x="599" d="M132 460v-66q22 23 39 37t57.5 29t90.5 15q91 0 155.5 -67.5t64.5 -177.5t-67.5 -175t-152.5 -65q-50 0 -90.5 14t-58 28t-38.5 36v-251q0 -7 -4 -7h-14q-4 0 -4 6v644q0 5 5 5h13q4 0 4 -5zM515 230q0 97 -57 160t-140 63q-56 0 -105 -23.5t-81 -65.5v-266 q65 -87 186 -87q77 0 137 60.5t60 158.5z" />
<glyph unicode="q" horiz-adv-x="585" d="M463 -184v251q-68 -77 -174 -77q-94 0 -161.5 67.5t-67.5 177.5t70 175t159 65q108 0 174 -75v58q0 7 6 7h11q5 0 5 -8v-641q0 -6 -6 -6h-11q-5 0 -5 6zM84 235q0 -97 59 -160t146 -63q108 0 174 84v274q-62 84 -174 84q-80 0 -142.5 -60.5t-62.5 -158.5z" />
<glyph unicode="r" horiz-adv-x="377" d="M106 465h10q6 0 6 -7v-70q25 40 63.5 63.5t82.5 23.5q50 0 84 -14q5 -2 5 -7v-7q0 -6 -7 -4q-33 12 -81 12q-83 0 -147 -94v-355q0 -6 -6 -6h-11q-5 0 -5 5v452q0 8 6 8z" />
<glyph unicode="s" horiz-adv-x="418" d="M199 455q-44 0 -72 -19.5t-28 -57.5q0 -35 24.5 -57t59.5 -35.5t70.5 -29.5t60 -51t24.5 -89q0 -64 -39 -95t-106 -31q-94 0 -139 40q-4 4 -4 8v9q0 7 8 2q50 -39 135 -39q57 0 90 26t33 80q0 50 -24.5 81.5t-59.5 46t-70.5 27.5t-60 39t-24.5 68q0 48 34 72.5t88 24.5 q68 0 108 -29q7 -6 7 -12v-7q0 -9 -9 -2q-37 30 -106 30z" />
<glyph unicode="t" horiz-adv-x="358" d="M298 3v-8q0 -5 -7 -5q-150 0 -150 173v282h-111q-10 0 -10 7v7q0 6 9 6h112v182q0 10 6 10h10q6 0 6 -9v-183h126q8 0 8 -7v-7q0 -6 -7 -6h-127v-281q0 -153 127 -154q8 0 8 -7z" />
<glyph unicode="u" d="M276 -10q-91 0 -138.5 50.5t-47.5 163.5v255q0 6 4 6h13q5 0 5 -6v-255q0 -194 164 -194t164 194v255q0 6 5 6h13q4 0 4 -6v-255q0 -113 -47.5 -163.5t-138.5 -50.5z" />
<glyph unicode="v" horiz-adv-x="440" d="M214 2l-193 457q-3 6 2 6h13q5 0 8 -6l176 -419l177 420q3 5 8 5h11q6 0 3 -7l-194 -456q-6 -13 -11 0z" />
<glyph unicode="w" horiz-adv-x="730" d="M193 3l-172 454q-3 8 4 8h12q4 0 7 -8l153 -409h1l160 407q7 17 14 0l160 -407h3l150 407q3 10 9 10h11q4 0 4.5 -1.5t-1.5 -7.5l-171 -453q-5 -12 -9 0l-163 417l-162 -417q-4 -13 -10 0z" />
<glyph unicode="x" horiz-adv-x="444" d="M394 465h15q8 0 2 -6l-176 -222l187 -232q1 -4 -2 -5h-15q-5 0 -8 3l-176 218l-176 -219q-2 -2 -6 -2h-15q-7 0 -1 7l185 230l-175 221q-5 7 2 7h14q5 0 9 -5l163 -207l165 208q3 4 8 4z" />
<glyph unicode="y" horiz-adv-x="455" d="M433 455l-271 -640q-2 -5 -9 -5h-8q-6 0 -4 6l83 198l-188 445q-3 6 3 6h12q5 0 8 -6l176 -419l174 415q4 10 9 10h13q6 0 2 -10z" />
<glyph unicode="z" horiz-adv-x="432" d="M47 9l278 436h-267q-7 0 -7 5v10q0 5 8 5h296q8 0 3 -8l-279 -437h284q9 0 9 -6v-9q0 -5 -7 -5h-315q-8 0 -3 9z" />
<glyph unicode="{" horiz-adv-x="367" d="M80 262v14q0 2 2.5 3t6.5 2t6 2q87 33 87 164v131q0 123 93 123h8q4 0 4 -3v-11q0 -1 -8 -3q-41 -4 -58 -30t-17 -75v-117q0 -151 -96 -193q96 -41 96 -193v-117q0 -50 16.5 -75.5t59.5 -30.5q7 -1 7 -3v-9q0 -4 -2 -4h-10q-93 0 -93 123v131q0 133 -90 165 q-1 1 -4.5 1.5t-5.5 1.5t-2 3z" />
<glyph unicode="|" horiz-adv-x="276" d="M152 720v-881q0 -6 -6 -6h-12q-5 0 -5 6v882q0 7 5 7h13q5 0 5 -8z" />
<glyph unicode="}" horiz-adv-x="367" d="M287 277v-15q0 -3 -3.5 -4.5t-8.5 -2t-6 -1.5q-84 -33 -84 -163v-131q0 -123 -93 -123h-9q-4 0 -3 2v11q0 2 3.5 2.5t8.5 0.5t7 1q64 20 64 105v117q0 153 96 193q-96 40 -96 193v117q0 101 -71 106q-12 1 -12 4v10q0 2 3 2h9q93 0 93 -123v-131q0 -108 73 -158 q3 -2 13.5 -5t13.5 -6q2 0 2 -1z" />
<glyph unicode="~" horiz-adv-x="520" d="M344 200q-33 0 -95 31t-99 31q-50 0 -84 -43q-10 -12 -13 -11l-6 3q-6 2 4 15q43 56 106 56q34 0 97 -31t99 -31q45 0 82 41q12 14 15 13l5 -3q4 -2 -3 -14q-40 -57 -108 -57z" />
<glyph unicode="&#xa0;" horiz-adv-x="196" d="M189 226h-183q-6 0 -6 5v11q0 4 6 4h180q10 0 10 -5v-10q0 -5 -7 -5z" />
<glyph unicode="&#xa1;" horiz-adv-x="302" d="M147 246h11q5 0 5 -9v-407q0 -10 -5 -10h-13q-5 0 -5 8v412q0 6 7 6zM150 287q-22 0 -22 22q0 9 6 15t16 6t16.5 -6t6.5 -15q0 -22 -23 -22z" />
<glyph unicode="&#xa2;" horiz-adv-x="493" d="M83 231q0 -91 64.5 -155.5t155.5 -64.5q70 0 130 36q6 3 6 -4v-12q0 -5 -4 -8q-55 -34 -132 -34h-2v-55q0 -5 -4 -5h-13q-4 0 -4 6v56q-93 8 -156.5 76.5t-63.5 163.5q0 94 63.5 163.5t156.5 77.5v65q0 6 3 6h14q4 0 4 -5v-64h2q60 0 130 -33q6 -4 6 -8v-12q0 -8 -8 -4 q-66 35 -128 35q-91 0 -155.5 -64.5t-64.5 -156.5z" />
<glyph unicode="&#xa3;" horiz-adv-x="560" d="M398 336h-167q-3 0 -3 -5q10 -68 10 -90q0 -56 -31 -119.5t-101 -98.5q-3 -2 3 -3h392q6 0 6 -4v-12q0 -4 -5 -4h-433q-4 0 -4 5v11q0 4 4 6q142 75 142 223q0 43 -7 86q-1 5 -6 5h-114q-5 0 -5 4v11q0 5 7 5h109q5 2 5 4q-17 113 -17 150q0 109 42 154t127 45 q76 0 136 -27q4 -2 4 -8v-12q0 -5 -6 -2q-26 11 -39 16t-37.5 9t-56.5 4q-70 0 -107.5 -41t-37.5 -137q0 -54 17 -150q2 -5 6 -5h166q6 0 6 -6v-9q0 -5 -5 -5z" />
<glyph unicode="&#xa4;" horiz-adv-x="622" d="M501 35l-6 -4q-4 -3 -8 1l-54 62q-57 -40 -142 -40q-86 0 -144 40l-53 -61q-5 -5 -9 -3l-7 5q-4 3 0 7l54 64q-72 61 -72 170q0 110 72 170l-51 62q-6 6 -1 10l6 5q4 3 7 -2l54 -64q61 40 144 40q84 0 142 -39l54 61q4 6 9 2l5 -4q5 -4 0 -9l-53 -61q74 -61 74 -171 q0 -111 -74 -171l53 -62q5 -5 0 -8zM291 74q96 0 152 57t56 145t-55 144.5t-153 56.5t-153 -56.5t-55 -144.5t56 -145t152 -57z" />
<glyph unicode="&#xa5;" horiz-adv-x="461" d="M237 0h-14q-5 0 -5 6v167q0 4 -5 4h-187q-5 0 -5 4v12q0 4 7 4h187q3 0 3 4v103q0 5 -4 5h-186q-6 0 -6 4v12q0 4 5 4h180q3 1 3 2l-185 364q-3 5 3 5h15q5 0 6 -3l178 -356q2 -6 6 1l176 354q2 4 6 4h14q7 0 4 -7l-182 -359q-3 -5 1 -5h184q6 0 6 -5v-10q0 -5 -7 -5 h-189q-4 0 -4 -5v-102q0 -5 5 -5h190q5 0 5 -3v-12q0 -5 -6 -5h-190q-4 0 -4 -6v-164q0 -7 -5 -7z" />
<glyph unicode="&#xa6;" horiz-adv-x="275" d="M150 693v-346q0 -5 -4 -5h-13q-4 0 -4 6v345q0 5 4 5h13q4 0 4 -5zM150 181v-315q0 -6 -5 -6h-12q-4 0 -4 6v316q0 5 4 5h13q4 0 4 -6z" />
<glyph unicode="&#xa7;" horiz-adv-x="428" d="M228 690q-63 0 -95.5 -19t-32.5 -68q0 -43 26.5 -69t64.5 -38.5t76 -25.5t64.5 -42.5t26.5 -77.5q0 -107 -144 -124q76 -26 99 -44q44 -34 45 -94q0 -63 -42.5 -95t-123.5 -32q-56 0 -126 11q-6 1 -5 5l2 10q1 4 9 4q75 -10 128 -10q62 0 98.5 25.5t36.5 79.5 q0 43 -26.5 69t-64.5 38.5t-76 25.5t-64.5 42.5t-26.5 77.5q0 58 41.5 85t120.5 32q-8 3 -36.5 12.5t-39 14t-31.5 16.5t-30 24.5t-17 32.5t-8 45q0 61 38.5 85t112.5 24q65 0 113 -11q5 -2 4 -7l-2 -11q-1 -3 -9 -2q-58 11 -106 11zM335 348q0 59 -54 90q-89 -1 -135 -22 t-46 -75q0 -66 69 -98q77 2 121.5 27.5t44.5 77.5z" />
<glyph unicode="&#xa8;" horiz-adv-x="237" d="M52 783q11 0 17.5 -6t6.5 -16q0 -8 -7 -14.5t-17 -6.5q-8 0 -15 6.5t-7 14.5q0 9 6.5 15.5t15.5 6.5zM184 783q10 0 16.5 -6t6.5 -16q0 -8 -6.5 -14.5t-16.5 -6.5t-16.5 6.5t-6.5 14.5q0 10 6.5 16t16.5 6z" />
<glyph unicode="&#xa9;" horiz-adv-x="829" d="M413 -15q-107 0 -196.5 52.5t-139 137t-49.5 178.5q0 152 114 260t273 108q165 0 275.5 -111t110.5 -267q0 -106 -57.5 -190t-145 -126t-185.5 -42zM413 6q146 0 254 94t108 245q0 149 -101 252t-259 103q-152 0 -256 -101t-104 -246q0 -89 44 -168t127.5 -129t186.5 -50 zM285 349q0 -62 41 -106t100 -44q36 0 76 23q7 4 9 2l7 -8q3 -3 -3 -9q-40 -28 -89 -28q-68 0 -115.5 49.5t-47.5 120.5t47.5 121t115.5 50q50 0 90 -28q6 -4 2 -8l-7 -9q-2 -3 -11 2q-35 23 -74 23q-59 0 -100 -44t-41 -107z" />
<glyph unicode="&#xaa;" horiz-adv-x="413" d="M32 539q0 83 45.5 127t113.5 44q52 0 90.5 -24t52.5 -61q2 4 2 10v57q0 8 5 8h11q5 0 5 -6v-309q0 -5 -4 -5h-12q-5 0 -5 6v60v11q-1 0 -3 -5q-17 -38 -55 -60t-86 -22q-68 0 -114 43t-46 126zM54 539q0 -74 39.5 -111.5t99.5 -37.5q63 0 103 40t40 109q0 70 -40.5 110.5 t-102.5 40.5q-60 0 -99.5 -38.5t-39.5 -112.5z" />
<glyph unicode="&#xab;" horiz-adv-x="535" d="M442 427l8 -3q4 -1 1 -6l-146 -182q-3 -3 0 -6l147 -182q3 -3 -2 -6l-8 -3q-4 -1 -9 5l-158 184q-1 1 -1 4t1 5l159 187q4 4 8 3zM250 427l8 -3q6 -2 3 -5l-149 -183q-2 -3 0 -6l146 -179q7 -7 0 -9l-10 -3q-2 -1 -6 3l-158 186q-4 5 0 10l156 184q6 6 10 5z" />
<glyph unicode="&#xac;" horiz-adv-x="572" d="M49 373h478q9 0 9 -7v-216q0 -6 -4 -6h-10q-4 0 -4 7v201q0 3 -2 3h-466q-7 0 -7 4v9q0 5 6 5z" />
<glyph unicode="&#xad;" horiz-adv-x="196" d="M189 226h-183q-6 0 -6 5v11q0 4 6 4h180q10 0 10 -5v-10q0 -5 -7 -5z" />
<glyph unicode="&#xae;" horiz-adv-x="830" d="M414 -15q-108 0 -197.5 52.5t-139 137t-49.5 178.5q0 152 114 260t273 108q166 0 276.5 -111t110.5 -267q0 -80 -33.5 -149t-89 -114t-124.5 -70t-141 -25zM414 6q94 0 175.5 40.5t133.5 119t52 179.5q0 149 -101 252t-259 103q-152 0 -256 -101t-104 -246 q0 -139 102 -243t257 -104zM394 510q57 0 88 -29t31 -69q0 -60 -56 -85q-2 -1 -1 -3l51 -140q2 -4 -5 -4h-12q-4 0 -6 5l-50 133q-41 -9 -67 -1q-2 1 -3 -0.5t-1 -5.5v-125q0 -6 -3 -6h-16q-3 0 -3 5v314q0 5 3 6q23 5 50 5zM363 481v-137q0 -6 4 -7q17 -3 30 -3q42 0 68 24 t26 54q0 35 -34.5 59.5t-86.5 18.5q-7 -1 -7 -9z" />
<glyph unicode="&#xaf;" horiz-adv-x="240" d="M16 745v12q0 3 4 3h201q4 0 4 -4v-12q0 -4 -3 -4h-202q-4 0 -4 5z" />
<glyph unicode="&#xb0;" horiz-adv-x="363" d="M181 710q-51 0 -78.5 -31t-27.5 -73t28 -73t78 -31q51 0 78.5 30.5t27.5 73.5q0 42 -27.5 73t-78.5 31zM51 607q0 55 38.5 87t91.5 32t91.5 -32t38.5 -89q0 -56 -38.5 -87.5t-90.5 -31.5q-53 0 -92 32t-39 89z" />
<glyph unicode="&#xb1;" horiz-adv-x="573" d="M295 245v-213q0 -7 -5 -7h-12q-4 0 -4 8v212q0 5 -4 5h-220q-7 0 -7 5v11q0 4 7 4h220q4 0 4 3v213q0 8 5 8h11q5 0 5 -6v-213q0 -5 5 -5h219q4 0 4 -4v-11q0 -5 -5 -5h-219q-4 0 -4 -5zM524 -73h-471q-6 0 -6 4v11q0 5 5 5h472q6 0 6 -6v-9q0 -5 -6 -5z" />
<glyph unicode="&#xb2;" horiz-adv-x="361" d="M283 646q0 50 -32 73t-80 23q-102 0 -108 -85q-1 -10 -5 -10h-15q-4 0 -4 6q5 58 42 83.5t91 25.5q57 0 95 -28t38 -88q0 -34 -18.5 -65t-55.5 -75l-153 -180q-6 -6 -1 -6h232q6 0 6 -5v-10q0 -5 -5 -5h-262q-4 0 -4 5v11q0 2 6 11l162 191q71 83 71 128z" />
<glyph unicode="&#xb3;" horiz-adv-x="314" d="M143 293q-50 0 -85 22t-49 60q-3 6 3 8l9 2q5 2 7 -4q13 -32 44 -50.5t71 -18.5q54 0 88.5 30.5t34.5 88.5q0 56 -34.5 88t-86.5 32h-12q-4 0 -5 4l-2 10q-1 5 4 5h15q42 0 66.5 26t24.5 63q0 35 -23 60t-67 25q-56 0 -84 -42q-5 -7 -9 -5l-8 2q-5 1 -2 8q32 54 104 54 q51 0 80 -28.5t29 -73.5q0 -38 -20 -64t-55 -31q-1 -1 1 -2q43 -6 74 -39.5t31 -92.5q0 -66 -41 -101.5t-103 -35.5z" />
<glyph unicode="&#xb4;" horiz-adv-x="90" d="M21 730h-10q-5 0 -2 5l81 103q4 6 10 6h12q8 0 2 -7l-84 -103q-3 -4 -9 -4z" />
<glyph unicode="&#xb5;" horiz-adv-x="575" d="M444 188v270q0 7 5 7h12q5 0 5 -7v-450q0 -8 -5 -8h-13q-4 0 -4 7v70l-2 2q-40 -89 -170 -89q-113 0 -151 79v-253q0 -6 -6 -6h-11q-5 0 -5 7v643q0 5 5 5h14q3 0 3 -4v-273q0 -84 33.5 -131t119.5 -47q170 0 170 178z" />
<glyph unicode="&#xb6;" horiz-adv-x="547" d="M432 690v-807q0 -8 -5 -8h-11q-6 0 -6 6v793q0 5 -6 5h-73q-5 0 -5 -3v-794q0 -7 -5 -7h-11q-6 0 -6 7v432q0 3 -0.5 4.5t-3.5 0.5q-105 1 -167.5 51.5t-62.5 138.5q0 84 56.5 137.5t147.5 53.5h148q7 0 8.5 -1.5t1.5 -8.5z" />
<glyph unicode="&#xb7;" horiz-adv-x="288" d="M154 273q10 0 16.5 -6t6.5 -16q0 -9 -6.5 -15t-16.5 -6t-16.5 6t-6.5 15q0 10 6.5 16t16.5 6z" />
<glyph unicode="&#xb8;" horiz-adv-x="166" d="M115 -8l-15 -26q-2 -5 1 -5q58 0 69 -47q5 -26 -9 -44t-40 -25q-13 -4 -32 -4q-29 0 -53 9q-6 2 -6 5v5q0 5 11 2q16 -5 53 -5q28 0 44 15.5t12 38.5q-8 39 -70 39q-7 0 -4 4l21 38h18z" />
<glyph unicode="&#xb9;" horiz-adv-x="215" d="M57 701l-7 7q-4 4 0 6l45 38q3 3 7 3h14q5 0 5 -7v-441q0 -7 -4 -7h-14q-4 0 -4 6v419q0 4 -6 -1l-30 -24q-3 -2 -6 1z" />
<glyph unicode="&#xba;" horiz-adv-x="363" d="M32 539q0 82 47.5 126.5t116.5 44.5t116.5 -44.5t47.5 -126.5t-47.5 -125.5t-116.5 -43.5t-116.5 43.5t-47.5 125.5zM338 539q0 74 -40.5 112.5t-101.5 38.5t-101.5 -38.5t-40.5 -112.5t40.5 -111.5t101.5 -37.5t101.5 37.5t40.5 111.5z" />
<glyph unicode="&#xbb;" horiz-adv-x="535" d="M85 424l7 2q6 1 8 -2l154 -180q6 -7 6 -11.5t-6 -11.5l-155 -181q-2 -2 -6 -1l-8 3q-5 2 0 9l143 176q5 6 0 12l-145 180q-4 4 2 5zM277 423l8 3q5 2 7 -1l156 -184q7 -9 0 -16l-157 -186q-1 -1 -6 0l-8 3q-5 3 -1 7l147 181q2 2 -1 7l-146 180q-4 4 1 6z" />
<glyph unicode="&#xbc;" horiz-adv-x="828" d="M212 -46h-13q-6 0 -3 8l312 754q2 5 8 5h11q6 0 3 -7l-311 -755q-3 -5 -7 -5zM90 646l-7 7q-4 4 0 6l45 38q3 3 7 3h14q5 0 5 -7v-441q0 -7 -4 -7h-14q-4 0 -4 6v419q0 4 -6 -1l-30 -24q-3 -2 -6 1zM604 -7q-50 0 -85 22t-49 60q-3 6 3 8l9 2q5 2 7 -4q13 -32 44 -50.5 t71 -18.5q54 0 88.5 30.5t34.5 88.5q0 56 -34.5 88t-86.5 32h-12q-4 0 -5 4l-2 10q-1 5 4 5h15q42 0 66.5 26t24.5 63q0 35 -23 60t-67 25q-55 0 -84 -42q-5 -7 -9 -5l-8 2q-5 1 -2 8q32 54 104 54q52 0 80.5 -28.5t28.5 -73.5q0 -38 -20 -64t-55 -31q-2 -1 1 -2 q43 -6 74 -39.5t31 -92.5q0 -66 -41 -101.5t-103 -35.5z" />
<glyph unicode="&#xbd;" horiz-adv-x="856" d="M214 -46h-14q-7 0 -5 6l312 755q2 6 9 6h14q6 0 3 -7l-311 -755q-2 -5 -8 -5zM90 646l-7 7q-4 4 0 6l45 38q3 3 7 3h14q5 0 5 -7v-441q0 -7 -4 -7h-14q-4 0 -4 6v419q0 4 -6 -1l-30 -24q-3 -2 -6 1zM744 346q0 50 -32 73t-80 23q-102 0 -108 -85q-1 -10 -5 -10h-15 q-4 0 -4 6q5 58 42 83.5t91 25.5q57 0 95 -28t38 -88q0 -34 -18.5 -65t-55.5 -75l-153 -180q-6 -6 -1 -6h232q6 0 6 -5v-10q0 -5 -5 -5h-262q-4 0 -4 5v11q0 2 6 11l162 191q71 83 71 128z" />
<glyph unicode="&#xbe;" horiz-adv-x="975" d="M348 -46h-11q-7 0 -4 7l312 754q2 6 8 6h10q7 0 5 -5l-312 -758q-1 -4 -8 -4zM182 239q-50 0 -85 22t-49 60q-3 6 3 8l9 2q5 2 7 -4q13 -32 44 -50.5t71 -18.5q54 0 88.5 30.5t34.5 88.5q0 56 -34.5 88t-86.5 32h-12q-4 0 -5 4l-2 10q-1 5 4 5h15q42 0 66.5 26t24.5 63 q0 35 -23 60t-67 25q-55 0 -84 -42q-5 -7 -9 -5l-8 2q-5 1 -2 8q32 54 104 54q52 0 80.5 -28.5t28.5 -73.5q0 -38 -20 -64t-55 -31q-2 -1 1 -2q43 -6 74 -39.5t31 -92.5q0 -66 -41 -101.5t-103 -35.5zM645 109h189q2 0 2 4v327q0 4 3 4h14q4 0 4 -5v-326q0 -4 3 -4h49 q5 0 5 -5v-11q0 -4 -4 -4h-50q-3 0 -3 -3v-93q0 -4 -4 -4h-12q-5 0 -5 6v89q0 5 -3 5h-209q-4 0 -4 5v13q0 2 1.5 6t1.5 5l98 260q1 3 5 3h13q5 0 2 -6l-98 -264q0 -2 2 -2z" />
<glyph unicode="&#xbf;" horiz-adv-x="502" d="M276 336v-66q0 -44 -18 -81t-43.5 -63t-51 -51t-43.5 -57.5t-18 -69.5q0 -57 42.5 -95t113.5 -38q64 0 111 29t59 92q1 8 7 8h13q6 0 4 -9q-12 -68 -64.5 -105.5t-130.5 -37.5q-79 0 -129.5 41t-50.5 112q0 43 18 78.5t43.5 60.5t51.5 50t44 60t18 77v66q0 6 6 6h13 q5 0 5 -7zM262 434q-10 0 -16.5 6t-6.5 15t6.5 15.5t16.5 6.5q22 0 22 -22q0 -9 -6 -15t-16 -6z" />
<glyph unicode="&#xc0;" horiz-adv-x="633" d="M32 10l280 687q5 12 10 0l279 -688q4 -9 -4 -9h-6q-9 0 -11 6l-90 222h-346l-90 -222q-2 -6 -8 -6h-13q-4 0 -1 10zM313 642l-160 -393h328l-159 392q-5 12 -9 1zM303 734l-107 126q-1 1 0 2.5t3 1.5h14q4 0 8 -5l102 -123q2 -2 2 -4.5t-2 -2.5h-10q-5 0 -10 5z" />
<glyph unicode="&#xc1;" horiz-adv-x="633" d="M32 10l280 687q5 12 10 0l279 -688q4 -9 -4 -9h-6q-9 0 -11 6l-90 222h-346l-90 -222q-2 -6 -8 -6h-13q-4 0 -1 10zM313 642l-160 -393h328l-159 392q-5 12 -9 1zM325 730h-10q-5 0 -2 5l81 103q4 6 10 6h12q8 0 2 -7l-84 -103q-3 -4 -9 -4z" />
<glyph unicode="&#xc2;" horiz-adv-x="633" d="M32 10l280 687q5 12 10 0l279 -688q4 -9 -4 -9h-6q-9 0 -11 6l-90 222h-346l-90 -222q-2 -6 -8 -6h-13q-4 0 -1 10zM313 642l-160 -393h328l-159 392q-5 12 -9 1zM312 844h8q4 0 7 -3l95 -106q5 -5 -1 -5h-11q-5 0 -9 5l-82 85q-2 2 -3 2t-3 -2l-82 -85q-4 -5 -9 -5h-11 q-6 0 -1 5l95 106q3 3 7 3z" />
<glyph unicode="&#xc3;" horiz-adv-x="633" d="M32 10l280 687q5 12 10 0l279 -688q4 -9 -4 -9h-6q-9 0 -11 6l-90 222h-346l-90 -222q-2 -6 -8 -6h-13q-4 0 -1 10zM313 642l-160 -393h328l-159 392q-5 12 -9 1zM365 729q-18 0 -49.5 20t-48.5 20q-15 0 -43 -32q-5 -5 -7 -3l-7 4q-4 2 -2 6q26 45 64 45 q18 0 49.5 -19.5t48.5 -19.5q26 0 42 29q4 7 8 5l7 -3q2 -1 2.5 -3.5t-0.5 -3.5q-26 -45 -64 -45z" />
<glyph unicode="&#xc4;" horiz-adv-x="633" d="M32 10l280 687q5 12 10 0l279 -688q4 -9 -4 -9h-6q-9 0 -11 6l-90 222h-346l-90 -222q-2 -6 -8 -6h-13q-4 0 -1 10zM313 642l-160 -393h328l-159 392q-5 12 -9 1zM250 783q11 0 17.5 -6t6.5 -16q0 -8 -7 -14.5t-17 -6.5q-8 0 -15 6.5t-7 14.5q0 9 6.5 15.5t15.5 6.5z M382 783q10 0 16.5 -6t6.5 -16q0 -8 -6.5 -14.5t-16.5 -6.5t-16.5 6.5t-6.5 14.5q0 10 6.5 16t16.5 6z" />
<glyph unicode="&#xc5;" horiz-adv-x="633" d="M32 10l280 687q5 12 10 0l279 -688q4 -9 -4 -9h-6q-9 0 -11 6l-90 222h-346l-90 -222q-2 -6 -8 -6h-13q-4 0 -1 10zM313 642l-160 -393h328l-159 392q-5 12 -9 1zM389 808q0 -28 -19 -48t-51 -20t-50.5 20t-18.5 48t18.5 47.5t50.5 19.5t51 -19.5t19 -47.5zM319 758 q24 0 36 15t12 35q0 19 -12 33.5t-36 14.5q-23 0 -35 -14.5t-12 -33.5q0 -20 12 -35t35 -15z" />
<glyph unicode="&#xc6;" horiz-adv-x="1011" d="M525 6v232h-297l-158 -230q-5 -8 -13 -8h-9q-10 0 -4 8l3 3l462 678q7 11 13 11h333q7 0 7 -5v-9q0 -6 -5 -6h-307q-2 0 -2 -3v-298q0 -4 3 -4h306q5 0 5 -5v-9q0 -6 -6 -6h-305q-3 0 -3 -4v-327q0 -3 3 -3h307q4 0 4 -5v-11q0 -5 -7 -5h-324q-6 0 -6 6zM243 259h282v410 z" />
<glyph unicode="&#xc7;" horiz-adv-x="654" d="M92 349q0 -140 98.5 -238.5t237.5 -98.5q78 0 159 38q10 5 10 -2v-12q0 -5 -7 -8q-81 -37 -159 -38l-8 -15q-2 -5 1 -5q58 0 69 -47q5 -26 -9 -44t-40 -25q-13 -4 -32 -4q-29 0 -53 9q-6 2 -6 5v5q0 5 11 2q16 -5 53 -5q28 0 44 15.5t12 38.5q-8 39 -70 39q-7 0 -4 4 l15 28q-144 5 -244 108.5t-100 249.5q0 149 105 254.5t253 105.5q93 0 155 -36q14 -8 14 -14v-6q0 -5 -2 -5.5t-12 4.5q-47 22 -77 29.5t-78 7.5q-139 0 -237.5 -100t-98.5 -240z" />
<glyph unicode="&#xc8;" horiz-adv-x="517" d="M115 6v690q0 4 4 4h326q7 0 7 -5v-9q0 -6 -5 -6h-307q-2 0 -2 -3v-298q0 -4 3 -4h306q5 0 5 -5v-9q0 -6 -6 -6h-305q-3 0 -3 -4v-327q0 -3 3 -3h307q4 0 4 -5v-11q0 -5 -7 -5h-324q-6 0 -6 6zM275 734l-107 126q-1 1 0 2.5t3 1.5h14q4 0 8 -5l102 -123q2 -2 2 -4.5 t-2 -2.5h-10q-5 0 -10 5z" />
<glyph unicode="&#xc9;" horiz-adv-x="517" d="M115 6v690q0 4 4 4h326q7 0 7 -5v-9q0 -6 -5 -6h-307q-2 0 -2 -3v-298q0 -4 3 -4h306q5 0 5 -5v-9q0 -6 -6 -6h-305q-3 0 -3 -4v-327q0 -3 3 -3h307q4 0 4 -5v-11q0 -5 -7 -5h-324q-6 0 -6 6zM297 730h-10q-5 0 -2 5l81 103q4 6 10 6h12q8 0 2 -7l-84 -103q-3 -4 -9 -4z " />
<glyph unicode="&#xca;" horiz-adv-x="517" d="M115 6v690q0 4 4 4h326q7 0 7 -5v-9q0 -6 -5 -6h-307q-2 0 -2 -3v-298q0 -4 3 -4h306q5 0 5 -5v-9q0 -6 -6 -6h-305q-3 0 -3 -4v-327q0 -3 3 -3h307q4 0 4 -5v-11q0 -5 -7 -5h-324q-6 0 -6 6zM284 844h8q4 0 7 -3l95 -106q5 -5 -1 -5h-11q-5 0 -9 5l-82 85q-2 2 -3 2 t-3 -2l-82 -85q-4 -5 -9 -5h-11q-6 0 -1 5l95 106q3 3 7 3z" />
<glyph unicode="&#xcb;" horiz-adv-x="517" d="M115 6v690q0 4 4 4h326q7 0 7 -5v-9q0 -6 -5 -6h-307q-2 0 -2 -3v-298q0 -4 3 -4h306q5 0 5 -5v-9q0 -6 -6 -6h-305q-3 0 -3 -4v-327q0 -3 3 -3h307q4 0 4 -5v-11q0 -5 -7 -5h-324q-6 0 -6 6zM226 783q11 0 17.5 -6t6.5 -16q0 -8 -7 -14.5t-17 -6.5q-8 0 -15 6.5t-7 14.5 q0 9 6.5 15.5t15.5 6.5zM358 783q10 0 16.5 -6t6.5 -16q0 -8 -6.5 -14.5t-16.5 -6.5t-16.5 6.5t-6.5 14.5q0 10 6.5 16t16.5 6z" />
<glyph unicode="&#xcc;" horiz-adv-x="236" d="M133 0h-12q-6 0 -6 7v685q0 8 5 8h14q4 0 4 -9v-684q0 -7 -5 -7zM112 734l-107 126q-1 1 0 2.5t3 1.5h14q4 0 8 -5l102 -123q2 -2 2 -4.5t-2 -2.5h-10q-5 0 -10 5z" />
<glyph unicode="&#xcd;" horiz-adv-x="236" d="M125 0h-12q-6 0 -6 7v685q0 8 5 8h14q4 0 4 -9v-684q0 -7 -5 -7zM135 730h-10q-5 0 -2 5l81 103q4 6 10 6h12q8 0 2 -7l-84 -103q-3 -4 -9 -4z" />
<glyph unicode="&#xce;" horiz-adv-x="236" d="M133 0h-12q-6 0 -6 7v685q0 8 5 8h14q4 0 4 -9v-684q0 -7 -5 -7zM122 844h8q4 0 7 -3l95 -106q5 -5 -1 -5h-11q-5 0 -9 5l-82 85q-2 2 -3 2t-3 -2l-82 -85q-4 -5 -9 -5h-11q-6 0 -1 5l95 106q3 3 7 3z" />
<glyph unicode="&#xcf;" horiz-adv-x="236" d="M125 0h-12q-6 0 -6 7v685q0 8 5 8h14q4 0 4 -9v-684q0 -7 -5 -7zM52 783q11 0 17.5 -6t6.5 -16q0 -8 -7 -14.5t-17 -6.5q-8 0 -15 6.5t-7 14.5q0 9 6.5 15.5t15.5 6.5zM184 783q10 0 16.5 -6t6.5 -16q0 -8 -6.5 -14.5t-16.5 -6.5t-16.5 6.5t-6.5 14.5q0 10 6.5 16t16.5 6 z" />
<glyph unicode="&#xd0;" horiz-adv-x="639" d="M207 0h-112q-7 0 -7 8v338h-79q-6 0 -6 5v11q0 4 6 4h79v324q0 10 8 10h111q172 0 267 -101.5t95 -248.5t-95 -248.5t-267 -101.5zM110 677v-311h149q10 0 10 -5v-10q0 -5 -7 -5h-152v-322q0 -6 4 -6h83q165 0 256 95t91 235q0 144 -90 238t-257 94h-82q-5 0 -5 -3z" />
<glyph unicode="&#xd1;" horiz-adv-x="721" d="M606 694v-693q0 -8 -7 -1q-2 1 -3 3l-458 638v-634q0 -7 -4 -7h-15q-4 0 -4 6v687q0 5 2 6.5t4 1t3 -2.5l459 -638v634q0 6 4 6h15q4 0 4 -6zM414 740q-18 0 -49.5 20t-48.5 20q-15 0 -43 -32q-5 -5 -7 -3l-7 4q-4 3 -2 6q26 45 64 45q18 0 49.5 -19.5t48.5 -19.5 q26 0 42 29q4 7 8 5l7 -3q2 -1 2.5 -3.5t-0.5 -3.5q-26 -45 -64 -45z" />
<glyph unicode="&#xd2;" horiz-adv-x="859" d="M70 349q0 149 105.5 254.5t254.5 105.5q148 0 253.5 -105.5t105.5 -254.5t-105.5 -254t-253.5 -105q-149 0 -254.5 105t-105.5 254zM94 349q0 -140 98.5 -238.5t237.5 -98.5t237 98.5t98 238.5q0 141 -98 240.5t-237 99.5t-237.5 -100t-98.5 -240zM414 745l-107 126 q-1 1 0 2.5t3 1.5h14q4 0 8 -5l102 -123q2 -2 2 -4.5t-2 -2.5h-10q-5 0 -10 5z" />
<glyph unicode="&#xd3;" horiz-adv-x="859" d="M70 349q0 149 105.5 254.5t254.5 105.5q148 0 253.5 -105.5t105.5 -254.5t-105.5 -254t-253.5 -105q-149 0 -254.5 105t-105.5 254zM94 349q0 -140 98.5 -238.5t237.5 -98.5t237 98.5t98 238.5q0 141 -98 240.5t-237 99.5t-237.5 -100t-98.5 -240zM436 741h-10q-5 0 -2 5 l81 103q4 6 10 6h12q8 0 2 -7l-84 -103q-3 -4 -9 -4z" />
<glyph unicode="&#xd4;" horiz-adv-x="859" d="M70 349q0 149 105.5 254.5t254.5 105.5q148 0 253.5 -105.5t105.5 -254.5t-105.5 -254t-253.5 -105q-149 0 -254.5 105t-105.5 254zM94 349q0 -140 98.5 -238.5t237.5 -98.5t237 98.5t98 238.5q0 141 -98 240.5t-237 99.5t-237.5 -100t-98.5 -240zM423 855h8q4 0 7 -3 l95 -106q5 -5 -1 -5h-11q-5 0 -9 5l-82 85q-2 2 -3 2t-3 -2l-82 -85q-4 -5 -9 -5h-11q-6 0 -1 5l95 106q3 3 7 3z" />
<glyph unicode="&#xd5;" horiz-adv-x="859" d="M70 349q0 149 105.5 254.5t254.5 105.5q148 0 253.5 -105.5t105.5 -254.5t-105.5 -254t-253.5 -105q-149 0 -254.5 105t-105.5 254zM94 349q0 -140 98.5 -238.5t237.5 -98.5t237 98.5t98 238.5q0 141 -98 240.5t-237 99.5t-237.5 -100t-98.5 -240zM478 740 q-18 0 -49.5 20t-48.5 20q-15 0 -43 -32q-5 -5 -7 -3l-7 4q-4 3 -2 6q26 45 64 45q18 0 49.5 -19.5t48.5 -19.5q26 0 42 29q4 7 8 5l7 -3q2 -1 2.5 -3.5t-0.5 -3.5q-26 -45 -64 -45z" />
<glyph unicode="&#xd6;" horiz-adv-x="859" d="M70 349q0 149 105.5 254.5t254.5 105.5q148 0 253.5 -105.5t105.5 -254.5t-105.5 -254t-253.5 -105q-149 0 -254.5 105t-105.5 254zM94 349q0 -140 98.5 -238.5t237.5 -98.5t237 98.5t98 238.5q0 141 -98 240.5t-237 99.5t-237.5 -100t-98.5 -240zM365 794q11 0 17.5 -6 t6.5 -16q0 -8 -7 -14.5t-17 -6.5q-8 0 -15 6.5t-7 14.5q0 9 6.5 15.5t15.5 6.5zM497 794q10 0 16.5 -6t6.5 -16q0 -8 -6.5 -14.5t-16.5 -6.5t-16.5 6.5t-6.5 14.5q0 10 6.5 16t16.5 6z" />
<glyph unicode="&#xd7;" horiz-adv-x="528" d="M264 244l-207 -195l-15 15l206 194l-204 196l13 14l207 -194l206 193l15 -14l-206 -195l205 -193q-5 -4 -7.5 -8t-7.5 -7z" />
<glyph unicode="&#xd8;" horiz-adv-x="859" d="M607 765l-36 -86q98 -42 158 -131.5t60 -198.5q0 -149 -105.5 -254t-253.5 -105q-69 0 -133 25l-26 -63q-3 -7 -9 -7h-10q-8 0 -6 7l30 73q-93 43 -149.5 130.5t-56.5 193.5q0 149 105.5 254.5t254.5 105.5q58 0 119 -21l33 81q5 12 11 12h12q4 0 5 -0.5t0.5 -4 t-3.5 -11.5zM765 349q0 103 -55.5 187.5t-145.5 124.5l-259 -625q59 -24 125 -24q139 0 237 98.5t98 238.5zM94 349q0 -99 52 -180.5t138 -123.5l257 624q-54 20 -111 20q-139 0 -237.5 -100t-98.5 -240z" />
<glyph unicode="&#xd9;" horiz-adv-x="650" d="M523 234v460q0 6 4 6h15q4 0 4 -7v-462q0 -241 -215 -241q-216 0 -216 241v463q0 6 5 6h14q4 0 4 -8v-458q0 -224 193 -224q192 0 192 224zM316 745l-107 126q-1 1 0 2.5t3 1.5h14q4 0 8 -5l102 -123q2 -2 2 -4.5t-2 -2.5h-10q-5 0 -10 5z" />
<glyph unicode="&#xda;" horiz-adv-x="650" d="M523 234v460q0 6 4 6h15q4 0 4 -7v-462q0 -241 -215 -241q-216 0 -216 241v463q0 6 5 6h14q4 0 4 -8v-458q0 -224 193 -224q192 0 192 224zM338 741h-10q-5 0 -2 5l81 103q5 6 10 6h12q8 0 2 -7l-84 -103q-3 -4 -9 -4z" />
<glyph unicode="&#xdb;" horiz-adv-x="650" d="M523 234v460q0 6 4 6h15q4 0 4 -7v-462q0 -241 -215 -241q-216 0 -216 241v463q0 6 5 6h14q4 0 4 -8v-458q0 -224 193 -224q192 0 192 224zM325 855h8q4 0 7 -3l95 -106q5 -5 -1 -5h-11q-5 0 -9 5l-82 85q-2 2 -3 2t-3 -2l-82 -85q-4 -5 -9 -5h-11q-6 0 -1 5l95 106 q3 3 7 3z" />
<glyph unicode="&#xdc;" horiz-adv-x="650" d="M523 234v460q0 6 4 6h15q4 0 4 -7v-462q0 -241 -215 -241q-216 0 -216 241v463q0 6 5 6h14q4 0 4 -8v-458q0 -224 193 -224q192 0 192 224zM267 794q11 0 17.5 -6t6.5 -16q0 -8 -7 -14.5t-17 -6.5q-8 0 -15 6.5t-7 14.5q0 9 6.5 15.5t15.5 6.5zM399 794q10 0 16.5 -6 t6.5 -16q0 -8 -6.5 -14.5t-16.5 -6.5t-16.5 6.5t-6.5 14.5q0 10 6.5 16t16.5 6z" />
<glyph unicode="&#xdd;" horiz-adv-x="513" d="M265 0h-14q-5 0 -5 12v357q0 19 -5 25l-215 297q-5 9 1 9h14q4 0 8 -7l199 -271q7 -13 9.5 -13t8.5 11l196 272q5 8 10 8h14q6 0 1 -8l-213 -299q-5 -7 -5 -27v-355q0 -11 -4 -11zM253 746h-10q-5 0 -2 5l81 103q4 6 10 6h12q8 0 2 -7l-84 -103q-3 -4 -9 -4z" />
<glyph unicode="&#xde;" horiz-adv-x="540" d="M133 0h-14q-4 0 -4 7v685q0 8 5 8h14q4 0 4 -9v-139h107q225 0 225 -172q0 -175 -225 -175h-96q-11 0 -11 -9v-189q0 -7 -5 -7zM138 519v-285q0 -7 9 -7h95q103 0 154 36.5t51 116.5t-51.5 115.5t-155.5 35.5h-95q-7 0 -7 -12z" />
<glyph unicode="&#xdf;" horiz-adv-x="626" d="M125 0h-9q-6 0 -6 10v518q0 87 53 131t127 44q76 0 128.5 -45t52.5 -122q0 -59 -31.5 -106t-86.5 -71q30 -11 53 -22t53 -29.5t49.5 -38t33.5 -48.5t14 -61q0 -72 -63.5 -116t-183.5 -44h-15q-10 0 -10 7v7q0 6 14 6h15q94 0 157 35t63 102q0 103 -156 170 q-5 2 -15.5 6.5t-15 6.5t-10.5 5.5t-8.5 7t-2.5 7.5q0 6 5 10.5t18 11.5t21 13q79 56 79 140q0 66 -43.5 107t-118.5 41q-60 0 -107 -37.5t-47 -117.5v-512q0 -16 -7 -16z" />
<glyph unicode="&#xe0;" horiz-adv-x="559" d="M440 0q-3 0 -3 3v38q-82 -51 -185 -51q-74 0 -118 37.5t-44 95.5q0 61 50 96.5t123 35.5q99 0 174 -40v96q0 75 -40 109t-106 34q-95 0 -151 -22q-3 -3 -5.5 -2t-2.5 4v13l4 6q74 22 154 22q75 0 122 -39.5t47 -124.5v-306q0 -5 -4 -5h-15zM113 123q0 -50 37 -81.5 t97 -31.5q51 0 103 14.5t87 38.5v129q-69 43 -180 43q-60 0 -102 -30.5t-42 -81.5zM274 557l-107 126q-1 1 0 2.5t3 1.5h14q4 0 8 -5l102 -123q2 -2 2 -4.5t-2 -2.5h-10q-5 0 -10 5z" />
<glyph unicode="&#xe1;" horiz-adv-x="559" d="M440 0q-3 0 -3 3v38q-82 -51 -185 -51q-74 0 -118 37.5t-44 95.5q0 61 50 96.5t123 35.5q99 0 174 -40v96q0 75 -40 109t-106 34q-95 0 -151 -22q-3 -3 -5.5 -2t-2.5 4v13l4 6q74 22 154 22q75 0 122 -39.5t47 -124.5v-306q0 -5 -4 -5h-15zM113 123q0 -50 37 -81.5 t97 -31.5q51 0 103 14.5t87 38.5v129q-69 43 -180 43q-60 0 -102 -30.5t-42 -81.5zM296 553h-10q-5 0 -2 5l81 103q5 6 10 6h12q8 0 2 -7l-84 -103q-3 -4 -9 -4z" />
<glyph unicode="&#xe2;" horiz-adv-x="559" d="M440 0q-3 0 -3 3v38q-82 -51 -185 -51q-74 0 -118 37.5t-44 95.5q0 61 50 96.5t123 35.5q99 0 174 -40v96q0 75 -40 109t-106 34q-95 0 -151 -22q-3 -3 -5.5 -2t-2.5 4v13l4 6q74 22 154 22q75 0 122 -39.5t47 -124.5v-306q0 -5 -4 -5h-15zM113 123q0 -50 37 -81.5 t97 -31.5q51 0 103 14.5t87 38.5v129q-69 43 -180 43q-60 0 -102 -30.5t-42 -81.5zM283 667h8q4 0 7 -3l95 -106q5 -5 -1 -5h-11q-5 0 -9 5l-82 85q-2 2 -3 2t-3 -2l-82 -85q-4 -5 -9 -5h-11q-6 0 -1 5l95 106q3 3 7 3z" />
<glyph unicode="&#xe3;" horiz-adv-x="559" d="M440 0q-3 0 -3 3v38q-82 -51 -185 -51q-74 0 -118 37.5t-44 95.5q0 61 50 96.5t123 35.5q99 0 174 -40v96q0 75 -40 109t-106 34q-95 0 -151 -22q-3 -3 -5.5 -2t-2.5 4v13l4 6q74 22 154 22q75 0 122 -39.5t47 -124.5v-306q0 -5 -4 -5h-15zM113 123q0 -50 37 -81.5 t97 -31.5q51 0 103 14.5t87 38.5v129q-69 43 -180 43q-60 0 -102 -30.5t-42 -81.5zM338 552q-18 0 -49.5 20t-48.5 20q-15 0 -43 -32q-5 -5 -7 -3l-7 4q-4 3 -2 6q26 45 64 45q18 0 49.5 -19.5t48.5 -19.5q26 0 42 29q4 7 8 5l7 -3q2 -1 2.5 -3.5t-0.5 -3.5q-26 -45 -64 -45 z" />
<glyph unicode="&#xe4;" horiz-adv-x="559" d="M440 0q-3 0 -3 3v38q-82 -51 -185 -51q-74 0 -118 37.5t-44 95.5q0 61 50 96.5t123 35.5q99 0 174 -40v96q0 75 -40 109t-106 34q-95 0 -151 -22q-3 -3 -5.5 -2t-2.5 4v13l4 6q74 22 154 22q75 0 122 -39.5t47 -124.5v-306q0 -5 -4 -5h-15zM113 123q0 -50 37 -81.5 t97 -31.5q51 0 103 14.5t87 38.5v129q-69 43 -180 43q-60 0 -102 -30.5t-42 -81.5zM225 606q11 0 17.5 -6t6.5 -16q0 -8 -7 -14.5t-17 -6.5q-8 0 -15 6.5t-7 14.5q0 9 6.5 15.5t15.5 6.5zM357 606q10 0 16.5 -6t6.5 -16q0 -8 -6.5 -14.5t-16.5 -6.5t-16.5 6.5t-6.5 14.5 q0 10 6.5 16t16.5 6z" />
<glyph unicode="&#xe5;" horiz-adv-x="559" d="M440 0q-3 0 -3 3v38q-82 -51 -185 -51q-74 0 -118 37.5t-44 95.5q0 61 50 96.5t123 35.5q99 0 174 -40v96q0 75 -40 109t-106 34q-95 0 -151 -22q-3 -3 -5.5 -2t-2.5 4v13l4 6q74 22 154 22q75 0 122 -39.5t47 -124.5v-306q0 -5 -4 -5h-15zM113 123q0 -50 37 -81.5 t97 -31.5q51 0 103 14.5t87 38.5v129q-69 43 -180 43q-60 0 -102 -30.5t-42 -81.5zM360 631q0 -28 -19 -48t-51 -20t-50.5 20t-18.5 48t18.5 47.5t50.5 19.5t51 -19.5t19 -47.5zM290 581q24 0 36 15t12 35q0 19 -12 33.5t-36 14.5q-23 0 -35 -14.5t-12 -33.5q0 -20 12 -35 t35 -15z" />
<glyph unicode="&#xe6;" horiz-adv-x="931" d="M461 226q0 -90 49 -152.5t159 -62.5q96 0 173 33q7 2 7 -4v-9q0 -6 -4 -8q-79 -33 -177 -33q-127 0 -187 82q-103 -82 -229 -82q-74 0 -118 37.5t-44 95.5q0 61 50 96.5t123 35.5q99 0 174 -40v96q0 75 -40 109t-106 34q-95 0 -151 -22q-3 -3 -5.5 -2t-2.5 4v13l4 6 q74 22 154 22q70 0 116 -34.5t52 -108.5q25 66 79 104.5t120 38.5q94 0 157 -62t63 -164q0 -6 -7 -6h-409v-17zM113 123q0 -50 37 -81.5t97 -31.5t121.5 22.5t100.5 59.5q-23 42 -28 98q-70 45 -184 45q-60 0 -102 -30.5t-42 -81.5zM657 455q-75 0 -129 -54t-65 -138h391 q-5 82 -60.5 137t-136.5 55z" />
<glyph unicode="&#xe7;" horiz-adv-x="493" d="M83 231q0 -91 64.5 -155.5t155.5 -64.5q70 0 130 36q6 3 6 -4v-12q0 -5 -4 -8q-51 -32 -127 -34l-11 -19q-2 -5 1 -5q58 0 69 -47q5 -26 -9 -44t-40 -25q-13 -4 -32 -4q-29 0 -53 9q-6 2 -6 5v5q0 5 11 2q16 -5 53 -5q28 0 44 15.5t12 38.5q-8 39 -70 39q-7 0 -4 4l17 32 q-96 5 -163 74.5t-67 166.5q0 101 71 172t172 71q60 0 130 -33q6 -4 6 -8v-12q0 -8 -8 -4q-66 35 -128 35q-91 0 -155.5 -64.5t-64.5 -156.5z" />
<glyph unicode="&#xe8;" d="M498 249q0 -6 -7 -6h-409v-17q0 -90 49 -152.5t159 -62.5q69 0 143 37q7 4 7 -4v-9q0 -6 -4 -8q-72 -37 -147 -37q-118 0 -173.5 66t-55.5 169q0 111 63.5 180.5t155.5 69.5q93 0 156 -62t63 -164zM279 455q-75 0 -129.5 -53.5t-65.5 -137.5h391q-5 83 -59 137t-137 54z M262 557l-107 126q-1 1 0 2.5t3 1.5h14q4 0 8 -5l102 -123q2 -2 2 -4.5t-2 -2.5h-10q-5 0 -10 5z" />
<glyph unicode="&#xe9;" d="M498 249q0 -6 -7 -6h-409v-17q0 -90 49 -152.5t159 -62.5q69 0 143 37q7 4 7 -4v-9q0 -6 -4 -8q-72 -37 -147 -37q-118 0 -173.5 66t-55.5 169q0 111 63.5 180.5t155.5 69.5q93 0 156 -62t63 -164zM279 455q-75 0 -129.5 -53.5t-65.5 -137.5h391q-5 83 -59 137t-137 54z M284 553h-10q-5 0 -2 5l81 103q5 6 10 6h12q8 0 2 -7l-84 -103q-3 -4 -9 -4z" />
<glyph unicode="&#xea;" d="M498 249q0 -6 -7 -6h-409v-17q0 -90 49 -152.5t159 -62.5q69 0 143 37q7 4 7 -4v-9q0 -6 -4 -8q-72 -37 -147 -37q-118 0 -173.5 66t-55.5 169q0 111 63.5 180.5t155.5 69.5q93 0 156 -62t63 -164zM279 455q-75 0 -129.5 -53.5t-65.5 -137.5h391q-5 83 -59 137t-137 54z M271 667h8q4 0 7 -3l95 -106q5 -5 -1 -5h-11q-5 0 -9 5l-82 85q-2 2 -3 2t-3 -2l-82 -85q-4 -5 -9 -5h-11q-6 0 -1 5l95 106q3 3 7 3z" />
<glyph unicode="&#xeb;" d="M498 249q0 -6 -7 -6h-409v-17q0 -90 49 -152.5t159 -62.5q69 0 143 37q7 4 7 -4v-9q0 -6 -4 -8q-72 -37 -147 -37q-118 0 -173.5 66t-55.5 169q0 111 63.5 180.5t155.5 69.5q93 0 156 -62t63 -164zM279 455q-75 0 -129.5 -53.5t-65.5 -137.5h391q-5 83 -59 137t-137 54z M213 606q11 0 17.5 -6t6.5 -16q0 -8 -7 -14.5t-17 -6.5q-8 0 -15 6.5t-7 14.5q0 9 6.5 15.5t15.5 6.5zM345 606q10 0 16.5 -6t6.5 -16q0 -8 -6.5 -14.5t-16.5 -6.5t-16.5 6.5t-6.5 14.5q0 10 6.5 16t16.5 6z" />
<glyph unicode="&#xec;" horiz-adv-x="222" d="M122 457v-450q0 -7 -5 -7h-11q-6 0 -6 6v450q0 6 1.5 7.5t7.5 1.5h6q7 0 7 -8zM97 557l-107 126q-1 1 0 2.5t3 1.5h14q4 0 8 -5l102 -123q2 -2 2 -4.5t-2 -2.5h-10q-5 0 -10 5z" />
<glyph unicode="&#xed;" horiz-adv-x="222" d="M122 457v-450q0 -7 -5 -7h-11q-6 0 -6 6v450q0 6 1.5 7.5t7.5 1.5h6q7 0 7 -8zM119 553h-10q-5 0 -2 5l81 103q4 6 10 6h12q8 0 2 -7l-84 -103q-3 -4 -9 -4z" />
<glyph unicode="&#xee;" horiz-adv-x="222" d="M122 457v-450q0 -7 -5 -7h-11q-6 0 -6 6v450q0 6 1.5 7.5t7.5 1.5h6q7 0 7 -8zM106 667h8q4 0 7 -3l95 -106q5 -5 -1 -5h-11q-5 0 -9 5l-82 85q-2 2 -3 2t-3 -2l-82 -85q-4 -5 -9 -5h-11q-6 0 -1 5l95 106q3 3 7 3z" />
<glyph unicode="&#xef;" horiz-adv-x="222" d="M122 457v-450q0 -7 -5 -7h-11q-6 0 -6 6v450q0 6 1.5 7.5t7.5 1.5h6q7 0 7 -8zM48 606q11 0 17.5 -6t6.5 -16q0 -8 -7 -14.5t-17 -6.5q-8 0 -15 6.5t-7 14.5q0 9 6.5 15.5t15.5 6.5zM180 606q10 0 16.5 -6t6.5 -16q0 -8 -6.5 -14.5t-16.5 -6.5t-16.5 6.5t-6.5 14.5 q0 10 6.5 16t16.5 6z" />
<glyph unicode="&#xf0;" horiz-adv-x="548" d="M438 414l-112 201l-64 -46q-6 -4 -12 0l-5 3q-4 2 -5 3t-0.5 2t4.5 4l72 52l-32 57q-4 9 -2 9q1 1 6 1h6q9 0 14 -10l25 -45l50 36l3.5 3.5t3.5 3t4.5 1.5t5.5 -2l7 -4q4 -2 4.5 -4t-0.5 -3t-4 -2.5t-4 -2.5l-60 -44l115 -204q59 -102 59 -193q0 -121 -60.5 -180.5 t-157.5 -59.5t-158 60t-61 181t61 183.5t151 62.5q94 0 146 -63zM493 231q0 92 -56.5 159t-143.5 67q-80 0 -134.5 -57t-54.5 -168t55 -166.5t139 -55.5q88 0 141.5 55t53.5 166z" />
<glyph unicode="&#xf1;" horiz-adv-x="573" d="M122 460v-60q67 75 173 75q87 0 132.5 -43.5t45.5 -140.5v-285q0 -6 -5 -6h-11q-6 0 -6 6v285q0 164 -154 164q-100 0 -175 -83v-367q0 -5 -4 -5h-14q-4 0 -4 6v453q0 6 5 6h11q6 0 6 -5zM338 552q-18 0 -49.5 20t-48.5 20q-15 0 -43 -32q-5 -5 -7 -3l-7 4q-4 3 -2 6 q26 45 64 45q18 0 49.5 -19.5t48.5 -19.5q26 0 42 29q4 7 8 5l7 -3q2 -1 2.5 -3.5t-0.5 -3.5q-26 -45 -64 -45z" />
<glyph unicode="&#xf2;" horiz-adv-x="604" d="M60 232q0 101 71 172t171 71t171 -71t71 -172q0 -100 -71 -171t-171 -71t-171 71t-71 171zM82 232q0 -92 64 -156t156 -64t156 64t64 156t-64.5 156.5t-155.5 64.5t-155.5 -64.5t-64.5 -156.5zM290 557l-107 126q-1 1 0 2.5t3 1.5h14q4 0 8 -5l102 -123q2 -2 2 -4.5 t-2 -2.5h-10q-5 0 -10 5z" />
<glyph unicode="&#xf3;" horiz-adv-x="604" d="M60 232q0 101 71 172t171 71t171 -71t71 -172q0 -100 -71 -171t-171 -71t-171 71t-71 171zM82 232q0 -92 64 -156t156 -64t156 64t64 156t-64.5 156.5t-155.5 64.5t-155.5 -64.5t-64.5 -156.5zM312 553h-10q-5 0 -2 5l81 103q5 6 10 6h12q8 0 2 -7l-84 -103q-3 -4 -9 -4z " />
<glyph unicode="&#xf4;" horiz-adv-x="604" d="M60 232q0 101 71 172t171 71t171 -71t71 -172q0 -100 -71 -171t-171 -71t-171 71t-71 171zM82 232q0 -92 64 -156t156 -64t156 64t64 156t-64.5 156.5t-155.5 64.5t-155.5 -64.5t-64.5 -156.5zM299 667h8q4 0 7 -3l95 -106q5 -5 -1 -5h-11q-5 0 -9 5l-82 85q-2 2 -3 2 t-3 -2l-82 -85q-4 -5 -9 -5h-11q-6 0 -1 5l95 106q3 3 7 3z" />
<glyph unicode="&#xf5;" horiz-adv-x="604" d="M60 232q0 101 71 172t171 71t171 -71t71 -172q0 -100 -71 -171t-171 -71t-171 71t-71 171zM82 232q0 -92 64 -156t156 -64t156 64t64 156t-64.5 156.5t-155.5 64.5t-155.5 -64.5t-64.5 -156.5zM354 552q-18 0 -49.5 20t-48.5 20q-15 0 -43 -32q-5 -5 -7 -3l-7 4 q-4 3 -2 6q26 45 64 45q18 0 49.5 -19.5t48.5 -19.5q26 0 42 29q4 7 8 5l7 -3q2 -1 2.5 -3.5t-0.5 -3.5q-26 -45 -64 -45z" />
<glyph unicode="&#xf6;" horiz-adv-x="604" d="M60 232q0 101 71 172t171 71t171 -71t71 -172q0 -100 -71 -171t-171 -71t-171 71t-71 171zM82 232q0 -92 64 -156t156 -64t156 64t64 156t-64.5 156.5t-155.5 64.5t-155.5 -64.5t-64.5 -156.5zM241 606q11 0 17.5 -6t6.5 -16q0 -8 -7 -14.5t-17 -6.5q-8 0 -15 6.5 t-7 14.5q0 9 6.5 15.5t15.5 6.5zM373 606q10 0 16.5 -6t6.5 -16q0 -8 -6.5 -14.5t-16.5 -6.5t-16.5 6.5t-6.5 14.5q0 10 6.5 16t16.5 6z" />
<glyph unicode="&#xf7;" horiz-adv-x="384" d="M194 477q11 0 17.5 -6t6.5 -16q0 -8 -7 -14.5t-17 -6.5t-16 6t-6 15q0 22 22 22zM194 38q11 0 17.5 -6t6.5 -16q0 -8 -7 -14.5t-17 -6.5q-9 0 -15.5 6.5t-6.5 14.5q0 10 6.5 16t15.5 6zM388 233h-394v20h394v-20z" />
<glyph unicode="&#xf8;" horiz-adv-x="604" d="M436 523l-30 -72q62 -30 100 -89t38 -130q0 -100 -71 -171t-171 -71q-42 0 -81 14l-27 -67q-3 -7 -9 -7h-10q-8 0 -6 7l31 75q-63 30 -101.5 89t-38.5 131q0 101 71 172t171 71q43 0 82 -15l27 67q5 12 11 12h12q4 0 5 -0.5t0.5 -4t-3.5 -11.5zM82 232q0 -66 34.5 -119.5 t91.5 -80.5l167 408q-37 13 -73 13q-91 0 -155.5 -64.5t-64.5 -156.5zM522 232q0 64 -34 118t-90 81l-168 -407q33 -12 72 -12q92 0 156 64t64 156z" />
<glyph unicode="&#xf9;" d="M276 -10q-91 0 -138.5 50.5t-47.5 163.5v255q0 6 4 6h13q5 0 5 -6v-255q0 -194 164 -194t164 194v255q0 6 5 6h13q4 0 4 -6v-255q0 -113 -47.5 -163.5t-138.5 -50.5zM262 557l-107 126q-1 1 0 2.5t3 1.5h14q4 0 8 -5l102 -123q2 -2 2 -4.5t-2 -2.5h-10q-5 0 -10 5z" />
<glyph unicode="&#xfa;" d="M276 -10q-91 0 -138.5 50.5t-47.5 163.5v255q0 6 4 6h13q5 0 5 -6v-255q0 -194 164 -194t164 194v255q0 6 5 6h13q4 0 4 -6v-255q0 -113 -47.5 -163.5t-138.5 -50.5zM284 553h-10q-5 0 -2 5l81 103q5 6 10 6h12q8 0 2 -7l-84 -103q-3 -4 -9 -4z" />
<glyph unicode="&#xfb;" d="M276 -10q-91 0 -138.5 50.5t-47.5 163.5v255q0 6 4 6h13q5 0 5 -6v-255q0 -194 164 -194t164 194v255q0 6 5 6h13q4 0 4 -6v-255q0 -113 -47.5 -163.5t-138.5 -50.5zM271 667h8q4 0 7 -3l95 -106q5 -5 -1 -5h-11q-5 0 -9 5l-82 85q-2 2 -3 2t-3 -2l-82 -85q-4 -5 -9 -5 h-11q-6 0 -1 5l95 106q3 3 7 3z" />
<glyph unicode="&#xfc;" d="M276 -10q-91 0 -138.5 50.5t-47.5 163.5v255q0 6 4 6h13q5 0 5 -6v-255q0 -194 164 -194t164 194v255q0 6 5 6h13q4 0 4 -6v-255q0 -113 -47.5 -163.5t-138.5 -50.5zM213 606q11 0 17.5 -6t6.5 -16q0 -8 -7 -14.5t-17 -6.5q-8 0 -15 6.5t-7 14.5q0 9 6.5 15.5t15.5 6.5z M345 606q10 0 16.5 -6t6.5 -16q0 -8 -6.5 -14.5t-16.5 -6.5t-16.5 6.5t-6.5 14.5q0 10 6.5 16t16.5 6z" />
<glyph unicode="&#xfd;" horiz-adv-x="455" d="M433 455l-271 -640q-2 -5 -9 -5h-8q-6 0 -4 6l83 198l-188 445q-3 6 3 6h12q5 0 8 -6l176 -419l174 415q4 10 9 10h13q6 0 2 -10zM242 553h-10q-5 0 -2 5l81 103q5 6 10 6h12q8 0 2 -7l-84 -103q-3 -4 -9 -4z" />
<glyph unicode="&#xfe;" horiz-adv-x="593" d="M133 720v-319q70 74 180 74q91 0 155.5 -67.5t64.5 -177.5t-67.5 -175t-152.5 -65q-112 0 -180 70v-221q0 -6 -6 -6h-12q-5 0 -5 6v882q0 7 5 7h13q5 0 5 -8zM509 230q0 97 -57 160t-140 63q-111 0 -179 -81v-282q65 -79 179 -79q77 0 137 60.5t60 158.5z" />
<glyph unicode="&#xff;" horiz-adv-x="455" d="M433 455l-271 -640q-2 -5 -9 -5h-8q-6 0 -4 6l83 198l-188 445q-3 6 3 6h12q5 0 8 -6l176 -419l174 415q4 10 9 10h13q6 0 2 -10zM171 606q11 0 17.5 -6t6.5 -16q0 -8 -7 -14.5t-17 -6.5q-8 0 -15 6.5t-7 14.5q0 9 6.5 15.5t15.5 6.5zM303 606q10 0 16.5 -6t6.5 -16 q0 -8 -6.5 -14.5t-16.5 -6.5t-16.5 6.5t-6.5 14.5q0 10 6.5 16t16.5 6z" />
<glyph unicode="&#x152;" horiz-adv-x="987" d="M593 6v22q-74 -38 -169 -38q-157 0 -255.5 101t-98.5 259t98.5 259t255.5 101q93 0 169 -39v25q0 4 4 4h326q7 0 7 -5v-9q0 -6 -5 -6h-307q-2 0 -2 -3v-298q0 -4 3 -4h306q5 0 5 -5v-9q0 -6 -6 -6h-305q-3 0 -3 -4v-327q0 -3 3 -3h307q4 0 4 -5v-11q0 -5 -7 -5h-324 q-6 0 -6 6zM94 350q0 -123 65 -211.5t173 -116.5q46 -11 92 -11q94 0 169 42v593q-76 43 -169 43q-46 0 -92 -11q-108 -28 -173 -116.5t-65 -211.5z" />
<glyph unicode="&#x153;" horiz-adv-x="999" d="M529 226q0 -90 49 -152.5t159 -62.5q69 0 143 37q7 4 7 -4v-9q0 -6 -4 -8q-72 -37 -147 -37q-96 0 -151 45t-71 119q-24 -72 -87 -118t-142 -46q-101 0 -171.5 71t-70.5 171q0 101 71 172t171 71q81 0 144.5 -48.5t86.5 -124.5q21 80 78.5 126.5t131.5 46.5q93 0 156 -62 t63 -164q0 -6 -7 -6h-409v-17zM65 232q0 -92 64.5 -156t155.5 -64t155.5 64t64.5 156t-64.5 156.5t-155.5 64.5t-155.5 -64.5t-64.5 -156.5zM726 455q-75 0 -129.5 -53.5t-65.5 -137.5h391q-5 83 -59 137t-137 54z" />
<glyph unicode="&#x178;" horiz-adv-x="513" d="M265 0h-14q-5 0 -5 12v357q0 19 -5 25l-215 297q-5 9 1 9h14q4 0 8 -7l199 -271q7 -13 9.5 -13t8.5 11l196 272q5 8 10 8h14q6 0 1 -8l-213 -299q-5 -7 -5 -27v-355q0 -11 -4 -11zM192 799q11 0 17.5 -6t6.5 -16q0 -8 -7 -14.5t-17 -6.5q-8 0 -15 6.5t-7 14.5 q0 9 6.5 15.5t15.5 6.5zM324 799q10 0 16.5 -6t6.5 -16q0 -8 -6.5 -14.5t-16.5 -6.5t-16.5 6.5t-6.5 14.5q0 10 6.5 16t16.5 6z" />
<glyph unicode="&#x2c6;" horiz-adv-x="220" d="M104 844h8q4 0 7 -3l95 -106q5 -5 -1 -5h-11q-5 0 -9 5l-82 85q-2 2 -3 2t-3 -2l-82 -85q-4 -5 -9 -5h-11q-6 0 -1 5l95 106q3 3 7 3z" />
<glyph unicode="&#x2dc;" horiz-adv-x="271" d="M181 725q-18 0 -49.5 20t-48.5 20q-15 0 -43 -32q-5 -5 -7 -3l-7 4q-4 2 -2 6q26 45 64 45q18 0 49.5 -19.5t48.5 -19.5q26 0 42 29q4 7 8 5l7 -3q2 -1 2.5 -3.5t-0.5 -3.5q-26 -45 -64 -45z" />
<glyph unicode="&#x2000;" horiz-adv-x="437" />
<glyph unicode="&#x2001;" horiz-adv-x="875" />
<glyph unicode="&#x2002;" horiz-adv-x="437" />
<glyph unicode="&#x2003;" horiz-adv-x="875" />
<glyph unicode="&#x2004;" horiz-adv-x="291" />
<glyph unicode="&#x2005;" horiz-adv-x="218" />
<glyph unicode="&#x2006;" horiz-adv-x="145" />
<glyph unicode="&#x2007;" horiz-adv-x="145" />
<glyph unicode="&#x2008;" horiz-adv-x="109" />
<glyph unicode="&#x2009;" horiz-adv-x="175" />
<glyph unicode="&#x200a;" horiz-adv-x="48" />
<glyph unicode="&#x2010;" horiz-adv-x="236" d="M209 226h-183q-6 0 -6 5v11q0 4 6 4h180q10 0 10 -5v-10q0 -5 -7 -5z" />
<glyph unicode="&#x2011;" horiz-adv-x="236" d="M209 226h-183q-6 0 -6 5v11q0 4 6 4h180q10 0 10 -5v-10q0 -5 -7 -5z" />
<glyph unicode="&#x2012;" horiz-adv-x="236" d="M209 226h-183q-6 0 -6 5v11q0 4 6 4h180q10 0 10 -5v-10q0 -5 -7 -5z" />
<glyph unicode="&#x2013;" horiz-adv-x="437" d="M433 206h-428q-5 0 -5 3v13q0 4 7 4h426q4 0 4 -4v-12q0 -4 -4 -4z" />
<glyph unicode="&#x2014;" horiz-adv-x="1052" d="M895 206h-737q-5 0 -5 5v10q0 5 5 5h737q5 0 5 -5v-11q0 -4 -5 -4z" />
<glyph unicode="&#x2018;" horiz-adv-x="241" d="M150 700h7q4 0 1 -8l-52 -131q-4 -8 -7 -8h-14q-6 0 -1 10l59 131q3 6 7 6z" />
<glyph unicode="&#x2019;" horiz-adv-x="241" d="M96 553h-11q-4 0 -2 7l52 132q4 8 8 8h11q8 0 5 -6l-57 -133q-4 -8 -6 -8z" />
<glyph unicode="&#x201a;" horiz-adv-x="207" d="M61 -122h-8q-4 0 -2 7l45 155q2 5 6 5h13q6 0 4 -8l-52 -153q-2 -6 -6 -6z" />
<glyph unicode="&#x201c;" horiz-adv-x="321" d="M146 700h10q4 0 2 -6l-52 -133q-3 -8 -8 -8h-12q-5 0 -3 5l59 138q2 4 4 4zM227 700h9q4 0 2 -7l-53 -135q-2 -5 -6 -5h-13q-6 0 -3 7l59 135q2 5 5 5z" />
<glyph unicode="&#x201d;" horiz-adv-x="321" d="M172 553h-7q-5 0 -3 5l54 137q2 5 6 5h13q7 0 4 -5l-62 -138q-2 -4 -5 -4zM92 553h-8q-3 0 -2 4l54 138q2 5 5 5h15q6 0 3 -5l-62 -139q-1 -3 -5 -3z" />
<glyph unicode="&#x201e;" horiz-adv-x="349" d="M73 -122h-11q-4 0 -2 6l41 154q1 7 7 7h18q5 0 3 -7l-52 -156q-2 -4 -4 -4zM214 -122h-10q-5 0 -3 5l41 156q2 6 6 6h18q7 0 4 -8l-51 -153q-3 -6 -5 -6z" />
<glyph unicode="&#x2022;" horiz-adv-x="311" d="M155 320q31 0 52.5 -21t21.5 -52q0 -29 -21.5 -50t-52.5 -21q-30 0 -50.5 21t-20.5 50q0 31 20.5 52t50.5 21z" />
<glyph unicode="&#x2026;" horiz-adv-x="651" d="M108 31q16 0 16 -16q0 -15 -16 -15q-15 0 -15 15q0 16 15 16zM325 31q16 0 16 -16q0 -15 -16 -15q-15 0 -15 15q0 16 15 16zM542 31q16 0 16 -16q0 -15 -16 -15q-15 0 -15 15q0 16 15 16z" />
<glyph unicode="&#x202f;" horiz-adv-x="175" />
<glyph unicode="&#x2039;" horiz-adv-x="343" d="M259 426l-146 -181q-1 -1 0 -4l146 -182q2 -2 2.5 -4t-0.5 -3l-2 -2q-2 -2 -5 1l-169 186q-5 5 1 13l168 184q3 4 6 1l1 -1q2 -2 -2 -8z" />
<glyph unicode="&#x203a;" horiz-adv-x="343" d="M230 245l-146 181q-5 5 -2 8l2 2q2 2 6 -2l166 -183q7 -9 1 -15l-165 -182q-6 -6 -8 -4l-2 2q-1 1 5 11l143 177q2 3 0 5z" />
<glyph unicode="&#x205f;" horiz-adv-x="218" />
<glyph unicode="&#x20ac;" horiz-adv-x="822" d="M193 349q0 -41 9 -78h370q4 0 5.5 -1t0.5 -4l-5 -10q-1 -4 -7 -4h-359q31 -106 120 -173t202 -67q78 0 159 38q10 5 10 -2v-12q0 -5 -7 -8q-86 -38 -162 -38q-123 0 -218 73.5t-127 188.5h-125q-11 0 -12 2q0 1 1 2l7 12q1 3 7 3h117q-8 40 -8 78q0 16 1 25h-114 q-3 0 -5 0.5t-3.5 2t0.5 3.5l4 6q4 7 12 7h107q17 134 118.5 225t237.5 91q93 0 155 -36q14 -8 14 -14v-6q0 -5 -2 -5.5t-12 4.5q-47 22 -77 29.5t-78 7.5q-127 0 -222 -85.5t-111 -210.5h445q9 0 5 -7l-4 -8q-2 -4 -7 -4h-441q-1 -8 -1 -25z" />
<glyph unicode="&#x2122;" horiz-adv-x="967" d="M623 319h-9q-5 0 -7 5l-123 338q-3 8 -5 1l-79 -338q-2 -6 -4 -6h-12q-4 0 -3 6l83 370q1 5 5 5h17q5 0 7 -6l123 -342q2 -7 4 -2l122 345q2 5 7 5h15q5 0 6 -4l85 -374q0 -3 -3 -3h-12q-4 0 -5 4l-81 344q-1 3 -3 -2l-123 -340q-2 -6 -5 -6zM250 320h-14q-3 0 -3 5v354 q0 2 -3 2h-118q-6 0 -6 4v11q0 4 4 4h265q6 0 6 -5v-9q0 -5 -5 -5h-120q-2 0 -2 -3v-352q0 -6 -4 -6z" />
<glyph unicode="&#xfb03;" horiz-adv-x="936" d="M828 457v-450q0 -7 -5 -7h-11q-6 0 -6 6v439h-278q-5 0 -6 -1.5t-1 -8.5v-427q0 -8 -7 -8h-9q-6 0 -6 9v430q0 4 -1 5t-6 1h-290q-5 0 -6 -1.5t-1 -8.5v-427q0 -8 -7 -8h-9q-6 0 -6 9v430q0 4 -1 5t-6 1h-119q-7 0 -7 6v8q0 6 6 6h120q7 0 7 5v130q0 82 25.5 116t81.5 34 q43 0 76 -19q5 -3 5 -8v-9q0 -8 -7 -3q-32 19 -74 19q-47 0 -66 -30.5t-19 -99.5v-128q0 -7 5 -7h292q7 0 7 5v130q0 82 25.5 116t81.5 34q43 0 76 -19q5 -3 5 -8v-9q0 -8 -7 -3q-32 19 -74 19q-47 0 -66 -30.5t-19 -99.5v-128q0 -7 5 -7h295q7 0 7 -8zM818 667q21 0 21 -22 q0 -20 -21 -20t-21 20q0 22 21 22z" />
</font>
</defs>
</svg>
